M48
; DRILL file {KiCad 9.0.6} date 2026-01-10T22:08:29+0100
; FORMAT={-:-/ absolute / inch / decimal}
; #@! TF.CreationDate,2026-01-10T22:08:29+01:00
; #@! TF.GenerationSoftware,Kicad,Pcbnew,9.0.6
; #@! TF.FileFunction,Plated,1,2,PTH
FMAT,2
INCH
; #@! TA.AperFunction,Plated,PTH,ViaDrill
T1C0.0118
; #@! TA.AperFunction,Plated,PTH,ComponentDrill
T2C0.0256
; #@! TA.AperFunction,Plated,PTH,ComponentDrill
T3C0.0315
; #@! TA.AperFunction,Plated,PTH,ComponentDrill
T4C0.0374
; #@! TA.AperFunction,Plated,PTH,ComponentDrill
T5C0.0394
; #@! TA.AperFunction,Plated,PTH,ComponentDrill
T6C0.0472
%
G90
G05
T1
X2.33Y-4.64
X2.35Y-4.71
X2.36Y-4.6
X2.4Y-4.63
X2.4Y-4.68
X2.44Y-4.26
X2.44Y-4.31
X2.44Y-4.36
X2.44Y-4.42
X2.44Y-4.47
X2.44Y-4.6
X2.44Y-4.65
X2.44Y-4.72
X2.481Y-4.369
X2.5134Y-4.3342
X2.5149Y-4.2724
X2.5169Y-4.8221
X2.5453Y-4.369
X2.58Y-4.28
X2.58Y-4.33
X2.58Y-4.37
X2.58Y-4.66
X2.58Y-4.74
X2.59Y-4.22
X2.59Y-4.84
X2.6Y-4.16
X2.6Y-4.93
X2.61Y-4.06
X2.6153Y-4.479
X2.62Y-5.02
X2.62Y-5.09
X2.64Y-3.92
X2.65Y-5.19
X2.66Y-4.33
X2.66Y-4.4263
X2.66Y-4.53
X2.66Y-4.6
X2.66Y-4.68
X2.66Y-4.76
X2.67Y-4.23
X2.67Y-4.38
X2.67Y-4.47
X2.67Y-4.84
X2.68Y-3.77
X2.68Y-4.92
X2.68Y-5.3
X2.69Y-4.14
X2.71Y-4.37
X2.71Y-4.46
X2.72Y-3.65
X2.72Y-4.02
X2.72Y-4.07
X2.72Y-4.12
X2.72Y-4.17
X2.72Y-4.22
X2.72Y-4.54
X2.73Y-4.62
X2.73Y-5.44
X2.74Y-4.72
X2.74Y-4.81
X2.74Y-4.86
X2.74Y-4.91
X2.74Y-4.96
X2.74Y-5.01
X2.75Y-4.37
X2.75Y-4.49
X2.77Y-3.54
X2.77Y-4.02
X2.77Y-4.07
X2.77Y-4.12
X2.77Y-4.17
X2.77Y-4.22
X2.77Y-5.55
X2.79Y-4.37
X2.79Y-4.51
X2.79Y-4.81
X2.79Y-4.86
X2.79Y-4.91
X2.79Y-4.96
X2.79Y-5.01
X2.8Y-4.46
X2.82Y-4.02
X2.82Y-4.07
X2.82Y-4.12
X2.82Y-4.17
X2.82Y-4.22
X2.82Y-5.63
X2.83Y-3.4
X2.84Y-4.39
X2.84Y-4.81
X2.84Y-4.86
X2.84Y-4.91
X2.84Y-4.96
X2.84Y-5.01
X2.85Y-4.47
X2.87Y-4.02
X2.87Y-4.07
X2.87Y-4.12
X2.87Y-4.17
X2.87Y-4.22
X2.87Y-5.32
X2.87Y-5.37
X2.87Y-5.42
X2.87Y-5.47
X2.87Y-5.52
X2.88Y-5.75
X2.89Y-4.81
X2.89Y-4.86
X2.89Y-4.91
X2.89Y-4.96
X2.89Y-5.01
X2.9Y-4.39
X2.9Y-4.48
X2.91Y-3.26
X2.92Y-4.02
X2.92Y-4.07
X2.92Y-4.12
X2.92Y-4.17
X2.92Y-4.22
X2.92Y-5.32
X2.92Y-5.37
X2.92Y-5.42
X2.92Y-5.47
X2.92Y-5.52
X2.93Y-5.84
X2.94Y-4.81
X2.94Y-4.86
X2.94Y-4.91
X2.94Y-4.96
X2.94Y-5.01
X2.95Y-4.41
X2.95Y-4.52
X2.96Y-3.36
X2.96Y-3.41
X2.96Y-3.46
X2.96Y-3.51
X2.96Y-3.55
X2.96Y-3.6
X2.96Y-3.66
X2.96Y-3.71
X2.96Y-3.76
X2.96Y-3.81
X2.96Y-3.86
X2.96Y-3.9
X2.96Y-3.95
X2.96Y-4.0
X2.96Y-4.05
X2.96Y-4.1
X2.96Y-4.15
X2.96Y-4.2
X2.96Y-4.24
X2.96Y-4.29
X2.97Y-5.32
X2.97Y-5.37
X2.97Y-5.42
X2.97Y-5.47
X2.97Y-5.52
X2.98Y-3.16
X2.99Y-4.44
X2.99Y-4.56
X2.99Y-6.16
X3.01Y-3.31
X3.01Y-3.36
X3.01Y-3.41
X3.01Y-3.46
X3.01Y-3.51
X3.01Y-3.55
X3.01Y-3.6
X3.01Y-3.66
X3.01Y-3.71
X3.01Y-3.76
X3.01Y-3.81
X3.01Y-3.86
X3.01Y-3.9
X3.01Y-3.95
X3.01Y-4.0
X3.01Y-4.05
X3.01Y-4.1
X3.01Y-4.15
X3.01Y-4.2
X3.01Y-4.24
X3.01Y-4.29
X3.02Y-4.48
X3.02Y-4.62
X3.02Y-4.67
X3.02Y-4.72
X3.02Y-4.77
X3.02Y-4.82
X3.02Y-4.87
X3.02Y-4.92
X3.02Y-4.97
X3.02Y-5.02
X3.02Y-5.07
X3.02Y-5.12
X3.02Y-5.17
X3.02Y-5.32
X3.02Y-5.37
X3.02Y-5.42
X3.02Y-5.47
X3.02Y-5.52
X3.02Y-5.96
X3.03Y-3.09
X3.03Y-6.2
X3.04Y-2.73
X3.06Y-4.4
X3.06Y-4.44
X3.06Y-4.48
X3.06Y-4.52
X3.07Y-2.68
X3.07Y-2.83
X3.07Y-4.62
X3.07Y-4.67
X3.07Y-4.72
X3.07Y-4.77
X3.07Y-4.82
X3.07Y-4.87
X3.07Y-4.92
X3.07Y-4.97
X3.07Y-5.02
X3.07Y-5.07
X3.07Y-5.12
X3.07Y-5.17
X3.07Y-5.32
X3.07Y-5.37
X3.07Y-5.42
X3.07Y-5.47
X3.07Y-5.52
X3.07Y-6.25
X3.08Y-3.18
X3.08Y-3.23
X3.08Y-3.28
X3.08Y-3.33
X3.08Y-3.38
X3.08Y-3.42
X3.08Y-3.47
X3.09Y-2.75
X3.09Y-6.05
X3.1Y-2.71
X3.1Y-3.52
X3.1Y-3.57
X3.1Y-3.62
X3.11Y-2.79
X3.11Y-6.18
X3.11Y-6.29
X3.1111Y-6.2265
X3.12Y-2.99
X3.12Y-5.31
X3.13Y-3.18
X3.13Y-3.23
X3.13Y-3.28
X3.13Y-3.33
X3.13Y-3.38
X3.13Y-3.42
X3.13Y-3.47
X3.15Y-2.75
X3.15Y-3.52
X3.15Y-3.57
X3.15Y-3.62
X3.15Y-4.62
X3.15Y-4.67
X3.15Y-4.72
X3.15Y-4.77
X3.15Y-4.82
X3.15Y-4.87
X3.15Y-4.92
X3.15Y-4.97
X3.15Y-5.02
X3.15Y-5.07
X3.15Y-5.12
X3.15Y-5.17
X3.15Y-6.12
X3.1565Y-6.181
X3.16Y-5.35
X3.16Y-5.66
X3.16Y-5.71
X3.16Y-5.76
X3.16Y-5.81
X3.16Y-5.86
X3.17Y-3.35
X3.17Y-3.45
X3.17Y-3.87
X3.17Y-3.92
X3.17Y-3.97
X3.17Y-4.55
X3.17Y-6.52
X3.18Y-2.92
X3.2Y-3.54
X3.2Y-4.62
X3.2Y-4.67
X3.2Y-4.72
X3.2Y-4.77
X3.2Y-4.82
X3.2Y-4.87
X3.2Y-4.92
X3.2Y-4.97
X3.2Y-5.02
X3.2Y-5.07
X3.2Y-5.12
X3.2Y-5.17
X3.2Y-5.39
X3.2Y-6.17
X3.2Y-6.49
X3.21Y-3.06
X3.21Y-3.11
X3.21Y-3.16
X3.21Y-3.21
X3.21Y-3.26
X3.21Y-3.3
X3.21Y-3.35
X3.21Y-3.6
X3.21Y-5.66
X3.21Y-5.71
X3.21Y-5.76
X3.21Y-5.81
X3.21Y-5.86
X3.22Y-3.87
X3.22Y-3.92
X3.22Y-3.97
X3.22Y-4.55
X3.23Y-4.19
X3.23Y-6.53
X3.24Y-4.62
X3.24Y-4.67
X3.24Y-5.43
X3.24Y-6.46
X3.25Y-3.6
X3.26Y-3.06
X3.26Y-3.11
X3.26Y-3.16
X3.26Y-3.21
X3.26Y-3.26
X3.26Y-3.3
X3.26Y-3.35
X3.26Y-3.44
X3.26Y-4.09
X3.26Y-5.66
X3.26Y-5.71
X3.26Y-5.76
X3.26Y-5.81
X3.26Y-5.86
X3.26Y-6.13
X3.27Y-3.87
X3.27Y-3.92
X3.27Y-3.97
X3.27Y-6.5
X3.28Y-4.55
X3.28Y-5.31
X3.28Y-5.47
X3.28Y-6.45
X3.28Y-6.57
X3.2838Y-6.2093
X3.2893Y-6.1593
X3.29Y-4.22
X3.29Y-4.62
X3.29Y-4.67
X3.29Y-6.11
X3.3Y-2.6
X3.3Y-3.07
X3.3Y-4.04
X3.3Y-4.15
X3.3Y-6.05
X3.31Y-5.66
X3.31Y-5.71
X3.31Y-5.76
X3.31Y-5.81
X3.31Y-5.86
X3.32Y-4.47
X3.32Y-5.35
X3.32Y-5.51
X3.32Y-6.19
X3.32Y-6.49
X3.32Y-6.53
X3.3206Y-3.9606
X3.33Y-3.0
X3.33Y-4.41
X3.33Y-4.55
X3.33Y-6.01
X3.34Y-3.04
X3.34Y-4.62
X3.34Y-4.67
X3.34Y-6.16
X3.3489Y-2.6101
X3.35Y-2.55
X3.35Y-3.96
X3.36Y-4.45
X3.36Y-4.51
X3.36Y-5.39
X3.36Y-5.55
X3.36Y-5.66
X3.36Y-5.71
X3.36Y-5.76
X3.36Y-5.81
X3.36Y-5.86
X3.3661Y-2.7828
X3.37Y-3.01
X3.38Y-2.84
X3.38Y-6.54
X3.39Y-4.41
X3.39Y-4.55
X3.39Y-4.62
X3.39Y-4.67
X3.39Y-6.01
X3.3943Y-2.6556
X3.4Y-2.5
X3.4Y-2.98
X3.4Y-4.05
X3.4Y-4.15
X3.4Y-4.2
X3.4Y-4.25
X3.4Y-4.3
X3.4Y-5.43
X3.4Y-5.59
X3.41Y-6.15
X3.41Y-6.38
X3.42Y-2.84
X3.42Y-2.88
X3.42Y-4.45
X3.42Y-4.51
X3.42Y-6.08
X3.43Y-2.67
X3.43Y-2.92
X3.43Y-2.95
X3.43Y-5.96
X3.43Y-6.6
X3.44Y-3.19
X3.44Y-3.24
X3.44Y-3.29
X3.44Y-3.34
X3.44Y-3.39
X3.44Y-3.44
X3.44Y-3.49
X3.44Y-3.54
X3.44Y-3.59
X3.44Y-3.64
X3.44Y-3.7
X3.44Y-3.75
X3.44Y-3.8
X3.44Y-3.85
X3.44Y-3.9
X3.44Y-3.96
X3.44Y-4.01
X3.44Y-4.06
X3.44Y-4.11
X3.44Y-4.16
X3.44Y-4.62
X3.44Y-4.67
X3.44Y-5.47
X3.44Y-5.63
X3.45Y-2.77
X3.45Y-4.2
X3.45Y-4.25
X3.45Y-4.3
X3.45Y-4.41
X3.45Y-4.55
X3.46Y-3.15
X3.46Y-6.04
X3.46Y-6.43
X3.47Y-2.73
X3.47Y-5.93
X3.48Y-2.88
X3.48Y-4.45
X3.48Y-4.51
X3.48Y-5.51
X3.48Y-5.67
X3.49Y-2.62
X3.49Y-2.76
X3.49Y-3.19
X3.49Y-3.24
X3.49Y-3.29
X3.49Y-3.34
X3.49Y-3.39
X3.49Y-3.44
X3.49Y-3.49
X3.49Y-3.54
X3.49Y-3.59
X3.49Y-3.64
X3.49Y-3.7
X3.49Y-3.75
X3.49Y-3.8
X3.49Y-3.85
X3.49Y-3.9
X3.49Y-3.96
X3.49Y-4.01
X3.49Y-4.06
X3.49Y-4.11
X3.49Y-4.16
X3.49Y-4.62
X3.49Y-4.67
X3.49Y-6.65
X3.5Y-3.11
X3.5Y-4.2
X3.5Y-4.25
X3.5Y-4.3
X3.5Y-5.89
X3.5Y-6.47
X3.51Y-2.7
X3.51Y-2.84
X3.51Y-2.89
X3.51Y-3.15
X3.51Y-4.41
X3.51Y-4.55
X3.51Y-6.0
X3.52Y-5.55
X3.52Y-5.71
X3.53Y-3.07
X3.53Y-4.62
X3.53Y-4.67
X3.53Y-5.86
X3.54Y-2.72
X3.54Y-2.76
X3.54Y-3.19
X3.54Y-3.24
X3.54Y-3.29
X3.54Y-3.34
X3.54Y-3.39
X3.54Y-3.44
X3.54Y-3.49
X3.54Y-3.54
X3.54Y-3.59
X3.54Y-3.64
X3.54Y-3.7
X3.54Y-3.75
X3.54Y-3.8
X3.54Y-3.85
X3.54Y-3.9
X3.54Y-3.96
X3.54Y-4.01
X3.54Y-4.06
X3.54Y-4.11
X3.54Y-4.16
X3.54Y-4.2
X3.54Y-4.25
X3.54Y-4.3
X3.54Y-4.45
X3.54Y-4.51
X3.55Y-2.67
X3.55Y-2.85
X3.55Y-5.95
X3.56Y-3.04
X3.56Y-3.14
X3.56Y-5.34
X3.56Y-5.39
X3.56Y-5.44
X3.56Y-5.59
X3.56Y-6.51
X3.57Y-3.1
X3.57Y-4.41
X3.57Y-4.55
X3.57Y-5.83
X3.58Y-2.65
X3.58Y-2.69
X3.58Y-2.73
X3.58Y-4.48
X3.58Y-4.62
X3.58Y-4.67
X3.58Y-4.72
X3.58Y-4.77
X3.58Y-4.82
X3.58Y-4.87
X3.58Y-4.91
X3.58Y-4.96
X3.58Y-5.01
X3.58Y-5.05
X3.58Y-5.1
X3.58Y-5.15
X3.58Y-5.19
X3.58Y-5.24
X3.58Y-5.29
X3.59Y-3.07
X3.59Y-3.19
X3.59Y-3.24
X3.59Y-3.29
X3.59Y-3.34
X3.59Y-3.39
X3.59Y-3.44
X3.59Y-3.49
X3.59Y-3.54
X3.59Y-3.59
X3.59Y-3.64
X3.59Y-3.7
X3.59Y-3.75
X3.59Y-3.8
X3.59Y-3.85
X3.59Y-3.9
X3.59Y-3.96
X3.59Y-4.01
X3.59Y-4.06
X3.59Y-4.11
X3.59Y-4.16
X3.59Y-4.2
X3.59Y-4.25
X3.59Y-4.3
X3.59Y-5.91
X3.6Y-3.0
X3.6Y-5.63
X3.61Y-2.52
X3.61Y-2.63
X3.61Y-3.14
X3.61Y-5.34
X3.61Y-5.39
X3.61Y-5.44
X3.61Y-6.55
X3.62Y-2.69
X3.62Y-3.1
X3.62Y-5.82
X3.62Y-6.08
X3.62Y-6.13
X3.62Y-6.18
X3.62Y-6.23
X3.62Y-6.28
X3.63Y-4.41
X3.63Y-4.45
X3.63Y-4.5
X3.63Y-4.55
X3.63Y-4.62
X3.63Y-4.67
X3.63Y-4.72
X3.63Y-4.77
X3.63Y-4.82
X3.63Y-4.87
X3.63Y-4.91
X3.63Y-4.96
X3.63Y-5.01
X3.63Y-5.05
X3.63Y-5.1
X3.63Y-5.15
X3.63Y-5.19
X3.63Y-5.24
X3.63Y-5.29
X3.64Y-2.96
X3.64Y-3.0
X3.64Y-3.04
X3.64Y-3.19
X3.64Y-3.24
X3.64Y-3.29
X3.64Y-3.34
X3.64Y-3.39
X3.64Y-3.44
X3.64Y-3.49
X3.64Y-3.54
X3.64Y-3.59
X3.64Y-3.64
X3.64Y-3.7
X3.64Y-3.75
X3.64Y-3.8
X3.64Y-3.85
X3.64Y-3.9
X3.64Y-3.96
X3.64Y-4.01
X3.64Y-4.06
X3.64Y-4.11
X3.64Y-4.16
X3.64Y-4.2
X3.64Y-4.25
X3.64Y-4.3
X3.64Y-5.67
X3.64Y-5.89
X3.65Y-2.6
X3.65Y-3.13
X3.66Y-5.41
X3.67Y-6.08
X3.67Y-6.13
X3.67Y-6.18
X3.67Y-6.23
X3.67Y-6.28
X3.68Y-5.71
X3.69Y-2.93
X3.69Y-2.96
X3.69Y-2.99
X3.69Y-3.22
X3.69Y-3.25
X3.69Y-3.28
X3.69Y-4.43
X3.69Y-4.46
X3.69Y-4.49
X3.7Y-2.6
X3.7Y-5.45
X3.71Y-2.45
X3.71Y-5.9
X3.72Y-6.08
X3.72Y-6.13
X3.72Y-6.18
X3.72Y-6.23
X3.72Y-6.28
X3.73Y-5.77
X3.74Y-2.86
X3.74Y-2.91
X3.74Y-2.97
X3.74Y-3.03
X3.74Y-3.09
X3.74Y-3.14
X3.74Y-3.24
X3.74Y-3.29
X3.74Y-3.34
X3.74Y-3.39
X3.74Y-3.44
X3.74Y-3.49
X3.74Y-3.54
X3.74Y-3.59
X3.74Y-3.64
X3.74Y-3.7
X3.74Y-3.75
X3.74Y-3.8
X3.74Y-3.85
X3.74Y-3.9
X3.74Y-3.97
X3.74Y-4.02
X3.74Y-4.07
X3.74Y-4.12
X3.74Y-4.17
X3.74Y-4.22
X3.74Y-4.44
X3.74Y-4.51
X3.74Y-4.55
X3.74Y-4.62
X3.74Y-4.67
X3.74Y-4.72
X3.74Y-4.77
X3.74Y-4.82
X3.74Y-4.87
X3.74Y-4.92
X3.74Y-4.97
X3.74Y-5.02
X3.74Y-5.06
X3.74Y-5.11
X3.74Y-5.16
X3.74Y-5.2
X3.74Y-5.25
X3.74Y-5.3
X3.74Y-5.49
X3.75Y-2.61
X3.75Y-4.26
X3.75Y-5.35
X3.75Y-5.94
X3.75Y-6.64
X3.77Y-2.53
X3.77Y-4.48
X3.77Y-5.81
X3.77Y-6.08
X3.77Y-6.13
X3.77Y-6.18
X3.77Y-6.23
X3.77Y-6.28
X3.78Y-5.53
X3.79Y-2.6
X3.79Y-2.91
X3.79Y-2.97
X3.79Y-3.19
X3.79Y-3.29
X3.79Y-3.34
X3.79Y-3.39
X3.79Y-3.44
X3.79Y-3.49
X3.79Y-3.54
X3.79Y-3.59
X3.79Y-3.64
X3.79Y-3.7
X3.79Y-3.75
X3.79Y-3.8
X3.79Y-3.85
X3.79Y-3.9
X3.79Y-3.97
X3.79Y-4.02
X3.79Y-4.07
X3.79Y-4.12
X3.79Y-4.17
X3.79Y-4.21
X3.79Y-4.36
X3.79Y-4.62
X3.79Y-4.67
X3.79Y-4.72
X3.79Y-4.77
X3.79Y-4.82
X3.79Y-4.87
X3.79Y-4.92
X3.79Y-4.97
X3.79Y-5.02
X3.79Y-5.06
X3.79Y-5.11
X3.79Y-5.16
X3.79Y-5.2
X3.79Y-5.25
X3.79Y-5.3
X3.79Y-5.39
X3.79Y-5.98
X3.8Y-2.86
X3.8Y-4.51
X3.8Y-4.55
X3.8Y-5.78
X3.82Y-2.49
X3.82Y-5.57
X3.82Y-5.86
X3.82Y-6.08
X3.82Y-6.13
X3.82Y-6.18
X3.82Y-6.23
X3.82Y-6.28
X3.83Y-4.62
X3.83Y-4.67
X3.83Y-5.43
X3.83Y-6.02
X3.84Y-2.86
X3.84Y-2.93
X3.84Y-3.19
X3.84Y-3.24
X3.84Y-3.34
X3.84Y-3.39
X3.84Y-3.44
X3.84Y-3.49
X3.84Y-3.54
X3.84Y-3.59
X3.84Y-3.64
X3.84Y-3.7
X3.84Y-3.75
X3.84Y-3.8
X3.84Y-3.85
X3.84Y-3.9
X3.84Y-3.97
X3.84Y-4.02
X3.84Y-4.07
X3.84Y-4.12
X3.84Y-4.17
X3.84Y-4.3
X3.84Y-4.35
X3.84Y-4.41
X3.84Y-5.73
X3.85Y-2.98
X3.86Y-5.61
X3.86Y-5.83
X3.86Y-5.9
X3.86Y-6.71
X3.8602Y-2.5302
X3.87Y-2.35
X3.87Y-5.47
X3.87Y-6.06
X3.88Y-2.45
X3.88Y-2.76
X3.88Y-2.82
X3.88Y-4.37
X3.88Y-4.62
X3.88Y-4.67
X3.88Y-5.69
X3.89Y-3.19
X3.89Y-3.24
X3.89Y-3.29
X3.89Y-3.39
X3.89Y-3.44
X3.89Y-3.49
X3.89Y-3.54
X3.89Y-3.59
X3.89Y-4.07
X3.89Y-4.12
X3.89Y-4.17
X3.89Y-4.33
X3.89Y-5.79
X3.9Y-2.99
X3.9Y-5.65
X3.9Y-5.94
X3.9Y-6.36
X3.9Y-6.41
X3.9Y-6.46
X3.9Y-6.51
X3.9Y-6.56
X3.91Y-2.69
X3.91Y-2.74
X3.91Y-2.79
X3.91Y-5.51
X3.91Y-6.1
X3.93Y-4.35
X3.93Y-4.62
X3.93Y-4.67
X3.93Y-5.74
X3.9302Y-2.4602
X3.94Y-2.9
X3.94Y-3.19
X3.94Y-3.24
X3.94Y-3.29
X3.94Y-3.34
X3.94Y-3.44
X3.94Y-3.49
X3.94Y-3.54
X3.94Y-3.59
X3.94Y-4.07
X3.94Y-4.12
X3.94Y-5.99
X3.95Y-2.96
X3.95Y-3.0
X3.95Y-3.05
X3.95Y-5.55
X3.95Y-6.14
X3.95Y-6.36
X3.95Y-6.41
X3.95Y-6.46
X3.95Y-6.51
X3.95Y-6.56
X3.96Y-2.64
X3.96Y-2.69
X3.96Y-2.74
X3.96Y-2.79
X3.96Y-2.84
X3.96Y-4.39
X3.96Y-4.45
X3.9652Y-2.4252
X3.97Y-4.27
X3.98Y-3.09
X3.98Y-3.47
X3.98Y-3.52
X3.98Y-3.59
X3.98Y-4.1
X3.98Y-4.62
X3.98Y-4.67
X3.98Y-5.73
X3.99Y-2.97
X3.99Y-3.14
X3.99Y-3.19
X3.99Y-3.38
X3.99Y-5.59
X3.99Y-6.18
X3.99Y-6.78
X4.0Y-4.31
X4.0Y-6.04
X4.0Y-6.36
X4.0Y-6.41
X4.0Y-6.46
X4.0Y-6.51
X4.0Y-6.56
X4.01Y-4.13
X4.02Y-3.51
X4.02Y-3.56
X4.02Y-3.63
X4.02Y-5.77
X4.0202Y-2.3702
X4.03Y-2.9
X4.03Y-2.97
X4.03Y-3.01
X4.03Y-3.05
X4.03Y-3.24
X4.03Y-3.29
X4.03Y-3.34
X4.03Y-3.42
X4.03Y-4.62
X4.03Y-4.67
X4.03Y-5.56
X4.03Y-6.22
X4.04Y-2.5
X4.04Y-4.27
X4.04Y-4.45
X4.05Y-2.7
X4.05Y-4.38
X4.05Y-5.65
X4.05Y-6.36
X4.05Y-6.41
X4.05Y-6.46
X4.05Y-6.51
X4.05Y-6.56
X4.06Y-3.55
X4.06Y-3.6
X4.06Y-3.67
X4.06Y-5.81
X4.06Y-6.1
X4.07Y-2.9
X4.07Y-3.46
X4.07Y-5.52
X4.07Y-6.26
X4.08Y-2.36
X4.08Y-3.24
X4.08Y-3.29
X4.08Y-3.34
X4.08Y-4.62
X4.08Y-4.67
X4.08Y-5.61
X4.09Y-2.97
X4.09Y-3.41
X4.09Y-4.45
X4.09Y-5.69
X4.1Y-3.59
X4.1Y-3.64
X4.1Y-3.71
X4.1Y-4.32
X4.1Y-6.14
X4.1Y-6.36
X4.1Y-6.41
X4.1Y-6.46
X4.1Y-6.51
X4.1Y-6.56
X4.11Y-2.23
X4.11Y-3.5
X4.11Y-4.14
X4.11Y-5.48
X4.11Y-6.3
X4.12Y-2.97
X4.12Y-3.07
X4.12Y-5.57
X4.12Y-6.24
X4.13Y-3.24
X4.13Y-3.29
X4.13Y-3.34
X4.13Y-3.45
X4.13Y-4.62
X4.13Y-4.67
X4.13Y-5.73
X4.14Y-2.7
X4.14Y-3.4
X4.14Y-3.63
X4.14Y-3.68
X4.14Y-3.75
X4.14Y-6.86
X4.15Y-3.54
X4.15Y-5.44
X4.15Y-6.29
X4.15Y-6.34
X4.15Y-6.39
X4.15Y-6.44
X4.15Y-6.49
X4.15Y-6.55
X4.15Y-6.6
X4.15Y-6.65
X4.15Y-6.7
X4.15Y-6.75
X4.16Y-5.53
X4.16Y-6.14
X4.16Y-6.24
X4.17Y-3.15
X4.17Y-3.49
X4.17Y-4.16
X4.17Y-4.34
X4.17Y-4.49
X4.17Y-5.77
X4.18Y-3.11
X4.18Y-3.24
X4.18Y-3.29
X4.18Y-3.34
X4.18Y-3.44
X4.18Y-3.67
X4.18Y-3.72
X4.18Y-3.79
X4.18Y-4.62
X4.18Y-4.67
X4.19Y-3.39
X4.19Y-3.58
X4.19Y-5.4
X4.2Y-6.29
X4.2Y-6.34
X4.2Y-6.39
X4.2Y-6.44
X4.2Y-6.49
X4.2Y-6.55
X4.2Y-6.6
X4.2Y-6.65
X4.2Y-6.7
X4.2Y-6.75
X4.21Y-3.08
X4.21Y-3.53
X4.21Y-4.38
X4.21Y-5.47
X4.21Y-5.81
X4.21Y-6.24
X4.22Y-2.7
X4.22Y-3.12
X4.22Y-3.48
X4.22Y-3.71
X4.22Y-3.76
X4.22Y-3.83
X4.22Y-5.52
X4.22Y-5.57
X4.22Y-5.62
X4.22Y-5.67
X4.22Y-5.72
X4.22Y-5.76
X4.22Y-6.14
X4.23Y-3.24
X4.23Y-3.29
X4.23Y-3.34
X4.23Y-3.43
X4.23Y-3.62
X4.23Y-4.16
X4.23Y-4.62
X4.23Y-4.67
X4.23Y-5.36
X4.24Y-4.49
X4.25Y-3.57
X4.25Y-4.32
X4.25Y-5.42
X4.25Y-5.85
X4.25Y-6.29
X4.25Y-6.34
X4.25Y-6.39
X4.25Y-6.44
X4.25Y-6.49
X4.25Y-6.55
X4.25Y-6.6
X4.25Y-6.65
X4.25Y-6.7
X4.25Y-6.75
X4.26Y-3.08
X4.26Y-3.52
X4.26Y-3.75
X4.26Y-3.8
X4.26Y-3.87
X4.26Y-6.24
X4.27Y-3.47
X4.27Y-3.66
X4.27Y-5.32
X4.27Y-5.52
X4.27Y-5.57
X4.27Y-5.62
X4.27Y-5.67
X4.27Y-5.72
X4.27Y-5.76
X4.27Y-5.81
X4.28Y-2.9
X4.28Y-3.24
X4.28Y-3.29
X4.28Y-3.34
X4.28Y-4.15
X4.28Y-4.62
X4.28Y-4.67
X4.28Y-6.89
X4.29Y-2.59
X4.29Y-2.64
X4.29Y-2.69
X4.29Y-2.75
X4.29Y-2.8
X4.29Y-2.85
X4.29Y-3.14
X4.29Y-3.61
X4.29Y-5.89
X4.29Y-6.14
X4.3Y-3.56
X4.3Y-3.79
X4.3Y-3.84
X4.3Y-3.91
X4.3Y-6.29
X4.3Y-6.34
X4.3Y-6.39
X4.3Y-6.44
X4.3Y-6.49
X4.3Y-6.55
X4.3Y-6.6
X4.3Y-6.65
X4.3Y-6.7
X4.3Y-6.75
X4.31Y-3.07
X4.31Y-3.51
X4.31Y-3.7
X4.31Y-5.28
X4.32Y-2.9
X4.32Y-5.38
X4.32Y-5.43
X4.32Y-5.47
X4.32Y-5.52
X4.32Y-5.57
X4.32Y-5.62
X4.32Y-5.67
X4.32Y-5.72
X4.32Y-5.76
X4.32Y-5.81
X4.32Y-5.86
X4.33Y-2.94
X4.33Y-3.65
X4.33Y-4.26
X4.33Y-4.62
X4.33Y-4.67
X4.33Y-5.93
X4.33Y-6.24
X4.34Y-2.59
X4.34Y-2.64
X4.34Y-2.69
X4.34Y-2.75
X4.34Y-2.8
X4.34Y-2.85
X4.34Y-3.24
X4.34Y-3.29
X4.34Y-3.34
X4.34Y-3.6
X4.34Y-3.83
X4.34Y-3.88
X4.34Y-3.95
X4.34Y-4.12
X4.34Y-6.14
X4.35Y-2.26
X4.35Y-2.31
X4.35Y-2.35
X4.35Y-2.4
X4.35Y-2.44
X4.35Y-3.55
X4.35Y-3.74
X4.35Y-4.41
X4.35Y-6.29
X4.35Y-6.34
X4.35Y-6.39
X4.35Y-6.44
X4.35Y-6.49
X4.35Y-6.55
X4.35Y-6.6
X4.35Y-6.65
X4.35Y-6.7
X4.35Y-6.75
X4.36Y-2.15
X4.37Y-2.9
X4.37Y-3.69
X4.37Y-5.33
X4.37Y-5.38
X4.37Y-5.43
X4.37Y-5.52
X4.37Y-5.57
X4.37Y-5.62
X4.37Y-5.67
X4.37Y-5.72
X4.37Y-5.76
X4.37Y-5.81
X4.37Y-5.86
X4.37Y-5.97
X4.38Y-3.64
X4.38Y-3.87
X4.38Y-3.92
X4.38Y-3.99
X4.38Y-4.06
X4.38Y-4.62
X4.38Y-4.67
X4.38Y-4.72
X4.38Y-4.77
X4.38Y-4.82
X4.38Y-4.87
X4.38Y-4.9
X4.38Y-4.95
X4.38Y-5.0
X4.38Y-5.05
X4.38Y-5.1
X4.39Y-2.59
X4.39Y-2.64
X4.39Y-2.69
X4.39Y-2.75
X4.39Y-2.8
X4.39Y-2.85
X4.39Y-3.24
X4.39Y-3.29
X4.39Y-3.34
X4.39Y-3.59
X4.39Y-3.78
X4.39Y-4.32
X4.39Y-4.41
X4.39Y-4.45
X4.39Y-6.14
X4.39Y-6.24
X4.39Y-6.29
X4.39Y-6.35
X4.39Y-6.42
X4.39Y-6.5
X4.39Y-6.59
X4.4Y-3.96
X4.4Y-4.26
X4.4Y-6.69
X4.41Y-3.73
X4.41Y-6.01
X4.41Y-6.78
X4.42Y-3.68
X4.42Y-3.91
X4.42Y-5.97
X4.42Y-6.93
X4.43Y-3.63
X4.43Y-4.01
X4.43Y-4.62
X4.43Y-4.67
X4.43Y-4.72
X4.43Y-4.77
X4.43Y-4.82
X4.43Y-4.87
X4.43Y-4.9
X4.43Y-4.95
X4.43Y-5.0
X4.43Y-5.05
X4.43Y-5.1
X4.43Y-5.71
X4.43Y-5.81
X4.44Y-3.24
X4.44Y-3.29
X4.44Y-3.34
X4.44Y-3.83
X4.45Y-3.77
X4.45Y-4.14
X4.45Y-4.41
X4.45Y-4.45
X4.46Y-2.25
X4.46Y-2.3
X4.46Y-2.35
X4.46Y-3.72
X4.46Y-6.01
X4.47Y-3.67
X4.47Y-3.97
X4.48Y-2.59
X4.48Y-2.64
X4.48Y-2.69
X4.48Y-2.75
X4.48Y-2.8
X4.48Y-2.85
X4.48Y-4.11
X4.48Y-5.97
X4.49Y-3.24
X4.49Y-3.29
X4.49Y-3.34
X4.49Y-3.81
X4.49Y-3.88
X4.49Y-6.79
X4.4926Y-4.8754
X4.493Y-4.7998
X4.493Y-4.9296
X4.5Y-3.76
X4.5Y-4.63
X4.5Y-4.69
X4.5Y-4.74
X4.51Y-2.25
X4.51Y-2.3
X4.51Y-2.35
X4.51Y-3.11
X4.51Y-3.15
X4.51Y-3.71
X4.51Y-4.08
X4.51Y-4.14
X4.51Y-4.18
X4.51Y-4.53
X4.51Y-6.01
X4.53Y-2.59
X4.53Y-2.64
X4.53Y-2.69
X4.53Y-2.75
X4.53Y-2.8
X4.53Y-2.85
X4.53Y-3.92
X4.53Y-5.65
X4.54Y-3.24
X4.54Y-3.29
X4.54Y-3.34
X4.54Y-3.8
X4.54Y-4.05
X4.54Y-4.11
X4.54Y-4.32
X4.54Y-4.39
X4.54Y-4.49
X4.54Y-4.56
X4.54Y-4.63
X4.54Y-4.69
X4.54Y-5.74
X4.54Y-5.97
X4.54Y-6.75
X4.55Y-3.11
X4.55Y-3.15
X4.55Y-3.75
X4.56Y-2.25
X4.56Y-2.3
X4.56Y-2.35
X4.56Y-3.88
X4.57Y-4.02
X4.57Y-4.08
X4.57Y-4.18
X4.57Y-4.52
X4.57Y-6.01
X4.58Y-2.59
X4.58Y-2.64
X4.58Y-2.69
X4.58Y-2.75
X4.58Y-2.8
X4.58Y-2.85
X4.58Y-6.97
X4.59Y-3.24
X4.59Y-3.29
X4.59Y-3.34
X4.59Y-3.79
X4.59Y-5.97
X4.59Y-6.8
X4.59Y-6.86
X4.598Y-4.2522
X4.6Y-3.11
X4.6Y-3.15
X4.6Y-3.99
X4.6Y-4.05
X4.6Y-4.32
X4.6Y-4.39
X4.6Y-4.44
X4.6Y-4.49
X4.6Y-4.56
X4.6Y-4.63
X4.6Y-4.69
X4.61Y-2.25
X4.61Y-2.3
X4.61Y-2.35
X4.61Y-3.84
X4.61Y-6.75
X4.62Y-4.81
X4.62Y-4.86
X4.62Y-4.91
X4.62Y-4.97
X4.62Y-5.06
X4.62Y-5.1
X4.62Y-5.14
X4.62Y-6.01
X4.62Y-6.7
X4.63Y-4.02
X4.63Y-4.18
X4.63Y-4.53
X4.64Y-3.11
X4.64Y-3.15
X4.64Y-3.8
X4.64Y-5.97
X4.64Y-6.5
X4.64Y-6.58
X4.65Y-4.78
X4.65Y-4.94
X4.65Y-5.03
X4.65Y-6.73
X4.65Y-6.79
X4.65Y-6.98
X4.66Y-2.25
X4.66Y-2.3
X4.66Y-2.35
X4.66Y-3.35
X4.66Y-3.4
X4.66Y-3.45
X4.66Y-3.99
X4.66Y-4.39
X4.66Y-4.44
X4.66Y-4.49
X4.66Y-4.56
X4.66Y-4.63
X4.66Y-4.68
X4.66Y-4.87
X4.66Y-6.11
X4.66Y-6.16
X4.66Y-6.21
X4.66Y-6.26
X4.66Y-6.31
X4.66Y-6.36
X4.66Y-6.41
X4.66Y-6.46
X4.66Y-6.51
X4.66Y-6.56
X4.66Y-6.88
X4.67Y-3.93
X4.67Y-4.31
X4.67Y-5.08
X4.67Y-5.14
X4.67Y-6.61
X4.67Y-6.82
X4.6729Y-4.2526
X4.68Y-4.18
X4.68Y-4.75
X4.68Y-4.82
X4.68Y-4.91
X4.68Y-5.0
X4.68Y-6.01
X4.68Y-6.76
X4.69Y-3.76
X4.7Y-3.89
X4.7Y-3.93
X4.7Y-4.39
X4.7Y-4.44
X4.7Y-4.49
X4.7Y-4.56
X4.7Y-4.63
X4.7Y-5.97
X4.7Y-6.64
X4.71Y-2.25
X4.71Y-2.3
X4.71Y-2.35
X4.71Y-3.5
X4.71Y-4.08
X4.71Y-4.88
X4.71Y-5.65
X4.71Y-5.75
X4.71Y-5.84
X4.71Y-6.11
X4.71Y-6.16
X4.71Y-6.21
X4.71Y-6.26
X4.71Y-6.31
X4.71Y-6.36
X4.71Y-6.41
X4.71Y-6.46
X4.71Y-6.51
X4.71Y-6.56
X4.71Y-6.79
X4.71Y-6.98
X4.713Y-3.813
X4.72Y-4.14
X4.72Y-5.54
X4.72Y-6.01
X4.72Y-6.86
X4.73Y-3.72
X4.73Y-4.71
X4.73Y-4.75
X4.73Y-4.79
X4.73Y-4.83
X4.73Y-4.94
X4.73Y-4.98
X4.73Y-5.02
X4.73Y-5.06
X4.73Y-5.1
X4.73Y-5.14
X4.73Y-6.67
X4.74Y-2.09
X4.74Y-4.33
X4.74Y-6.82
X4.7443Y-3.7817
X4.75Y-3.23
X4.75Y-3.28
X4.75Y-3.33
X4.75Y-5.61
X4.75Y-5.71
X4.75Y-5.8
X4.75Y-5.97
X4.76Y-2.25
X4.76Y-2.3
X4.76Y-2.35
X4.76Y-2.86
X4.76Y-2.91
X4.76Y-4.18
X4.76Y-4.39
X4.76Y-5.49
X4.76Y-5.85
X4.76Y-5.91
X4.76Y-6.11
X4.76Y-6.16
X4.76Y-6.21
X4.76Y-6.26
X4.76Y-6.31
X4.76Y-6.36
X4.76Y-6.41
X4.76Y-6.46
X4.76Y-6.51
X4.76Y-6.56
X4.76Y-6.91
X4.7602Y-4.2527
X4.768Y-3.758
X4.77Y-3.68
X4.77Y-6.71
X4.78Y-3.5
X4.78Y-6.01
X4.79Y-4.51
X4.79Y-4.62
X4.79Y-4.66
X4.79Y-4.7
X4.79Y-4.74
X4.79Y-4.79
X4.79Y-5.57
X4.79Y-5.67
X4.79Y-5.76
X4.79Y-6.83
X4.79Y-7.13
X4.8Y-3.23
X4.8Y-3.28
X4.8Y-3.33
X4.8Y-4.14
X4.8Y-4.31
X4.8Y-6.87
X4.8Y-6.99
X4.81Y-2.25
X4.81Y-2.3
X4.81Y-2.35
X4.81Y-2.86
X4.81Y-2.91
X4.81Y-3.64
X4.81Y-4.86
X4.81Y-5.81
X4.81Y-5.85
X4.81Y-5.9
X4.81Y-6.11
X4.81Y-6.16
X4.81Y-6.21
X4.81Y-6.26
X4.81Y-6.31
X4.81Y-6.36
X4.81Y-6.41
X4.81Y-6.46
X4.81Y-6.51
X4.81Y-6.56
X4.81Y-6.73
X4.82Y-5.97
X4.8277Y-4.623
X4.83Y-4.47
X4.83Y-4.76
X4.83Y-5.63
X4.83Y-5.73
X4.83Y-6.92
X4.84Y-3.56
X4.84Y-3.6
X4.84Y-4.18
X4.84Y-4.28
X4.84Y-4.33
X4.84Y-4.83
X4.85Y-1.94
X4.85Y-3.23
X4.85Y-3.28
X4.85Y-3.33
X4.85Y-6.01
X4.85Y-6.73
X4.85Y-6.83
X4.85Y-7.13
X4.853Y-3.673
X4.86Y-2.25
X4.86Y-2.3
X4.86Y-2.35
X4.86Y-2.86
X4.86Y-2.91
X4.86Y-4.73
X4.86Y-5.69
X4.86Y-6.11
X4.86Y-6.16
X4.86Y-6.21
X4.86Y-6.26
X4.86Y-6.31
X4.86Y-6.36
X4.86Y-6.41
X4.86Y-6.46
X4.86Y-6.51
X4.86Y-6.56
X4.8677Y-4.6664
X4.87Y-4.14
X4.87Y-4.43
X4.87Y-4.8
X4.87Y-5.74
X4.87Y-5.8
X4.87Y-5.86
X4.87Y-5.91
X4.87Y-5.97
X4.87Y-6.88
X4.87Y-7.03
X4.87Y-7.0943
X4.873Y-3.653
X4.8738Y-4.2532
X4.8786Y-4.3074
X4.88Y-2.16
X4.88Y-6.92
X4.88Y-6.99
X4.89Y-3.95
X4.89Y-4.7
X4.89Y-6.73
X4.89Y-6.83
X4.893Y-3.633
X4.9Y-3.69
X4.9Y-4.18
X4.9Y-4.77
X4.9Y-5.03
X4.9Y-5.13
X4.9Y-5.31
X4.9Y-5.35
X4.9Y-5.4
X4.9Y-5.46
X4.9Y-5.53
X4.9Y-5.59
X4.9Y-5.65
X4.9Y-7.13
X4.91Y-2.08
X4.91Y-2.25
X4.91Y-2.3
X4.91Y-2.35
X4.91Y-2.86
X4.91Y-2.91
X4.91Y-2.96
X4.91Y-4.95
X4.91Y-6.11
X4.92Y-1.94
X4.92Y-5.7
X4.92Y-5.76
X4.92Y-5.83
X4.92Y-5.89
X4.92Y-5.95
X4.92Y-6.01
X4.92Y-6.65
X4.92Y-6.73
X4.92Y-6.9
X4.9218Y-4.0863
X4.93Y-4.14
X4.93Y-4.74
X4.93Y-5.17
X4.94Y-3.43
X4.94Y-3.65
X4.94Y-4.33
X4.94Y-4.56
X4.94Y-7.13
X4.9486Y-6.87
X4.95Y-3.3
X4.95Y-3.38
X4.95Y-4.18
X4.95Y-4.96
X4.96Y-1.91
X4.96Y-2.15
X4.96Y-2.25
X4.96Y-2.3
X4.96Y-2.35
X4.96Y-2.86
X4.96Y-2.91
X4.96Y-2.96
X4.96Y-3.02
X4.96Y-3.07
X4.96Y-3.12
X4.96Y-3.17
X4.96Y-3.22
X4.96Y-3.71
X4.96Y-3.95
X4.96Y-4.9
X4.96Y-5.08
X4.96Y-5.13
X4.9693Y-4.0351
X4.97Y-1.83
X4.97Y-1.87
X4.97Y-1.94
X4.98Y-4.14
X4.98Y-5.96
X4.98Y-6.01
X4.98Y-6.11
X4.98Y-6.17
X4.98Y-6.22
X4.98Y-6.27
X4.98Y-6.33
X4.98Y-6.39
X4.98Y-6.44
X4.98Y-6.49
X4.98Y-6.54
X4.98Y-6.61
X4.98Y-6.65
X4.98Y-6.83
X4.98Y-6.83
X4.98Y-6.91
X4.98Y-6.96
X4.99Y-3.43
X4.99Y-3.65
X4.99Y-5.8
X4.99Y-5.89
X4.99Y-6.73
X4.99Y-6.87
X4.9947Y-4.98
X5.0Y-3.38
X5.0Y-4.18
X5.0Y-4.33
X5.0Y-5.7
X5.0034Y-4.0862
X5.01Y-2.25
X5.01Y-2.3
X5.01Y-2.35
X5.01Y-2.4
X5.01Y-2.45
X5.01Y-2.5
X5.01Y-2.55
X5.01Y-2.6
X5.01Y-2.65
X5.01Y-2.7
X5.01Y-2.76
X5.01Y-2.81
X5.01Y-2.86
X5.01Y-2.91
X5.01Y-2.96
X5.01Y-3.02
X5.01Y-3.07
X5.01Y-3.12
X5.01Y-3.17
X5.01Y-3.22
X5.01Y-3.3
X5.01Y-5.95
X5.01Y-6.13
X5.01Y-6.92
X5.02Y-3.71
X5.02Y-3.96
X5.02Y-6.22
X5.02Y-6.28
X5.02Y-6.34
X5.02Y-6.39
X5.02Y-6.46
X5.02Y-6.56
X5.02Y-6.65
X5.02Y-6.83
X5.03Y-2.15
X5.03Y-6.01
X5.03Y-6.73
X5.04Y-3.43
X5.04Y-3.65
X5.04Y-4.98
X5.04Y-6.17
X5.04Y-6.61
X5.05Y-5.95
X5.06Y-2.25
X5.06Y-2.3
X5.06Y-2.35
X5.06Y-2.4
X5.06Y-2.45
X5.06Y-2.5
X5.06Y-2.55
X5.06Y-2.6
X5.06Y-2.65
X5.06Y-2.7
X5.06Y-2.76
X5.06Y-2.81
X5.06Y-2.86
X5.06Y-2.91
X5.06Y-2.96
X5.06Y-3.02
X5.06Y-3.07
X5.06Y-3.12
X5.06Y-3.17
X5.06Y-3.22
X5.06Y-4.49
X5.06Y-6.22
X5.06Y-6.27
X5.06Y-6.33
X5.06Y-6.39
X5.06Y-6.45
X5.06Y-6.52
X5.06Y-6.57
X5.07Y-3.38
X5.07Y-4.78
X5.07Y-6.73
X5.07Y-6.83
X5.07Y-6.87
X5.07Y-6.92
X5.0787Y-4.9404
X5.08Y-3.33
X5.08Y-4.25
X5.08Y-6.01
X5.09Y-2.19
X5.09Y-3.65
X5.09Y-3.72
X5.0963Y-2.1143
X5.1Y-2.15
X5.1Y-3.43
X5.1Y-3.77
X5.1Y-4.75
X5.1Y-5.95
X5.1028Y-4.92
X5.1075Y-4.489
X5.11Y-2.5
X5.11Y-2.55
X5.11Y-2.6
X5.11Y-2.65
X5.11Y-2.7
X5.11Y-2.76
X5.11Y-2.81
X5.11Y-2.86
X5.11Y-2.91
X5.11Y-2.96
X5.11Y-3.02
X5.11Y-3.07
X5.11Y-3.12
X5.11Y-3.17
X5.11Y-3.22
X5.11Y-4.44
X5.11Y-7.14
X5.11Y-7.18
X5.11Y-7.25
X5.1264Y-4.9423
X5.13Y-3.28
X5.13Y-3.38
X5.13Y-4.21
X5.13Y-4.72
X5.13Y-6.01
X5.13Y-6.11
X5.13Y-6.83
X5.13Y-6.88
X5.13Y-6.92
X5.14Y-1.94
X5.14Y-2.16
X5.14Y-3.65
X5.14Y-3.7
X5.14Y-3.75
X5.14Y-3.79
X5.14Y-4.49
X5.14Y-4.53
X5.14Y-5.82
X5.14Y-5.89
X5.15Y-4.27
X5.15Y-4.92
X5.15Y-5.95
X5.16Y-3.43
X5.16Y-4.18
X5.16Y-4.23
X5.16Y-4.69
X5.17Y-3.32
X5.17Y-5.99
X5.17Y-6.8
X5.176Y-4.9404
X5.1783Y-4.3317
X5.18Y-1.94
X5.18Y-2.08
X5.18Y-2.15
X5.18Y-2.19
X5.18Y-2.5
X5.18Y-2.55
X5.18Y-2.6
X5.18Y-2.65
X5.18Y-2.7
X5.18Y-2.76
X5.18Y-2.81
X5.18Y-2.86
X5.18Y-2.91
X5.18Y-2.96
X5.18Y-3.02
X5.18Y-3.07
X5.18Y-3.12
X5.18Y-3.17
X5.18Y-3.22
X5.18Y-6.11
X5.19Y-5.9
X5.19Y-6.99
X5.2Y-4.66
X5.2Y-4.92
X5.2063Y-1.98
X5.2063Y-2.0443
X5.21Y-2.25
X5.21Y-2.3
X5.21Y-2.35
X5.21Y-2.4
X5.21Y-2.45
X5.21Y-3.36
X5.21Y-5.95
X5.21Y-6.76
X5.22Y-2.15
X5.22Y-3.27
X5.22Y-3.43
X5.23Y-6.07
X5.2364Y-4.19
X5.24Y-2.01
X5.24Y-2.08
X5.24Y-3.39
X5.24Y-3.78
X5.24Y-3.82
X5.25Y-3.31
X5.25Y-6.72
X5.26Y-1.94
X5.26Y-2.25
X5.26Y-2.3
X5.26Y-2.35
X5.26Y-2.4
X5.26Y-2.45
X5.26Y-4.22
X5.26Y-4.57
X5.26Y-4.61
X5.27Y-2.15
X5.27Y-4.97
X5.27Y-5.7
X5.27Y-5.8
X5.27Y-6.03
X5.27Y-6.99
X5.28Y-3.78
X5.28Y-3.95
X5.28Y-5.04
X5.28Y-5.11
X5.2848Y-4.2
X5.29Y-3.43
X5.29Y-5.0
X5.29Y-5.58
X5.29Y-6.68
X5.3Y-3.34
X5.3Y-4.93
X5.3088Y-4.2204
X5.31Y-2.09
X5.31Y-2.25
X5.31Y-2.3
X5.31Y-2.35
X5.31Y-2.4
X5.31Y-2.45
X5.31Y-4.03
X5.31Y-4.07
X5.31Y-5.07
X5.32Y-1.94
X5.32Y-3.95
X5.32Y-4.88
X5.32Y-5.12
X5.33Y-3.87
X5.33Y-4.0
X5.33Y-4.96
X5.33Y-5.98
X5.33Y-6.64
X5.3364Y-4.2
X5.34Y-2.16
X5.34Y-5.02
X5.34Y-5.22
X5.34Y-5.29
X5.34Y-5.42
X5.34Y-6.07
X5.34Y-6.12
X5.34Y-6.17
X5.34Y-6.22
X5.34Y-6.72
X5.34Y-6.77
X5.34Y-6.82
X5.34Y-6.87
X5.35Y-3.38
X5.35Y-4.04
X5.35Y-4.9
X5.35Y-5.16
X5.35Y-6.46
X5.36Y-2.25
X5.36Y-2.3
X5.36Y-2.35
X5.36Y-2.4
X5.36Y-2.45
X5.36Y-3.33
X5.36Y-4.86
X5.36Y-5.08
X5.36Y-5.54
X5.36Y-5.6
X5.36Y-5.65
X5.36Y-5.7
X5.36Y-5.75
X5.3604Y-4.2204
X5.37Y-3.83
X5.37Y-5.26
X5.37Y-6.6
X5.37Y-6.98
X5.38Y-2.02
X5.38Y-3.43
X5.38Y-4.82
X5.38Y-5.32
X5.38Y-5.37
X5.3846Y-4.1361
X5.3846Y-4.18
X5.39Y-3.87
X5.39Y-4.42
X5.39Y-5.0
X5.39Y-5.46
X5.39Y-5.9
X5.39Y-6.07
X5.39Y-6.12
X5.39Y-6.17
X5.39Y-6.22
X5.39Y-6.42
X5.39Y-6.72
X5.39Y-6.77
X5.39Y-6.82
X5.39Y-6.87
X5.3932Y-3.9424
X5.4Y-3.8
X5.4Y-4.23
X5.4Y-4.28
X5.4Y-4.32
X5.4Y-4.37
X5.4Y-4.57
X5.4Y-4.63
X5.4Y-4.9
X5.4Y-4.94
X5.4Y-5.07
X5.4Y-5.14
X5.41Y-2.25
X5.41Y-2.3
X5.41Y-2.35
X5.41Y-2.4
X5.41Y-2.45
X5.41Y-3.38
X5.41Y-6.56
X5.43Y-3.33
X5.43Y-3.77
X5.43Y-3.83
X5.43Y-4.19
X5.43Y-5.7
X5.43Y-6.38
X5.43Y-6.97
X5.44Y-3.43
X5.44Y-3.93
X5.44Y-6.07
X5.44Y-6.12
X5.44Y-6.17
X5.44Y-6.22
X5.44Y-6.72
X5.44Y-6.77
X5.44Y-6.82
X5.44Y-6.87
X5.45Y-6.52
X5.46Y-3.8
X5.46Y-4.34
X5.46Y-4.76
X5.46Y-4.86
X5.46Y-4.94
X5.46Y-5.02
X5.46Y-5.08
X5.46Y-5.13
X5.46Y-5.36
X5.47Y-2.1111
X5.47Y-3.38
X5.47Y-3.9
X5.47Y-6.34
X5.49Y-3.33
X5.49Y-3.77
X5.49Y-4.83
X5.49Y-6.07
X5.49Y-6.12
X5.49Y-6.17
X5.49Y-6.22
X5.49Y-6.48
X5.49Y-6.72
X5.49Y-6.77
X5.49Y-6.82
X5.49Y-6.87
X5.5Y-3.43
X5.5Y-4.18
X5.5Y-4.22
X5.5Y-4.26
X5.5Y-4.31
X5.5Y-4.9
X5.5Y-5.82
X5.51Y-5.0
X5.51Y-5.07
X5.51Y-5.2
X5.51Y-6.3
X5.52Y-2.57
X5.52Y-3.85
X5.52Y-4.95
X5.52Y-5.14
X5.53Y-3.38
X5.53Y-4.83
X5.53Y-6.44
X5.54Y-4.22
X5.54Y-4.27
X5.54Y-5.8
X5.54Y-6.07
X5.54Y-6.12
X5.54Y-6.17
X5.54Y-6.22
X5.55Y-3.7
X5.55Y-4.87
X5.55Y-6.26
X5.56Y-3.33
X5.56Y-3.43
X5.56Y-6.96
X5.57Y-4.92
X5.57Y-5.0
X5.57Y-5.08
X5.57Y-5.14
X5.57Y-5.36
X5.57Y-5.65
X5.57Y-6.4
X5.58Y-2.6
X5.58Y-2.64
X5.58Y-2.68
X5.58Y-3.79
X5.58Y-4.25
X5.58Y-4.54
X5.58Y-4.64
X5.58Y-5.8
X5.59Y-2.1111
X5.59Y-3.38
X5.59Y-6.22
X5.591Y-4.729
X5.6Y-3.1
X5.6Y-6.37
X5.61Y-2.57
X5.61Y-3.33
X5.61Y-3.65
X5.61Y-4.04
X5.61Y-4.56
X5.61Y-5.36
X5.62Y-3.43
X5.62Y-4.24
X5.62Y-4.35
X5.62Y-4.6
X5.63Y-3.25
X5.63Y-4.2
X5.63Y-5.61
X5.63Y-5.8
X5.63Y-6.18
X5.64Y-2.06
X5.64Y-4.32
X5.64Y-4.69
X5.64Y-4.85
X5.64Y-4.95
X5.64Y-5.01
X5.64Y-5.08
X5.64Y-5.14
X5.64Y-5.2
X5.64Y-6.33
X5.65Y-2.57
X5.65Y-3.38
X5.65Y-3.72
X5.65Y-4.48
X5.65Y-4.75
X5.6506Y-4.4073
X5.66Y-2.24
X5.66Y-4.0
X5.66Y-5.36
X5.67Y-4.35
X5.67Y-4.66
X5.67Y-4.72
X5.67Y-6.14
X5.68Y-2.15
X5.68Y-3.33
X5.68Y-3.43
X5.68Y-3.58
X5.68Y-4.48
X5.68Y-4.51
X5.68Y-4.85
X5.68Y-4.9
X5.68Y-4.98
X5.68Y-5.02
X5.68Y-5.08
X5.68Y-5.14
X5.68Y-5.2
X5.68Y-5.61
X5.68Y-5.65
X5.68Y-5.8
X5.68Y-6.29
X5.69Y-2.57
X5.69Y-6.93
X5.6995Y-4.1358
X5.7Y-3.96
X5.7Y-4.75
X5.71Y-4.05
X5.71Y-4.32
X5.71Y-5.36
X5.71Y-6.1
X5.72Y-2.26
X5.72Y-2.31
X5.72Y-2.39
X5.72Y-2.44
X5.72Y-2.47
X5.72Y-2.52
X5.72Y-3.38
X5.72Y-4.67
X5.72Y-6.25
X5.73Y-2.57
X5.73Y-3.68
X5.73Y-5.61
X5.73Y-5.65
X5.73Y-5.8
X5.74Y-3.58
X5.74Y-3.92
X5.74Y-4.85
X5.74Y-4.9
X5.74Y-4.96
X5.74Y-5.04
X5.74Y-5.08
X5.74Y-5.12
X5.74Y-5.16
X5.75Y-3.33
X5.75Y-3.43
X5.75Y-4.01
X5.75Y-4.19
X5.75Y-4.35
X5.75Y-4.7
X5.75Y-4.75
X5.75Y-6.06
X5.76Y-2.6
X5.76Y-2.64
X5.76Y-2.68
X5.76Y-4.05
X5.76Y-4.62
X5.76Y-5.36
X5.76Y-6.21
X5.77Y-3.73
X5.77Y-4.56
X5.77Y-4.97
X5.78Y-3.88
X5.78Y-4.73
X5.78Y-4.85
X5.78Y-4.92
X5.78Y-5.04
X5.78Y-5.08
X5.78Y-5.12
X5.78Y-5.61
X5.78Y-5.8
X5.79Y-3.38
X5.79Y-3.97
X5.79Y-4.2
X5.79Y-4.28
X5.79Y-5.16
X5.8Y-4.24
X5.8Y-4.63
X5.8Y-6.17
X5.807Y-4.713
X5.81Y-3.1
X5.81Y-4.01
X5.81Y-4.05
X5.81Y-4.14
X5.81Y-4.56
X5.81Y-4.67
X5.81Y-4.89
X5.81Y-4.98
X5.82Y-3.58
X5.82Y-3.84
X5.82Y-4.85
X5.82Y-5.04
X5.83Y-3.43
X5.83Y-3.93
X5.83Y-3.98
X5.83Y-4.24
X5.83Y-4.32
X5.83Y-4.93
X5.83Y-5.09
X5.83Y-5.36
X5.84Y-3.2
X5.84Y-5.16
X5.84Y-5.61
X5.84Y-6.13
X5.85Y-3.32
X5.85Y-4.05
X5.85Y-4.35
X5.85Y-4.56
X5.85Y-4.63
X5.85Y-4.85
X5.86Y-2.96
X5.86Y-3.89
X5.86Y-3.96
X5.86Y-4.01
X5.86Y-4.19
X5.86Y-4.72
X5.86Y-4.98
X5.86Y-5.12
X5.87Y-3.68
X5.87Y-4.11
X5.87Y-4.67
X5.87Y-4.89
X5.87Y-4.94
X5.87Y-5.04
X5.88Y-6.09
X5.89Y-3.58
X5.89Y-3.92
X5.89Y-3.99
X5.89Y-4.56
X5.89Y-4.75
X5.89Y-4.85
X5.89Y-5.61
X5.9Y-3.75
X5.9Y-4.05
X5.9Y-4.14
X5.9Y-4.23
X5.9Y-5.04
X5.9Y-5.08
X5.9Y-5.12
X5.9Y-5.16
X5.9Y-6.42
X5.9Y-6.47
X5.9Y-6.52
X5.9Y-6.57
X5.9Y-6.87
X5.91Y-4.9
X5.91Y-4.94
X5.91Y-4.98
X5.92Y-3.12
X5.92Y-3.27
X5.92Y-3.95
X5.92Y-6.05
X5.93Y-2.22
X5.93Y-2.31
X5.93Y-2.36
X5.93Y-2.59
X5.93Y-2.65
X5.93Y-2.7
X5.93Y-2.75
X5.93Y-2.8
X5.93Y-2.85
X5.93Y-4.56
X5.93Y-4.62
X5.93Y-4.67
X5.93Y-4.72
X5.93Y-5.66
X5.94Y-3.99
X5.94Y-4.03
X5.94Y-4.07
X5.94Y-4.18
X5.94Y-4.27
X5.94Y-4.41
X5.94Y-4.48
X5.94Y-4.52
X5.94Y-5.74
X5.94Y-5.8
X5.94Y-5.88
X5.95Y-3.8
X5.95Y-6.42
X5.95Y-6.47
X5.95Y-6.52
X5.95Y-6.57
X5.96Y-3.58
X5.96Y-3.7026
X5.96Y-6.01
X5.97Y-5.7
X5.97Y-5.83
X5.98Y-3.77
X5.98Y-3.82
X5.98Y-3.86
X5.98Y-5.52
X5.98Y-5.58
X5.98Y-5.77
X5.99Y-2.35
X5.99Y-2.59
X5.99Y-2.65
X5.99Y-2.7
X5.99Y-2.75
X5.99Y-2.8
X5.99Y-2.85
X5.99Y-2.89
X5.99Y-3.65
X5.99Y-5.62
X6.0Y-5.44
X6.0Y-5.97
X6.0Y-6.42
X6.0Y-6.47
X6.0Y-6.52
X6.0Y-6.57
X6.01Y-3.17
X6.01Y-3.22
X6.01Y-3.27
X6.01Y-3.34
X6.01Y-5.73
X6.02Y-3.74
X6.02Y-3.79
X6.02Y-3.84
X6.02Y-3.88
X6.02Y-5.56
X6.02Y-5.65
X6.02Y-5.8
X6.03Y-4.26
X6.03Y-4.36
X6.03Y-4.48
X6.03Y-4.52
X6.03Y-4.56
X6.03Y-4.62
X6.03Y-4.66
X6.03Y-4.7
X6.03Y-4.74
X6.03Y-5.3
X6.03Y-5.36
X6.03Y-5.47
X6.04Y-2.27
X6.04Y-2.88
X6.04Y-3.92
X6.04Y-3.97
X6.04Y-4.02
X6.04Y-4.06
X6.04Y-4.11
X6.04Y-4.16
X6.04Y-5.6
X6.0476Y-3.6574
X6.05Y-5.77
X6.05Y-6.42
X6.05Y-6.47
X6.05Y-6.52
X6.05Y-6.57
X6.05Y-6.8
X6.06Y-3.88
X6.06Y-4.19
X6.06Y-4.29
X6.06Y-4.39
X6.06Y-5.33
X6.06Y-5.4
X6.07Y-3.58
X6.07Y-3.74
X6.07Y-3.79
X6.07Y-3.84
X6.07Y-4.52
X6.07Y-4.56
X6.07Y-5.51
X6.08Y-2.88
X6.08Y-4.74
X6.08Y-5.61
X6.08Y-5.66
X6.08Y-5.71
X6.09Y-3.92
X6.09Y-3.97
X6.09Y-4.02
X6.09Y-4.06
X6.09Y-4.11
X6.09Y-4.16
X6.09Y-4.32
X6.09Y-4.42
X6.09Y-4.68
X6.09Y-5.36
X6.1Y-3.14
X6.1Y-3.21
X6.1Y-4.23
X6.1Y-4.83
X6.1Y-5.12
X6.1Y-5.17
X6.1Y-5.23
X6.1Y-5.41
X6.1Y-5.45
X6.1Y-5.54
X6.108Y-3.6537
X6.11Y-4.56
X6.11Y-4.63
X6.12Y-2.88
X6.12Y-3.74
X6.12Y-3.79
X6.12Y-3.84
X6.12Y-3.88
X6.12Y-4.2
X6.12Y-4.35
X6.12Y-4.45
X6.13Y-2.43
X6.13Y-3.18
X6.13Y-4.26
X6.14Y-3.92
X6.14Y-3.97
X6.14Y-4.02
X6.14Y-4.06
X6.14Y-4.11
X6.14Y-4.16
X6.14Y-4.74
X6.15Y-2.57
X6.15Y-3.14
X6.15Y-4.38
X6.15Y-4.48
X6.15Y-4.65
X6.15Y-5.35
X6.16Y-2.88
X6.17Y-3.23
X6.17Y-3.58
X6.17Y-3.74
X6.17Y-3.79
X6.17Y-4.2
X6.17Y-4.25
X6.17Y-4.3
X6.18Y-2.34
X6.18Y-2.48
X6.18Y-3.32
X6.18Y-4.41
X6.18Y-4.82
X6.19Y-2.61
X6.19Y-4.52
X6.19Y-6.74
X6.1929Y-3.6541
X6.2Y-2.88
X6.2Y-4.7
X6.2Y-4.98
X6.2Y-5.34
X6.2Y-5.39
X6.2Y-5.55
X6.2Y-5.64
X6.21Y-3.58
X6.21Y-4.34
X6.21Y-4.44
X6.21Y-5.8
X6.22Y-3.14
X6.22Y-3.2
X6.22Y-3.74
X6.22Y-3.79
X6.22Y-4.2
X6.22Y-4.25
X6.22Y-4.3
X6.22Y-4.86
X6.23Y-2.46
X6.23Y-2.53
X6.23Y-4.56
X6.23Y-5.49
X6.23Y-5.67
X6.24Y-2.66
X6.24Y-2.88
X6.24Y-4.47
X6.24Y-5.58
X6.25Y-3.58
X6.25Y-4.76
X6.25Y-5.36
X6.25Y-5.44
X6.26Y-2.39
X6.26Y-3.62
X6.26Y-4.34
X6.26Y-4.59
X6.27Y-3.74
X6.27Y-3.79
X6.27Y-4.2
X6.27Y-4.25
X6.27Y-4.3
X6.27Y-4.4
X6.27Y-4.5
X6.27Y-5.61
X6.27Y-5.81
X6.28Y-2.58
X6.28Y-2.84
X6.28Y-2.89
X6.28Y-2.94
X6.29Y-2.5
X6.29Y-3.14
X6.29Y-3.2
X6.29Y-3.58
X6.29Y-4.62
X6.3Y-2.72
X6.3Y-4.53
X6.3Y-4.81
X6.3Y-4.98
X6.3Y-5.37
X6.3Y-5.53
X6.31Y-5.65
X6.32Y-3.43
X6.33Y-2.43
X6.33Y-2.84
X6.33Y-2.89
X6.33Y-2.94
X6.33Y-3.24
X6.33Y-3.33
X6.33Y-3.58
X6.33Y-3.74
X6.33Y-3.79
X6.33Y-3.84
X6.33Y-3.89
X6.33Y-3.94
X6.33Y-3.99
X6.33Y-4.2
X6.33Y-4.25
X6.33Y-4.3
X6.33Y-4.36
X6.33Y-4.41
X6.33Y-4.46
X6.33Y-4.56
X6.33Y-4.65
X6.34Y-2.64
X6.3466Y-3.6534
X6.35Y-2.59
X6.35Y-2.77
X6.35Y-5.43
X6.35Y-5.67
X6.36Y-2.54
X6.36Y-4.04
X6.36Y-4.09
X6.36Y-4.14
X6.36Y-4.59
X6.37Y-2.36
X6.37Y-3.58
X6.37Y-4.54
X6.37Y-4.75
X6.38Y-2.89
X6.38Y-2.94
X6.38Y-3.28
X6.38Y-3.38
X6.38Y-3.74
X6.38Y-3.79
X6.38Y-3.84
X6.38Y-3.89
X6.38Y-3.94
X6.38Y-3.99
X6.38Y-4.2
X6.38Y-4.25
X6.38Y-4.3
X6.38Y-4.36
X6.38Y-4.41
X6.38Y-4.46
X6.38Y-5.6
X6.39Y-4.61
X6.39Y-5.49
X6.4Y-2.47
X6.4Y-2.7
X6.4Y-2.82
X6.4Y-4.89
X6.4Y-5.38
X6.4Y-5.79
X6.4Y-6.6
X6.41Y-4.04
X6.41Y-4.09
X6.41Y-4.14
X6.41Y-4.57
X6.41Y-4.75
X6.41Y-4.79
X6.41Y-5.19
X6.42Y-2.58
X6.42Y-2.64
X6.42Y-3.24
X6.42Y-3.33
X6.42Y-4.54
X6.43Y-2.4
X6.43Y-2.94
X6.43Y-4.2
X6.43Y-4.25
X6.43Y-4.3
X6.43Y-4.36
X6.43Y-4.41
X6.43Y-4.46
X6.44Y-4.61
X6.45Y-2.87
X6.45Y-3.0
X6.45Y-5.49
X6.46Y-2.77
X6.46Y-4.04
X6.46Y-4.09
X6.46Y-4.14
X6.46Y-5.02
X6.46Y-5.4
X6.47Y-3.28
X6.47Y-3.33
X6.47Y-4.46
X6.47Y-4.54
X6.47Y-4.57
X6.47Y-4.75
X6.47Y-4.79
X6.47Y-4.83
X6.48Y-2.53
X6.48Y-2.63
X6.48Y-2.69
X6.48Y-2.97
X6.48Y-4.61
X6.48Y-5.19
X6.5Y-2.92
X6.5Y-5.59
X6.51Y-3.37
X6.51Y-5.42
X6.52Y-2.47
X6.52Y-2.77
X6.52Y-2.83
X6.52Y-3.26
X6.52Y-4.54
X6.52Y-5.02
X6.52Y-5.47
X6.53Y-2.67
X6.53Y-3.31
X6.53Y-3.53
X6.53Y-4.2036
X6.53Y-4.23
X6.53Y-4.26
X6.53Y-4.29
X6.53Y-4.32
X6.53Y-4.35
X6.53Y-4.38
X6.53Y-4.61
X6.53Y-6.5
X6.54Y-2.74
X6.54Y-3.58
X6.54Y-3.73
X6.54Y-3.77
X6.54Y-3.81
X6.54Y-3.85
X6.54Y-4.57
X6.54Y-4.75
X6.54Y-4.79
X6.54Y-4.83
X6.54Y-5.25
X6.55Y-2.96
X6.55Y-3.62
X6.55Y-5.33
X6.56Y-2.6
X6.56Y-3.51
X6.56Y-3.55
X6.56Y-3.89
X6.57Y-2.88
X6.57Y-3.24
X6.57Y-4.54
X6.58Y-2.83
X6.58Y-3.85
X6.58Y-4.61
X6.58Y-5.81
X6.59Y-2.72
X6.59Y-2.78
X6.59Y-3.29
X6.59Y-3.35
X6.59Y-3.92
X6.59Y-5.42
X6.6Y-2.96
X6.6Y-3.01
X6.6Y-3.88
X6.6Y-4.57
X6.6Y-4.75
X6.6Y-4.79
X6.6Y-4.83
X6.6Y-5.5
X6.61Y-3.43
X6.61Y-4.28
X6.61Y-4.36
X6.61Y-5.33
X6.61Y-5.37
X6.61Y-5.89
X6.62Y-2.88
X6.62Y-3.2
X6.63Y-2.56
X6.63Y-2.66
X6.63Y-3.85
X6.63Y-4.91
X6.63Y-4.96
X6.63Y-5.02
X6.63Y-5.08
X6.63Y-5.13
X6.63Y-5.19
X6.63Y-5.24
X6.63Y-5.29
X6.63Y-6.31
X6.64Y-2.76
X6.64Y-2.82
X6.64Y-3.68
X6.64Y-4.61
X6.64Y-5.81
X6.65Y-2.96
X6.65Y-3.88
X6.65Y-3.93
X6.65Y-3.98
X6.66Y-3.15
X6.66Y-3.25
X6.66Y-3.3
X6.66Y-3.35
X6.66Y-3.4
X6.66Y-3.45
X6.66Y-3.65
X6.66Y-4.33
X6.66Y-4.75
X6.66Y-4.79
X6.66Y-4.83
X6.66Y-4.93
X6.66Y-4.99
X6.66Y-5.05
X6.66Y-5.1
X6.66Y-5.16
X6.66Y-5.21
X6.66Y-5.26
X6.66Y-5.89
X6.67Y-2.88
X6.67Y-4.41
X6.68Y-2.71
X6.68Y-2.8
X6.68Y-3.85
X6.6819Y-6.4188
X6.69Y-4.28
X6.69Y-5.81
X6.69Y-6.55
X6.7Y-2.63
X6.7Y-3.6574
X6.7Y-3.88
X6.7Y-3.93
X6.7Y-3.98
X6.71Y-3.1
X6.71Y-3.25
X6.71Y-3.3
X6.71Y-3.35
X6.71Y-3.4
X6.71Y-3.45
X6.71Y-5.89
X6.7102Y-6.2915
X6.72Y-2.84
X6.72Y-2.88
X6.72Y-3.51
X6.7274Y-6.4643
X6.73Y-3.85
X6.73Y-4.32
X6.73Y-4.37
X6.73Y-4.42
X6.73Y-4.47
X6.74Y-3.07
X6.74Y-5.81
X6.74Y-6.51
X6.75Y-3.51
X6.75Y-3.88
X6.75Y-3.93
X6.75Y-3.98
X6.75Y-4.28
X6.76Y-3.25
X6.76Y-3.3
X6.76Y-3.35
X6.76Y-3.4
X6.76Y-3.45
X6.76Y-3.69
X6.76Y-5.89
X6.77Y-6.47
X6.78Y-3.03
X6.78Y-4.32
X6.78Y-4.37
X6.78Y-4.42
X6.78Y-4.47
X6.78Y-4.53
X6.79Y-3.51
X6.79Y-5.81
X6.7925Y-2.8651
X6.8Y-2.96
X6.8Y-3.99
X6.8Y-5.5
X6.8Y-6.44
X6.81Y-3.25
X6.81Y-3.3
X6.81Y-3.35
X6.81Y-3.4
X6.81Y-3.45
X6.81Y-4.57
X6.81Y-5.89
X6.82Y-2.65
X6.82Y-4.28
X6.82Y-4.72
X6.82Y-4.9
X6.82Y-4.94
X6.82Y-5.14
X6.82Y-5.18
X6.82Y-5.23
X6.82Y-5.28
X6.82Y-4.6655
X6.8217Y-2.8803
X6.83Y-3.53
X6.83Y-3.68
X6.83Y-4.32
X6.83Y-4.37
X6.83Y-4.42
X6.83Y-4.47
X6.84Y-3.99
X6.84Y-4.53
X6.84Y-4.75
X6.84Y-5.32
X6.84Y-5.36
X6.84Y-5.52
X6.84Y-5.81
X6.85Y-2.96
X6.85Y-3.72
X6.85Y-4.61
X6.86Y-2.61
X6.86Y-3.25
X6.86Y-3.3
X6.86Y-3.35
X6.86Y-3.4
X6.86Y-3.45
X6.86Y-4.72
X6.86Y-5.78
X6.86Y-5.89
X6.86Y-6.19
X6.87Y-3.53
X6.87Y-3.67
X6.88Y-4.32
X6.88Y-4.37
X6.88Y-4.42
X6.88Y-4.47
X6.88Y-4.57
X6.8823Y-4.6648
X6.89Y-3.99
X6.89Y-4.28
X6.89Y-4.53
X6.89Y-4.75
X6.89Y-4.88
X6.89Y-4.95
X6.89Y-5.13
X6.89Y-5.23
X6.89Y-5.28
X6.89Y-5.5
X6.9Y-2.57
X6.9Y-3.72
X6.9Y-4.61
X6.9Y-5.86
X6.91Y-3.66
X6.91Y-6.33
X6.9197Y-2.8934
X6.92Y-2.95
X6.92Y-3.53
X6.93Y-4.32
X6.93Y-4.37
X6.93Y-4.42
X6.93Y-4.47
X6.93Y-4.57
X6.93Y-4.57
X6.93Y-5.34
X6.94Y-4.53
X6.94Y-4.67
X6.94Y-4.87
X6.94Y-4.95
X6.94Y-5.82
X6.95Y-2.78
X6.95Y-2.92
X6.95Y-3.72
X6.95Y-5.14
X6.95Y-5.18
X6.95Y-5.52
X6.95Y-6.09
X6.96Y-3.66
X6.96Y-4.61
X6.96Y-5.07
X6.96Y-5.3
X6.9652Y-2.8479
X6.97Y-3.53
X6.97Y-4.73
X6.97Y-6.37
X6.98Y-2.88
X6.98Y-3.69
X6.98Y-4.32
X6.98Y-4.37
X6.98Y-4.42
X6.98Y-4.47
X6.98Y-5.1
X6.98Y-5.25
X6.98Y-5.37
X6.98Y-5.84
X6.99Y-4.53
X6.99Y-4.67
X6.99Y-5.49
X7.0Y-2.83
X7.0Y-4.57
X7.0Y-4.61
X7.0Y-5.07
X7.01Y-4.77
X7.01Y-4.84
X7.01Y-4.96
X7.01Y-6.41
X7.02Y-2.98
X7.02Y-3.03
X7.02Y-3.08
X7.02Y-3.13
X7.02Y-3.18
X7.02Y-3.53
X7.02Y-3.82
X7.02Y-3.89
X7.02Y-3.95
X7.02Y-4.0
X7.02Y-4.72
X7.02Y-5.1
X7.02Y-6.01
X7.03Y-3.66
X7.03Y-3.72
X7.03Y-4.2
X7.03Y-4.32
X7.03Y-4.37
X7.03Y-4.42
X7.03Y-4.47
X7.03Y-4.68
X7.03Y-5.54
X7.03Y-5.84
X7.04Y-4.81
X7.04Y-4.87
X7.04Y-4.92
X7.04Y-5.07
X7.04Y-5.37
X7.05Y-3.59
X7.05Y-4.53
X7.05Y-4.57
X7.05Y-4.61
X7.06Y-3.82
X7.06Y-3.89
X7.06Y-4.96
X7.06Y-5.11
X7.07Y-2.98
X7.07Y-3.03
X7.07Y-3.08
X7.07Y-3.13
X7.07Y-3.18
X7.07Y-4.2
X7.07Y-4.71
X7.08Y-4.32
X7.08Y-4.37
X7.08Y-4.42
X7.08Y-4.47
X7.08Y-5.54
X7.09Y-3.87
X7.09Y-3.92
X7.09Y-3.96
X7.09Y-4.0
X7.09Y-5.16
X7.09Y-5.21
X7.09Y-5.27
X7.09Y-5.32
X7.09Y-5.37
X7.09Y-5.5
X7.1Y-4.86
X7.11Y-4.2
X7.11Y-4.79
X7.11Y-4.96
X7.12Y-2.98
X7.12Y-3.03
X7.12Y-3.08
X7.12Y-3.13
X7.12Y-3.18
X7.12Y-4.53
X7.12Y-4.58
X7.13Y-4.32
X7.13Y-4.37
X7.13Y-4.42
X7.13Y-4.47
X7.13Y-4.71
X7.13Y-5.86
X7.14Y-5.01
X7.14Y-5.07
X7.15Y-4.2
X7.15Y-4.93
X7.17Y-2.98
X7.17Y-3.03
X7.17Y-3.08
X7.17Y-3.13
X7.17Y-3.18
X7.17Y-4.53
X7.17Y-4.58
X7.17Y-5.12
X7.17Y-5.16
X7.17Y-5.2
X7.17Y-5.24
X7.17Y-5.29
X7.17Y-5.34
X7.17Y-5.38
X7.17Y-5.42
X7.17Y-5.47
X7.17Y-5.53
X7.17Y-5.57
X7.18Y-4.32
X7.18Y-4.37
X7.18Y-4.42
X7.18Y-4.47
X7.18Y-4.71
X7.18Y-4.79
X7.19Y-4.2
X7.19Y-4.27
X7.21Y-4.86
X7.21Y-4.97
X7.21Y-5.07
X7.21Y-5.16
X7.21Y-5.28
X7.21Y-5.39
X7.21Y-5.48
X7.21Y-5.73
X7.22Y-2.98
X7.22Y-3.03
X7.22Y-3.08
X7.22Y-3.13
X7.22Y-3.18
X7.23Y-4.71
X7.24Y-3.31
X7.24Y-3.36
X7.24Y-3.41
X7.24Y-3.46
X7.24Y-3.51
X7.25Y-4.27
X7.25Y-4.31
X7.25Y-5.36
X7.27Y-4.79
X7.28Y-4.71
X7.28Y-4.9
X7.28Y-5.16
X7.28Y-5.59
X7.29Y-3.31
X7.29Y-3.36
X7.29Y-3.41
X7.29Y-3.46
X7.29Y-3.51
X7.29Y-4.4
X7.29Y-5.24
X7.3Y-5.02
X7.31Y-4.27
X7.31Y-4.31
X7.33Y-4.71
X7.34Y-3.31
X7.34Y-3.36
X7.34Y-3.41
X7.34Y-3.46
X7.34Y-3.51
X7.34Y-4.79
X7.34Y-5.16
X7.34Y-5.46
X7.35Y-5.06
X7.36Y-4.31
X7.36Y-4.44
X7.36Y-4.53
X7.36Y-4.59
X7.37Y-4.49
X7.37Y-4.95
X7.38Y-4.56
X7.38Y-4.71
X7.38Y-4.85
X7.39Y-3.31
X7.39Y-3.36
X7.39Y-3.41
X7.39Y-3.46
X7.39Y-3.51
X7.4Y-4.61
X7.4Y-5.28
X7.41Y-4.33
X7.41Y-4.75
X7.42Y-4.29
X7.42Y-4.57
X7.42Y-4.69
X7.43Y-4.53
X7.43Y-5.16
X7.44Y-3.31
X7.44Y-3.36
X7.44Y-3.41
X7.44Y-3.46
X7.44Y-3.51
X7.45Y-4.4
X7.46Y-4.34
X7.461Y-4.5953
X7.47Y-4.29
X7.47Y-5.0
X7.49Y-4.71
X7.49Y-4.77
X7.5Y-4.38
X7.52Y-4.29
X7.52Y-4.34
X7.531Y-4.7053
X7.56Y-4.81
X7.57Y-4.2
X7.57Y-4.24
X7.57Y-4.29
X7.57Y-4.34
X7.5953Y-4.7053
X7.63Y-4.64
X7.63Y-4.69
X7.63Y-4.73
X7.63Y-4.78
X7.64Y-4.47
X7.69Y-4.47
X7.75Y-4.47
T2
X5.2Y-3.66
X5.2Y-3.71
X5.25Y-3.66
X5.25Y-3.71
X5.3Y-3.66
X5.3Y-3.71
X5.35Y-3.66
X5.35Y-3.71
X5.4Y-3.66
X5.4Y-3.71
X5.45Y-3.66
X5.45Y-3.71
X5.5Y-3.66
X5.5Y-3.71
T3
X3.11Y-4.26
X3.11Y-4.36
X3.7Y-2.67
X3.8Y-2.67
X5.95Y-2.41
X6.05Y-2.41
T4
X5.5024Y-5.7287
X5.5124Y-5.2793
X5.6008Y-5.7287
X5.6108Y-5.2793
X5.6992Y-5.7287
X5.7092Y-5.2793
X5.7976Y-5.7287
X5.8076Y-5.2793
X6.0539Y-4.9393
X6.1524Y-4.9393
X6.1524Y-5.7393
X6.2508Y-4.9393
X6.2508Y-5.7393
X6.3492Y-4.9393
X6.3492Y-5.7393
X6.4476Y-4.9393
X6.4476Y-5.7393
X6.5461Y-4.9393
X6.7424Y-5.4493
X6.8408Y-5.4493
X6.9392Y-5.4493
X7.0376Y-5.4493
T5
X2.361Y-4.4372
X2.361Y-4.5372
X3.0744Y-6.3595
X3.1451Y-2.6441
X3.1451Y-6.4302
X3.2158Y-2.5734
X4.4679Y-5.56
X4.4679Y-5.66
X4.4679Y-5.76
X4.4679Y-5.86
X4.47Y-6.18
X4.47Y-6.28
X4.47Y-6.38
X4.47Y-6.48
X4.57Y-6.18
X4.57Y-6.28
X4.57Y-6.38
X4.57Y-6.48
X4.6486Y-5.56
X4.6486Y-5.66
X4.6486Y-5.76
X4.6486Y-5.86
X4.9381Y-7.2143
X5.0381Y-1.86
X5.0381Y-7.2143
X5.04Y-5.5476
X5.04Y-5.6476
X5.04Y-5.7476
X5.04Y-5.8476
X5.13Y-6.18
X5.13Y-6.28
X5.13Y-6.38
X5.13Y-6.48
X5.1381Y-1.86
X5.23Y-6.18
X5.23Y-6.28
X5.23Y-6.38
X5.23Y-6.48
X5.2321Y-5.5476
X5.2321Y-5.6476
X5.2321Y-5.7476
X5.2321Y-5.8476
X6.8605Y-6.5009
X6.9312Y-2.6441
X6.9312Y-6.4302
X7.0019Y-2.7148
X7.7153Y-4.5372
X7.7153Y-4.6372
T6
X7.4876Y-3.9328
X7.4876Y-4.0706
M30
