%TF.GenerationSoftware,KiCad,Pcbnew,9.0.6*%
%TF.CreationDate,2026-01-06T23:31:54+01:00*%
%TF.ProjectId,uMule_transmiter,754d756c-655f-4747-9261-6e736d697465,rev?*%
%TF.SameCoordinates,Original*%
%TF.FileFunction,Soldermask,Top*%
%TF.FilePolarity,Negative*%
%FSLAX46Y46*%
G04 Gerber Fmt 4.6, Leading zero omitted, Abs format (unit mm)*
G04 Created by KiCad (PCBNEW 9.0.6) date 2026-01-06 23:31:54*
%MOMM*%
%LPD*%
G01*
G04 APERTURE LIST*
G04 Aperture macros list*
%AMRoundRect*
0 Rectangle with rounded corners*
0 $1 Rounding radius*
0 $2 $3 $4 $5 $6 $7 $8 $9 X,Y pos of 4 corners*
0 Add a 4 corners polygon primitive as box body*
4,1,4,$2,$3,$4,$5,$6,$7,$8,$9,$2,$3,0*
0 Add four circle primitives for the rounded corners*
1,1,$1+$1,$2,$3*
1,1,$1+$1,$4,$5*
1,1,$1+$1,$6,$7*
1,1,$1+$1,$8,$9*
0 Add four rect primitives between the rounded corners*
20,1,$1+$1,$2,$3,$4,$5,0*
20,1,$1+$1,$4,$5,$6,$7,0*
20,1,$1+$1,$6,$7,$8,$9,0*
20,1,$1+$1,$8,$9,$2,$3,0*%
%AMFreePoly0*
4,1,23,0.500000,-0.750000,0.000000,-0.750000,0.000000,-0.745722,-0.065263,-0.745722,-0.191342,-0.711940,-0.304381,-0.646677,-0.396677,-0.554381,-0.461940,-0.441342,-0.495722,-0.315263,-0.495722,-0.250000,-0.500000,-0.250000,-0.500000,0.250000,-0.495722,0.250000,-0.495722,0.315263,-0.461940,0.441342,-0.396677,0.554381,-0.304381,0.646677,-0.191342,0.711940,-0.065263,0.745722,0.000000,0.745722,
0.000000,0.750000,0.500000,0.750000,0.500000,-0.750000,0.500000,-0.750000,$1*%
%AMFreePoly1*
4,1,23,0.000000,0.745722,0.065263,0.745722,0.191342,0.711940,0.304381,0.646677,0.396677,0.554381,0.461940,0.441342,0.495722,0.315263,0.495722,0.250000,0.500000,0.250000,0.500000,-0.250000,0.495722,-0.250000,0.495722,-0.315263,0.461940,-0.441342,0.396677,-0.554381,0.304381,-0.646677,0.191342,-0.711940,0.065263,-0.745722,0.000000,-0.745722,0.000000,-0.750000,-0.500000,-0.750000,
-0.500000,0.750000,0.000000,0.750000,0.000000,0.745722,0.000000,0.745722,$1*%
G04 Aperture macros list end*
%ADD10RoundRect,0.237500X-0.237500X0.300000X-0.237500X-0.300000X0.237500X-0.300000X0.237500X0.300000X0*%
%ADD11RoundRect,0.237500X0.250000X0.237500X-0.250000X0.237500X-0.250000X-0.237500X0.250000X-0.237500X0*%
%ADD12RoundRect,0.237500X-0.250000X-0.237500X0.250000X-0.237500X0.250000X0.237500X-0.250000X0.237500X0*%
%ADD13RoundRect,0.250000X1.550000X-0.650000X1.550000X0.650000X-1.550000X0.650000X-1.550000X-0.650000X0*%
%ADD14O,3.600000X1.800000*%
%ADD15RoundRect,0.237500X-0.237500X0.250000X-0.237500X-0.250000X0.237500X-0.250000X0.237500X0.250000X0*%
%ADD16RoundRect,0.250000X-0.625000X0.400000X-0.625000X-0.400000X0.625000X-0.400000X0.625000X0.400000X0*%
%ADD17C,0.800000*%
%ADD18C,6.400000*%
%ADD19C,1.440000*%
%ADD20R,1.700000X1.700000*%
%ADD21C,1.700000*%
%ADD22RoundRect,0.150000X0.150000X-0.825000X0.150000X0.825000X-0.150000X0.825000X-0.150000X-0.825000X0*%
%ADD23R,1.800000X1.800000*%
%ADD24C,1.800000*%
%ADD25RoundRect,0.237500X0.237500X-0.300000X0.237500X0.300000X-0.237500X0.300000X-0.237500X-0.300000X0*%
%ADD26RoundRect,0.237500X0.300000X0.237500X-0.300000X0.237500X-0.300000X-0.237500X0.300000X-0.237500X0*%
%ADD27RoundRect,0.250000X0.650000X-1.000000X0.650000X1.000000X-0.650000X1.000000X-0.650000X-1.000000X0*%
%ADD28C,1.600000*%
%ADD29RoundRect,0.250000X0.650000X1.550000X-0.650000X1.550000X-0.650000X-1.550000X0.650000X-1.550000X0*%
%ADD30O,1.800000X3.600000*%
%ADD31RoundRect,0.200000X-0.200000X-1.150000X0.200000X-1.150000X0.200000X1.150000X-0.200000X1.150000X0*%
%ADD32RoundRect,0.250000X1.000000X0.650000X-1.000000X0.650000X-1.000000X-0.650000X1.000000X-0.650000X0*%
%ADD33RoundRect,0.250000X-0.475000X0.250000X-0.475000X-0.250000X0.475000X-0.250000X0.475000X0.250000X0*%
%ADD34RoundRect,0.237500X-0.300000X-0.237500X0.300000X-0.237500X0.300000X0.237500X-0.300000X0.237500X0*%
%ADD35FreePoly0,270.000000*%
%ADD36FreePoly1,270.000000*%
%ADD37R,0.300000X0.400000*%
%ADD38O,0.650000X0.400000*%
%ADD39R,0.650000X1.000000*%
%ADD40R,1.650000X2.400000*%
%ADD41RoundRect,0.250000X0.475000X-0.250000X0.475000X0.250000X-0.475000X0.250000X-0.475000X-0.250000X0*%
G04 APERTURE END LIST*
%TO.C,JP2*%
G36*
X155690000Y-114800000D02*
G01*
X154190000Y-114800000D01*
X154190000Y-115100000D01*
X155690000Y-115100000D01*
X155690000Y-114800000D01*
G37*
%TO.C,JP1*%
G36*
X164834000Y-115015500D02*
G01*
X163334000Y-115015500D01*
X163334000Y-115315500D01*
X164834000Y-115315500D01*
X164834000Y-115015500D01*
G37*
%TD*%
D10*
%TO.C,C5*%
X150114000Y-97181500D03*
X150114000Y-98906500D03*
%TD*%
D11*
%TO.C,R14*%
X167433000Y-121158000D03*
X165608000Y-121158000D03*
%TD*%
D12*
%TO.C,R23*%
X151638000Y-121158000D03*
X153463000Y-121158000D03*
%TD*%
D11*
%TO.C,R12*%
X167433000Y-122682000D03*
X165608000Y-122682000D03*
%TD*%
D13*
%TO.C,J9*%
X133858000Y-123952000D03*
D14*
X133858000Y-120452000D03*
%TD*%
D15*
%TO.C,R11*%
X162052000Y-114253000D03*
X162052000Y-116078000D03*
%TD*%
%TO.C,R21*%
X156972000Y-114046000D03*
X156972000Y-115871000D03*
%TD*%
D16*
%TO.C,R4*%
X170942000Y-99516000D03*
X170942000Y-102616000D03*
%TD*%
D17*
%TO.C,H1*%
X128100000Y-74620000D03*
X128802944Y-72922944D03*
X128802944Y-76317056D03*
X130500000Y-72220000D03*
D18*
X130500000Y-74620000D03*
D17*
X130500000Y-77020000D03*
X132197056Y-72922944D03*
X132197056Y-76317056D03*
X132900000Y-74620000D03*
%TD*%
D15*
%TO.C,R2*%
X163068000Y-97940500D03*
X163068000Y-99765500D03*
%TD*%
D19*
%TO.C,RV2*%
X156972000Y-106426000D03*
X156972000Y-108966000D03*
X156972000Y-111506000D03*
%TD*%
D10*
%TO.C,C7*%
X140208000Y-96607500D03*
X140208000Y-98332500D03*
%TD*%
D20*
%TO.C,J7*%
X168910000Y-133096000D03*
D21*
X168910000Y-130556000D03*
X171450000Y-133096000D03*
X171450000Y-130556000D03*
%TD*%
D22*
%TO.C,U3*%
X155702000Y-131188000D03*
X156972000Y-131188000D03*
X158242000Y-131188000D03*
X159512000Y-131188000D03*
X160782000Y-131188000D03*
X162052000Y-131188000D03*
X163322000Y-131188000D03*
X163322000Y-126238000D03*
X162052000Y-126238000D03*
X160782000Y-126238000D03*
X159512000Y-126238000D03*
X158242000Y-126238000D03*
X156972000Y-126238000D03*
X155702000Y-126238000D03*
%TD*%
D23*
%TO.C,D10*%
X132588000Y-83820000D03*
D24*
X135128000Y-83820000D03*
%TD*%
D12*
%TO.C,R19*%
X155197000Y-134874000D03*
X157022000Y-134874000D03*
%TD*%
D25*
%TO.C,C14*%
X140208000Y-129540000D03*
X140208000Y-127815000D03*
%TD*%
D12*
%TO.C,R10*%
X162052000Y-124206000D03*
X163877000Y-124206000D03*
%TD*%
D11*
%TO.C,R13*%
X160424500Y-137922000D03*
X158599500Y-137922000D03*
%TD*%
D19*
%TO.C,RV1*%
X162052000Y-106426000D03*
X162052000Y-108966000D03*
X162052000Y-111506000D03*
%TD*%
D11*
%TO.C,R1*%
X182268500Y-104240500D03*
X180443500Y-104240500D03*
%TD*%
D10*
%TO.C,C1*%
X178816000Y-96927500D03*
X178816000Y-98652500D03*
%TD*%
D26*
%TO.C,C9*%
X156972000Y-133350000D03*
X155247000Y-133350000D03*
%TD*%
D27*
%TO.C,D1*%
X178816000Y-94424000D03*
X178816000Y-90424000D03*
%TD*%
D20*
%TO.C,J4*%
X152654000Y-101954500D03*
%TD*%
D28*
%TO.C,R16*%
X156972000Y-118618000D03*
X149352000Y-118618000D03*
%TD*%
D25*
%TO.C,C16*%
X143256000Y-129540000D03*
X143256000Y-127815000D03*
%TD*%
D17*
%TO.C,H3*%
X182069126Y-137479126D03*
X182772070Y-135782070D03*
X182772070Y-139176182D03*
X184469126Y-135079126D03*
D18*
X184469126Y-137479126D03*
D17*
X184469126Y-139879126D03*
X186166182Y-135782070D03*
X186166182Y-139176182D03*
X186869126Y-137479126D03*
%TD*%
D23*
%TO.C,D7*%
X152400000Y-83820000D03*
D24*
X154940000Y-83820000D03*
%TD*%
D12*
%TO.C,R20*%
X158599500Y-134874000D03*
X160424500Y-134874000D03*
%TD*%
%TO.C,R15*%
X158599500Y-136398000D03*
X160424500Y-136398000D03*
%TD*%
D15*
%TO.C,R6*%
X134366000Y-98194500D03*
X134366000Y-100019500D03*
%TD*%
D23*
%TO.C,D8*%
X145796000Y-83820000D03*
D24*
X148336000Y-83820000D03*
%TD*%
D12*
%TO.C,R22*%
X151638000Y-122682000D03*
X153463000Y-122682000D03*
%TD*%
D11*
%TO.C,R18*%
X156972000Y-124206000D03*
X155147000Y-124206000D03*
%TD*%
D29*
%TO.C,J3*%
X145422500Y-75557500D03*
D30*
X141922500Y-75557500D03*
%TD*%
D25*
%TO.C,C15*%
X141732000Y-129540000D03*
X141732000Y-127815000D03*
%TD*%
D31*
%TO.C,L1*%
X171242000Y-90424000D03*
X173542000Y-90424000D03*
%TD*%
D32*
%TO.C,D11*%
X135350000Y-128778000D03*
X131350000Y-128778000D03*
%TD*%
D25*
%TO.C,C4*%
X178816000Y-102563000D03*
X178816000Y-100838000D03*
%TD*%
D23*
%TO.C,D9*%
X139192000Y-83820000D03*
D24*
X141732000Y-83820000D03*
%TD*%
D31*
%TO.C,L2*%
X142540000Y-90678000D03*
X144840000Y-90678000D03*
%TD*%
D20*
%TO.C,J6*%
X172720000Y-118872000D03*
D21*
X172720000Y-116332000D03*
X175260000Y-118872000D03*
X175260000Y-116332000D03*
%TD*%
D33*
%TO.C,C2*%
X167132000Y-96266000D03*
X167132000Y-98166000D03*
%TD*%
D23*
%TO.C,D4*%
X167894000Y-83566000D03*
D24*
X170434000Y-83566000D03*
%TD*%
D15*
%TO.C,R3*%
X163068000Y-94591500D03*
X163068000Y-96416500D03*
%TD*%
D12*
%TO.C,R17*%
X155197000Y-136398000D03*
X157022000Y-136398000D03*
%TD*%
D23*
%TO.C,D2*%
X181102000Y-83566000D03*
D24*
X183642000Y-83566000D03*
%TD*%
D25*
%TO.C,C12*%
X153924000Y-129575500D03*
X153924000Y-127850500D03*
%TD*%
D34*
%TO.C,C10*%
X162052000Y-134874000D03*
X163777000Y-134874000D03*
%TD*%
D33*
%TO.C,C6*%
X138430000Y-96520000D03*
X138430000Y-98420000D03*
%TD*%
D35*
%TO.C,JP2*%
X154940000Y-114300000D03*
D36*
X154940000Y-115600000D03*
%TD*%
D23*
%TO.C,D3*%
X174498000Y-83566000D03*
D24*
X177038000Y-83566000D03*
%TD*%
D20*
%TO.C,J2*%
X181356000Y-101700500D03*
%TD*%
D10*
%TO.C,C3*%
X168910000Y-96353500D03*
X168910000Y-98078500D03*
%TD*%
D16*
%TO.C,R8*%
X142240000Y-99770000D03*
X142240000Y-102870000D03*
%TD*%
D34*
%TO.C,C11*%
X162052000Y-133350000D03*
X163777000Y-133350000D03*
%TD*%
D25*
%TO.C,C8*%
X150114000Y-102817000D03*
X150114000Y-101092000D03*
%TD*%
D11*
%TO.C,R5*%
X153566500Y-104494500D03*
X151741500Y-104494500D03*
%TD*%
D15*
%TO.C,R7*%
X134366000Y-94845500D03*
X134366000Y-96670500D03*
%TD*%
D37*
%TO.C,U2*%
X141988000Y-95362000D03*
D38*
X142188000Y-95362000D03*
D37*
X141988000Y-96012000D03*
D38*
X142188000Y-96012000D03*
D37*
X141988000Y-96662000D03*
D38*
X142188000Y-96662000D03*
D37*
X141988000Y-97312000D03*
D38*
X142188000Y-97312000D03*
X145288000Y-97312000D03*
D37*
X145488000Y-97312000D03*
D38*
X145288000Y-96662000D03*
D37*
X145488000Y-96662000D03*
D38*
X145288000Y-96012000D03*
D37*
X145488000Y-96012000D03*
D38*
X145288000Y-95362000D03*
D37*
X145488000Y-95362000D03*
D39*
X143288000Y-95712000D03*
X143288000Y-96962000D03*
D40*
X143738000Y-96337000D03*
D39*
X144188000Y-95712000D03*
X144188000Y-96962000D03*
%TD*%
D27*
%TO.C,D6*%
X150114000Y-94678000D03*
X150114000Y-90678000D03*
%TD*%
D28*
%TO.C,R9*%
X162052000Y-118872000D03*
X169672000Y-118872000D03*
%TD*%
D35*
%TO.C,JP1*%
X164084000Y-114515500D03*
D36*
X164084000Y-115815500D03*
%TD*%
D17*
%TO.C,H2*%
X182060000Y-74620000D03*
X182762944Y-72922944D03*
X182762944Y-76317056D03*
X184460000Y-72220000D03*
D18*
X184460000Y-74620000D03*
D17*
X184460000Y-77020000D03*
X186157056Y-72922944D03*
X186157056Y-76317056D03*
X186860000Y-74620000D03*
%TD*%
D41*
%TO.C,C13*%
X138430000Y-129627500D03*
X138430000Y-127727500D03*
%TD*%
D17*
%TO.C,H4*%
X128090874Y-137479126D03*
X128793818Y-135782070D03*
X128793818Y-139176182D03*
X130490874Y-135079126D03*
D18*
X130490874Y-137479126D03*
D17*
X130490874Y-139879126D03*
X132187930Y-135782070D03*
X132187930Y-139176182D03*
X132890874Y-137479126D03*
%TD*%
D37*
%TO.C,U1*%
X170462000Y-95108000D03*
D38*
X170662000Y-95108000D03*
D37*
X170462000Y-95758000D03*
D38*
X170662000Y-95758000D03*
D37*
X170462000Y-96408000D03*
D38*
X170662000Y-96408000D03*
D37*
X170462000Y-97058000D03*
D38*
X170662000Y-97058000D03*
X173762000Y-97058000D03*
D37*
X173962000Y-97058000D03*
D38*
X173762000Y-96408000D03*
D37*
X173962000Y-96408000D03*
D38*
X173762000Y-95758000D03*
D37*
X173962000Y-95758000D03*
D38*
X173762000Y-95108000D03*
D37*
X173962000Y-95108000D03*
D39*
X171762000Y-95458000D03*
X171762000Y-96708000D03*
D40*
X172212000Y-96083000D03*
D39*
X172662000Y-95458000D03*
X172662000Y-96708000D03*
%TD*%
D29*
%TO.C,J1*%
X174124500Y-75303500D03*
D30*
X170624500Y-75303500D03*
%TD*%
D23*
%TO.C,D5*%
X161290000Y-83566000D03*
D24*
X163830000Y-83566000D03*
%TD*%
D20*
%TO.C,J5*%
X150368000Y-133350000D03*
D21*
X150368000Y-130810000D03*
X147828000Y-133350000D03*
X147828000Y-130810000D03*
%TD*%
D20*
%TO.C,J8*%
X146304000Y-118618000D03*
D21*
X146304000Y-116078000D03*
X143764000Y-118618000D03*
X143764000Y-116078000D03*
%TD*%
M02*
