%TF.GenerationSoftware,KiCad,Pcbnew,9.0.6*%
%TF.CreationDate,2026-01-06T23:31:54+01:00*%
%TF.ProjectId,uMule_transmiter,754d756c-655f-4747-9261-6e736d697465,rev?*%
%TF.SameCoordinates,Original*%
%TF.FileFunction,Copper,L2,Bot*%
%TF.FilePolarity,Positive*%
%FSLAX46Y46*%
G04 Gerber Fmt 4.6, Leading zero omitted, Abs format (unit mm)*
G04 Created by KiCad (PCBNEW 9.0.6) date 2026-01-06 23:31:54*
%MOMM*%
%LPD*%
G01*
G04 APERTURE LIST*
G04 Aperture macros list*
%AMRoundRect*
0 Rectangle with rounded corners*
0 $1 Rounding radius*
0 $2 $3 $4 $5 $6 $7 $8 $9 X,Y pos of 4 corners*
0 Add a 4 corners polygon primitive as box body*
4,1,4,$2,$3,$4,$5,$6,$7,$8,$9,$2,$3,0*
0 Add four circle primitives for the rounded corners*
1,1,$1+$1,$2,$3*
1,1,$1+$1,$4,$5*
1,1,$1+$1,$6,$7*
1,1,$1+$1,$8,$9*
0 Add four rect primitives between the rounded corners*
20,1,$1+$1,$2,$3,$4,$5,0*
20,1,$1+$1,$4,$5,$6,$7,0*
20,1,$1+$1,$6,$7,$8,$9,0*
20,1,$1+$1,$8,$9,$2,$3,0*%
G04 Aperture macros list end*
%TA.AperFunction,ComponentPad*%
%ADD10RoundRect,0.250000X1.550000X-0.650000X1.550000X0.650000X-1.550000X0.650000X-1.550000X-0.650000X0*%
%TD*%
%TA.AperFunction,ComponentPad*%
%ADD11O,3.600000X1.800000*%
%TD*%
%TA.AperFunction,ComponentPad*%
%ADD12C,0.800000*%
%TD*%
%TA.AperFunction,ComponentPad*%
%ADD13C,6.400000*%
%TD*%
%TA.AperFunction,ComponentPad*%
%ADD14C,1.440000*%
%TD*%
%TA.AperFunction,ComponentPad*%
%ADD15R,1.700000X1.700000*%
%TD*%
%TA.AperFunction,ComponentPad*%
%ADD16C,1.700000*%
%TD*%
%TA.AperFunction,ComponentPad*%
%ADD17R,1.800000X1.800000*%
%TD*%
%TA.AperFunction,ComponentPad*%
%ADD18C,1.800000*%
%TD*%
%TA.AperFunction,ComponentPad*%
%ADD19C,1.600000*%
%TD*%
%TA.AperFunction,ComponentPad*%
%ADD20RoundRect,0.250000X0.650000X1.550000X-0.650000X1.550000X-0.650000X-1.550000X0.650000X-1.550000X0*%
%TD*%
%TA.AperFunction,ComponentPad*%
%ADD21O,1.800000X3.600000*%
%TD*%
%TA.AperFunction,ViaPad*%
%ADD22C,0.600000*%
%TD*%
%TA.AperFunction,Conductor*%
%ADD23C,1.500000*%
%TD*%
%TA.AperFunction,Conductor*%
%ADD24C,0.254000*%
%TD*%
%TA.AperFunction,Conductor*%
%ADD25C,0.400000*%
%TD*%
%TA.AperFunction,Conductor*%
%ADD26C,0.250000*%
%TD*%
%TA.AperFunction,Conductor*%
%ADD27C,0.200000*%
%TD*%
G04 APERTURE END LIST*
D10*
%TO.P,J9,1,Pin_1*%
%TO.N,Net-(D11-A)*%
X133858000Y-123952000D03*
D11*
%TO.P,J9,2,Pin_2*%
%TO.N,GND*%
X133858000Y-120452000D03*
%TD*%
D12*
%TO.P,H1,1,1*%
%TO.N,GND*%
X128100000Y-74620000D03*
X128802944Y-72922944D03*
X128802944Y-76317056D03*
X130500000Y-72220000D03*
D13*
X130500000Y-74620000D03*
D12*
X130500000Y-77020000D03*
X132197056Y-72922944D03*
X132197056Y-76317056D03*
X132900000Y-74620000D03*
%TD*%
D14*
%TO.P,RV2,1,1*%
%TO.N,Net-(J5-Pin_2)*%
X156972000Y-106426000D03*
%TO.P,RV2,2,2*%
%TO.N,Net-(JP2-A)*%
X156972000Y-108966000D03*
%TO.P,RV2,3,3*%
X156972000Y-111506000D03*
%TD*%
D15*
%TO.P,J7,1,Pin_1*%
%TO.N,Net-(J7-Pin_1)*%
X168910000Y-133096000D03*
D16*
%TO.P,J7,2,Pin_2*%
%TO.N,Net-(J7-Pin_2)*%
X168910000Y-130556000D03*
%TO.P,J7,3,Pin_3*%
%TO.N,GND*%
X171450000Y-133096000D03*
%TO.P,J7,4,Pin_4*%
X171450000Y-130556000D03*
%TD*%
D17*
%TO.P,D10,1,K*%
%TO.N,Net-(D10-K)*%
X132588000Y-83820000D03*
D18*
%TO.P,D10,2,A*%
%TO.N,Net-(D10-A)*%
X135128000Y-83820000D03*
%TD*%
D14*
%TO.P,RV1,1,1*%
%TO.N,Net-(J7-Pin_2)*%
X162052000Y-106426000D03*
%TO.P,RV1,2,2*%
%TO.N,Net-(JP1-A)*%
X162052000Y-108966000D03*
%TO.P,RV1,3,3*%
X162052000Y-111506000D03*
%TD*%
D15*
%TO.P,J4,1,Pin_1*%
%TO.N,/Led_controller1/CTRL*%
X152654000Y-101954500D03*
%TD*%
D19*
%TO.P,R16,1*%
%TO.N,Net-(JP2-B)*%
X156972000Y-118618000D03*
%TO.P,R16,2*%
%TO.N,Net-(J8-Pin_1)*%
X149352000Y-118618000D03*
%TD*%
D12*
%TO.P,H3,1,1*%
%TO.N,GND*%
X182069126Y-137479126D03*
X182772070Y-135782070D03*
X182772070Y-139176182D03*
X184469126Y-135079126D03*
D13*
X184469126Y-137479126D03*
D12*
X184469126Y-139879126D03*
X186166182Y-135782070D03*
X186166182Y-139176182D03*
X186869126Y-137479126D03*
%TD*%
D17*
%TO.P,D7,1,K*%
%TO.N,Net-(D7-K)*%
X152400000Y-83820000D03*
D18*
%TO.P,D7,2,A*%
%TO.N,Net-(D6-K)*%
X154940000Y-83820000D03*
%TD*%
D17*
%TO.P,D8,1,K*%
%TO.N,Net-(D8-K)*%
X145796000Y-83820000D03*
D18*
%TO.P,D8,2,A*%
%TO.N,Net-(D7-K)*%
X148336000Y-83820000D03*
%TD*%
D20*
%TO.P,J3,1,Pin_1*%
%TO.N,Net-(D6-K)*%
X145422500Y-75557500D03*
D21*
%TO.P,J3,2,Pin_2*%
%TO.N,Net-(D10-K)*%
X141922500Y-75557500D03*
%TD*%
D17*
%TO.P,D9,1,K*%
%TO.N,Net-(D10-A)*%
X139192000Y-83820000D03*
D18*
%TO.P,D9,2,A*%
%TO.N,Net-(D8-K)*%
X141732000Y-83820000D03*
%TD*%
D15*
%TO.P,J6,1,Pin_1*%
%TO.N,Net-(J6-Pin_1)*%
X172720000Y-118872000D03*
D16*
%TO.P,J6,2,Pin_2*%
%TO.N,/Led_controller/SINE_IN*%
X172720000Y-116332000D03*
%TO.P,J6,3,Pin_3*%
%TO.N,GND*%
X175260000Y-118872000D03*
%TO.P,J6,4,Pin_4*%
X175260000Y-116332000D03*
%TD*%
D17*
%TO.P,D4,1,K*%
%TO.N,Net-(D4-K)*%
X167894000Y-83566000D03*
D18*
%TO.P,D4,2,A*%
%TO.N,Net-(D3-K)*%
X170434000Y-83566000D03*
%TD*%
D17*
%TO.P,D2,1,K*%
%TO.N,Net-(D2-K)*%
X181102000Y-83566000D03*
D18*
%TO.P,D2,2,A*%
%TO.N,Net-(D1-K)*%
X183642000Y-83566000D03*
%TD*%
D17*
%TO.P,D3,1,K*%
%TO.N,Net-(D3-K)*%
X174498000Y-83566000D03*
D18*
%TO.P,D3,2,A*%
%TO.N,Net-(D2-K)*%
X177038000Y-83566000D03*
%TD*%
D15*
%TO.P,J2,1,Pin_1*%
%TO.N,/Led_controller/CTRL*%
X181356000Y-101700500D03*
%TD*%
D19*
%TO.P,R9,1*%
%TO.N,Net-(JP1-B)*%
X162052000Y-118872000D03*
%TO.P,R9,2*%
%TO.N,Net-(J6-Pin_1)*%
X169672000Y-118872000D03*
%TD*%
D12*
%TO.P,H2,1,1*%
%TO.N,GND*%
X182060000Y-74620000D03*
X182762944Y-72922944D03*
X182762944Y-76317056D03*
X184460000Y-72220000D03*
D13*
X184460000Y-74620000D03*
D12*
X184460000Y-77020000D03*
X186157056Y-72922944D03*
X186157056Y-76317056D03*
X186860000Y-74620000D03*
%TD*%
%TO.P,H4,1,1*%
%TO.N,GND*%
X128090874Y-137479126D03*
X128793818Y-135782070D03*
X128793818Y-139176182D03*
X130490874Y-135079126D03*
D13*
X130490874Y-137479126D03*
D12*
X130490874Y-139879126D03*
X132187930Y-135782070D03*
X132187930Y-139176182D03*
X132890874Y-137479126D03*
%TD*%
D20*
%TO.P,J1,1,Pin_1*%
%TO.N,Net-(D1-K)*%
X174124500Y-75303500D03*
D21*
%TO.P,J1,2,Pin_2*%
%TO.N,Net-(D5-K)*%
X170624500Y-75303500D03*
%TD*%
D17*
%TO.P,D5,1,K*%
%TO.N,Net-(D5-K)*%
X161290000Y-83566000D03*
D18*
%TO.P,D5,2,A*%
%TO.N,Net-(D4-K)*%
X163830000Y-83566000D03*
%TD*%
D15*
%TO.P,J5,1,Pin_1*%
%TO.N,Net-(J5-Pin_1)*%
X150368000Y-133350000D03*
D16*
%TO.P,J5,2,Pin_2*%
%TO.N,Net-(J5-Pin_2)*%
X150368000Y-130810000D03*
%TO.P,J5,3,Pin_3*%
%TO.N,GND*%
X147828000Y-133350000D03*
%TO.P,J5,4,Pin_4*%
X147828000Y-130810000D03*
%TD*%
D15*
%TO.P,J8,1,Pin_1*%
%TO.N,Net-(J8-Pin_1)*%
X146304000Y-118618000D03*
D16*
%TO.P,J8,2,Pin_2*%
%TO.N,/Led_controller1/SINE_IN*%
X146304000Y-116078000D03*
%TO.P,J8,3,Pin_3*%
%TO.N,GND*%
X143764000Y-118618000D03*
%TO.P,J8,4,Pin_4*%
X143764000Y-116078000D03*
%TD*%
D22*
%TO.N,GND*%
X155702000Y-106680000D03*
X143764000Y-98552000D03*
X166878000Y-92202000D03*
X133096000Y-95758000D03*
X167132000Y-124968000D03*
X151892000Y-124968000D03*
X132080000Y-86106000D03*
X138176000Y-93980000D03*
X152908000Y-109474000D03*
X168656000Y-120142000D03*
X148844000Y-103632000D03*
X138938000Y-109728000D03*
X153416000Y-98298000D03*
X157988000Y-113030000D03*
X152146000Y-95504000D03*
X172720000Y-121412000D03*
X137668000Y-101092000D03*
X150368000Y-117602000D03*
X136652000Y-88646000D03*
X184404000Y-86868000D03*
X148082000Y-93980000D03*
X169926000Y-89154000D03*
X143002000Y-98552000D03*
X182118000Y-89916000D03*
X142748000Y-109728000D03*
X144018000Y-94234000D03*
X143510000Y-89408000D03*
X133096000Y-99314000D03*
X154940000Y-90932000D03*
X166624000Y-93980000D03*
X151638000Y-106426000D03*
X162814000Y-136652000D03*
X144018000Y-88646000D03*
X147066000Y-88646000D03*
X137922000Y-131064000D03*
X164338000Y-121666000D03*
X180340000Y-94488000D03*
X134874000Y-110236000D03*
X154178000Y-89408000D03*
X167132000Y-102362000D03*
X142748000Y-108204000D03*
X152908000Y-92964000D03*
X179578000Y-106680000D03*
X154686000Y-126746000D03*
X144780000Y-99822000D03*
X168656000Y-117348000D03*
X160020000Y-124714000D03*
X149098000Y-123698000D03*
X166116000Y-130302000D03*
X134874000Y-130302000D03*
X164084000Y-101854000D03*
X136144000Y-93980000D03*
X154940000Y-137414000D03*
X168656000Y-123190000D03*
X167132000Y-89916000D03*
X143256000Y-94234000D03*
X151384000Y-100330000D03*
X151384000Y-88646000D03*
X148082000Y-106426000D03*
X148082000Y-120396000D03*
X135128000Y-103886000D03*
X148082000Y-99822000D03*
X161290000Y-122174000D03*
X142748000Y-93218000D03*
X171196000Y-93980000D03*
X161544000Y-137922000D03*
X152908000Y-130556000D03*
X144526000Y-123952000D03*
X151384000Y-110744000D03*
X166624000Y-131826000D03*
X136652000Y-120142000D03*
X146558000Y-95250000D03*
X180340000Y-88646000D03*
X171450000Y-106426000D03*
X135382000Y-93980000D03*
X161036000Y-117602000D03*
X137668000Y-108458000D03*
X135128000Y-101854000D03*
X165862000Y-99060000D03*
X133604000Y-100838000D03*
X176022000Y-98806000D03*
X167132000Y-93218000D03*
X133604000Y-103886000D03*
X153416000Y-126492000D03*
X170688000Y-103886000D03*
X160020000Y-97536000D03*
X155956000Y-121920000D03*
X138684000Y-107442000D03*
X168656000Y-128778000D03*
X137668000Y-126492000D03*
X136652000Y-90678000D03*
X153416000Y-116332000D03*
X153924000Y-133096000D03*
X177292000Y-104902000D03*
X173228000Y-106426000D03*
X173482000Y-88392000D03*
X150368000Y-121412000D03*
X147828000Y-103632000D03*
X145542000Y-134874000D03*
X167132000Y-113538000D03*
X164338000Y-130302000D03*
X139700000Y-91694000D03*
X149352000Y-135636000D03*
X146558000Y-92456000D03*
X152400000Y-99314000D03*
X133096000Y-94234000D03*
X140716000Y-111760000D03*
X136398000Y-115570000D03*
X143510000Y-91694000D03*
X143764000Y-131318000D03*
X155956000Y-120142000D03*
X160274000Y-127762000D03*
X144526000Y-126492000D03*
X154178000Y-125730000D03*
X134874000Y-111506000D03*
X175006000Y-99822000D03*
X144526000Y-133858000D03*
X157480000Y-127850500D03*
X181102000Y-93218000D03*
X168148000Y-105918000D03*
X147574000Y-122428000D03*
X148336000Y-88646000D03*
X151892000Y-112522000D03*
X157988000Y-116840000D03*
X158496000Y-118618000D03*
X134874000Y-106934000D03*
X171450000Y-92964000D03*
X151892000Y-126492000D03*
X168148000Y-103378000D03*
X167386000Y-132842000D03*
X175260000Y-94742000D03*
X167132000Y-127762000D03*
X133604000Y-101854000D03*
X153162000Y-90424000D03*
X141986000Y-131064000D03*
X163816975Y-86881025D03*
X147066000Y-98806000D03*
X164592000Y-89916000D03*
X136652000Y-131064000D03*
X167132000Y-117094000D03*
X155956000Y-110236000D03*
X143764000Y-122682000D03*
X175006000Y-97790000D03*
X171958000Y-111252000D03*
X148844000Y-102616000D03*
X176784000Y-91948000D03*
X167894000Y-101092000D03*
X166624000Y-99822000D03*
X151130000Y-135636000D03*
X170942000Y-120650000D03*
X139700000Y-126492000D03*
X134874000Y-108966000D03*
X164846000Y-125984000D03*
X167132000Y-115316000D03*
X176276000Y-101092000D03*
X162306000Y-107696000D03*
X158242000Y-97536000D03*
X173990000Y-104902000D03*
X145796000Y-101854000D03*
X157988000Y-110236000D03*
X171450000Y-98044000D03*
X166624000Y-112014000D03*
X140716000Y-126492000D03*
X161544000Y-97536000D03*
X165862000Y-109220000D03*
X164592000Y-93980000D03*
X148336000Y-104648000D03*
X168656000Y-127508000D03*
X177546000Y-98044000D03*
X155448000Y-118618000D03*
X146558000Y-135890000D03*
X182372000Y-91948000D03*
X167132000Y-118618000D03*
X136652000Y-118364000D03*
X150368000Y-88646000D03*
X155702000Y-116840000D03*
X137922000Y-91948000D03*
X150368000Y-128270000D03*
X172212000Y-88392000D03*
X142748000Y-88646000D03*
X162052000Y-98806000D03*
X167132000Y-120142000D03*
X161036000Y-115824000D03*
X173482000Y-111506000D03*
X142748000Y-105156000D03*
X150368000Y-116078000D03*
X133096000Y-97536000D03*
X173482000Y-110236000D03*
X148082000Y-92964000D03*
X137668000Y-106172000D03*
X153162000Y-134620000D03*
X142494000Y-94234000D03*
X143256000Y-114300000D03*
X147574000Y-136906000D03*
X133350000Y-128016000D03*
X165354000Y-119888000D03*
X153924000Y-91948000D03*
X177038000Y-99822000D03*
X149098000Y-121666000D03*
X141732000Y-125476000D03*
X165100000Y-102870000D03*
X159004000Y-133604000D03*
X149606000Y-104648000D03*
X168910000Y-102108000D03*
X148082000Y-95250000D03*
X146304000Y-121158000D03*
X147320000Y-91694000D03*
X137668000Y-112522000D03*
X173482000Y-114046000D03*
X164846000Y-134112000D03*
X141478000Y-120396000D03*
X181610000Y-105918000D03*
X138684000Y-126492000D03*
X147066000Y-100838000D03*
X161544000Y-94996000D03*
X150368000Y-119634000D03*
X155194000Y-109220000D03*
X144780000Y-98552000D03*
X140208000Y-118110000D03*
X144780000Y-102870000D03*
X153416000Y-94996000D03*
X145542000Y-106426000D03*
X178054000Y-106426000D03*
X167132000Y-125984000D03*
X157734000Y-129794000D03*
X153162000Y-105918000D03*
X146558000Y-93726000D03*
X165608000Y-115062000D03*
X173736000Y-98552000D03*
X156210000Y-129794000D03*
X177546000Y-96774000D03*
X135128000Y-102870000D03*
X172466000Y-92964000D03*
X140716000Y-109474000D03*
X180086000Y-98044000D03*
X133604000Y-102870000D03*
X165354000Y-98044000D03*
X161036000Y-113030000D03*
X144780000Y-127762000D03*
X175260000Y-93218000D03*
X144018000Y-112776000D03*
X163068000Y-123444000D03*
X164846000Y-132588000D03*
X143764000Y-93218000D03*
X155702000Y-89408000D03*
X151892000Y-132842000D03*
X167132000Y-104902000D03*
X154178000Y-88138000D03*
X139446000Y-99568000D03*
X180086000Y-99314000D03*
X165608000Y-93980000D03*
X166116000Y-101346000D03*
X184404000Y-88392000D03*
X172212000Y-104902000D03*
X163322000Y-88646000D03*
X155702000Y-88138000D03*
X151892000Y-119888000D03*
X179578000Y-92456000D03*
X164084000Y-99314000D03*
X138938000Y-90932000D03*
X172212000Y-89662000D03*
X172212000Y-107696000D03*
X178816000Y-88392000D03*
X164084000Y-109474000D03*
X143764000Y-99822000D03*
X180340000Y-89916000D03*
X152146000Y-91186000D03*
X157988000Y-115062000D03*
X165354000Y-110744000D03*
X173228000Y-99314000D03*
X145542000Y-114300000D03*
X141224000Y-98298000D03*
X154686000Y-103378000D03*
X154940000Y-139446000D03*
X147574000Y-96774000D03*
X140716000Y-131064000D03*
X162306000Y-85344000D03*
X151892000Y-114300000D03*
X184404000Y-89916000D03*
X171450000Y-122682000D03*
X163068000Y-110236000D03*
X172212000Y-98044000D03*
X154178000Y-108204000D03*
X155702000Y-127850500D03*
X179324000Y-104902000D03*
X157734000Y-122174000D03*
X150368000Y-114300000D03*
X140462000Y-119380000D03*
X161290000Y-120396000D03*
X153416000Y-113538000D03*
X140208000Y-117348000D03*
X146050000Y-133350000D03*
X137668000Y-109982000D03*
X150876000Y-137160000D03*
X167132000Y-110490000D03*
X153670000Y-119888000D03*
X149860000Y-106426000D03*
X161544000Y-129540000D03*
X137922000Y-89916000D03*
X143764000Y-132588000D03*
X150876000Y-92456000D03*
X145034000Y-88646000D03*
X180340000Y-96266000D03*
X146558000Y-96774000D03*
X164592000Y-107950000D03*
X155956000Y-138430000D03*
X150368000Y-112268000D03*
X135382000Y-89408000D03*
X154178000Y-110236000D03*
X146050000Y-99822000D03*
X140716000Y-99568000D03*
X146050000Y-88646000D03*
X155956000Y-123444000D03*
X165100000Y-100330000D03*
X146558000Y-106426000D03*
X148844000Y-96774000D03*
X141732000Y-126492000D03*
X134112000Y-86106000D03*
X139954000Y-122936000D03*
X173482000Y-108712000D03*
X176784000Y-93218000D03*
X172720000Y-93980000D03*
X173482000Y-112776000D03*
X156464000Y-97536000D03*
X160020000Y-132842000D03*
X141732000Y-110490000D03*
X169164000Y-104394000D03*
X161290000Y-110236000D03*
X171958000Y-112776000D03*
X145288000Y-131826000D03*
X162814000Y-120396000D03*
X149352000Y-88646000D03*
X153162000Y-111252000D03*
X138938000Y-122174000D03*
X144526000Y-125222000D03*
X172974000Y-98044000D03*
X162814000Y-129540000D03*
X160274000Y-138938000D03*
X177038000Y-88392000D03*
X142748000Y-106680000D03*
X161544000Y-127762000D03*
X139700000Y-108458000D03*
X162814000Y-121920000D03*
X152400000Y-137160000D03*
X168402000Y-91186000D03*
X139954000Y-110744000D03*
X171958000Y-93980000D03*
X162814000Y-127762000D03*
X136652000Y-121666000D03*
X146304000Y-98044000D03*
X183388000Y-90932000D03*
X169926000Y-121666000D03*
X154686000Y-121666000D03*
X151892000Y-128524000D03*
X182880000Y-86868000D03*
X172212000Y-90932000D03*
X133350000Y-129540000D03*
X154686000Y-132080000D03*
X152146000Y-93726000D03*
X148844000Y-92456000D03*
X143510000Y-90678000D03*
X149352000Y-137160000D03*
X145796000Y-128270000D03*
X154686000Y-104902000D03*
X170180000Y-105410000D03*
X162814000Y-112776000D03*
X139446000Y-131064000D03*
X158242000Y-94996000D03*
X137414000Y-117348000D03*
X143764000Y-103886000D03*
X168656000Y-126492000D03*
X164084000Y-117094000D03*
X137668000Y-99568000D03*
X139954000Y-112776000D03*
X175514000Y-104902000D03*
X138684000Y-113792000D03*
X164338000Y-131826000D03*
X135382000Y-87376000D03*
X168656000Y-121920000D03*
X170434000Y-123698000D03*
X159004000Y-132588000D03*
X146812000Y-128778000D03*
X137668000Y-111252000D03*
X168656000Y-114300000D03*
X150368000Y-124968000D03*
X134874000Y-107950000D03*
X163068000Y-100838000D03*
X150368000Y-122936000D03*
X176530000Y-106426000D03*
X141732000Y-124460000D03*
X182880000Y-88392000D03*
X134874000Y-105918000D03*
X164846000Y-135382000D03*
X168656000Y-124968000D03*
X165862000Y-124968000D03*
X167132000Y-129794000D03*
X150368000Y-126492000D03*
X138938000Y-92964000D03*
X175260000Y-88392000D03*
X165862000Y-88646000D03*
X181102000Y-90932000D03*
X133858000Y-87884000D03*
X151892000Y-130810000D03*
X153416000Y-124968000D03*
X134874000Y-112776000D03*
X168656000Y-115824000D03*
X163322000Y-106680000D03*
X137668000Y-104394000D03*
X155702000Y-113030000D03*
X148590000Y-128778000D03*
X172466000Y-98806000D03*
X159004000Y-124714000D03*
X177546000Y-102362000D03*
X168656000Y-112014000D03*
X165100000Y-113284000D03*
X137668000Y-102870000D03*
X151892000Y-117856000D03*
X160274000Y-129540000D03*
X175260000Y-91948000D03*
X153162000Y-135636000D03*
X154940000Y-94996000D03*
X141224000Y-115570000D03*
X171958000Y-114046000D03*
X141224000Y-89154000D03*
X170180000Y-107950000D03*
X170942000Y-88392000D03*
X158874499Y-127850500D03*
X135128000Y-114554000D03*
X140208000Y-116332000D03*
X169164000Y-90170000D03*
X133858000Y-105156000D03*
X151892000Y-116078000D03*
X152908000Y-132080000D03*
X140462000Y-90424000D03*
X148082000Y-135382000D03*
X169164000Y-106934000D03*
X152146000Y-89662000D03*
X162052000Y-87376000D03*
X156464000Y-94996000D03*
X178054000Y-92456000D03*
X171958000Y-109982000D03*
X140970000Y-123698000D03*
X175006000Y-106426000D03*
X166116000Y-103886000D03*
X171196000Y-108966000D03*
X135128000Y-100838000D03*
X142748000Y-121666000D03*
X165862000Y-91186000D03*
X157734000Y-120142000D03*
X137160000Y-94234000D03*
X154686000Y-97536000D03*
X153416000Y-137922000D03*
X176784000Y-94742000D03*
X146812000Y-104648000D03*
X137414000Y-116332000D03*
X160020000Y-94996000D03*
%TO.N,VCC*%
X166376358Y-123450591D03*
X152654000Y-123444000D03*
X145542000Y-129286000D03*
X144526000Y-130302000D03*
X135890000Y-96520000D03*
X180848000Y-105664000D03*
X144526000Y-129286000D03*
X164592000Y-96266000D03*
X144145000Y-105537000D03*
X136906000Y-96266000D03*
X165608000Y-96012000D03*
X145542000Y-130302000D03*
X152654000Y-129540000D03*
%TO.N,Net-(J5-Pin_1)*%
X159512000Y-139192000D03*
X153924000Y-134112000D03*
%TO.N,Net-(D5-K)*%
X169672000Y-93726000D03*
%TO.N,Net-(D10-K)*%
X141478000Y-94488000D03*
%TO.N,Net-(U1-RS)*%
X164338000Y-94742000D03*
X169672000Y-95250000D03*
X170688000Y-98298000D03*
%TO.N,Net-(U2-RS)*%
X135636000Y-94996000D03*
X141224000Y-95758000D03*
X141986000Y-98552000D03*
%TO.N,Net-(U3C-+)*%
X164084000Y-122682000D03*
X160782000Y-124206000D03*
%TO.N,Net-(U3D-+)*%
X158242000Y-124206000D03*
X154686000Y-122682000D03*
%TD*%
D23*
%TO.N,VCC*%
X144145000Y-105537000D02*
X153416000Y-96266000D01*
X144145000Y-110617000D02*
X144145000Y-105537000D01*
X153416000Y-96266000D02*
X164592000Y-96266000D01*
X143256000Y-123952000D02*
X138938000Y-119634000D01*
X138938000Y-119634000D02*
X138938000Y-115824000D01*
D24*
X164592000Y-98806000D02*
X164592000Y-96266000D01*
D25*
X164096949Y-125730000D02*
X166376358Y-123450591D01*
D23*
X138938000Y-115824000D02*
X144145000Y-110617000D01*
D25*
X153670000Y-123444000D02*
X155956000Y-125730000D01*
D23*
X136398000Y-113284000D02*
X136398000Y-96520000D01*
X138938000Y-115824000D02*
X136398000Y-113284000D01*
D25*
X152654000Y-123444000D02*
X153670000Y-123444000D01*
X155956000Y-125730000D02*
X164096949Y-125730000D01*
D23*
X145542000Y-130302000D02*
X143256000Y-128016000D01*
X143256000Y-128016000D02*
X143256000Y-123952000D01*
D25*
X152654000Y-123444000D02*
X152654000Y-129540000D01*
D24*
X180848000Y-105664000D02*
X171450000Y-105664000D01*
X171450000Y-105664000D02*
X164592000Y-98806000D01*
D26*
%TO.N,Net-(J5-Pin_1)*%
X153924000Y-137414000D02*
X153924000Y-134112000D01*
X159512000Y-139192000D02*
X155702000Y-139192000D01*
X155702000Y-139192000D02*
X154178000Y-137668000D01*
X154178000Y-137668000D02*
X153924000Y-137414000D01*
D25*
%TO.N,Net-(D5-K)*%
X169672000Y-93726000D02*
X161290000Y-85344000D01*
X161290000Y-85344000D02*
X161290000Y-83566000D01*
%TO.N,Net-(D10-K)*%
X141478000Y-94488000D02*
X132588000Y-85598000D01*
X132588000Y-85598000D02*
X132588000Y-83820000D01*
D24*
%TO.N,Net-(J5-Pin_2)*%
X151130000Y-130048000D02*
X150368000Y-130810000D01*
X151130000Y-112268000D02*
X151130000Y-130048000D01*
X156972000Y-106426000D02*
X151130000Y-112268000D01*
%TO.N,Net-(J7-Pin_2)*%
X167894000Y-112268000D02*
X167894000Y-129540000D01*
X167894000Y-129540000D02*
X168910000Y-130556000D01*
X162052000Y-106426000D02*
X167894000Y-112268000D01*
D27*
%TO.N,Net-(U1-RS)*%
X169672000Y-95250000D02*
X169164000Y-94742000D01*
X170688000Y-96266000D02*
X170688000Y-98298000D01*
X169164000Y-94742000D02*
X164338000Y-94742000D01*
X169672000Y-95250000D02*
X170688000Y-96266000D01*
%TO.N,Net-(U2-RS)*%
X141986000Y-96520000D02*
X141986000Y-98552000D01*
X141224000Y-95758000D02*
X141986000Y-96520000D01*
X140462000Y-94996000D02*
X135636000Y-94996000D01*
X141224000Y-95758000D02*
X140462000Y-94996000D01*
D25*
%TO.N,Net-(U3C-+)*%
X162306000Y-122682000D02*
X160782000Y-124206000D01*
X162306000Y-122682000D02*
X164084000Y-122682000D01*
%TO.N,Net-(U3D-+)*%
X156718000Y-122682000D02*
X154686000Y-122682000D01*
X156718000Y-122682000D02*
X158242000Y-124206000D01*
%TD*%
%TA.AperFunction,Conductor*%
%TO.N,GND*%
G36*
X184463244Y-71620670D02*
G01*
X184767046Y-71636592D01*
X184779953Y-71637949D01*
X184911089Y-71658718D01*
X185077209Y-71685028D01*
X185089896Y-71687724D01*
X185380625Y-71765625D01*
X185392965Y-71769635D01*
X185673938Y-71877490D01*
X185685790Y-71882767D01*
X185953968Y-72019411D01*
X185965199Y-72025896D01*
X186217608Y-72189812D01*
X186228109Y-72197441D01*
X186462010Y-72386850D01*
X186471655Y-72395535D01*
X186684464Y-72608344D01*
X186693149Y-72617989D01*
X186882558Y-72851890D01*
X186890187Y-72862391D01*
X187054101Y-73114796D01*
X187060591Y-73126036D01*
X187197231Y-73394206D01*
X187202510Y-73406064D01*
X187310363Y-73687033D01*
X187314374Y-73699376D01*
X187392273Y-73990097D01*
X187394971Y-74002794D01*
X187442050Y-74300046D01*
X187443407Y-74312953D01*
X187459330Y-74616756D01*
X187459500Y-74623222D01*
X187459500Y-74685892D01*
X187459508Y-74685925D01*
X187459510Y-74693985D01*
X187468625Y-137475857D01*
X187468455Y-137482366D01*
X187452531Y-137786169D01*
X187451174Y-137799076D01*
X187404093Y-138096328D01*
X187401395Y-138109024D01*
X187323496Y-138399740D01*
X187319485Y-138412084D01*
X187211628Y-138693059D01*
X187206349Y-138704916D01*
X187069710Y-138973082D01*
X187063220Y-138984322D01*
X186899306Y-139236727D01*
X186891677Y-139247228D01*
X186702267Y-139481129D01*
X186693582Y-139490774D01*
X186480774Y-139703582D01*
X186471129Y-139712267D01*
X186237228Y-139901677D01*
X186226727Y-139909306D01*
X185974322Y-140073220D01*
X185963082Y-140079710D01*
X185694916Y-140216349D01*
X185683059Y-140221628D01*
X185402084Y-140329485D01*
X185389740Y-140333496D01*
X185099024Y-140411395D01*
X185086328Y-140414093D01*
X184789076Y-140461174D01*
X184776169Y-140462531D01*
X184472365Y-140478456D01*
X184465874Y-140478626D01*
X130494126Y-140478626D01*
X130487635Y-140478456D01*
X130183830Y-140462531D01*
X130170923Y-140461174D01*
X129873671Y-140414093D01*
X129860975Y-140411395D01*
X129570259Y-140333496D01*
X129557915Y-140329485D01*
X129276940Y-140221628D01*
X129265083Y-140216349D01*
X128996917Y-140079710D01*
X128985677Y-140073220D01*
X128733272Y-139909306D01*
X128722771Y-139901677D01*
X128488870Y-139712267D01*
X128479225Y-139703582D01*
X128266417Y-139490774D01*
X128257732Y-139481129D01*
X128068322Y-139247228D01*
X128060693Y-139236727D01*
X127896777Y-138984318D01*
X127890289Y-138973082D01*
X127753645Y-138704905D01*
X127748375Y-138693070D01*
X127640514Y-138412084D01*
X127636503Y-138399740D01*
X127558602Y-138109017D01*
X127555906Y-138096328D01*
X127508825Y-137799076D01*
X127507468Y-137786169D01*
X127491544Y-137482366D01*
X127491374Y-137475857D01*
X127491410Y-137227811D01*
X127492099Y-132480247D01*
X149317500Y-132480247D01*
X149317500Y-134219752D01*
X149329131Y-134278229D01*
X149329132Y-134278230D01*
X149373447Y-134344552D01*
X149439769Y-134388867D01*
X149439770Y-134388868D01*
X149498247Y-134400499D01*
X149498250Y-134400500D01*
X149498252Y-134400500D01*
X151237750Y-134400500D01*
X151237751Y-134400499D01*
X151252568Y-134397552D01*
X151296229Y-134388868D01*
X151296229Y-134388867D01*
X151296231Y-134388867D01*
X151362552Y-134344552D01*
X151406867Y-134278231D01*
X151406867Y-134278229D01*
X151406868Y-134278229D01*
X151416136Y-134231631D01*
X151418500Y-134219748D01*
X151418500Y-134046108D01*
X153423500Y-134046108D01*
X153423500Y-134177892D01*
X153434593Y-134219295D01*
X153435816Y-134231589D01*
X153435819Y-134231631D01*
X153436919Y-134242682D01*
X153436920Y-134242687D01*
X153436921Y-134242690D01*
X153480100Y-134384536D01*
X153481635Y-134388868D01*
X153485755Y-134400500D01*
X153486274Y-134401963D01*
X153487058Y-134403895D01*
X153490052Y-134410417D01*
X153494763Y-134420676D01*
X153537065Y-134502870D01*
X153539148Y-134507116D01*
X153574485Y-134582732D01*
X153583268Y-134608666D01*
X153586610Y-134623904D01*
X153589259Y-134642923D01*
X153593210Y-134707747D01*
X153593211Y-134707750D01*
X153594886Y-134714537D01*
X153598500Y-134744253D01*
X153598500Y-137456852D01*
X153620682Y-137539640D01*
X153642108Y-137576750D01*
X153663535Y-137613862D01*
X153917534Y-137867861D01*
X153917535Y-137867862D01*
X155441534Y-139391861D01*
X155441535Y-139391862D01*
X155502138Y-139452465D01*
X155502140Y-139452466D01*
X155502144Y-139452469D01*
X155576355Y-139495314D01*
X155576362Y-139495318D01*
X155659147Y-139517500D01*
X155744852Y-139517500D01*
X158881730Y-139517500D01*
X158893263Y-139518038D01*
X158902886Y-139518937D01*
X158918099Y-139522800D01*
X158977619Y-139525918D01*
X158980122Y-139526152D01*
X158980938Y-139526476D01*
X158991133Y-139527681D01*
X159005418Y-139530323D01*
X159030278Y-139537678D01*
X159086442Y-139560924D01*
X159099372Y-139567177D01*
X159109390Y-139572759D01*
X159113209Y-139574834D01*
X159113233Y-139574846D01*
X159113252Y-139574857D01*
X159113660Y-139575073D01*
X159116944Y-139576774D01*
X159213583Y-139625730D01*
X159230432Y-139633334D01*
X159232391Y-139634114D01*
X159249950Y-139640201D01*
X159249956Y-139640203D01*
X159291427Y-139652508D01*
X159382757Y-139679609D01*
X159391562Y-139682010D01*
X159392566Y-139682260D01*
X159394771Y-139682316D01*
X159423723Y-139686501D01*
X159446108Y-139692500D01*
X159446109Y-139692500D01*
X159577890Y-139692500D01*
X159577892Y-139692500D01*
X159705186Y-139658392D01*
X159819314Y-139592500D01*
X159912500Y-139499314D01*
X159978392Y-139385186D01*
X160012500Y-139257892D01*
X160012500Y-139126108D01*
X159978392Y-138998814D01*
X159912500Y-138884686D01*
X159819314Y-138791500D01*
X159744145Y-138748101D01*
X159705187Y-138725608D01*
X159627980Y-138704921D01*
X159577892Y-138691500D01*
X159446108Y-138691500D01*
X159446105Y-138691500D01*
X159414467Y-138699977D01*
X159394661Y-138703591D01*
X159381319Y-138704919D01*
X159381313Y-138704920D01*
X159381310Y-138704920D01*
X159381309Y-138704921D01*
X159354013Y-138713229D01*
X159239455Y-138748101D01*
X159239447Y-138748104D01*
X159222030Y-138754276D01*
X159221994Y-138754290D01*
X159220093Y-138755061D01*
X159220056Y-138755077D01*
X159203330Y-138762758D01*
X159121113Y-138805071D01*
X159116869Y-138807154D01*
X159041267Y-138842485D01*
X159015323Y-138851270D01*
X159000084Y-138854611D01*
X158981076Y-138857258D01*
X158916249Y-138861211D01*
X158909462Y-138862886D01*
X158879745Y-138866500D01*
X155888189Y-138866500D01*
X155821150Y-138846815D01*
X155800508Y-138830181D01*
X154285819Y-137315492D01*
X154252334Y-137254169D01*
X154249500Y-137227811D01*
X154249500Y-134742269D01*
X154250038Y-134730735D01*
X154250937Y-134721111D01*
X154254800Y-134705900D01*
X154257917Y-134646394D01*
X154258153Y-134643872D01*
X154258477Y-134643056D01*
X154259682Y-134632860D01*
X154262323Y-134618580D01*
X154269678Y-134593719D01*
X154292928Y-134537548D01*
X154299180Y-134524621D01*
X154304747Y-134514631D01*
X154305070Y-134514035D01*
X154306857Y-134510745D01*
X154307073Y-134510337D01*
X154308773Y-134507055D01*
X154357730Y-134410417D01*
X154365335Y-134393566D01*
X154366115Y-134391607D01*
X154372202Y-134374047D01*
X154411608Y-134241245D01*
X154414009Y-134232442D01*
X154414260Y-134231434D01*
X154414316Y-134229226D01*
X154418503Y-134200270D01*
X154424500Y-134177892D01*
X154424500Y-134046108D01*
X154390392Y-133918814D01*
X154324500Y-133804686D01*
X154231314Y-133711500D01*
X154174250Y-133678554D01*
X154117187Y-133645608D01*
X154053539Y-133628554D01*
X153989892Y-133611500D01*
X153858108Y-133611500D01*
X153730812Y-133645608D01*
X153616686Y-133711500D01*
X153616683Y-133711502D01*
X153523502Y-133804683D01*
X153523500Y-133804686D01*
X153457608Y-133918812D01*
X153445031Y-133965752D01*
X153423500Y-134046108D01*
X151418500Y-134046108D01*
X151418500Y-132480252D01*
X151418500Y-132480249D01*
X151418499Y-132480247D01*
X151406868Y-132421770D01*
X151406867Y-132421769D01*
X151362552Y-132355447D01*
X151314383Y-132323262D01*
X151314382Y-132323261D01*
X151296231Y-132311132D01*
X151296229Y-132311131D01*
X151237752Y-132299500D01*
X151237748Y-132299500D01*
X149498252Y-132299500D01*
X149498247Y-132299500D01*
X149439770Y-132311131D01*
X149439769Y-132311132D01*
X149373447Y-132355447D01*
X149329132Y-132421769D01*
X149329131Y-132421770D01*
X149317500Y-132480247D01*
X127492099Y-132480247D01*
X127492136Y-132226247D01*
X167859500Y-132226247D01*
X167859500Y-133965752D01*
X167871131Y-134024229D01*
X167871132Y-134024230D01*
X167915447Y-134090552D01*
X167981769Y-134134867D01*
X167981770Y-134134868D01*
X168040247Y-134146499D01*
X168040250Y-134146500D01*
X168040252Y-134146500D01*
X169779750Y-134146500D01*
X169779751Y-134146499D01*
X169794568Y-134143552D01*
X169838229Y-134134868D01*
X169838229Y-134134867D01*
X169838231Y-134134867D01*
X169904552Y-134090552D01*
X169948867Y-134024231D01*
X169948867Y-134024229D01*
X169948868Y-134024229D01*
X169960499Y-133965752D01*
X169960500Y-133965750D01*
X169960500Y-132226249D01*
X169960499Y-132226247D01*
X169948868Y-132167770D01*
X169948867Y-132167769D01*
X169904552Y-132101447D01*
X169838230Y-132057132D01*
X169838229Y-132057131D01*
X169779752Y-132045500D01*
X169779748Y-132045500D01*
X168040252Y-132045500D01*
X168040247Y-132045500D01*
X167981770Y-132057131D01*
X167981769Y-132057132D01*
X167915447Y-132101447D01*
X167871132Y-132167769D01*
X167871131Y-132167770D01*
X167859500Y-132226247D01*
X127492136Y-132226247D01*
X127493440Y-123247730D01*
X131857500Y-123247730D01*
X131857500Y-124656269D01*
X131860353Y-124686699D01*
X131860353Y-124686701D01*
X131905206Y-124814880D01*
X131905207Y-124814882D01*
X131985850Y-124924150D01*
X132095118Y-125004793D01*
X132137845Y-125019744D01*
X132223299Y-125049646D01*
X132253730Y-125052500D01*
X132253734Y-125052500D01*
X135462270Y-125052500D01*
X135492699Y-125049646D01*
X135492701Y-125049646D01*
X135556790Y-125027219D01*
X135620882Y-125004793D01*
X135730150Y-124924150D01*
X135810793Y-124814882D01*
X135833219Y-124750790D01*
X135855646Y-124686701D01*
X135855646Y-124686699D01*
X135858500Y-124656269D01*
X135858500Y-123247730D01*
X135855646Y-123217300D01*
X135855646Y-123217298D01*
X135814959Y-123101024D01*
X135810793Y-123089118D01*
X135730150Y-122979850D01*
X135620882Y-122899207D01*
X135620880Y-122899206D01*
X135492700Y-122854353D01*
X135462270Y-122851500D01*
X135462266Y-122851500D01*
X132253734Y-122851500D01*
X132253730Y-122851500D01*
X132223300Y-122854353D01*
X132223298Y-122854353D01*
X132095119Y-122899206D01*
X132095117Y-122899207D01*
X131985850Y-122979850D01*
X131905207Y-123089117D01*
X131905206Y-123089119D01*
X131860353Y-123217298D01*
X131860353Y-123217300D01*
X131857500Y-123247730D01*
X127493440Y-123247730D01*
X127497551Y-94930108D01*
X135135500Y-94930108D01*
X135135500Y-95061892D01*
X135150011Y-95116047D01*
X135169608Y-95189187D01*
X135198612Y-95239423D01*
X135235500Y-95303314D01*
X135328686Y-95396500D01*
X135332346Y-95398613D01*
X135337578Y-95401634D01*
X135385793Y-95452202D01*
X135399014Y-95520809D01*
X135373045Y-95585673D01*
X135333894Y-95618450D01*
X135319920Y-95625896D01*
X135319913Y-95625901D01*
X135267104Y-95671660D01*
X135249160Y-95689242D01*
X135249154Y-95689249D01*
X135204511Y-95769059D01*
X135204509Y-95769064D01*
X135184826Y-95836096D01*
X135184825Y-95836101D01*
X135184825Y-95836102D01*
X135176502Y-95893992D01*
X135176500Y-95894003D01*
X135176500Y-96901818D01*
X135181584Y-96947251D01*
X135193701Y-97000708D01*
X135193703Y-97000716D01*
X135196771Y-97012596D01*
X135241179Y-97092546D01*
X135241181Y-97092548D01*
X135241182Y-97092550D01*
X135255334Y-97108318D01*
X135287846Y-97144545D01*
X135305747Y-97162191D01*
X135366014Y-97194537D01*
X135382140Y-97203192D01*
X135431901Y-97252240D01*
X135447500Y-97312450D01*
X135447500Y-113377621D01*
X135484024Y-113561242D01*
X135484027Y-113561251D01*
X135555673Y-113734223D01*
X135555680Y-113734236D01*
X135659697Y-113889907D01*
X135659700Y-113889911D01*
X137951181Y-116181391D01*
X137984666Y-116242714D01*
X137987500Y-116269072D01*
X137987500Y-119727621D01*
X138024024Y-119911242D01*
X138024027Y-119911251D01*
X138095673Y-120084223D01*
X138095680Y-120084236D01*
X138199697Y-120239907D01*
X138199700Y-120239911D01*
X142269181Y-124309391D01*
X142302666Y-124370714D01*
X142305500Y-124397072D01*
X142305500Y-128109621D01*
X142342024Y-128293242D01*
X142342027Y-128293251D01*
X142413673Y-128466223D01*
X142413680Y-128466236D01*
X142517697Y-128621907D01*
X142517700Y-128621911D01*
X143744181Y-129848391D01*
X143777666Y-129909714D01*
X143780500Y-129936072D01*
X143780500Y-130685699D01*
X143785248Y-130729622D01*
X143785249Y-130729625D01*
X143796578Y-130781402D01*
X143799146Y-130791826D01*
X143842350Y-130872432D01*
X143888239Y-130925132D01*
X143905867Y-130943035D01*
X143905870Y-130943038D01*
X143985796Y-130987492D01*
X144052883Y-131007014D01*
X144110799Y-131015197D01*
X144858623Y-131013383D01*
X144925709Y-131032905D01*
X144933645Y-131038667D01*
X145091762Y-131144318D01*
X145091775Y-131144325D01*
X145264745Y-131215971D01*
X145264750Y-131215973D01*
X145448378Y-131252499D01*
X145448381Y-131252500D01*
X145448383Y-131252500D01*
X145635619Y-131252500D01*
X145635620Y-131252499D01*
X145819250Y-131215973D01*
X145992230Y-131144322D01*
X146147908Y-131040301D01*
X146280301Y-130907908D01*
X146384322Y-130752230D01*
X146403252Y-130706530D01*
X149317500Y-130706530D01*
X149317500Y-130913469D01*
X149357868Y-131116412D01*
X149357870Y-131116420D01*
X149437058Y-131307596D01*
X149552024Y-131479657D01*
X149698342Y-131625975D01*
X149698345Y-131625977D01*
X149870402Y-131740941D01*
X150061580Y-131820130D01*
X150264530Y-131860499D01*
X150264534Y-131860500D01*
X150264535Y-131860500D01*
X150471466Y-131860500D01*
X150471467Y-131860499D01*
X150674420Y-131820130D01*
X150865598Y-131740941D01*
X151037655Y-131625977D01*
X151183977Y-131479655D01*
X151298941Y-131307598D01*
X151378130Y-131116420D01*
X151394069Y-131036283D01*
X151400271Y-131015147D01*
X151406026Y-131000501D01*
X151406026Y-131000495D01*
X151406028Y-131000493D01*
X151406028Y-131000491D01*
X151451241Y-130749196D01*
X151451249Y-130749151D01*
X151452107Y-130744010D01*
X151452197Y-130743425D01*
X151452921Y-130738291D01*
X151479270Y-130532619D01*
X151480262Y-130523133D01*
X151480350Y-130522049D01*
X151480902Y-130512497D01*
X151480903Y-130512485D01*
X151490868Y-130223255D01*
X151490869Y-130223216D01*
X151490987Y-130214860D01*
X151490981Y-130213897D01*
X151490831Y-130208380D01*
X151490750Y-130205372D01*
X151490749Y-130205370D01*
X151490749Y-130205336D01*
X151480584Y-129993315D01*
X151480583Y-129993314D01*
X151480566Y-129992941D01*
X151480566Y-129992940D01*
X151480563Y-129992879D01*
X151480479Y-129991130D01*
X151480457Y-129990818D01*
X151477656Y-129936072D01*
X151468541Y-129757951D01*
X151468402Y-129753960D01*
X151468140Y-129740023D01*
X151462679Y-129449579D01*
X151460235Y-129438135D01*
X151457500Y-129412237D01*
X151457500Y-123378108D01*
X152153500Y-123378108D01*
X152153500Y-123509892D01*
X152162072Y-123541888D01*
X152162721Y-123555119D01*
X152162683Y-123555275D01*
X152162748Y-123555695D01*
X152163086Y-123563318D01*
X152163087Y-123563330D01*
X152210234Y-123755505D01*
X152210389Y-123756148D01*
X152232969Y-123851091D01*
X152235509Y-123861771D01*
X152238643Y-123882910D01*
X152248210Y-124039757D01*
X152249886Y-124046543D01*
X152253500Y-124076261D01*
X152253500Y-128913043D01*
X152253244Y-128921006D01*
X152252576Y-128931386D01*
X152248229Y-128949818D01*
X152244406Y-129058346D01*
X152244290Y-129060158D01*
X152244111Y-129060647D01*
X152243344Y-129069419D01*
X152234976Y-129129079D01*
X152232267Y-129142751D01*
X152211091Y-129225056D01*
X152210497Y-129227422D01*
X152163091Y-129420654D01*
X152162153Y-129424647D01*
X152162047Y-129425117D01*
X152162012Y-129427691D01*
X152157801Y-129458050D01*
X152153501Y-129474101D01*
X152153500Y-129474106D01*
X152153500Y-129474108D01*
X152153500Y-129605892D01*
X152160812Y-129633181D01*
X152187608Y-129733187D01*
X152206504Y-129765915D01*
X152253500Y-129847314D01*
X152346686Y-129940500D01*
X152460814Y-130006392D01*
X152588108Y-130040500D01*
X152588110Y-130040500D01*
X152719890Y-130040500D01*
X152719892Y-130040500D01*
X152847186Y-130006392D01*
X152961314Y-129940500D01*
X153054500Y-129847314D01*
X153120392Y-129733186D01*
X153154500Y-129605892D01*
X153154500Y-129474108D01*
X153149350Y-129454888D01*
X153148218Y-129450320D01*
X153145743Y-129439446D01*
X153144913Y-129420670D01*
X153097656Y-129228047D01*
X153072486Y-129122216D01*
X153069354Y-129101084D01*
X153067423Y-129069419D01*
X153059789Y-128944242D01*
X153059788Y-128944237D01*
X153058114Y-128937454D01*
X153054500Y-128907736D01*
X153054500Y-124070954D01*
X153054883Y-124061217D01*
X153055629Y-124051744D01*
X153059771Y-124034180D01*
X153062000Y-123970856D01*
X153062211Y-123968180D01*
X153073734Y-123937952D01*
X153083935Y-123907250D01*
X153086106Y-123905498D01*
X153087099Y-123902894D01*
X153113138Y-123883691D01*
X153138316Y-123863381D01*
X153141759Y-123862585D01*
X153143332Y-123861426D01*
X153148105Y-123861119D01*
X153178278Y-123854147D01*
X153249757Y-123849789D01*
X153256542Y-123848113D01*
X153286262Y-123844500D01*
X153452745Y-123844500D01*
X153519784Y-123864185D01*
X153540426Y-123880819D01*
X155710087Y-126050480D01*
X155801412Y-126103207D01*
X155903273Y-126130500D01*
X155903275Y-126130500D01*
X164149674Y-126130500D01*
X164149676Y-126130500D01*
X164251537Y-126103207D01*
X164342862Y-126050480D01*
X166216245Y-124177095D01*
X166222039Y-124171662D01*
X166229845Y-124164799D01*
X166245962Y-124154833D01*
X166325425Y-124080773D01*
X166326768Y-124079594D01*
X166327241Y-124079373D01*
X166333988Y-124073713D01*
X166350608Y-124061182D01*
X166382081Y-124037452D01*
X166393646Y-124029712D01*
X166466852Y-123986467D01*
X166468832Y-123985282D01*
X166639107Y-123882097D01*
X166642905Y-123879738D01*
X166643309Y-123879481D01*
X166645001Y-123877831D01*
X166669550Y-123859243D01*
X166683672Y-123851091D01*
X166776858Y-123757905D01*
X166842750Y-123643777D01*
X166876858Y-123516483D01*
X166876858Y-123384699D01*
X166842750Y-123257405D01*
X166776858Y-123143277D01*
X166683672Y-123050091D01*
X166626608Y-123017145D01*
X166569545Y-122984199D01*
X166505897Y-122967145D01*
X166442250Y-122950091D01*
X166310466Y-122950091D01*
X166183170Y-122984199D01*
X166069044Y-123050091D01*
X165975857Y-123143277D01*
X165965914Y-123160498D01*
X165963479Y-123164535D01*
X165957533Y-123173983D01*
X165944853Y-123187839D01*
X165842055Y-123357472D01*
X165841607Y-123358199D01*
X165841518Y-123358341D01*
X165785032Y-123450079D01*
X165772300Y-123467244D01*
X165668156Y-123584918D01*
X165668154Y-123584922D01*
X165664536Y-123590911D01*
X165646082Y-123614472D01*
X163967375Y-125293181D01*
X163906052Y-125326666D01*
X163879694Y-125329500D01*
X156173255Y-125329500D01*
X156106216Y-125309815D01*
X156085574Y-125293181D01*
X153915915Y-123123522D01*
X153915913Y-123123520D01*
X153860812Y-123091707D01*
X153824589Y-123070793D01*
X153773657Y-123057146D01*
X153722727Y-123043500D01*
X153722726Y-123043500D01*
X153280955Y-123043500D01*
X153272992Y-123043244D01*
X153262614Y-123042576D01*
X153244181Y-123038229D01*
X153135658Y-123034406D01*
X153133843Y-123034290D01*
X153133353Y-123034111D01*
X153124580Y-123033344D01*
X153064919Y-123024975D01*
X153051250Y-123022267D01*
X152968820Y-123001060D01*
X152968123Y-123000885D01*
X152966603Y-123000504D01*
X152819052Y-122964304D01*
X152773337Y-122953089D01*
X152773316Y-122953084D01*
X152769304Y-122952142D01*
X152769285Y-122952137D01*
X152769235Y-122952126D01*
X152768848Y-122952039D01*
X152768851Y-122952039D01*
X152766302Y-122952005D01*
X152735912Y-122947792D01*
X152719892Y-122943500D01*
X152588108Y-122943500D01*
X152460812Y-122977608D01*
X152346686Y-123043500D01*
X152346683Y-123043502D01*
X152253502Y-123136683D01*
X152253500Y-123136686D01*
X152187608Y-123250812D01*
X152157349Y-123363742D01*
X152153500Y-123378108D01*
X151457500Y-123378108D01*
X151457500Y-122616108D01*
X154185500Y-122616108D01*
X154185500Y-122747891D01*
X154219608Y-122875187D01*
X154252554Y-122932250D01*
X154285500Y-122989314D01*
X154378686Y-123082500D01*
X154472539Y-123136686D01*
X154483954Y-123143277D01*
X154492814Y-123148392D01*
X154620108Y-123182500D01*
X154620110Y-123182500D01*
X154751890Y-123182500D01*
X154751892Y-123182500D01*
X154771142Y-123177341D01*
X154775684Y-123176217D01*
X154786558Y-123173742D01*
X154805330Y-123172912D01*
X154997782Y-123125696D01*
X155103773Y-123100487D01*
X155124914Y-123097353D01*
X155281757Y-123087789D01*
X155288542Y-123086113D01*
X155318262Y-123082500D01*
X156500745Y-123082500D01*
X156567784Y-123102185D01*
X156588426Y-123118819D01*
X157515479Y-124045872D01*
X157520927Y-124051682D01*
X157527794Y-124059493D01*
X157537755Y-124075600D01*
X157611795Y-124155045D01*
X157612992Y-124156407D01*
X157613210Y-124156877D01*
X157618871Y-124163623D01*
X157655135Y-124211721D01*
X157662886Y-124223302D01*
X157691590Y-124271892D01*
X157706159Y-124296553D01*
X157707272Y-124298415D01*
X157810500Y-124468761D01*
X157812864Y-124472567D01*
X157813106Y-124472947D01*
X157813111Y-124472954D01*
X157814766Y-124474652D01*
X157833346Y-124499192D01*
X157841497Y-124513310D01*
X157841499Y-124513313D01*
X157841500Y-124513314D01*
X157934686Y-124606500D01*
X158048814Y-124672392D01*
X158176108Y-124706500D01*
X158176110Y-124706500D01*
X158307890Y-124706500D01*
X158307892Y-124706500D01*
X158435186Y-124672392D01*
X158549314Y-124606500D01*
X158642500Y-124513314D01*
X158708392Y-124399186D01*
X158742500Y-124271892D01*
X158742500Y-124140108D01*
X160281500Y-124140108D01*
X160281500Y-124271891D01*
X160315608Y-124399187D01*
X160348554Y-124456250D01*
X160381500Y-124513314D01*
X160474686Y-124606500D01*
X160588814Y-124672392D01*
X160716108Y-124706500D01*
X160716110Y-124706500D01*
X160847890Y-124706500D01*
X160847892Y-124706500D01*
X160975186Y-124672392D01*
X161089314Y-124606500D01*
X161182500Y-124513314D01*
X161192467Y-124496048D01*
X161194877Y-124492052D01*
X161200819Y-124482609D01*
X161213505Y-124468750D01*
X161316297Y-124299124D01*
X161373327Y-124206501D01*
X161386050Y-124189348D01*
X161490200Y-124071672D01*
X161493814Y-124065687D01*
X161512268Y-124042123D01*
X162435574Y-123118819D01*
X162496897Y-123085334D01*
X162523255Y-123082500D01*
X163457049Y-123082500D01*
X163465010Y-123082756D01*
X163475386Y-123083423D01*
X163493819Y-123087770D01*
X163602364Y-123091592D01*
X163604150Y-123091707D01*
X163604639Y-123091885D01*
X163613408Y-123092652D01*
X163673088Y-123101024D01*
X163686754Y-123103732D01*
X163769158Y-123124933D01*
X163770490Y-123125267D01*
X163771256Y-123125460D01*
X163771283Y-123125466D01*
X163771396Y-123125495D01*
X163964669Y-123172912D01*
X163968647Y-123173846D01*
X163969113Y-123173950D01*
X163969114Y-123173951D01*
X163969439Y-123173955D01*
X163971664Y-123173986D01*
X164002053Y-123178198D01*
X164018108Y-123182500D01*
X164018111Y-123182500D01*
X164149890Y-123182500D01*
X164149892Y-123182500D01*
X164277186Y-123148392D01*
X164391314Y-123082500D01*
X164484500Y-122989314D01*
X164550392Y-122875186D01*
X164584500Y-122747892D01*
X164584500Y-122616108D01*
X164550392Y-122488814D01*
X164484500Y-122374686D01*
X164391314Y-122281500D01*
X164334250Y-122248554D01*
X164277187Y-122215608D01*
X164185679Y-122191089D01*
X164149892Y-122181500D01*
X164018108Y-122181500D01*
X164018106Y-122181500D01*
X164018101Y-122181501D01*
X163998897Y-122186646D01*
X163994319Y-122187780D01*
X163983438Y-122190255D01*
X163964671Y-122191087D01*
X163772138Y-122238321D01*
X163771109Y-122238565D01*
X163771077Y-122238573D01*
X163666227Y-122263509D01*
X163645087Y-122266643D01*
X163488244Y-122276209D01*
X163488240Y-122276210D01*
X163481455Y-122277885D01*
X163451734Y-122281500D01*
X162253273Y-122281500D01*
X162151413Y-122308793D01*
X162151412Y-122308793D01*
X162151410Y-122308794D01*
X162151407Y-122308795D01*
X162112081Y-122331501D01*
X162112080Y-122331502D01*
X162086083Y-122346511D01*
X162060088Y-122361519D01*
X162060085Y-122361521D01*
X160942130Y-123479475D01*
X160936319Y-123484924D01*
X160928503Y-123491794D01*
X160912398Y-123501754D01*
X160832969Y-123575777D01*
X160831587Y-123576993D01*
X160831117Y-123577211D01*
X160824369Y-123582874D01*
X160776272Y-123619138D01*
X160764689Y-123626890D01*
X160691420Y-123670173D01*
X160689582Y-123671273D01*
X160519218Y-123774513D01*
X160515246Y-123776982D01*
X160514840Y-123777241D01*
X160513217Y-123778825D01*
X160488639Y-123797443D01*
X160474688Y-123805498D01*
X160474686Y-123805499D01*
X160381500Y-123898686D01*
X160315608Y-124012812D01*
X160281500Y-124140108D01*
X158742500Y-124140108D01*
X158708392Y-124012814D01*
X158642500Y-123898686D01*
X158549314Y-123805500D01*
X158532084Y-123795552D01*
X158528055Y-123793122D01*
X158518608Y-123787177D01*
X158504749Y-123774493D01*
X158335075Y-123671672D01*
X158242509Y-123614674D01*
X158225354Y-123601950D01*
X158107670Y-123497797D01*
X158107669Y-123497796D01*
X158107668Y-123497795D01*
X158101687Y-123494183D01*
X158078117Y-123475724D01*
X156963915Y-122361522D01*
X156963913Y-122361520D01*
X156911919Y-122331501D01*
X156872589Y-122308793D01*
X156821657Y-122295146D01*
X156770727Y-122281500D01*
X156770726Y-122281500D01*
X155312955Y-122281500D01*
X155304992Y-122281244D01*
X155294614Y-122280576D01*
X155276181Y-122276229D01*
X155167658Y-122272406D01*
X155165843Y-122272290D01*
X155165353Y-122272111D01*
X155156580Y-122271344D01*
X155096919Y-122262975D01*
X155083250Y-122260267D01*
X155000820Y-122239060D01*
X155000123Y-122238885D01*
X154998603Y-122238504D01*
X154851052Y-122202304D01*
X154805337Y-122191089D01*
X154805316Y-122191084D01*
X154801304Y-122190142D01*
X154801285Y-122190137D01*
X154801235Y-122190126D01*
X154800848Y-122190039D01*
X154800851Y-122190039D01*
X154798302Y-122190005D01*
X154767912Y-122185792D01*
X154751892Y-122181500D01*
X154620108Y-122181500D01*
X154492812Y-122215608D01*
X154378686Y-122281500D01*
X154378683Y-122281502D01*
X154285502Y-122374683D01*
X154285500Y-122374686D01*
X154219608Y-122488812D01*
X154185500Y-122616108D01*
X151457500Y-122616108D01*
X151457500Y-118716543D01*
X155971499Y-118716543D01*
X156009947Y-118909829D01*
X156009950Y-118909839D01*
X156085364Y-119091907D01*
X156085371Y-119091920D01*
X156194860Y-119255781D01*
X156194863Y-119255785D01*
X156334214Y-119395136D01*
X156334218Y-119395139D01*
X156498079Y-119504628D01*
X156498092Y-119504635D01*
X156680160Y-119580049D01*
X156680165Y-119580051D01*
X156680169Y-119580051D01*
X156680170Y-119580052D01*
X156873456Y-119618500D01*
X156873459Y-119618500D01*
X157070543Y-119618500D01*
X157200582Y-119592632D01*
X157263835Y-119580051D01*
X157404655Y-119521721D01*
X157445907Y-119504635D01*
X157445907Y-119504634D01*
X157445914Y-119504632D01*
X157609782Y-119395139D01*
X157749139Y-119255782D01*
X157858632Y-119091914D01*
X157908905Y-118970543D01*
X161051499Y-118970543D01*
X161089947Y-119163829D01*
X161089950Y-119163839D01*
X161165364Y-119345907D01*
X161165371Y-119345920D01*
X161274860Y-119509781D01*
X161274863Y-119509785D01*
X161414214Y-119649136D01*
X161414218Y-119649139D01*
X161578079Y-119758628D01*
X161578092Y-119758635D01*
X161760160Y-119834049D01*
X161760165Y-119834051D01*
X161760169Y-119834051D01*
X161760170Y-119834052D01*
X161953456Y-119872500D01*
X161953459Y-119872500D01*
X162150543Y-119872500D01*
X162280582Y-119846632D01*
X162343835Y-119834051D01*
X162525914Y-119758632D01*
X162689782Y-119649139D01*
X162829139Y-119509782D01*
X162938632Y-119345914D01*
X163014051Y-119163835D01*
X163052500Y-118970541D01*
X163052500Y-118773459D01*
X163052500Y-118773456D01*
X163014052Y-118580170D01*
X163014051Y-118580169D01*
X163014051Y-118580165D01*
X162988905Y-118519456D01*
X162938635Y-118398092D01*
X162938628Y-118398079D01*
X162829139Y-118234218D01*
X162829136Y-118234214D01*
X162689785Y-118094863D01*
X162689781Y-118094860D01*
X162525920Y-117985371D01*
X162525907Y-117985364D01*
X162343839Y-117909950D01*
X162343829Y-117909947D01*
X162150543Y-117871500D01*
X162150541Y-117871500D01*
X161953459Y-117871500D01*
X161953457Y-117871500D01*
X161760170Y-117909947D01*
X161760160Y-117909950D01*
X161578092Y-117985364D01*
X161578079Y-117985371D01*
X161414218Y-118094860D01*
X161414214Y-118094863D01*
X161274863Y-118234214D01*
X161274860Y-118234218D01*
X161165371Y-118398079D01*
X161165364Y-118398092D01*
X161089950Y-118580160D01*
X161089947Y-118580170D01*
X161051500Y-118773456D01*
X161051500Y-118773459D01*
X161051500Y-118970541D01*
X161051500Y-118970543D01*
X161051499Y-118970543D01*
X157908905Y-118970543D01*
X157934051Y-118909835D01*
X157943766Y-118860990D01*
X157967198Y-118743198D01*
X157967202Y-118743177D01*
X157970342Y-118727389D01*
X157972500Y-118716541D01*
X157972500Y-118519459D01*
X157972500Y-118519456D01*
X157934052Y-118326170D01*
X157934051Y-118326169D01*
X157934051Y-118326165D01*
X157895964Y-118234214D01*
X157858635Y-118144092D01*
X157858628Y-118144079D01*
X157749139Y-117980218D01*
X157749136Y-117980214D01*
X157609785Y-117840863D01*
X157609781Y-117840860D01*
X157445920Y-117731371D01*
X157445907Y-117731364D01*
X157263839Y-117655950D01*
X157263829Y-117655947D01*
X157070543Y-117617500D01*
X157070541Y-117617500D01*
X156873459Y-117617500D01*
X156873457Y-117617500D01*
X156680170Y-117655947D01*
X156680160Y-117655950D01*
X156498092Y-117731364D01*
X156498079Y-117731371D01*
X156334218Y-117840860D01*
X156334214Y-117840863D01*
X156194863Y-117980214D01*
X156194860Y-117980218D01*
X156085371Y-118144079D01*
X156085364Y-118144092D01*
X156009950Y-118326160D01*
X156009947Y-118326170D01*
X155971500Y-118519456D01*
X155971500Y-118519459D01*
X155971500Y-118716541D01*
X155971500Y-118716543D01*
X155971499Y-118716543D01*
X151457500Y-118716543D01*
X151457500Y-112455016D01*
X151477185Y-112387977D01*
X151493814Y-112367340D01*
X152445820Y-111415334D01*
X156051500Y-111415334D01*
X156051500Y-111596665D01*
X156086872Y-111774492D01*
X156086874Y-111774500D01*
X156156261Y-111942017D01*
X156156266Y-111942026D01*
X156257000Y-112092784D01*
X156257003Y-112092788D01*
X156385211Y-112220996D01*
X156385215Y-112220999D01*
X156535973Y-112321733D01*
X156535979Y-112321736D01*
X156535980Y-112321737D01*
X156703500Y-112391126D01*
X156881334Y-112426499D01*
X156881338Y-112426500D01*
X156881339Y-112426500D01*
X157062662Y-112426500D01*
X157062663Y-112426499D01*
X157240500Y-112391126D01*
X157408020Y-112321737D01*
X157558785Y-112220999D01*
X157686999Y-112092785D01*
X157787737Y-111942020D01*
X157857126Y-111774500D01*
X157892500Y-111596661D01*
X157892500Y-111415339D01*
X157892499Y-111415334D01*
X161131500Y-111415334D01*
X161131500Y-111596665D01*
X161166872Y-111774492D01*
X161166874Y-111774500D01*
X161236261Y-111942017D01*
X161236266Y-111942026D01*
X161337000Y-112092784D01*
X161337003Y-112092788D01*
X161465211Y-112220996D01*
X161465215Y-112220999D01*
X161615973Y-112321733D01*
X161615979Y-112321736D01*
X161615980Y-112321737D01*
X161783500Y-112391126D01*
X161961334Y-112426499D01*
X161961338Y-112426500D01*
X161961339Y-112426500D01*
X162142662Y-112426500D01*
X162142663Y-112426499D01*
X162320500Y-112391126D01*
X162488020Y-112321737D01*
X162638785Y-112220999D01*
X162766999Y-112092785D01*
X162867737Y-111942020D01*
X162937126Y-111774500D01*
X162972500Y-111596661D01*
X162972500Y-111415339D01*
X162937126Y-111237500D01*
X162867737Y-111069980D01*
X162867736Y-111069979D01*
X162867733Y-111069973D01*
X162766999Y-110919215D01*
X162766996Y-110919211D01*
X162638788Y-110791003D01*
X162638784Y-110791000D01*
X162488026Y-110690266D01*
X162488017Y-110690261D01*
X162320500Y-110620874D01*
X162320492Y-110620872D01*
X162142665Y-110585500D01*
X162142661Y-110585500D01*
X161961339Y-110585500D01*
X161961334Y-110585500D01*
X161783507Y-110620872D01*
X161783499Y-110620874D01*
X161615982Y-110690261D01*
X161615973Y-110690266D01*
X161465215Y-110791000D01*
X161465211Y-110791003D01*
X161337003Y-110919211D01*
X161337000Y-110919215D01*
X161236266Y-111069973D01*
X161236261Y-111069982D01*
X161166874Y-111237499D01*
X161166872Y-111237507D01*
X161131500Y-111415334D01*
X157892499Y-111415334D01*
X157857126Y-111237500D01*
X157787737Y-111069980D01*
X157787736Y-111069979D01*
X157787733Y-111069973D01*
X157686999Y-110919215D01*
X157686996Y-110919211D01*
X157558788Y-110791003D01*
X157558784Y-110791000D01*
X157408026Y-110690266D01*
X157408017Y-110690261D01*
X157240500Y-110620874D01*
X157240492Y-110620872D01*
X157062665Y-110585500D01*
X157062661Y-110585500D01*
X156881339Y-110585500D01*
X156881334Y-110585500D01*
X156703507Y-110620872D01*
X156703499Y-110620874D01*
X156535982Y-110690261D01*
X156535973Y-110690266D01*
X156385215Y-110791000D01*
X156385211Y-110791003D01*
X156257003Y-110919211D01*
X156257000Y-110919215D01*
X156156266Y-111069973D01*
X156156261Y-111069982D01*
X156086874Y-111237499D01*
X156086872Y-111237507D01*
X156051500Y-111415334D01*
X152445820Y-111415334D01*
X154985819Y-108875334D01*
X156051500Y-108875334D01*
X156051500Y-109056665D01*
X156086872Y-109234492D01*
X156086874Y-109234500D01*
X156156261Y-109402017D01*
X156156266Y-109402026D01*
X156257000Y-109552784D01*
X156257003Y-109552788D01*
X156385211Y-109680996D01*
X156385215Y-109680999D01*
X156535973Y-109781733D01*
X156535979Y-109781736D01*
X156535980Y-109781737D01*
X156703500Y-109851126D01*
X156881334Y-109886499D01*
X156881338Y-109886500D01*
X156881339Y-109886500D01*
X157062662Y-109886500D01*
X157062663Y-109886499D01*
X157240500Y-109851126D01*
X157408020Y-109781737D01*
X157558785Y-109680999D01*
X157686999Y-109552785D01*
X157787737Y-109402020D01*
X157857126Y-109234500D01*
X157892500Y-109056661D01*
X157892500Y-108875339D01*
X157892499Y-108875334D01*
X161131500Y-108875334D01*
X161131500Y-109056665D01*
X161166872Y-109234492D01*
X161166874Y-109234500D01*
X161236261Y-109402017D01*
X161236266Y-109402026D01*
X161337000Y-109552784D01*
X161337003Y-109552788D01*
X161465211Y-109680996D01*
X161465215Y-109680999D01*
X161615973Y-109781733D01*
X161615979Y-109781736D01*
X161615980Y-109781737D01*
X161783500Y-109851126D01*
X161961334Y-109886499D01*
X161961338Y-109886500D01*
X161961339Y-109886500D01*
X162142662Y-109886500D01*
X162142663Y-109886499D01*
X162320500Y-109851126D01*
X162488020Y-109781737D01*
X162638785Y-109680999D01*
X162766999Y-109552785D01*
X162867737Y-109402020D01*
X162937126Y-109234500D01*
X162972500Y-109056661D01*
X162972500Y-108875339D01*
X162937126Y-108697500D01*
X162867737Y-108529980D01*
X162867736Y-108529979D01*
X162867733Y-108529973D01*
X162766999Y-108379215D01*
X162766996Y-108379211D01*
X162638788Y-108251003D01*
X162638784Y-108251000D01*
X162488026Y-108150266D01*
X162488017Y-108150261D01*
X162320500Y-108080874D01*
X162320492Y-108080872D01*
X162142665Y-108045500D01*
X162142661Y-108045500D01*
X161961339Y-108045500D01*
X161961334Y-108045500D01*
X161783507Y-108080872D01*
X161783499Y-108080874D01*
X161615982Y-108150261D01*
X161615973Y-108150266D01*
X161465215Y-108251000D01*
X161465211Y-108251003D01*
X161337003Y-108379211D01*
X161337000Y-108379215D01*
X161236266Y-108529973D01*
X161236261Y-108529982D01*
X161166874Y-108697499D01*
X161166872Y-108697507D01*
X161131500Y-108875334D01*
X157892499Y-108875334D01*
X157857126Y-108697500D01*
X157787737Y-108529980D01*
X157787736Y-108529979D01*
X157787733Y-108529973D01*
X157686999Y-108379215D01*
X157686996Y-108379211D01*
X157558788Y-108251003D01*
X157558784Y-108251000D01*
X157408026Y-108150266D01*
X157408017Y-108150261D01*
X157240500Y-108080874D01*
X157240492Y-108080872D01*
X157062665Y-108045500D01*
X157062661Y-108045500D01*
X156881339Y-108045500D01*
X156881334Y-108045500D01*
X156703507Y-108080872D01*
X156703499Y-108080874D01*
X156535982Y-108150261D01*
X156535973Y-108150266D01*
X156385215Y-108251000D01*
X156385211Y-108251003D01*
X156257003Y-108379211D01*
X156257000Y-108379215D01*
X156156266Y-108529973D01*
X156156261Y-108529982D01*
X156086874Y-108697499D01*
X156086872Y-108697507D01*
X156051500Y-108875334D01*
X154985819Y-108875334D01*
X156172476Y-107688677D01*
X156177592Y-107683845D01*
X156185532Y-107676761D01*
X156202228Y-107666359D01*
X156299479Y-107575108D01*
X156300615Y-107574095D01*
X156300932Y-107573944D01*
X156306281Y-107569337D01*
X156382248Y-107509335D01*
X156393083Y-107501683D01*
X156440609Y-107471798D01*
X156453385Y-107464778D01*
X156485381Y-107449580D01*
X156505461Y-107442094D01*
X156536233Y-107433574D01*
X156536232Y-107433573D01*
X156569602Y-107424332D01*
X156604883Y-107414564D01*
X156604887Y-107414562D01*
X156609823Y-107413195D01*
X156626467Y-107409795D01*
X156775504Y-107389881D01*
X156776544Y-107389748D01*
X156873063Y-107377854D01*
X156937237Y-107369946D01*
X156938995Y-107369709D01*
X156941602Y-107369360D01*
X156941958Y-107369308D01*
X156942072Y-107369292D01*
X156942087Y-107369289D01*
X156942119Y-107369285D01*
X156946835Y-107368545D01*
X157134820Y-107336799D01*
X157137750Y-107336282D01*
X157137761Y-107336280D01*
X157138067Y-107336224D01*
X157138068Y-107336223D01*
X157138071Y-107336223D01*
X157150111Y-107331346D01*
X157172474Y-107324656D01*
X157240500Y-107311126D01*
X157408020Y-107241737D01*
X157558785Y-107140999D01*
X157686999Y-107012785D01*
X157787737Y-106862020D01*
X157857126Y-106694500D01*
X157892500Y-106516661D01*
X157892500Y-106335339D01*
X157892499Y-106335334D01*
X161131500Y-106335334D01*
X161131500Y-106516665D01*
X161166872Y-106694492D01*
X161166874Y-106694500D01*
X161236261Y-106862017D01*
X161236266Y-106862026D01*
X161337000Y-107012784D01*
X161337003Y-107012788D01*
X161465211Y-107140996D01*
X161465215Y-107140999D01*
X161615973Y-107241733D01*
X161615986Y-107241740D01*
X161716492Y-107283370D01*
X161783500Y-107311126D01*
X161856607Y-107325667D01*
X161874833Y-107330766D01*
X161892298Y-107337126D01*
X161926221Y-107342353D01*
X162190249Y-107383043D01*
X162192497Y-107383368D01*
X162193815Y-107383560D01*
X162194263Y-107383621D01*
X162198562Y-107384160D01*
X162247472Y-107389771D01*
X162248258Y-107389864D01*
X162249104Y-107389967D01*
X162315738Y-107399022D01*
X162329478Y-107400420D01*
X162331053Y-107400527D01*
X162337741Y-107400753D01*
X162343099Y-107401406D01*
X162345104Y-107402269D01*
X162356444Y-107403777D01*
X162358618Y-107404286D01*
X162359068Y-107404392D01*
X162360507Y-107404682D01*
X162373438Y-107406861D01*
X162403248Y-107410911D01*
X162421359Y-107414769D01*
X162527028Y-107445694D01*
X162548008Y-107453972D01*
X162582565Y-107471391D01*
X162595390Y-107478849D01*
X162635064Y-107505219D01*
X162643624Y-107510908D01*
X162657140Y-107521299D01*
X162826253Y-107670886D01*
X162826260Y-107670891D01*
X162832200Y-107674477D01*
X162855798Y-107692953D01*
X167530181Y-112367336D01*
X167563666Y-112428659D01*
X167566500Y-112455016D01*
X167566500Y-129283400D01*
X167561851Y-129310140D01*
X167566360Y-129496033D01*
X167566500Y-129499537D01*
X167566500Y-129583115D01*
X167566501Y-129583123D01*
X167573576Y-129609530D01*
X167577362Y-129631201D01*
X167580662Y-129670336D01*
X167581396Y-129677536D01*
X167581494Y-129678361D01*
X167582520Y-129685782D01*
X167595080Y-129765915D01*
X167602717Y-129814632D01*
X167603934Y-129821539D01*
X167604074Y-129822329D01*
X167604231Y-129823137D01*
X167605833Y-129830586D01*
X167632005Y-129942252D01*
X167634245Y-129950947D01*
X167634250Y-129950964D01*
X167634526Y-129951946D01*
X167637166Y-129960603D01*
X167711401Y-130186099D01*
X167711799Y-130187294D01*
X167790645Y-130421946D01*
X167793525Y-130431870D01*
X167874095Y-130759976D01*
X167874097Y-130759981D01*
X167877812Y-130768174D01*
X167886496Y-130795188D01*
X167899868Y-130862414D01*
X167899870Y-130862420D01*
X167979058Y-131053596D01*
X168094024Y-131225657D01*
X168240342Y-131371975D01*
X168240345Y-131371977D01*
X168412402Y-131486941D01*
X168603580Y-131566130D01*
X168806530Y-131606499D01*
X168806534Y-131606500D01*
X168806535Y-131606500D01*
X169013466Y-131606500D01*
X169013467Y-131606499D01*
X169216420Y-131566130D01*
X169407598Y-131486941D01*
X169579655Y-131371977D01*
X169725977Y-131225655D01*
X169840941Y-131053598D01*
X169920130Y-130862420D01*
X169960500Y-130659465D01*
X169960500Y-130452535D01*
X169920130Y-130249580D01*
X169840941Y-130058402D01*
X169725977Y-129886345D01*
X169725975Y-129886342D01*
X169579657Y-129740024D01*
X169446576Y-129651103D01*
X169407598Y-129625059D01*
X169395867Y-129620200D01*
X169216420Y-129545870D01*
X169216414Y-129545868D01*
X169123607Y-129527407D01*
X169123607Y-129527406D01*
X169116039Y-129525900D01*
X169088789Y-129516857D01*
X169039907Y-129510758D01*
X169035498Y-129509881D01*
X169013470Y-129505500D01*
X169013465Y-129505500D01*
X169005463Y-129505500D01*
X168990113Y-129504546D01*
X168964764Y-129501383D01*
X168873166Y-129489955D01*
X168862603Y-129488914D01*
X168861441Y-129488830D01*
X168856317Y-129488589D01*
X168851053Y-129488341D01*
X168667331Y-129484338D01*
X168667328Y-129484338D01*
X168667324Y-129484337D01*
X168598049Y-129482829D01*
X168597399Y-129482813D01*
X168388686Y-129477172D01*
X168373563Y-129475833D01*
X168337753Y-129470438D01*
X168274394Y-129440986D01*
X168237016Y-129381955D01*
X168232658Y-129358163D01*
X168226682Y-129286761D01*
X168226682Y-129286757D01*
X168225634Y-129282804D01*
X168221500Y-129251050D01*
X168221500Y-118970543D01*
X168671499Y-118970543D01*
X168709947Y-119163829D01*
X168709950Y-119163839D01*
X168785364Y-119345907D01*
X168785371Y-119345920D01*
X168894860Y-119509781D01*
X168894863Y-119509785D01*
X169034214Y-119649136D01*
X169034218Y-119649139D01*
X169198079Y-119758628D01*
X169198092Y-119758635D01*
X169380160Y-119834049D01*
X169380165Y-119834051D01*
X169380169Y-119834051D01*
X169380170Y-119834052D01*
X169573456Y-119872500D01*
X169573459Y-119872500D01*
X169770543Y-119872500D01*
X169900582Y-119846632D01*
X169963835Y-119834051D01*
X170145914Y-119758632D01*
X170309782Y-119649139D01*
X170449139Y-119509782D01*
X170558632Y-119345914D01*
X170634051Y-119163835D01*
X170672500Y-118970541D01*
X170672500Y-118773459D01*
X170672500Y-118773456D01*
X170634052Y-118580170D01*
X170634051Y-118580169D01*
X170634051Y-118580165D01*
X170608905Y-118519456D01*
X170558635Y-118398092D01*
X170558628Y-118398079D01*
X170449139Y-118234218D01*
X170449136Y-118234214D01*
X170309784Y-118094862D01*
X170171177Y-118002247D01*
X171669500Y-118002247D01*
X171669500Y-119741752D01*
X171681131Y-119800229D01*
X171681132Y-119800230D01*
X171725447Y-119866552D01*
X171791769Y-119910867D01*
X171791770Y-119910868D01*
X171850247Y-119922499D01*
X171850250Y-119922500D01*
X171850252Y-119922500D01*
X173589750Y-119922500D01*
X173589751Y-119922499D01*
X173604568Y-119919552D01*
X173648229Y-119910868D01*
X173648229Y-119910867D01*
X173648231Y-119910867D01*
X173714552Y-119866552D01*
X173758867Y-119800231D01*
X173758867Y-119800229D01*
X173758868Y-119800229D01*
X173770499Y-119741752D01*
X173770500Y-119741750D01*
X173770500Y-118002249D01*
X173770499Y-118002247D01*
X173758868Y-117943770D01*
X173758867Y-117943769D01*
X173714552Y-117877447D01*
X173648230Y-117833132D01*
X173648229Y-117833131D01*
X173589752Y-117821500D01*
X173589748Y-117821500D01*
X171850252Y-117821500D01*
X171850247Y-117821500D01*
X171791770Y-117833131D01*
X171791769Y-117833132D01*
X171725447Y-117877447D01*
X171681132Y-117943769D01*
X171681131Y-117943770D01*
X171669500Y-118002247D01*
X170171177Y-118002247D01*
X170145920Y-117985371D01*
X170145907Y-117985364D01*
X169963839Y-117909950D01*
X169963829Y-117909947D01*
X169770543Y-117871500D01*
X169770541Y-117871500D01*
X169573459Y-117871500D01*
X169573457Y-117871500D01*
X169380170Y-117909947D01*
X169380160Y-117909950D01*
X169198092Y-117985364D01*
X169198079Y-117985371D01*
X169034218Y-118094860D01*
X169034214Y-118094863D01*
X168894863Y-118234214D01*
X168894860Y-118234218D01*
X168785371Y-118398079D01*
X168785364Y-118398092D01*
X168709950Y-118580160D01*
X168709947Y-118580170D01*
X168671500Y-118773456D01*
X168671500Y-118773459D01*
X168671500Y-118970541D01*
X168671500Y-118970543D01*
X168671499Y-118970543D01*
X168221500Y-118970543D01*
X168221500Y-116228530D01*
X171669500Y-116228530D01*
X171669500Y-116435469D01*
X171709868Y-116638412D01*
X171709870Y-116638420D01*
X171789058Y-116829596D01*
X171904024Y-117001657D01*
X172050342Y-117147975D01*
X172050345Y-117147977D01*
X172222402Y-117262941D01*
X172413580Y-117342130D01*
X172616530Y-117382499D01*
X172616534Y-117382500D01*
X172616535Y-117382500D01*
X172823466Y-117382500D01*
X172823467Y-117382499D01*
X173026420Y-117342130D01*
X173217598Y-117262941D01*
X173389655Y-117147977D01*
X173535977Y-117001655D01*
X173650941Y-116829598D01*
X173730130Y-116638420D01*
X173770500Y-116435465D01*
X173770500Y-116228535D01*
X173730130Y-116025580D01*
X173650941Y-115834402D01*
X173535977Y-115662345D01*
X173535975Y-115662342D01*
X173389657Y-115516024D01*
X173228502Y-115408345D01*
X173217598Y-115401059D01*
X173026420Y-115321870D01*
X173026412Y-115321868D01*
X172823469Y-115281500D01*
X172823465Y-115281500D01*
X172616535Y-115281500D01*
X172616530Y-115281500D01*
X172413587Y-115321868D01*
X172413579Y-115321870D01*
X172222403Y-115401058D01*
X172050342Y-115516024D01*
X171904024Y-115662342D01*
X171789058Y-115834403D01*
X171709870Y-116025579D01*
X171709868Y-116025587D01*
X171669500Y-116228530D01*
X168221500Y-116228530D01*
X168221500Y-112224885D01*
X168220458Y-112220996D01*
X168199181Y-112141590D01*
X168156065Y-112066910D01*
X168095090Y-112005935D01*
X163314693Y-107225538D01*
X163309843Y-107220405D01*
X163302761Y-107212467D01*
X163292358Y-107195770D01*
X163201110Y-107098522D01*
X163200107Y-107097398D01*
X163199955Y-107097077D01*
X163195329Y-107091707D01*
X163135336Y-107015749D01*
X163127675Y-107004902D01*
X163097804Y-106957399D01*
X163090778Y-106944613D01*
X163075581Y-106912619D01*
X163068090Y-106892520D01*
X163039197Y-106788176D01*
X163036181Y-106774195D01*
X163035971Y-106772853D01*
X163032357Y-106745799D01*
X163030167Y-106732665D01*
X163029871Y-106731187D01*
X163028676Y-106726077D01*
X163027960Y-106721486D01*
X163028244Y-106719324D01*
X163026824Y-106708585D01*
X163026686Y-106708595D01*
X163026548Y-106706522D01*
X163026445Y-106704972D01*
X163025087Y-106691381D01*
X163015881Y-106622485D01*
X163015730Y-106621305D01*
X162995946Y-106460760D01*
X162995362Y-106456412D01*
X162995280Y-106455845D01*
X162994553Y-106451215D01*
X162994545Y-106451162D01*
X162962799Y-106263178D01*
X162962282Y-106260249D01*
X162962223Y-106259928D01*
X162957342Y-106247878D01*
X162950656Y-106225525D01*
X162937126Y-106157500D01*
X162874694Y-106006775D01*
X162867738Y-105989982D01*
X162867733Y-105989973D01*
X162766999Y-105839215D01*
X162766996Y-105839211D01*
X162638788Y-105711003D01*
X162638784Y-105711000D01*
X162488026Y-105610266D01*
X162488017Y-105610261D01*
X162320500Y-105540874D01*
X162320492Y-105540872D01*
X162142665Y-105505500D01*
X162142661Y-105505500D01*
X161961339Y-105505500D01*
X161961334Y-105505500D01*
X161783507Y-105540872D01*
X161783499Y-105540874D01*
X161615982Y-105610261D01*
X161615973Y-105610266D01*
X161465215Y-105711000D01*
X161465211Y-105711003D01*
X161337003Y-105839211D01*
X161337000Y-105839215D01*
X161236266Y-105989973D01*
X161236261Y-105989982D01*
X161166874Y-106157499D01*
X161166872Y-106157507D01*
X161131500Y-106335334D01*
X157892499Y-106335334D01*
X157857126Y-106157500D01*
X157794694Y-106006775D01*
X157787738Y-105989982D01*
X157787733Y-105989973D01*
X157686999Y-105839215D01*
X157686996Y-105839211D01*
X157558788Y-105711003D01*
X157558784Y-105711000D01*
X157408026Y-105610266D01*
X157408017Y-105610261D01*
X157240500Y-105540874D01*
X157240492Y-105540872D01*
X157062665Y-105505500D01*
X157062661Y-105505500D01*
X156881339Y-105505500D01*
X156881334Y-105505500D01*
X156703507Y-105540872D01*
X156703499Y-105540874D01*
X156535982Y-105610261D01*
X156535973Y-105610266D01*
X156385215Y-105711000D01*
X156385211Y-105711003D01*
X156257003Y-105839211D01*
X156257000Y-105839215D01*
X156156266Y-105989973D01*
X156156261Y-105989982D01*
X156086874Y-106157499D01*
X156086872Y-106157505D01*
X156072334Y-106230593D01*
X156067234Y-106248826D01*
X156060873Y-106266294D01*
X156060873Y-106266296D01*
X156014949Y-106564283D01*
X156014464Y-106567618D01*
X156014391Y-106568146D01*
X156013839Y-106572541D01*
X156008224Y-106621470D01*
X156008125Y-106622308D01*
X156008014Y-106623212D01*
X155998978Y-106689732D01*
X155997580Y-106703470D01*
X155997473Y-106705045D01*
X155997246Y-106711723D01*
X155996592Y-106717099D01*
X155995737Y-106719083D01*
X155994235Y-106730393D01*
X155993582Y-106733181D01*
X155993302Y-106734571D01*
X155991138Y-106747433D01*
X155987088Y-106777237D01*
X155983226Y-106795367D01*
X155952306Y-106901019D01*
X155944026Y-106922005D01*
X155926600Y-106956575D01*
X155919142Y-106969399D01*
X155887086Y-107017628D01*
X155876696Y-107031142D01*
X155731079Y-107195770D01*
X155727109Y-107200258D01*
X155723515Y-107206211D01*
X155705047Y-107229796D01*
X150928910Y-112005935D01*
X150867936Y-112066908D01*
X150867934Y-112066911D01*
X150824819Y-112141589D01*
X150802500Y-112224885D01*
X150802500Y-129406189D01*
X150802010Y-129417202D01*
X150801136Y-129427003D01*
X150797201Y-129442587D01*
X150795902Y-129468026D01*
X150795902Y-129468040D01*
X150793795Y-129509325D01*
X150793586Y-129511679D01*
X150793294Y-129512420D01*
X150792154Y-129522413D01*
X150786382Y-129554815D01*
X150755246Y-129617363D01*
X150718419Y-129644637D01*
X150705088Y-129651103D01*
X150678484Y-129660444D01*
X150568713Y-129685421D01*
X150559764Y-129687113D01*
X150524566Y-129692439D01*
X150487702Y-129698017D01*
X150487096Y-129698076D01*
X150482488Y-129698803D01*
X150481769Y-129698914D01*
X150478763Y-129699369D01*
X150478185Y-129699482D01*
X150336683Y-129721797D01*
X150330310Y-129722903D01*
X150329631Y-129723032D01*
X150322796Y-129724450D01*
X150170229Y-129758768D01*
X150158478Y-129761777D01*
X150157466Y-129762068D01*
X150157146Y-129762161D01*
X150145436Y-129765915D01*
X150081854Y-129788416D01*
X149988260Y-129821539D01*
X149972944Y-129827663D01*
X149971250Y-129828420D01*
X149956481Y-129835749D01*
X149904867Y-129863999D01*
X149904866Y-129863998D01*
X149898969Y-129867225D01*
X149870402Y-129879059D01*
X149838919Y-129900093D01*
X149834112Y-129902725D01*
X149808308Y-129916849D01*
X149800229Y-129921510D01*
X149799401Y-129922014D01*
X149799395Y-129922018D01*
X149791697Y-129929385D01*
X149774860Y-129942895D01*
X149698347Y-129994020D01*
X149698341Y-129994025D01*
X149552024Y-130140342D01*
X149437058Y-130312403D01*
X149357870Y-130503579D01*
X149357868Y-130503587D01*
X149317500Y-130706530D01*
X146403252Y-130706530D01*
X146455973Y-130579250D01*
X146492500Y-130395617D01*
X146492500Y-130208383D01*
X146492500Y-130208380D01*
X146492499Y-130208378D01*
X146459106Y-130040500D01*
X146455973Y-130024750D01*
X146448369Y-130006392D01*
X146384325Y-129851775D01*
X146384318Y-129851762D01*
X146276917Y-129691026D01*
X146278380Y-129690047D01*
X146254332Y-129633408D01*
X146253500Y-129619065D01*
X146253500Y-128900089D01*
X146252995Y-128895220D01*
X146249136Y-128857967D01*
X146238716Y-128808212D01*
X146236708Y-128799558D01*
X146194957Y-128718188D01*
X146150027Y-128664680D01*
X146149199Y-128663808D01*
X146132715Y-128646453D01*
X146132714Y-128646452D01*
X146053603Y-128600575D01*
X146053599Y-128600573D01*
X146053598Y-128600573D01*
X145986873Y-128579851D01*
X145986869Y-128579850D01*
X145986868Y-128579850D01*
X145929120Y-128570630D01*
X145192866Y-128559203D01*
X145126140Y-128538480D01*
X145107109Y-128522899D01*
X144242819Y-127658609D01*
X144209334Y-127597286D01*
X144206500Y-127570928D01*
X144206500Y-123858382D01*
X144206499Y-123858378D01*
X144205943Y-123855582D01*
X144205943Y-123855581D01*
X144205939Y-123855567D01*
X144195980Y-123805501D01*
X144178956Y-123719911D01*
X144169973Y-123674749D01*
X144098322Y-123501769D01*
X144098321Y-123501768D01*
X144098318Y-123501762D01*
X143994303Y-123346093D01*
X143994302Y-123346092D01*
X143861908Y-123213698D01*
X139924819Y-119276609D01*
X139891334Y-119215286D01*
X139888500Y-119188928D01*
X139888500Y-117748247D01*
X145253500Y-117748247D01*
X145253500Y-119487752D01*
X145265131Y-119546229D01*
X145265132Y-119546230D01*
X145309447Y-119612552D01*
X145375769Y-119656867D01*
X145375770Y-119656868D01*
X145434247Y-119668499D01*
X145434250Y-119668500D01*
X145434252Y-119668500D01*
X147173750Y-119668500D01*
X147173751Y-119668499D01*
X147188568Y-119665552D01*
X147232229Y-119656868D01*
X147232229Y-119656867D01*
X147232231Y-119656867D01*
X147298552Y-119612552D01*
X147342867Y-119546231D01*
X147342867Y-119546229D01*
X147342868Y-119546229D01*
X147354499Y-119487752D01*
X147354500Y-119487750D01*
X147354500Y-118716543D01*
X148351499Y-118716543D01*
X148389947Y-118909829D01*
X148389950Y-118909839D01*
X148465364Y-119091907D01*
X148465371Y-119091920D01*
X148574860Y-119255781D01*
X148574863Y-119255785D01*
X148714214Y-119395136D01*
X148714218Y-119395139D01*
X148878079Y-119504628D01*
X148878092Y-119504635D01*
X149060160Y-119580049D01*
X149060165Y-119580051D01*
X149060169Y-119580051D01*
X149060170Y-119580052D01*
X149253456Y-119618500D01*
X149253459Y-119618500D01*
X149450543Y-119618500D01*
X149580582Y-119592632D01*
X149643835Y-119580051D01*
X149784655Y-119521721D01*
X149825907Y-119504635D01*
X149825907Y-119504634D01*
X149825914Y-119504632D01*
X149989782Y-119395139D01*
X150129139Y-119255782D01*
X150238632Y-119091914D01*
X150314051Y-118909835D01*
X150352500Y-118716541D01*
X150352500Y-118519459D01*
X150352500Y-118519456D01*
X150314052Y-118326170D01*
X150314051Y-118326169D01*
X150314051Y-118326165D01*
X150275964Y-118234214D01*
X150238635Y-118144092D01*
X150238628Y-118144079D01*
X150129139Y-117980218D01*
X150129136Y-117980214D01*
X149989785Y-117840863D01*
X149989781Y-117840860D01*
X149825920Y-117731371D01*
X149825907Y-117731364D01*
X149643839Y-117655950D01*
X149643829Y-117655947D01*
X149450543Y-117617500D01*
X149450541Y-117617500D01*
X149253459Y-117617500D01*
X149253457Y-117617500D01*
X149060170Y-117655947D01*
X149060160Y-117655950D01*
X148878092Y-117731364D01*
X148878079Y-117731371D01*
X148714218Y-117840860D01*
X148714214Y-117840863D01*
X148574863Y-117980214D01*
X148574860Y-117980218D01*
X148465371Y-118144079D01*
X148465364Y-118144092D01*
X148389950Y-118326160D01*
X148389947Y-118326170D01*
X148351500Y-118519456D01*
X148351500Y-118519459D01*
X148351500Y-118716541D01*
X148351500Y-118716543D01*
X148351499Y-118716543D01*
X147354500Y-118716543D01*
X147354500Y-117748249D01*
X147354499Y-117748247D01*
X147342868Y-117689770D01*
X147342867Y-117689769D01*
X147298552Y-117623447D01*
X147232230Y-117579132D01*
X147232229Y-117579131D01*
X147173752Y-117567500D01*
X147173748Y-117567500D01*
X145434252Y-117567500D01*
X145434247Y-117567500D01*
X145375770Y-117579131D01*
X145375769Y-117579132D01*
X145309447Y-117623447D01*
X145265132Y-117689769D01*
X145265131Y-117689770D01*
X145253500Y-117748247D01*
X139888500Y-117748247D01*
X139888500Y-116269072D01*
X139908185Y-116202033D01*
X139924819Y-116181391D01*
X140131680Y-115974530D01*
X145253500Y-115974530D01*
X145253500Y-116181469D01*
X145293868Y-116384412D01*
X145293870Y-116384420D01*
X145373058Y-116575596D01*
X145488024Y-116747657D01*
X145634342Y-116893975D01*
X145634345Y-116893977D01*
X145806402Y-117008941D01*
X145997580Y-117088130D01*
X146200530Y-117128499D01*
X146200534Y-117128500D01*
X146200535Y-117128500D01*
X146407466Y-117128500D01*
X146407467Y-117128499D01*
X146610420Y-117088130D01*
X146801598Y-117008941D01*
X146973655Y-116893977D01*
X147119977Y-116747655D01*
X147234941Y-116575598D01*
X147314130Y-116384420D01*
X147354500Y-116181465D01*
X147354500Y-115974535D01*
X147314130Y-115771580D01*
X147234941Y-115580402D01*
X147119977Y-115408345D01*
X147119975Y-115408342D01*
X146973657Y-115262024D01*
X146887626Y-115204541D01*
X146801598Y-115147059D01*
X146610420Y-115067870D01*
X146610412Y-115067868D01*
X146407469Y-115027500D01*
X146407465Y-115027500D01*
X146200535Y-115027500D01*
X146200530Y-115027500D01*
X145997587Y-115067868D01*
X145997579Y-115067870D01*
X145806403Y-115147058D01*
X145634342Y-115262024D01*
X145488024Y-115408342D01*
X145373058Y-115580403D01*
X145293870Y-115771579D01*
X145293868Y-115771587D01*
X145253500Y-115974530D01*
X140131680Y-115974530D01*
X144883298Y-111222912D01*
X144883301Y-111222909D01*
X144987323Y-111067230D01*
X145044358Y-110929535D01*
X145058973Y-110894251D01*
X145095500Y-110710616D01*
X145095500Y-105982072D01*
X145115185Y-105915033D01*
X145131819Y-105894391D01*
X149941463Y-101084747D01*
X151603500Y-101084747D01*
X151603500Y-102824252D01*
X151615131Y-102882729D01*
X151615132Y-102882730D01*
X151659447Y-102949052D01*
X151725769Y-102993367D01*
X151725770Y-102993368D01*
X151784247Y-103004999D01*
X151784250Y-103005000D01*
X151784252Y-103005000D01*
X153523750Y-103005000D01*
X153523751Y-103004999D01*
X153538568Y-103002052D01*
X153582229Y-102993368D01*
X153582229Y-102993367D01*
X153582231Y-102993367D01*
X153648552Y-102949052D01*
X153692867Y-102882731D01*
X153692867Y-102882729D01*
X153692868Y-102882729D01*
X153704499Y-102824252D01*
X153704500Y-102824250D01*
X153704500Y-101084749D01*
X153704499Y-101084747D01*
X153692868Y-101026270D01*
X153692867Y-101026269D01*
X153648552Y-100959947D01*
X153582230Y-100915632D01*
X153582229Y-100915631D01*
X153523752Y-100904000D01*
X153523748Y-100904000D01*
X151784252Y-100904000D01*
X151784247Y-100904000D01*
X151725770Y-100915631D01*
X151725769Y-100915632D01*
X151659447Y-100959947D01*
X151615132Y-101026269D01*
X151615131Y-101026270D01*
X151603500Y-101084747D01*
X149941463Y-101084747D01*
X153773391Y-97252819D01*
X153834714Y-97219334D01*
X153861072Y-97216500D01*
X164140500Y-97216500D01*
X164207539Y-97236185D01*
X164253294Y-97288989D01*
X164264500Y-97340500D01*
X164264500Y-98762884D01*
X164264500Y-98849116D01*
X164286819Y-98932410D01*
X164329935Y-99007090D01*
X171248910Y-105926065D01*
X171323590Y-105969181D01*
X171406884Y-105991500D01*
X171493116Y-105991500D01*
X180217802Y-105991500D01*
X180229262Y-105992031D01*
X180238898Y-105992925D01*
X180254175Y-105996799D01*
X180314394Y-105999932D01*
X180316876Y-106000163D01*
X180317682Y-106000483D01*
X180327838Y-106001676D01*
X180338252Y-106003591D01*
X180342840Y-106004435D01*
X180367534Y-106011692D01*
X180425047Y-106035322D01*
X180437649Y-106041352D01*
X180446826Y-106046397D01*
X180450281Y-106048254D01*
X180450512Y-106048375D01*
X180450722Y-106048485D01*
X180454320Y-106050328D01*
X180550922Y-106098621D01*
X180567572Y-106106041D01*
X180569496Y-106106798D01*
X180586627Y-106112680D01*
X180719119Y-106151739D01*
X180727577Y-106154038D01*
X180727603Y-106154044D01*
X180727605Y-106154045D01*
X180728565Y-106154284D01*
X180730875Y-106154343D01*
X180759819Y-106158528D01*
X180767876Y-106160686D01*
X180782108Y-106164500D01*
X180782110Y-106164500D01*
X180913890Y-106164500D01*
X180913892Y-106164500D01*
X181041186Y-106130392D01*
X181155314Y-106064500D01*
X181248500Y-105971314D01*
X181314392Y-105857186D01*
X181348500Y-105729892D01*
X181348500Y-105598108D01*
X181314392Y-105470814D01*
X181248500Y-105356686D01*
X181155314Y-105263500D01*
X181080315Y-105220199D01*
X181041187Y-105197608D01*
X180963730Y-105176854D01*
X180913892Y-105163500D01*
X180782108Y-105163500D01*
X180782105Y-105163500D01*
X180750687Y-105171918D01*
X180730770Y-105175543D01*
X180717497Y-105176852D01*
X180717485Y-105176854D01*
X180574635Y-105220199D01*
X180557490Y-105226243D01*
X180555559Y-105227021D01*
X180539215Y-105234457D01*
X180458490Y-105275539D01*
X180454142Y-105277646D01*
X180405235Y-105300181D01*
X180378134Y-105312667D01*
X180352442Y-105321248D01*
X180336425Y-105324710D01*
X180317671Y-105327285D01*
X180252438Y-105331207D01*
X180252423Y-105331210D01*
X180245544Y-105332904D01*
X180215899Y-105336500D01*
X171637017Y-105336500D01*
X171569978Y-105316815D01*
X171549336Y-105300181D01*
X167079902Y-100830747D01*
X180305500Y-100830747D01*
X180305500Y-102570252D01*
X180317131Y-102628729D01*
X180317132Y-102628730D01*
X180361447Y-102695052D01*
X180427769Y-102739367D01*
X180427770Y-102739368D01*
X180486247Y-102750999D01*
X180486250Y-102751000D01*
X180486252Y-102751000D01*
X182225750Y-102751000D01*
X182225751Y-102750999D01*
X182240568Y-102748052D01*
X182284229Y-102739368D01*
X182284229Y-102739367D01*
X182284231Y-102739367D01*
X182350552Y-102695052D01*
X182394867Y-102628731D01*
X182394867Y-102628729D01*
X182394868Y-102628729D01*
X182406499Y-102570252D01*
X182406500Y-102570250D01*
X182406500Y-100830749D01*
X182406499Y-100830747D01*
X182394868Y-100772270D01*
X182394867Y-100772269D01*
X182350552Y-100705947D01*
X182284230Y-100661632D01*
X182284229Y-100661631D01*
X182225752Y-100650000D01*
X182225748Y-100650000D01*
X180486252Y-100650000D01*
X180486247Y-100650000D01*
X180427770Y-100661631D01*
X180427769Y-100661632D01*
X180361447Y-100705947D01*
X180317132Y-100772269D01*
X180317131Y-100772270D01*
X180305500Y-100830747D01*
X167079902Y-100830747D01*
X164955819Y-98706664D01*
X164922334Y-98645341D01*
X164919500Y-98618983D01*
X164919500Y-97242013D01*
X164939185Y-97174974D01*
X164991989Y-97129219D01*
X164996048Y-97127452D01*
X165042224Y-97108325D01*
X165042224Y-97108324D01*
X165042231Y-97108322D01*
X165197908Y-97004302D01*
X165207421Y-96994787D01*
X165268739Y-96961301D01*
X165292938Y-96958485D01*
X166033735Y-96945590D01*
X166075587Y-96940537D01*
X166124940Y-96929350D01*
X166133373Y-96927250D01*
X166214085Y-96884240D01*
X166266889Y-96838485D01*
X166284843Y-96820894D01*
X166329490Y-96741077D01*
X166349175Y-96674038D01*
X166357500Y-96616140D01*
X166357500Y-95640000D01*
X166352803Y-95596316D01*
X166349341Y-95580403D01*
X166341600Y-95544815D01*
X166340709Y-95541172D01*
X166339110Y-95534627D01*
X166296100Y-95453915D01*
X166250345Y-95401111D01*
X166250339Y-95401104D01*
X166232757Y-95383160D01*
X166232756Y-95383159D01*
X166232754Y-95383157D01*
X166232752Y-95383156D01*
X166232750Y-95383154D01*
X166152940Y-95338511D01*
X166152935Y-95338509D01*
X166085903Y-95318826D01*
X166085899Y-95318825D01*
X166085898Y-95318825D01*
X166028000Y-95310500D01*
X164855322Y-95310500D01*
X164855076Y-95310427D01*
X164854830Y-95310499D01*
X164821577Y-95300591D01*
X164788283Y-95290815D01*
X164788115Y-95290621D01*
X164787869Y-95290548D01*
X164765192Y-95264167D01*
X164742528Y-95238011D01*
X164742491Y-95237758D01*
X164742324Y-95237563D01*
X164737514Y-95203142D01*
X164732584Y-95168853D01*
X164732690Y-95168619D01*
X164732655Y-95168366D01*
X164747189Y-95136871D01*
X164761609Y-95105297D01*
X164761861Y-95105079D01*
X164761932Y-95104926D01*
X164788697Y-95081919D01*
X164788875Y-95081805D01*
X164790259Y-95080924D01*
X164803660Y-95073510D01*
X164815777Y-95067754D01*
X164838096Y-95059667D01*
X164853746Y-95055644D01*
X164875785Y-95052054D01*
X164936007Y-95047754D01*
X164939540Y-95046852D01*
X164941515Y-95046349D01*
X164972169Y-95042500D01*
X168976543Y-95042500D01*
X168984087Y-95044715D01*
X168991848Y-95043448D01*
X169017136Y-95054419D01*
X169043582Y-95062185D01*
X169050358Y-95068833D01*
X169055945Y-95071257D01*
X169079562Y-95097485D01*
X169082168Y-95101375D01*
X169095053Y-95126318D01*
X169111189Y-95168754D01*
X169116568Y-95187010D01*
X169121192Y-95208735D01*
X169122161Y-95213059D01*
X169122284Y-95213582D01*
X169122566Y-95214725D01*
X169123240Y-95217463D01*
X169146159Y-95306853D01*
X169151308Y-95326934D01*
X169155841Y-95342149D01*
X169156418Y-95343841D01*
X169162113Y-95358664D01*
X169189384Y-95422191D01*
X169189390Y-95422204D01*
X169194841Y-95433879D01*
X169194847Y-95433892D01*
X169194849Y-95433895D01*
X169195499Y-95435182D01*
X169201775Y-95446669D01*
X169239200Y-95510273D01*
X169242115Y-95515075D01*
X169242440Y-95515595D01*
X169242447Y-95515604D01*
X169243230Y-95516413D01*
X169254775Y-95528346D01*
X169271500Y-95557314D01*
X169364686Y-95650500D01*
X169395058Y-95668035D01*
X169411278Y-95682570D01*
X169471916Y-95718451D01*
X169482691Y-95724398D01*
X169483947Y-95725043D01*
X169495241Y-95730416D01*
X169495246Y-95730418D01*
X169556537Y-95757316D01*
X169559575Y-95758507D01*
X169571735Y-95763277D01*
X169573481Y-95763883D01*
X169583012Y-95766776D01*
X169588954Y-95768581D01*
X169703578Y-95798510D01*
X169703674Y-95798535D01*
X169706985Y-95799370D01*
X169707404Y-95799472D01*
X169711447Y-95800413D01*
X169711467Y-95800417D01*
X169711478Y-95800420D01*
X169716027Y-95801430D01*
X169752194Y-95809464D01*
X169766863Y-95813687D01*
X169774980Y-95816575D01*
X169779491Y-95818181D01*
X169801001Y-95828250D01*
X169814904Y-95836466D01*
X169833030Y-95849514D01*
X169852822Y-95866667D01*
X169878654Y-95889055D01*
X169883533Y-95891950D01*
X169907938Y-95910909D01*
X170351181Y-96354152D01*
X170384666Y-96415475D01*
X170387500Y-96441833D01*
X170387500Y-97666937D01*
X170386880Y-97679323D01*
X170385932Y-97688764D01*
X170382204Y-97703195D01*
X170379260Y-97755229D01*
X170378990Y-97757919D01*
X170378613Y-97758845D01*
X170377254Y-97769590D01*
X170376017Y-97775845D01*
X170367493Y-97802580D01*
X170348900Y-97843989D01*
X170339794Y-97860703D01*
X170327707Y-97879325D01*
X170325284Y-97883150D01*
X170325026Y-97883567D01*
X170323004Y-97886912D01*
X170265417Y-97984209D01*
X170257837Y-97998227D01*
X170257042Y-97999846D01*
X170250623Y-98014278D01*
X170224970Y-98078521D01*
X170220513Y-98090800D01*
X170220073Y-98092143D01*
X170216441Y-98104540D01*
X170216436Y-98104556D01*
X170216436Y-98104559D01*
X170215485Y-98108228D01*
X170197910Y-98176054D01*
X170196641Y-98181233D01*
X170196492Y-98181876D01*
X170196492Y-98181882D01*
X170196449Y-98184422D01*
X170192243Y-98214406D01*
X170187500Y-98232107D01*
X170187500Y-98363891D01*
X170221608Y-98491187D01*
X170254554Y-98548250D01*
X170287500Y-98605314D01*
X170380686Y-98698500D01*
X170494814Y-98764392D01*
X170622108Y-98798500D01*
X170622110Y-98798500D01*
X170753890Y-98798500D01*
X170753892Y-98798500D01*
X170881186Y-98764392D01*
X170995314Y-98698500D01*
X171088500Y-98605314D01*
X171154392Y-98491186D01*
X171188500Y-98363892D01*
X171188500Y-98232108D01*
X171182756Y-98210672D01*
X171178718Y-98185370D01*
X171178232Y-98176485D01*
X171169107Y-98140909D01*
X171160730Y-98108246D01*
X171157765Y-98097989D01*
X171157267Y-98096266D01*
X171156834Y-98094922D01*
X171156238Y-98093247D01*
X171152691Y-98083273D01*
X171137255Y-98043696D01*
X171128373Y-98020923D01*
X171121909Y-98006101D01*
X171121104Y-98004437D01*
X171117790Y-97998228D01*
X171113426Y-97990051D01*
X171053484Y-97887742D01*
X171053456Y-97887694D01*
X171051343Y-97884169D01*
X171051118Y-97883802D01*
X171049285Y-97880868D01*
X171026897Y-97845695D01*
X171019513Y-97832343D01*
X171013751Y-97820214D01*
X171005666Y-97797894D01*
X171001645Y-97782255D01*
X170998054Y-97760208D01*
X170993754Y-97699994D01*
X170992349Y-97694485D01*
X170988500Y-97663831D01*
X170988500Y-96226439D01*
X170978889Y-96190570D01*
X170968021Y-96150011D01*
X170968017Y-96150004D01*
X170928464Y-96081495D01*
X170928458Y-96081487D01*
X170330713Y-95483742D01*
X170322393Y-95474545D01*
X170316383Y-95467193D01*
X170308819Y-95454358D01*
X170274116Y-95415493D01*
X170272399Y-95413393D01*
X170272011Y-95412474D01*
X170265378Y-95403920D01*
X170261823Y-95398613D01*
X170248942Y-95373676D01*
X170247243Y-95369207D01*
X170232810Y-95331251D01*
X170227431Y-95312996D01*
X170226900Y-95310500D01*
X170222806Y-95291263D01*
X170221806Y-95286810D01*
X170221695Y-95286340D01*
X170220758Y-95282535D01*
X170192690Y-95173064D01*
X170188158Y-95157856D01*
X170187576Y-95156147D01*
X170181884Y-95141333D01*
X170154610Y-95077796D01*
X170149130Y-95066065D01*
X170148463Y-95064747D01*
X170142221Y-95053326D01*
X170138942Y-95047754D01*
X170104821Y-94989763D01*
X170101884Y-94984925D01*
X170101875Y-94984910D01*
X170101540Y-94984375D01*
X170089214Y-94971636D01*
X170072500Y-94942686D01*
X169979314Y-94849500D01*
X169948942Y-94831964D01*
X169937022Y-94821283D01*
X169937013Y-94821274D01*
X169932727Y-94817434D01*
X169932718Y-94817427D01*
X169872073Y-94781542D01*
X169866045Y-94778215D01*
X169861308Y-94775601D01*
X169860052Y-94774956D01*
X169848757Y-94769583D01*
X169840117Y-94765791D01*
X169787459Y-94742682D01*
X169772306Y-94736736D01*
X169770575Y-94736134D01*
X169755043Y-94731418D01*
X169640278Y-94701451D01*
X169636952Y-94700612D01*
X169636559Y-94700516D01*
X169632635Y-94699604D01*
X169591808Y-94690534D01*
X169577137Y-94686311D01*
X169564515Y-94681820D01*
X169543003Y-94671751D01*
X169529091Y-94663530D01*
X169510963Y-94650481D01*
X169465342Y-94610942D01*
X169460463Y-94608047D01*
X169436063Y-94589092D01*
X169348511Y-94501540D01*
X169338049Y-94495500D01*
X169279989Y-94461979D01*
X169203562Y-94441500D01*
X169203560Y-94441500D01*
X164969065Y-94441500D01*
X164956679Y-94440880D01*
X164947233Y-94439931D01*
X164932803Y-94436203D01*
X164880762Y-94433258D01*
X164878076Y-94432989D01*
X164877150Y-94432613D01*
X164866419Y-94431255D01*
X164860153Y-94430017D01*
X164833413Y-94421492D01*
X164792015Y-94402904D01*
X164775301Y-94393798D01*
X164756643Y-94381689D01*
X164752903Y-94379318D01*
X164752534Y-94379090D01*
X164749083Y-94377002D01*
X164749052Y-94376983D01*
X164651783Y-94319414D01*
X164651780Y-94319412D01*
X164651771Y-94319407D01*
X164637839Y-94311871D01*
X164636212Y-94311071D01*
X164621720Y-94304624D01*
X164621717Y-94304622D01*
X164621704Y-94304617D01*
X164583250Y-94289261D01*
X164557461Y-94278963D01*
X164545246Y-94274530D01*
X164545241Y-94274528D01*
X164545229Y-94274524D01*
X164543852Y-94274073D01*
X164543854Y-94274073D01*
X164543837Y-94274068D01*
X164531451Y-94270439D01*
X164459950Y-94251911D01*
X164454771Y-94250642D01*
X164454334Y-94250541D01*
X164454124Y-94250493D01*
X164454122Y-94250492D01*
X164454116Y-94250492D01*
X164451578Y-94250449D01*
X164421593Y-94246242D01*
X164403897Y-94241500D01*
X164403892Y-94241500D01*
X164272108Y-94241500D01*
X164144812Y-94275608D01*
X164030686Y-94341500D01*
X164030683Y-94341502D01*
X163937502Y-94434683D01*
X163937500Y-94434686D01*
X163871608Y-94548812D01*
X163842646Y-94656904D01*
X163837500Y-94676108D01*
X163837500Y-94807892D01*
X163840057Y-94817434D01*
X163871608Y-94935187D01*
X163892652Y-94971636D01*
X163937500Y-95049314D01*
X163937502Y-95049316D01*
X163992005Y-95103819D01*
X164025490Y-95165142D01*
X164020506Y-95234834D01*
X163978634Y-95290767D01*
X163913170Y-95315184D01*
X163904324Y-95315500D01*
X153322382Y-95315500D01*
X153305667Y-95318825D01*
X153264901Y-95326934D01*
X153138749Y-95352027D01*
X153097273Y-95369207D01*
X153089257Y-95372526D01*
X153089250Y-95372529D01*
X152965776Y-95423673D01*
X152965763Y-95423680D01*
X152810092Y-95527697D01*
X152810088Y-95527700D01*
X143406700Y-104931088D01*
X143406697Y-104931092D01*
X143302678Y-105086766D01*
X143302677Y-105086769D01*
X143270895Y-105163499D01*
X143270895Y-105163500D01*
X143231027Y-105259748D01*
X143231025Y-105259756D01*
X143194500Y-105443379D01*
X143194500Y-110171928D01*
X143174815Y-110238967D01*
X143158181Y-110259609D01*
X139025681Y-114392109D01*
X138964358Y-114425594D01*
X138894666Y-114420610D01*
X138850319Y-114392109D01*
X137384819Y-112926609D01*
X137351334Y-112865286D01*
X137348500Y-112838928D01*
X137348500Y-97298286D01*
X137368185Y-97231247D01*
X137420989Y-97185492D01*
X137428030Y-97182535D01*
X137431370Y-97181251D01*
X137431370Y-97181250D01*
X137431373Y-97181250D01*
X137512085Y-97138240D01*
X137564889Y-97092485D01*
X137582843Y-97074894D01*
X137627490Y-96995077D01*
X137647175Y-96928038D01*
X137655500Y-96870140D01*
X137655500Y-95894000D01*
X137650803Y-95850316D01*
X137642277Y-95811122D01*
X137639602Y-95798825D01*
X137639348Y-95797789D01*
X137637110Y-95788627D01*
X137594100Y-95707915D01*
X137548345Y-95655111D01*
X137548339Y-95655104D01*
X137530757Y-95637160D01*
X137530756Y-95637159D01*
X137530754Y-95637157D01*
X137530752Y-95637156D01*
X137530750Y-95637154D01*
X137450940Y-95592511D01*
X137450935Y-95592509D01*
X137383903Y-95572826D01*
X137383899Y-95572825D01*
X137383898Y-95572825D01*
X137326000Y-95564500D01*
X136153322Y-95564500D01*
X136153076Y-95564427D01*
X136152830Y-95564499D01*
X136119577Y-95554591D01*
X136086283Y-95544815D01*
X136086115Y-95544621D01*
X136085869Y-95544548D01*
X136063192Y-95518167D01*
X136040528Y-95492011D01*
X136040491Y-95491758D01*
X136040324Y-95491563D01*
X136035514Y-95457137D01*
X136030584Y-95422853D01*
X136030690Y-95422619D01*
X136030655Y-95422366D01*
X136045189Y-95390871D01*
X136059609Y-95359297D01*
X136059861Y-95359079D01*
X136059932Y-95358926D01*
X136086697Y-95335919D01*
X136086875Y-95335805D01*
X136088259Y-95334924D01*
X136101660Y-95327510D01*
X136113777Y-95321754D01*
X136136096Y-95313667D01*
X136151746Y-95309644D01*
X136173785Y-95306054D01*
X136234007Y-95301754D01*
X136237540Y-95300852D01*
X136239515Y-95300349D01*
X136270169Y-95296500D01*
X140286167Y-95296500D01*
X140353206Y-95316185D01*
X140373848Y-95332819D01*
X140565288Y-95524259D01*
X140573608Y-95533456D01*
X140579617Y-95540806D01*
X140587181Y-95553641D01*
X140621879Y-95592501D01*
X140623597Y-95594602D01*
X140623985Y-95595521D01*
X140630618Y-95604075D01*
X140634171Y-95609379D01*
X140647053Y-95634318D01*
X140663189Y-95676754D01*
X140668568Y-95695010D01*
X140673200Y-95716771D01*
X140674161Y-95721059D01*
X140674284Y-95721582D01*
X140674978Y-95724397D01*
X140675240Y-95725463D01*
X140683407Y-95757315D01*
X140703309Y-95834940D01*
X140707841Y-95850149D01*
X140708418Y-95851841D01*
X140714113Y-95866664D01*
X140741384Y-95930191D01*
X140741390Y-95930204D01*
X140746841Y-95941879D01*
X140746847Y-95941892D01*
X140746849Y-95941895D01*
X140747499Y-95943182D01*
X140753775Y-95954669D01*
X140791200Y-96018273D01*
X140794115Y-96023075D01*
X140794440Y-96023595D01*
X140794447Y-96023604D01*
X140795230Y-96024413D01*
X140806775Y-96036346D01*
X140823500Y-96065314D01*
X140916686Y-96158500D01*
X140947058Y-96176035D01*
X140963278Y-96190570D01*
X141023916Y-96226451D01*
X141034691Y-96232398D01*
X141035947Y-96233043D01*
X141047241Y-96238416D01*
X141047246Y-96238418D01*
X141108537Y-96265316D01*
X141111575Y-96266507D01*
X141123735Y-96271277D01*
X141125481Y-96271883D01*
X141135012Y-96274776D01*
X141140954Y-96276581D01*
X141255578Y-96306510D01*
X141255674Y-96306535D01*
X141258985Y-96307370D01*
X141259404Y-96307472D01*
X141263447Y-96308413D01*
X141263467Y-96308417D01*
X141263478Y-96308420D01*
X141268027Y-96309430D01*
X141304194Y-96317464D01*
X141318863Y-96321687D01*
X141326980Y-96324575D01*
X141331491Y-96326181D01*
X141353001Y-96336250D01*
X141366904Y-96344466D01*
X141385030Y-96357514D01*
X141422210Y-96389737D01*
X141430654Y-96397055D01*
X141435533Y-96399950D01*
X141459938Y-96418909D01*
X141649181Y-96608152D01*
X141682666Y-96669475D01*
X141685500Y-96695833D01*
X141685500Y-97920937D01*
X141684880Y-97933323D01*
X141683932Y-97942764D01*
X141680204Y-97957195D01*
X141677260Y-98009229D01*
X141676990Y-98011919D01*
X141676613Y-98012845D01*
X141675254Y-98023590D01*
X141674017Y-98029845D01*
X141665493Y-98056580D01*
X141646900Y-98097989D01*
X141637794Y-98114703D01*
X141625707Y-98133325D01*
X141623284Y-98137150D01*
X141623026Y-98137567D01*
X141621004Y-98140912D01*
X141563417Y-98238209D01*
X141555837Y-98252227D01*
X141555042Y-98253846D01*
X141548623Y-98268278D01*
X141522970Y-98332521D01*
X141518513Y-98344800D01*
X141518073Y-98346143D01*
X141514441Y-98358540D01*
X141495910Y-98430054D01*
X141494641Y-98435233D01*
X141494492Y-98435876D01*
X141494492Y-98435882D01*
X141494449Y-98438422D01*
X141490243Y-98468404D01*
X141485500Y-98486108D01*
X141485500Y-98617892D01*
X141492855Y-98645341D01*
X141519608Y-98745187D01*
X141550388Y-98798499D01*
X141585500Y-98859314D01*
X141678686Y-98952500D01*
X141792814Y-99018392D01*
X141920108Y-99052500D01*
X141920110Y-99052500D01*
X142051890Y-99052500D01*
X142051892Y-99052500D01*
X142179186Y-99018392D01*
X142293314Y-98952500D01*
X142386500Y-98859314D01*
X142452392Y-98745186D01*
X142486500Y-98617892D01*
X142486500Y-98486108D01*
X142480756Y-98464672D01*
X142476718Y-98439370D01*
X142476232Y-98430485D01*
X142459152Y-98363891D01*
X142458730Y-98362246D01*
X142457659Y-98358540D01*
X142455267Y-98350266D01*
X142454834Y-98348922D01*
X142450689Y-98337268D01*
X142426373Y-98274923D01*
X142419909Y-98260101D01*
X142419104Y-98258437D01*
X142415790Y-98252228D01*
X142411426Y-98244051D01*
X142351484Y-98141742D01*
X142351456Y-98141694D01*
X142349343Y-98138169D01*
X142349118Y-98137802D01*
X142347285Y-98134868D01*
X142324897Y-98099695D01*
X142317513Y-98086343D01*
X142311751Y-98074214D01*
X142303666Y-98051894D01*
X142299645Y-98036255D01*
X142296054Y-98014208D01*
X142293912Y-97984220D01*
X142291754Y-97953993D01*
X142290349Y-97948485D01*
X142286500Y-97917831D01*
X142286500Y-96480438D01*
X142282972Y-96467274D01*
X142282971Y-96467268D01*
X142266023Y-96404014D01*
X142266022Y-96404013D01*
X142266022Y-96404012D01*
X142226460Y-96335489D01*
X141882713Y-95991742D01*
X141874393Y-95982545D01*
X141868383Y-95975193D01*
X141860819Y-95962358D01*
X141826116Y-95923493D01*
X141824399Y-95921393D01*
X141824011Y-95920474D01*
X141817378Y-95911920D01*
X141813823Y-95906613D01*
X141800942Y-95881676D01*
X141795235Y-95866667D01*
X141784810Y-95839251D01*
X141779431Y-95820996D01*
X141777876Y-95813689D01*
X141774806Y-95799263D01*
X141773806Y-95794810D01*
X141773695Y-95794340D01*
X141772758Y-95790535D01*
X141744690Y-95681064D01*
X141740158Y-95665856D01*
X141739576Y-95664147D01*
X141733884Y-95649333D01*
X141706610Y-95585796D01*
X141701130Y-95574065D01*
X141700463Y-95572747D01*
X141694221Y-95561326D01*
X141678511Y-95534627D01*
X141656821Y-95497763D01*
X141653878Y-95492915D01*
X141653875Y-95492910D01*
X141653540Y-95492375D01*
X141652943Y-95491758D01*
X141652746Y-95491554D01*
X141652736Y-95491544D01*
X141641214Y-95479636D01*
X141624500Y-95450686D01*
X141531314Y-95357500D01*
X141500942Y-95339964D01*
X141489022Y-95329283D01*
X141489013Y-95329274D01*
X141484727Y-95325434D01*
X141484718Y-95325427D01*
X141424073Y-95289542D01*
X141418045Y-95286215D01*
X141413308Y-95283601D01*
X141412052Y-95282956D01*
X141400757Y-95277583D01*
X141392117Y-95273791D01*
X141339459Y-95250682D01*
X141324306Y-95244736D01*
X141322575Y-95244134D01*
X141307043Y-95239418D01*
X141192278Y-95209451D01*
X141188952Y-95208612D01*
X141188559Y-95208516D01*
X141184635Y-95207604D01*
X141143808Y-95198534D01*
X141129137Y-95194311D01*
X141116515Y-95189820D01*
X141095003Y-95179751D01*
X141081091Y-95171530D01*
X141062963Y-95158481D01*
X141017342Y-95118942D01*
X141012463Y-95116047D01*
X140988060Y-95097089D01*
X140646512Y-94755541D01*
X140646507Y-94755537D01*
X140624240Y-94742682D01*
X140598381Y-94727752D01*
X140577990Y-94715979D01*
X140552513Y-94709152D01*
X140501562Y-94695500D01*
X140501560Y-94695500D01*
X136267065Y-94695500D01*
X136254679Y-94694880D01*
X136245233Y-94693931D01*
X136230803Y-94690203D01*
X136178762Y-94687258D01*
X136176076Y-94686989D01*
X136175150Y-94686613D01*
X136164419Y-94685255D01*
X136158153Y-94684017D01*
X136131413Y-94675492D01*
X136090015Y-94656904D01*
X136073301Y-94647798D01*
X136054643Y-94635689D01*
X136050903Y-94633318D01*
X136050534Y-94633090D01*
X136047083Y-94631002D01*
X136047052Y-94630983D01*
X135949783Y-94573414D01*
X135949780Y-94573412D01*
X135949771Y-94573407D01*
X135935839Y-94565871D01*
X135934212Y-94565071D01*
X135919720Y-94558624D01*
X135919717Y-94558622D01*
X135919704Y-94558617D01*
X135881250Y-94543261D01*
X135855461Y-94532963D01*
X135843246Y-94528530D01*
X135843241Y-94528528D01*
X135843229Y-94528524D01*
X135841852Y-94528073D01*
X135841854Y-94528073D01*
X135841837Y-94528068D01*
X135829451Y-94524439D01*
X135757950Y-94505911D01*
X135752771Y-94504642D01*
X135752334Y-94504541D01*
X135752124Y-94504493D01*
X135752122Y-94504492D01*
X135752116Y-94504492D01*
X135749578Y-94504449D01*
X135719593Y-94500242D01*
X135701897Y-94495500D01*
X135701892Y-94495500D01*
X135570108Y-94495500D01*
X135442812Y-94529608D01*
X135328686Y-94595500D01*
X135328683Y-94595502D01*
X135235502Y-94688683D01*
X135235500Y-94688686D01*
X135169608Y-94802812D01*
X135146649Y-94888499D01*
X135135500Y-94930108D01*
X127497551Y-94930108D01*
X127499297Y-82900247D01*
X131487500Y-82900247D01*
X131487500Y-84739752D01*
X131499131Y-84798229D01*
X131499132Y-84798230D01*
X131543447Y-84864552D01*
X131609769Y-84908867D01*
X131609770Y-84908868D01*
X131663664Y-84919588D01*
X131663765Y-84919607D01*
X131668252Y-84920500D01*
X131668392Y-84920500D01*
X131672833Y-84921356D01*
X131687444Y-84926631D01*
X131746406Y-84935549D01*
X131748861Y-84936023D01*
X131751793Y-84937535D01*
X131777388Y-84945215D01*
X131823707Y-84966621D01*
X131849069Y-84982291D01*
X131918617Y-85037839D01*
X131936125Y-85054908D01*
X132022986Y-85158186D01*
X132034767Y-85174791D01*
X132056359Y-85211236D01*
X132112275Y-85305619D01*
X132125306Y-85327613D01*
X132133482Y-85344091D01*
X132148393Y-85380745D01*
X132178361Y-85454416D01*
X132187500Y-85501139D01*
X132187500Y-85650726D01*
X132214793Y-85752589D01*
X132241156Y-85798250D01*
X132267520Y-85843913D01*
X132267521Y-85843914D01*
X132267522Y-85843915D01*
X140751478Y-94327870D01*
X140769261Y-94350333D01*
X140773754Y-94357600D01*
X140826572Y-94414273D01*
X140845593Y-94434683D01*
X140846576Y-94435737D01*
X140854874Y-94445627D01*
X140891135Y-94493721D01*
X140898886Y-94505302D01*
X140934194Y-94565071D01*
X140942159Y-94578553D01*
X140943272Y-94580415D01*
X141046500Y-94750761D01*
X141048864Y-94754567D01*
X141049106Y-94754947D01*
X141049111Y-94754954D01*
X141050766Y-94756652D01*
X141069346Y-94781192D01*
X141077497Y-94795310D01*
X141077499Y-94795313D01*
X141077500Y-94795314D01*
X141170686Y-94888500D01*
X141284814Y-94954392D01*
X141412108Y-94988500D01*
X141412110Y-94988500D01*
X141543890Y-94988500D01*
X141543892Y-94988500D01*
X141671186Y-94954392D01*
X141785314Y-94888500D01*
X141878500Y-94795314D01*
X141944392Y-94681186D01*
X141978500Y-94553892D01*
X141978500Y-94422108D01*
X141944392Y-94294814D01*
X141878500Y-94180686D01*
X141785314Y-94087500D01*
X141768084Y-94077552D01*
X141764055Y-94075122D01*
X141754608Y-94069177D01*
X141740749Y-94056493D01*
X141571075Y-93953672D01*
X141570128Y-93953089D01*
X141570098Y-93953070D01*
X141515068Y-93919186D01*
X141478509Y-93896674D01*
X141461354Y-93883950D01*
X141343670Y-93779797D01*
X141343668Y-93779795D01*
X141343664Y-93779792D01*
X141337683Y-93776180D01*
X141314113Y-93757721D01*
X133024819Y-85468426D01*
X133010115Y-85441498D01*
X132993523Y-85415680D01*
X132992631Y-85409479D01*
X132991334Y-85407103D01*
X132988500Y-85380745D01*
X132988500Y-85350246D01*
X132996809Y-85305619D01*
X133007798Y-85277131D01*
X133016047Y-85259853D01*
X133044059Y-85211236D01*
X133051027Y-85200470D01*
X133090780Y-85145519D01*
X133098965Y-85135376D01*
X133141013Y-85088545D01*
X133150748Y-85078844D01*
X133156614Y-85073613D01*
X133197172Y-85037446D01*
X133208461Y-85028502D01*
X133250304Y-84999146D01*
X133263220Y-84991217D01*
X133307089Y-84967858D01*
X133321509Y-84961325D01*
X133358935Y-84947174D01*
X133374446Y-84942444D01*
X133411256Y-84933804D01*
X133429538Y-84930932D01*
X133436171Y-84930392D01*
X133479438Y-84926875D01*
X133479442Y-84926874D01*
X133479447Y-84926874D01*
X133491700Y-84923651D01*
X133501803Y-84921838D01*
X133501774Y-84921689D01*
X133566229Y-84908868D01*
X133566229Y-84908867D01*
X133566231Y-84908867D01*
X133632552Y-84864552D01*
X133676867Y-84798231D01*
X133676867Y-84798229D01*
X133676868Y-84798229D01*
X133687424Y-84745155D01*
X133688500Y-84739748D01*
X133688500Y-83733389D01*
X134027500Y-83733389D01*
X134027500Y-83906610D01*
X134040461Y-83988447D01*
X134054598Y-84077701D01*
X134108127Y-84242445D01*
X134186768Y-84396788D01*
X134288586Y-84536928D01*
X134411072Y-84659414D01*
X134551212Y-84761232D01*
X134705555Y-84839873D01*
X134870299Y-84893402D01*
X135041389Y-84920500D01*
X135041390Y-84920500D01*
X135214610Y-84920500D01*
X135214611Y-84920500D01*
X135385701Y-84893402D01*
X135550445Y-84839873D01*
X135704788Y-84761232D01*
X135844928Y-84659414D01*
X135967414Y-84536928D01*
X136069232Y-84396788D01*
X136147873Y-84242445D01*
X136201402Y-84077701D01*
X136228500Y-83906611D01*
X136228500Y-83733389D01*
X136201402Y-83562299D01*
X136147873Y-83397555D01*
X136069232Y-83243212D01*
X135967414Y-83103072D01*
X135844928Y-82980586D01*
X135734351Y-82900247D01*
X138091500Y-82900247D01*
X138091500Y-84739752D01*
X138103131Y-84798229D01*
X138103132Y-84798230D01*
X138147447Y-84864552D01*
X138213769Y-84908867D01*
X138213770Y-84908868D01*
X138272247Y-84920499D01*
X138272250Y-84920500D01*
X138272252Y-84920500D01*
X140111750Y-84920500D01*
X140111751Y-84920499D01*
X140126568Y-84917552D01*
X140170229Y-84908868D01*
X140170229Y-84908867D01*
X140170231Y-84908867D01*
X140236552Y-84864552D01*
X140280867Y-84798231D01*
X140280867Y-84798229D01*
X140280868Y-84798229D01*
X140291424Y-84745155D01*
X140292500Y-84739748D01*
X140292500Y-83733389D01*
X140631500Y-83733389D01*
X140631500Y-83906610D01*
X140644461Y-83988447D01*
X140658598Y-84077701D01*
X140712127Y-84242445D01*
X140790768Y-84396788D01*
X140892586Y-84536928D01*
X141015072Y-84659414D01*
X141155212Y-84761232D01*
X141309555Y-84839873D01*
X141474299Y-84893402D01*
X141645389Y-84920500D01*
X141645390Y-84920500D01*
X141818610Y-84920500D01*
X141818611Y-84920500D01*
X141989701Y-84893402D01*
X142154445Y-84839873D01*
X142308788Y-84761232D01*
X142448928Y-84659414D01*
X142571414Y-84536928D01*
X142673232Y-84396788D01*
X142751873Y-84242445D01*
X142805402Y-84077701D01*
X142832500Y-83906611D01*
X142832500Y-83733389D01*
X142805402Y-83562299D01*
X142751873Y-83397555D01*
X142673232Y-83243212D01*
X142571414Y-83103072D01*
X142448928Y-82980586D01*
X142338351Y-82900247D01*
X144695500Y-82900247D01*
X144695500Y-84739752D01*
X144707131Y-84798229D01*
X144707132Y-84798230D01*
X144751447Y-84864552D01*
X144817769Y-84908867D01*
X144817770Y-84908868D01*
X144876247Y-84920499D01*
X144876250Y-84920500D01*
X144876252Y-84920500D01*
X146715750Y-84920500D01*
X146715751Y-84920499D01*
X146730568Y-84917552D01*
X146774229Y-84908868D01*
X146774229Y-84908867D01*
X146774231Y-84908867D01*
X146840552Y-84864552D01*
X146884867Y-84798231D01*
X146884867Y-84798229D01*
X146884868Y-84798229D01*
X146895424Y-84745155D01*
X146896500Y-84739748D01*
X146896500Y-83733389D01*
X147235500Y-83733389D01*
X147235500Y-83906610D01*
X147248461Y-83988447D01*
X147262598Y-84077701D01*
X147316127Y-84242445D01*
X147394768Y-84396788D01*
X147496586Y-84536928D01*
X147619072Y-84659414D01*
X147759212Y-84761232D01*
X147913555Y-84839873D01*
X148078299Y-84893402D01*
X148249389Y-84920500D01*
X148249390Y-84920500D01*
X148422610Y-84920500D01*
X148422611Y-84920500D01*
X148593701Y-84893402D01*
X148758445Y-84839873D01*
X148912788Y-84761232D01*
X149052928Y-84659414D01*
X149175414Y-84536928D01*
X149277232Y-84396788D01*
X149355873Y-84242445D01*
X149409402Y-84077701D01*
X149436500Y-83906611D01*
X149436500Y-83733389D01*
X149409402Y-83562299D01*
X149355873Y-83397555D01*
X149277232Y-83243212D01*
X149175414Y-83103072D01*
X149052928Y-82980586D01*
X148942351Y-82900247D01*
X151299500Y-82900247D01*
X151299500Y-84739752D01*
X151311131Y-84798229D01*
X151311132Y-84798230D01*
X151355447Y-84864552D01*
X151421769Y-84908867D01*
X151421770Y-84908868D01*
X151480247Y-84920499D01*
X151480250Y-84920500D01*
X151480252Y-84920500D01*
X153319750Y-84920500D01*
X153319751Y-84920499D01*
X153334568Y-84917552D01*
X153378229Y-84908868D01*
X153378229Y-84908867D01*
X153378231Y-84908867D01*
X153444552Y-84864552D01*
X153488867Y-84798231D01*
X153488867Y-84798229D01*
X153488868Y-84798229D01*
X153499424Y-84745155D01*
X153500500Y-84739748D01*
X153500500Y-83733389D01*
X153839500Y-83733389D01*
X153839500Y-83906610D01*
X153852461Y-83988447D01*
X153866598Y-84077701D01*
X153920127Y-84242445D01*
X153998768Y-84396788D01*
X154100586Y-84536928D01*
X154223072Y-84659414D01*
X154363212Y-84761232D01*
X154517555Y-84839873D01*
X154682299Y-84893402D01*
X154853389Y-84920500D01*
X154853390Y-84920500D01*
X155026610Y-84920500D01*
X155026611Y-84920500D01*
X155197701Y-84893402D01*
X155362445Y-84839873D01*
X155516788Y-84761232D01*
X155656928Y-84659414D01*
X155779414Y-84536928D01*
X155881232Y-84396788D01*
X155959873Y-84242445D01*
X156013402Y-84077701D01*
X156040500Y-83906611D01*
X156040500Y-83733389D01*
X156013402Y-83562299D01*
X155959873Y-83397555D01*
X155881232Y-83243212D01*
X155779414Y-83103072D01*
X155656928Y-82980586D01*
X155516788Y-82878768D01*
X155362445Y-82800127D01*
X155197701Y-82746598D01*
X155026611Y-82719500D01*
X154853389Y-82719500D01*
X154813728Y-82725781D01*
X154682302Y-82746597D01*
X154517552Y-82800128D01*
X154363211Y-82878768D01*
X154283256Y-82936859D01*
X154223072Y-82980586D01*
X154223070Y-82980588D01*
X154223069Y-82980588D01*
X154100588Y-83103069D01*
X154100588Y-83103070D01*
X154100586Y-83103072D01*
X154071173Y-83143555D01*
X153998768Y-83243211D01*
X153920128Y-83397552D01*
X153866597Y-83562302D01*
X153839500Y-83733389D01*
X153500500Y-83733389D01*
X153500500Y-82900252D01*
X153500500Y-82900249D01*
X153500499Y-82900247D01*
X153488868Y-82841770D01*
X153488867Y-82841769D01*
X153444552Y-82775447D01*
X153378230Y-82731132D01*
X153378229Y-82731131D01*
X153319752Y-82719500D01*
X153319748Y-82719500D01*
X151480252Y-82719500D01*
X151480247Y-82719500D01*
X151421770Y-82731131D01*
X151421769Y-82731132D01*
X151355447Y-82775447D01*
X151311132Y-82841769D01*
X151311131Y-82841770D01*
X151299500Y-82900247D01*
X148942351Y-82900247D01*
X148912788Y-82878768D01*
X148758445Y-82800127D01*
X148593701Y-82746598D01*
X148593699Y-82746597D01*
X148593698Y-82746597D01*
X148462271Y-82725781D01*
X148422611Y-82719500D01*
X148249389Y-82719500D01*
X148209728Y-82725781D01*
X148078302Y-82746597D01*
X147913552Y-82800128D01*
X147759211Y-82878768D01*
X147679256Y-82936859D01*
X147619072Y-82980586D01*
X147619070Y-82980588D01*
X147619069Y-82980588D01*
X147496588Y-83103069D01*
X147496588Y-83103070D01*
X147496586Y-83103072D01*
X147467173Y-83143555D01*
X147394768Y-83243211D01*
X147316128Y-83397552D01*
X147262597Y-83562302D01*
X147235500Y-83733389D01*
X146896500Y-83733389D01*
X146896500Y-82900252D01*
X146896500Y-82900249D01*
X146896499Y-82900247D01*
X146884868Y-82841770D01*
X146884867Y-82841769D01*
X146840552Y-82775447D01*
X146774230Y-82731132D01*
X146774229Y-82731131D01*
X146715752Y-82719500D01*
X146715748Y-82719500D01*
X144876252Y-82719500D01*
X144876247Y-82719500D01*
X144817770Y-82731131D01*
X144817769Y-82731132D01*
X144751447Y-82775447D01*
X144707132Y-82841769D01*
X144707131Y-82841770D01*
X144695500Y-82900247D01*
X142338351Y-82900247D01*
X142308788Y-82878768D01*
X142154445Y-82800127D01*
X141989701Y-82746598D01*
X141989699Y-82746597D01*
X141989698Y-82746597D01*
X141858271Y-82725781D01*
X141818611Y-82719500D01*
X141645389Y-82719500D01*
X141605728Y-82725781D01*
X141474302Y-82746597D01*
X141309552Y-82800128D01*
X141155211Y-82878768D01*
X141075256Y-82936859D01*
X141015072Y-82980586D01*
X141015070Y-82980588D01*
X141015069Y-82980588D01*
X140892588Y-83103069D01*
X140892588Y-83103070D01*
X140892586Y-83103072D01*
X140863173Y-83143555D01*
X140790768Y-83243211D01*
X140712128Y-83397552D01*
X140658597Y-83562302D01*
X140631500Y-83733389D01*
X140292500Y-83733389D01*
X140292500Y-82900252D01*
X140292500Y-82900249D01*
X140292499Y-82900247D01*
X140280868Y-82841770D01*
X140280867Y-82841769D01*
X140236552Y-82775447D01*
X140170230Y-82731132D01*
X140170229Y-82731131D01*
X140111752Y-82719500D01*
X140111748Y-82719500D01*
X138272252Y-82719500D01*
X138272247Y-82719500D01*
X138213770Y-82731131D01*
X138213769Y-82731132D01*
X138147447Y-82775447D01*
X138103132Y-82841769D01*
X138103131Y-82841770D01*
X138091500Y-82900247D01*
X135734351Y-82900247D01*
X135704788Y-82878768D01*
X135550445Y-82800127D01*
X135385701Y-82746598D01*
X135385699Y-82746597D01*
X135385698Y-82746597D01*
X135254271Y-82725781D01*
X135214611Y-82719500D01*
X135041389Y-82719500D01*
X135001728Y-82725781D01*
X134870302Y-82746597D01*
X134705552Y-82800128D01*
X134551211Y-82878768D01*
X134471256Y-82936859D01*
X134411072Y-82980586D01*
X134411070Y-82980588D01*
X134411069Y-82980588D01*
X134288588Y-83103069D01*
X134288588Y-83103070D01*
X134288586Y-83103072D01*
X134259173Y-83143555D01*
X134186768Y-83243211D01*
X134108128Y-83397552D01*
X134054597Y-83562302D01*
X134027500Y-83733389D01*
X133688500Y-83733389D01*
X133688500Y-82900252D01*
X133688500Y-82900249D01*
X133688499Y-82900247D01*
X133676868Y-82841770D01*
X133676867Y-82841769D01*
X133632552Y-82775447D01*
X133566230Y-82731132D01*
X133566229Y-82731131D01*
X133507752Y-82719500D01*
X133507748Y-82719500D01*
X131668252Y-82719500D01*
X131668247Y-82719500D01*
X131609770Y-82731131D01*
X131609769Y-82731132D01*
X131543447Y-82775447D01*
X131499132Y-82841769D01*
X131499131Y-82841770D01*
X131487500Y-82900247D01*
X127499297Y-82900247D01*
X127499334Y-82646247D01*
X160189500Y-82646247D01*
X160189500Y-84485752D01*
X160201131Y-84544229D01*
X160201132Y-84544230D01*
X160245447Y-84610552D01*
X160311769Y-84654867D01*
X160311770Y-84654868D01*
X160365664Y-84665588D01*
X160365765Y-84665607D01*
X160370252Y-84666500D01*
X160370392Y-84666500D01*
X160374833Y-84667356D01*
X160389444Y-84672631D01*
X160448406Y-84681549D01*
X160450861Y-84682023D01*
X160453793Y-84683535D01*
X160479388Y-84691215D01*
X160525707Y-84712621D01*
X160551069Y-84728291D01*
X160620617Y-84783839D01*
X160638125Y-84800908D01*
X160724986Y-84904186D01*
X160736767Y-84920791D01*
X160762444Y-84964131D01*
X160814275Y-85051619D01*
X160827306Y-85073613D01*
X160835482Y-85090091D01*
X160864604Y-85161680D01*
X160880361Y-85200416D01*
X160889500Y-85247139D01*
X160889500Y-85291273D01*
X160889500Y-85396727D01*
X160898980Y-85432107D01*
X160916793Y-85498589D01*
X160943156Y-85544250D01*
X160969520Y-85589913D01*
X160969522Y-85589915D01*
X168945479Y-93565872D01*
X168950927Y-93571682D01*
X168957794Y-93579493D01*
X168967755Y-93595600D01*
X169041795Y-93675045D01*
X169042992Y-93676407D01*
X169043210Y-93676877D01*
X169048874Y-93683627D01*
X169085135Y-93731721D01*
X169092886Y-93743302D01*
X169121590Y-93791892D01*
X169136159Y-93816553D01*
X169137272Y-93818415D01*
X169240500Y-93988761D01*
X169242864Y-93992567D01*
X169243106Y-93992947D01*
X169243111Y-93992954D01*
X169244766Y-93994652D01*
X169263346Y-94019192D01*
X169271497Y-94033310D01*
X169271499Y-94033313D01*
X169271500Y-94033314D01*
X169364686Y-94126500D01*
X169478814Y-94192392D01*
X169606108Y-94226500D01*
X169606110Y-94226500D01*
X169737890Y-94226500D01*
X169737892Y-94226500D01*
X169865186Y-94192392D01*
X169979314Y-94126500D01*
X170072500Y-94033314D01*
X170138392Y-93919186D01*
X170172500Y-93791892D01*
X170172500Y-93660108D01*
X170138392Y-93532814D01*
X170072500Y-93418686D01*
X169979314Y-93325500D01*
X169962084Y-93315552D01*
X169958055Y-93313122D01*
X169948608Y-93307177D01*
X169934749Y-93294493D01*
X169765075Y-93191672D01*
X169672509Y-93134674D01*
X169655354Y-93121950D01*
X169537670Y-93017797D01*
X169537669Y-93017796D01*
X169537668Y-93017795D01*
X169531687Y-93014183D01*
X169508117Y-92995724D01*
X161726819Y-85214426D01*
X161712115Y-85187498D01*
X161695523Y-85161680D01*
X161694631Y-85155479D01*
X161693334Y-85153103D01*
X161690500Y-85126745D01*
X161690500Y-85096246D01*
X161698809Y-85051619D01*
X161709798Y-85023131D01*
X161718047Y-85005853D01*
X161746059Y-84957236D01*
X161753027Y-84946470D01*
X161792780Y-84891519D01*
X161800965Y-84881376D01*
X161843013Y-84834545D01*
X161852748Y-84824844D01*
X161899172Y-84783446D01*
X161910461Y-84774502D01*
X161952304Y-84745146D01*
X161965220Y-84737217D01*
X162009089Y-84713858D01*
X162023509Y-84707325D01*
X162060935Y-84693174D01*
X162076446Y-84688444D01*
X162113256Y-84679804D01*
X162131538Y-84676932D01*
X162138171Y-84676392D01*
X162181438Y-84672875D01*
X162181442Y-84672874D01*
X162181447Y-84672874D01*
X162193700Y-84669651D01*
X162203803Y-84667838D01*
X162203774Y-84667689D01*
X162268229Y-84654868D01*
X162268229Y-84654867D01*
X162268231Y-84654867D01*
X162334552Y-84610552D01*
X162378867Y-84544231D01*
X162378867Y-84544229D01*
X162378868Y-84544229D01*
X162390499Y-84485752D01*
X162390500Y-84485750D01*
X162390500Y-83479389D01*
X162729500Y-83479389D01*
X162729500Y-83652611D01*
X162756598Y-83823701D01*
X162810127Y-83988445D01*
X162888768Y-84142788D01*
X162990586Y-84282928D01*
X163113072Y-84405414D01*
X163253212Y-84507232D01*
X163407555Y-84585873D01*
X163572299Y-84639402D01*
X163743389Y-84666500D01*
X163743390Y-84666500D01*
X163916610Y-84666500D01*
X163916611Y-84666500D01*
X164087701Y-84639402D01*
X164252445Y-84585873D01*
X164406788Y-84507232D01*
X164546928Y-84405414D01*
X164669414Y-84282928D01*
X164771232Y-84142788D01*
X164849873Y-83988445D01*
X164903402Y-83823701D01*
X164930500Y-83652611D01*
X164930500Y-83479389D01*
X164903402Y-83308299D01*
X164849873Y-83143555D01*
X164771232Y-82989212D01*
X164669414Y-82849072D01*
X164546928Y-82726586D01*
X164436351Y-82646247D01*
X166793500Y-82646247D01*
X166793500Y-84485752D01*
X166805131Y-84544229D01*
X166805132Y-84544230D01*
X166849447Y-84610552D01*
X166915769Y-84654867D01*
X166915770Y-84654868D01*
X166974247Y-84666499D01*
X166974250Y-84666500D01*
X166974252Y-84666500D01*
X168813750Y-84666500D01*
X168813751Y-84666499D01*
X168828568Y-84663552D01*
X168872229Y-84654868D01*
X168872229Y-84654867D01*
X168872231Y-84654867D01*
X168938552Y-84610552D01*
X168982867Y-84544231D01*
X168982867Y-84544229D01*
X168982868Y-84544229D01*
X168994499Y-84485752D01*
X168994500Y-84485750D01*
X168994500Y-83479389D01*
X169333500Y-83479389D01*
X169333500Y-83652611D01*
X169360598Y-83823701D01*
X169414127Y-83988445D01*
X169492768Y-84142788D01*
X169594586Y-84282928D01*
X169717072Y-84405414D01*
X169857212Y-84507232D01*
X170011555Y-84585873D01*
X170176299Y-84639402D01*
X170347389Y-84666500D01*
X170347390Y-84666500D01*
X170520610Y-84666500D01*
X170520611Y-84666500D01*
X170691701Y-84639402D01*
X170856445Y-84585873D01*
X171010788Y-84507232D01*
X171150928Y-84405414D01*
X171273414Y-84282928D01*
X171375232Y-84142788D01*
X171453873Y-83988445D01*
X171507402Y-83823701D01*
X171534500Y-83652611D01*
X171534500Y-83479389D01*
X171507402Y-83308299D01*
X171453873Y-83143555D01*
X171375232Y-82989212D01*
X171273414Y-82849072D01*
X171150928Y-82726586D01*
X171040351Y-82646247D01*
X173397500Y-82646247D01*
X173397500Y-84485752D01*
X173409131Y-84544229D01*
X173409132Y-84544230D01*
X173453447Y-84610552D01*
X173519769Y-84654867D01*
X173519770Y-84654868D01*
X173578247Y-84666499D01*
X173578250Y-84666500D01*
X173578252Y-84666500D01*
X175417750Y-84666500D01*
X175417751Y-84666499D01*
X175432568Y-84663552D01*
X175476229Y-84654868D01*
X175476229Y-84654867D01*
X175476231Y-84654867D01*
X175542552Y-84610552D01*
X175586867Y-84544231D01*
X175586867Y-84544229D01*
X175586868Y-84544229D01*
X175598499Y-84485752D01*
X175598500Y-84485750D01*
X175598500Y-83479389D01*
X175937500Y-83479389D01*
X175937500Y-83652611D01*
X175964598Y-83823701D01*
X176018127Y-83988445D01*
X176096768Y-84142788D01*
X176198586Y-84282928D01*
X176321072Y-84405414D01*
X176461212Y-84507232D01*
X176615555Y-84585873D01*
X176780299Y-84639402D01*
X176951389Y-84666500D01*
X176951390Y-84666500D01*
X177124610Y-84666500D01*
X177124611Y-84666500D01*
X177295701Y-84639402D01*
X177460445Y-84585873D01*
X177614788Y-84507232D01*
X177754928Y-84405414D01*
X177877414Y-84282928D01*
X177979232Y-84142788D01*
X178057873Y-83988445D01*
X178111402Y-83823701D01*
X178138500Y-83652611D01*
X178138500Y-83479389D01*
X178111402Y-83308299D01*
X178057873Y-83143555D01*
X177979232Y-82989212D01*
X177877414Y-82849072D01*
X177754928Y-82726586D01*
X177644351Y-82646247D01*
X180001500Y-82646247D01*
X180001500Y-84485752D01*
X180013131Y-84544229D01*
X180013132Y-84544230D01*
X180057447Y-84610552D01*
X180123769Y-84654867D01*
X180123770Y-84654868D01*
X180182247Y-84666499D01*
X180182250Y-84666500D01*
X180182252Y-84666500D01*
X182021750Y-84666500D01*
X182021751Y-84666499D01*
X182036568Y-84663552D01*
X182080229Y-84654868D01*
X182080229Y-84654867D01*
X182080231Y-84654867D01*
X182146552Y-84610552D01*
X182190867Y-84544231D01*
X182190867Y-84544229D01*
X182190868Y-84544229D01*
X182202499Y-84485752D01*
X182202500Y-84485750D01*
X182202500Y-83479389D01*
X182541500Y-83479389D01*
X182541500Y-83652611D01*
X182568598Y-83823701D01*
X182622127Y-83988445D01*
X182700768Y-84142788D01*
X182802586Y-84282928D01*
X182925072Y-84405414D01*
X183065212Y-84507232D01*
X183219555Y-84585873D01*
X183384299Y-84639402D01*
X183555389Y-84666500D01*
X183555390Y-84666500D01*
X183728610Y-84666500D01*
X183728611Y-84666500D01*
X183899701Y-84639402D01*
X184064445Y-84585873D01*
X184218788Y-84507232D01*
X184358928Y-84405414D01*
X184481414Y-84282928D01*
X184583232Y-84142788D01*
X184661873Y-83988445D01*
X184715402Y-83823701D01*
X184742500Y-83652611D01*
X184742500Y-83479389D01*
X184715402Y-83308299D01*
X184661873Y-83143555D01*
X184583232Y-82989212D01*
X184481414Y-82849072D01*
X184358928Y-82726586D01*
X184218788Y-82624768D01*
X184064445Y-82546127D01*
X183899701Y-82492598D01*
X183899699Y-82492597D01*
X183899698Y-82492597D01*
X183768271Y-82471781D01*
X183728611Y-82465500D01*
X183555389Y-82465500D01*
X183515728Y-82471781D01*
X183384302Y-82492597D01*
X183219552Y-82546128D01*
X183065211Y-82624768D01*
X182985256Y-82682859D01*
X182925072Y-82726586D01*
X182925070Y-82726588D01*
X182925069Y-82726588D01*
X182802588Y-82849069D01*
X182802588Y-82849070D01*
X182802586Y-82849072D01*
X182758859Y-82909256D01*
X182700768Y-82989211D01*
X182622128Y-83143552D01*
X182568597Y-83308302D01*
X182554461Y-83397555D01*
X182541500Y-83479389D01*
X182202500Y-83479389D01*
X182202500Y-82646249D01*
X182202499Y-82646247D01*
X182190868Y-82587770D01*
X182190867Y-82587769D01*
X182146552Y-82521447D01*
X182080230Y-82477132D01*
X182080229Y-82477131D01*
X182021752Y-82465500D01*
X182021748Y-82465500D01*
X180182252Y-82465500D01*
X180182247Y-82465500D01*
X180123770Y-82477131D01*
X180123769Y-82477132D01*
X180057447Y-82521447D01*
X180013132Y-82587769D01*
X180013131Y-82587770D01*
X180001500Y-82646247D01*
X177644351Y-82646247D01*
X177614788Y-82624768D01*
X177460445Y-82546127D01*
X177295701Y-82492598D01*
X177295699Y-82492597D01*
X177295698Y-82492597D01*
X177164271Y-82471781D01*
X177124611Y-82465500D01*
X176951389Y-82465500D01*
X176911728Y-82471781D01*
X176780302Y-82492597D01*
X176615552Y-82546128D01*
X176461211Y-82624768D01*
X176381256Y-82682859D01*
X176321072Y-82726586D01*
X176321070Y-82726588D01*
X176321069Y-82726588D01*
X176198588Y-82849069D01*
X176198588Y-82849070D01*
X176198586Y-82849072D01*
X176154859Y-82909256D01*
X176096768Y-82989211D01*
X176018128Y-83143552D01*
X175964597Y-83308302D01*
X175950461Y-83397555D01*
X175937500Y-83479389D01*
X175598500Y-83479389D01*
X175598500Y-82646249D01*
X175598499Y-82646247D01*
X175586868Y-82587770D01*
X175586867Y-82587769D01*
X175542552Y-82521447D01*
X175476230Y-82477132D01*
X175476229Y-82477131D01*
X175417752Y-82465500D01*
X175417748Y-82465500D01*
X173578252Y-82465500D01*
X173578247Y-82465500D01*
X173519770Y-82477131D01*
X173519769Y-82477132D01*
X173453447Y-82521447D01*
X173409132Y-82587769D01*
X173409131Y-82587770D01*
X173397500Y-82646247D01*
X171040351Y-82646247D01*
X171010788Y-82624768D01*
X170856445Y-82546127D01*
X170691701Y-82492598D01*
X170691699Y-82492597D01*
X170691698Y-82492597D01*
X170560271Y-82471781D01*
X170520611Y-82465500D01*
X170347389Y-82465500D01*
X170307728Y-82471781D01*
X170176302Y-82492597D01*
X170011552Y-82546128D01*
X169857211Y-82624768D01*
X169777256Y-82682859D01*
X169717072Y-82726586D01*
X169717070Y-82726588D01*
X169717069Y-82726588D01*
X169594588Y-82849069D01*
X169594588Y-82849070D01*
X169594586Y-82849072D01*
X169550859Y-82909256D01*
X169492768Y-82989211D01*
X169414128Y-83143552D01*
X169360597Y-83308302D01*
X169346461Y-83397555D01*
X169333500Y-83479389D01*
X168994500Y-83479389D01*
X168994500Y-82646249D01*
X168994499Y-82646247D01*
X168982868Y-82587770D01*
X168982867Y-82587769D01*
X168938552Y-82521447D01*
X168872230Y-82477132D01*
X168872229Y-82477131D01*
X168813752Y-82465500D01*
X168813748Y-82465500D01*
X166974252Y-82465500D01*
X166974247Y-82465500D01*
X166915770Y-82477131D01*
X166915769Y-82477132D01*
X166849447Y-82521447D01*
X166805132Y-82587769D01*
X166805131Y-82587770D01*
X166793500Y-82646247D01*
X164436351Y-82646247D01*
X164406788Y-82624768D01*
X164252445Y-82546127D01*
X164087701Y-82492598D01*
X164087699Y-82492597D01*
X164087698Y-82492597D01*
X163956271Y-82471781D01*
X163916611Y-82465500D01*
X163743389Y-82465500D01*
X163703728Y-82471781D01*
X163572302Y-82492597D01*
X163407552Y-82546128D01*
X163253211Y-82624768D01*
X163173256Y-82682859D01*
X163113072Y-82726586D01*
X163113070Y-82726588D01*
X163113069Y-82726588D01*
X162990588Y-82849069D01*
X162990588Y-82849070D01*
X162990586Y-82849072D01*
X162946859Y-82909256D01*
X162888768Y-82989211D01*
X162810128Y-83143552D01*
X162756597Y-83308302D01*
X162742461Y-83397555D01*
X162729500Y-83479389D01*
X162390500Y-83479389D01*
X162390500Y-82646249D01*
X162390499Y-82646247D01*
X162378868Y-82587770D01*
X162378867Y-82587769D01*
X162334552Y-82521447D01*
X162268230Y-82477132D01*
X162268229Y-82477131D01*
X162209752Y-82465500D01*
X162209748Y-82465500D01*
X160370252Y-82465500D01*
X160370247Y-82465500D01*
X160311770Y-82477131D01*
X160311769Y-82477132D01*
X160245447Y-82521447D01*
X160201132Y-82587769D01*
X160201131Y-82587770D01*
X160189500Y-82646247D01*
X127499334Y-82646247D01*
X127500490Y-74685926D01*
X127500500Y-74685892D01*
X127500500Y-74623222D01*
X127500670Y-74616757D01*
X127503074Y-74570889D01*
X140822000Y-74570889D01*
X140822000Y-76544110D01*
X140834961Y-76625947D01*
X140849098Y-76715201D01*
X140902627Y-76879945D01*
X140981268Y-77034288D01*
X141083086Y-77174428D01*
X141205572Y-77296914D01*
X141345712Y-77398732D01*
X141500055Y-77477373D01*
X141664799Y-77530902D01*
X141835889Y-77558000D01*
X141835890Y-77558000D01*
X142009110Y-77558000D01*
X142009111Y-77558000D01*
X142180201Y-77530902D01*
X142344945Y-77477373D01*
X142499288Y-77398732D01*
X142639428Y-77296914D01*
X142761914Y-77174428D01*
X142863732Y-77034288D01*
X142942373Y-76879945D01*
X142995902Y-76715201D01*
X143023000Y-76544111D01*
X143023000Y-74570889D01*
X142995902Y-74399799D01*
X142942373Y-74235055D01*
X142863732Y-74080712D01*
X142771111Y-73953230D01*
X144322000Y-73953230D01*
X144322000Y-77161769D01*
X144324853Y-77192199D01*
X144324853Y-77192201D01*
X144369706Y-77320380D01*
X144369707Y-77320382D01*
X144450350Y-77429650D01*
X144559618Y-77510293D01*
X144602345Y-77525244D01*
X144687799Y-77555146D01*
X144718230Y-77558000D01*
X144718234Y-77558000D01*
X146126770Y-77558000D01*
X146157199Y-77555146D01*
X146157201Y-77555146D01*
X146221290Y-77532719D01*
X146285382Y-77510293D01*
X146394650Y-77429650D01*
X146475293Y-77320382D01*
X146509238Y-77223373D01*
X146520146Y-77192201D01*
X146520146Y-77192199D01*
X146523000Y-77161769D01*
X146523000Y-74316889D01*
X169524000Y-74316889D01*
X169524000Y-76290111D01*
X169551098Y-76461201D01*
X169604627Y-76625945D01*
X169683268Y-76780288D01*
X169785086Y-76920428D01*
X169907572Y-77042914D01*
X170047712Y-77144732D01*
X170202055Y-77223373D01*
X170366799Y-77276902D01*
X170537889Y-77304000D01*
X170537890Y-77304000D01*
X170711110Y-77304000D01*
X170711111Y-77304000D01*
X170882201Y-77276902D01*
X171046945Y-77223373D01*
X171201288Y-77144732D01*
X171341428Y-77042914D01*
X171463914Y-76920428D01*
X171565732Y-76780288D01*
X171644373Y-76625945D01*
X171697902Y-76461201D01*
X171725000Y-76290111D01*
X171725000Y-74316889D01*
X171697902Y-74145799D01*
X171644373Y-73981055D01*
X171565732Y-73826712D01*
X171473111Y-73699230D01*
X173024000Y-73699230D01*
X173024000Y-76907769D01*
X173026853Y-76938199D01*
X173026853Y-76938201D01*
X173063494Y-77042911D01*
X173071707Y-77066382D01*
X173152350Y-77175650D01*
X173261618Y-77256293D01*
X173304345Y-77271244D01*
X173389799Y-77301146D01*
X173420230Y-77304000D01*
X173420234Y-77304000D01*
X174828770Y-77304000D01*
X174859199Y-77301146D01*
X174859201Y-77301146D01*
X174923290Y-77278719D01*
X174987382Y-77256293D01*
X175096650Y-77175650D01*
X175177293Y-77066382D01*
X175199719Y-77002290D01*
X175222146Y-76938201D01*
X175222146Y-76938199D01*
X175225000Y-76907769D01*
X175225000Y-73699230D01*
X175222146Y-73668800D01*
X175222146Y-73668798D01*
X175184024Y-73559854D01*
X175177293Y-73540618D01*
X175096650Y-73431350D01*
X174987382Y-73350707D01*
X174987380Y-73350706D01*
X174859200Y-73305853D01*
X174828770Y-73303000D01*
X174828766Y-73303000D01*
X173420234Y-73303000D01*
X173420230Y-73303000D01*
X173389800Y-73305853D01*
X173389798Y-73305853D01*
X173261619Y-73350706D01*
X173261617Y-73350707D01*
X173152350Y-73431350D01*
X173071707Y-73540617D01*
X173071706Y-73540619D01*
X173026853Y-73668798D01*
X173026853Y-73668800D01*
X173024000Y-73699230D01*
X171473111Y-73699230D01*
X171463914Y-73686572D01*
X171341428Y-73564086D01*
X171201288Y-73462268D01*
X171140607Y-73431350D01*
X171046947Y-73383628D01*
X171046946Y-73383627D01*
X171046945Y-73383627D01*
X170882201Y-73330098D01*
X170882199Y-73330097D01*
X170882198Y-73330097D01*
X170729124Y-73305853D01*
X170711111Y-73303000D01*
X170537889Y-73303000D01*
X170519876Y-73305853D01*
X170366802Y-73330097D01*
X170202052Y-73383628D01*
X170047711Y-73462268D01*
X169967756Y-73520359D01*
X169907572Y-73564086D01*
X169907570Y-73564088D01*
X169907569Y-73564088D01*
X169785088Y-73686569D01*
X169785088Y-73686570D01*
X169785086Y-73686572D01*
X169773074Y-73703105D01*
X169683268Y-73826711D01*
X169604628Y-73981052D01*
X169551097Y-74145802D01*
X169536961Y-74235055D01*
X169524000Y-74316889D01*
X146523000Y-74316889D01*
X146523000Y-73953230D01*
X146520146Y-73922800D01*
X146520146Y-73922798D01*
X146475293Y-73794619D01*
X146475292Y-73794617D01*
X146417468Y-73716268D01*
X146394650Y-73685350D01*
X146285382Y-73604707D01*
X146285380Y-73604706D01*
X146157200Y-73559853D01*
X146126770Y-73557000D01*
X146126766Y-73557000D01*
X144718234Y-73557000D01*
X144718230Y-73557000D01*
X144687800Y-73559853D01*
X144687798Y-73559853D01*
X144559619Y-73604706D01*
X144559617Y-73604707D01*
X144450350Y-73685350D01*
X144369707Y-73794617D01*
X144369706Y-73794619D01*
X144324853Y-73922798D01*
X144324853Y-73922800D01*
X144322000Y-73953230D01*
X142771111Y-73953230D01*
X142761914Y-73940572D01*
X142639428Y-73818086D01*
X142499288Y-73716268D01*
X142344945Y-73637627D01*
X142180201Y-73584098D01*
X142180199Y-73584097D01*
X142180198Y-73584097D01*
X142027124Y-73559853D01*
X142009111Y-73557000D01*
X141835889Y-73557000D01*
X141817876Y-73559853D01*
X141664802Y-73584097D01*
X141500052Y-73637628D01*
X141345711Y-73716268D01*
X141272829Y-73769221D01*
X141205572Y-73818086D01*
X141205570Y-73818088D01*
X141205569Y-73818088D01*
X141083088Y-73940569D01*
X141083088Y-73940570D01*
X141083086Y-73940572D01*
X141053673Y-73981055D01*
X140981268Y-74080711D01*
X140902628Y-74235052D01*
X140849097Y-74399802D01*
X140822000Y-74570889D01*
X127503074Y-74570889D01*
X127503669Y-74559528D01*
X127503669Y-74559527D01*
X127512041Y-74399799D01*
X127516592Y-74312951D01*
X127517949Y-74300046D01*
X127542379Y-74145799D01*
X127565029Y-74002786D01*
X127567723Y-73990107D01*
X127645627Y-73699368D01*
X127649636Y-73687033D01*
X127649814Y-73686570D01*
X127757493Y-73406054D01*
X127762763Y-73394215D01*
X127899415Y-73126023D01*
X127905891Y-73114808D01*
X128069819Y-72862380D01*
X128077434Y-72851899D01*
X128266858Y-72617979D01*
X128275525Y-72608354D01*
X128488354Y-72395525D01*
X128497979Y-72386858D01*
X128731899Y-72197434D01*
X128742380Y-72189819D01*
X128994808Y-72025891D01*
X129006023Y-72019415D01*
X129274215Y-71882763D01*
X129286054Y-71877493D01*
X129567040Y-71769633D01*
X129579368Y-71765627D01*
X129870107Y-71687723D01*
X129882786Y-71685029D01*
X130180046Y-71637949D01*
X130192951Y-71636592D01*
X130496756Y-71620669D01*
X130503246Y-71620500D01*
X130565892Y-71620500D01*
X184394108Y-71620500D01*
X184456754Y-71620500D01*
X184463244Y-71620670D01*
G37*
%TD.AperFunction*%
%TD*%
%TA.AperFunction,Conductor*%
%TO.N,Net-(U2-RS)*%
G36*
X141479368Y-95601436D02*
G01*
X141479703Y-95601971D01*
X141517106Y-95665539D01*
X141517773Y-95666857D01*
X141545047Y-95730394D01*
X141545629Y-95732103D01*
X141573697Y-95841574D01*
X141573808Y-95842044D01*
X141583712Y-95888579D01*
X141583713Y-95888581D01*
X141622205Y-95989806D01*
X141659374Y-96045294D01*
X141659376Y-96045296D01*
X141659378Y-96045299D01*
X141663789Y-96050239D01*
X141707533Y-96099229D01*
X141710487Y-96107683D01*
X141707079Y-96115295D01*
X141581180Y-96241194D01*
X141572907Y-96244621D01*
X141565244Y-96241763D01*
X141497102Y-96182705D01*
X141430253Y-96143202D01*
X141430251Y-96143201D01*
X141430249Y-96143200D01*
X141430250Y-96143200D01*
X141368608Y-96121265D01*
X141368606Y-96121264D01*
X141368602Y-96121263D01*
X141322357Y-96110990D01*
X141308011Y-96107803D01*
X141307592Y-96107701D01*
X141192863Y-96077744D01*
X141191117Y-96077138D01*
X141129823Y-96050239D01*
X141128567Y-96049594D01*
X141067929Y-96013713D01*
X141062554Y-96006551D01*
X141063818Y-95997686D01*
X141064112Y-95997216D01*
X141221985Y-95759263D01*
X141225263Y-95755985D01*
X141463153Y-95598154D01*
X141471939Y-95596436D01*
X141479368Y-95601436D01*
G37*
%TD.AperFunction*%
%TD*%
%TA.AperFunction,Conductor*%
%TO.N,Net-(U3D-+)*%
G36*
X157971476Y-123651685D02*
G01*
X158110493Y-123774719D01*
X158110495Y-123774720D01*
X158228038Y-123847097D01*
X158398247Y-123950242D01*
X158403546Y-123957460D01*
X158402189Y-123966312D01*
X158401932Y-123966716D01*
X158244015Y-124204734D01*
X158240734Y-124208015D01*
X158002716Y-124365932D01*
X157993928Y-124367651D01*
X157986499Y-124362651D01*
X157986242Y-124362247D01*
X157883124Y-124192083D01*
X157883056Y-124191970D01*
X157830392Y-124102820D01*
X157772620Y-124026197D01*
X157688090Y-123935495D01*
X157684957Y-123927108D01*
X157688376Y-123919248D01*
X157955451Y-123652173D01*
X157963723Y-123648747D01*
X157971476Y-123651685D01*
G37*
%TD.AperFunction*%
%TD*%
%TA.AperFunction,Conductor*%
%TO.N,Net-(U2-RS)*%
G36*
X135706459Y-94704856D02*
G01*
X135777889Y-94723365D01*
X135779266Y-94723816D01*
X135843495Y-94749464D01*
X135845115Y-94750261D01*
X135942384Y-94807830D01*
X135942793Y-94808083D01*
X135982690Y-94833978D01*
X135982694Y-94833980D01*
X135982693Y-94833980D01*
X136081481Y-94878336D01*
X136081482Y-94878337D01*
X136081485Y-94878337D01*
X136081486Y-94878338D01*
X136147011Y-94891292D01*
X136219198Y-94895375D01*
X136227263Y-94899263D01*
X136230236Y-94907056D01*
X136230236Y-95085106D01*
X136226809Y-95093379D01*
X136219369Y-95096776D01*
X136129426Y-95103199D01*
X136054228Y-95122534D01*
X136054226Y-95122534D01*
X135995112Y-95150618D01*
X135942787Y-95183922D01*
X135942420Y-95184147D01*
X135840069Y-95244114D01*
X135838405Y-95244919D01*
X135776060Y-95269235D01*
X135774716Y-95269668D01*
X135706459Y-95287175D01*
X135697594Y-95285911D01*
X135692219Y-95278749D01*
X135692084Y-95278162D01*
X135685359Y-95244919D01*
X135635469Y-94998318D01*
X135635469Y-94993680D01*
X135655357Y-94895375D01*
X135692078Y-94713866D01*
X135697078Y-94706438D01*
X135705866Y-94704719D01*
X135706459Y-94704856D01*
G37*
%TD.AperFunction*%
%TD*%
%TA.AperFunction,Conductor*%
%TO.N,VCC*%
G36*
X152851265Y-128949191D02*
G01*
X152854670Y-128956752D01*
X152865970Y-129142040D01*
X152865971Y-129142048D01*
X152865972Y-129142049D01*
X152874044Y-129175992D01*
X152897911Y-129276345D01*
X152945331Y-129469634D01*
X152943974Y-129478486D01*
X152936756Y-129483785D01*
X152936288Y-129483890D01*
X152656320Y-129540530D01*
X152651680Y-129540530D01*
X152371711Y-129483890D01*
X152364282Y-129478890D01*
X152362563Y-129470102D01*
X152362668Y-129469634D01*
X152410085Y-129276359D01*
X152410117Y-129276232D01*
X152435908Y-129175992D01*
X152435909Y-129175989D01*
X152449239Y-129080957D01*
X152453602Y-128957050D01*
X152457318Y-128948905D01*
X152465295Y-128945764D01*
X152842992Y-128945764D01*
X152851265Y-128949191D01*
G37*
%TD.AperFunction*%
%TD*%
%TA.AperFunction,Conductor*%
%TO.N,Net-(U1-RS)*%
G36*
X164408459Y-94450856D02*
G01*
X164479889Y-94469365D01*
X164481266Y-94469816D01*
X164545495Y-94495464D01*
X164547115Y-94496261D01*
X164644384Y-94553830D01*
X164644793Y-94554083D01*
X164684690Y-94579978D01*
X164684694Y-94579980D01*
X164684693Y-94579980D01*
X164783481Y-94624336D01*
X164783482Y-94624337D01*
X164783485Y-94624337D01*
X164783486Y-94624338D01*
X164849011Y-94637292D01*
X164921198Y-94641375D01*
X164929263Y-94645263D01*
X164932236Y-94653056D01*
X164932236Y-94831106D01*
X164928809Y-94839379D01*
X164921369Y-94842776D01*
X164831426Y-94849199D01*
X164756228Y-94868534D01*
X164756226Y-94868534D01*
X164697112Y-94896618D01*
X164644787Y-94929922D01*
X164644420Y-94930147D01*
X164542069Y-94990114D01*
X164540405Y-94990919D01*
X164478060Y-95015235D01*
X164476716Y-95015668D01*
X164408459Y-95033175D01*
X164399594Y-95031911D01*
X164394219Y-95024749D01*
X164394084Y-95024162D01*
X164387359Y-94990919D01*
X164337469Y-94744318D01*
X164337469Y-94739680D01*
X164357357Y-94641375D01*
X164394078Y-94459866D01*
X164399078Y-94452438D01*
X164407866Y-94450719D01*
X164408459Y-94450856D01*
G37*
%TD.AperFunction*%
%TD*%
%TA.AperFunction,Conductor*%
%TO.N,Net-(U3D-+)*%
G36*
X154756352Y-122390665D02*
G01*
X154949639Y-122438085D01*
X154949766Y-122438117D01*
X155050007Y-122463908D01*
X155050008Y-122463908D01*
X155050011Y-122463909D01*
X155145042Y-122477239D01*
X155268949Y-122481602D01*
X155277095Y-122485318D01*
X155280236Y-122493295D01*
X155280236Y-122870992D01*
X155276809Y-122879265D01*
X155269248Y-122882670D01*
X155083958Y-122893970D01*
X155083950Y-122893972D01*
X154949694Y-122925901D01*
X154949653Y-122925910D01*
X154756365Y-122973331D01*
X154747513Y-122971974D01*
X154742214Y-122964756D01*
X154742117Y-122964324D01*
X154685469Y-122684318D01*
X154685469Y-122679680D01*
X154742110Y-122399708D01*
X154747109Y-122392282D01*
X154755897Y-122390563D01*
X154756352Y-122390665D01*
G37*
%TD.AperFunction*%
%TD*%
%TA.AperFunction,Conductor*%
%TO.N,Net-(U3C-+)*%
G36*
X164022486Y-122392025D02*
G01*
X164027785Y-122399243D01*
X164027890Y-122399711D01*
X164084530Y-122679680D01*
X164084530Y-122684320D01*
X164027890Y-122964288D01*
X164022890Y-122971717D01*
X164014102Y-122973436D01*
X164013634Y-122973331D01*
X163820361Y-122925914D01*
X163820234Y-122925882D01*
X163719994Y-122900092D01*
X163719995Y-122900092D01*
X163656636Y-122891204D01*
X163624959Y-122886761D01*
X163624961Y-122886761D01*
X163501052Y-122882397D01*
X163492905Y-122878681D01*
X163489764Y-122870704D01*
X163489764Y-122493007D01*
X163493191Y-122484734D01*
X163500749Y-122481329D01*
X163619560Y-122474083D01*
X163686039Y-122470029D01*
X163686041Y-122470028D01*
X163686048Y-122470028D01*
X163820303Y-122438099D01*
X164013635Y-122390668D01*
X164022486Y-122392025D01*
G37*
%TD.AperFunction*%
%TD*%
%TA.AperFunction,Conductor*%
%TO.N,Net-(J5-Pin_2)*%
G36*
X151253791Y-129445390D02*
G01*
X151257215Y-129453442D01*
X151263038Y-129763129D01*
X151267609Y-129852457D01*
X151275318Y-130003117D01*
X151275318Y-130003156D01*
X151275320Y-130003156D01*
X151285485Y-130215177D01*
X151285491Y-130216140D01*
X151275524Y-130505421D01*
X151275436Y-130506505D01*
X151249087Y-130712177D01*
X151248997Y-130712762D01*
X151203774Y-130964112D01*
X151198936Y-130971647D01*
X151190187Y-130973555D01*
X151189990Y-130973518D01*
X150372766Y-130811942D01*
X150365314Y-130806975D01*
X150365303Y-130806958D01*
X149902854Y-130113875D01*
X149901112Y-130105091D01*
X149906092Y-130097649D01*
X149906948Y-130097129D01*
X150055141Y-130016017D01*
X150056825Y-130015264D01*
X150213996Y-129959641D01*
X150215316Y-129959261D01*
X150367918Y-129924935D01*
X150368661Y-129924794D01*
X150513297Y-129901985D01*
X150513300Y-129902007D01*
X150513365Y-129901974D01*
X150602487Y-129888490D01*
X150760846Y-129852457D01*
X150863407Y-129802710D01*
X150935398Y-129729903D01*
X150963027Y-129679454D01*
X150983764Y-129618553D01*
X150998096Y-129538099D01*
X151001135Y-129478506D01*
X151002434Y-129453067D01*
X151006278Y-129444979D01*
X151014119Y-129441963D01*
X151245518Y-129441963D01*
X151253791Y-129445390D01*
G37*
%TD.AperFunction*%
%TD*%
%TA.AperFunction,Conductor*%
%TO.N,Net-(J7-Pin_2)*%
G36*
X168018512Y-129296600D02*
G01*
X168021898Y-129303897D01*
X168031913Y-129423549D01*
X168031913Y-129423551D01*
X168031914Y-129423554D01*
X168063524Y-129521537D01*
X168114127Y-129591747D01*
X168114126Y-129591747D01*
X168114127Y-129591748D01*
X168114129Y-129591750D01*
X168182033Y-129638821D01*
X168182036Y-129638822D01*
X168265529Y-129667377D01*
X168265532Y-129667377D01*
X168265534Y-129667378D01*
X168362935Y-129682052D01*
X168557320Y-129687305D01*
X168592669Y-129688261D01*
X168592668Y-129688261D01*
X168662855Y-129689789D01*
X168846577Y-129693792D01*
X168847736Y-129693876D01*
X169063348Y-129720776D01*
X169071134Y-129725201D01*
X169073510Y-129733834D01*
X169073376Y-129734666D01*
X168911525Y-130549320D01*
X168906551Y-130556767D01*
X168902318Y-130558518D01*
X168087298Y-130719659D01*
X168078518Y-130717902D01*
X168073667Y-130710971D01*
X167989822Y-130369528D01*
X167989821Y-130369527D01*
X167989819Y-130369516D01*
X167906596Y-130121839D01*
X167832361Y-129896343D01*
X167832085Y-129895361D01*
X167805906Y-129783667D01*
X167805738Y-129782809D01*
X167796708Y-129725201D01*
X167785538Y-129653938D01*
X167785439Y-129653111D01*
X167780268Y-129591750D01*
X167771837Y-129491715D01*
X167771800Y-129491050D01*
X167767291Y-129305157D01*
X167770517Y-129296803D01*
X167778704Y-129293176D01*
X167778988Y-129293173D01*
X168010239Y-129293173D01*
X168018512Y-129296600D01*
G37*
%TD.AperFunction*%
%TD*%
%TA.AperFunction,Conductor*%
%TO.N,VCC*%
G36*
X145925925Y-128776105D02*
G01*
X145992650Y-128796827D01*
X146037580Y-128850335D01*
X146048000Y-128900090D01*
X146048000Y-130681299D01*
X146028315Y-130748338D01*
X145975511Y-130794093D01*
X145924301Y-130805299D01*
X144110301Y-130809698D01*
X144043214Y-130790176D01*
X143997331Y-130737483D01*
X143986000Y-130685698D01*
X143986000Y-128871939D01*
X144005685Y-128804900D01*
X144058489Y-128759145D01*
X144111923Y-128747954D01*
X145925925Y-128776105D01*
G37*
%TD.AperFunction*%
%TD*%
%TA.AperFunction,Conductor*%
%TO.N,Net-(D5-K)*%
G36*
X169401476Y-93171685D02*
G01*
X169540493Y-93294719D01*
X169540495Y-93294720D01*
X169658038Y-93367097D01*
X169828247Y-93470242D01*
X169833546Y-93477460D01*
X169832189Y-93486312D01*
X169831932Y-93486716D01*
X169674015Y-93724734D01*
X169670734Y-93728015D01*
X169432716Y-93885932D01*
X169423928Y-93887651D01*
X169416499Y-93882651D01*
X169416242Y-93882247D01*
X169313124Y-93712083D01*
X169313056Y-93711970D01*
X169260392Y-93622820D01*
X169202620Y-93546197D01*
X169118090Y-93455495D01*
X169114957Y-93447108D01*
X169118376Y-93439248D01*
X169385451Y-93172173D01*
X169393723Y-93168747D01*
X169401476Y-93171685D01*
G37*
%TD.AperFunction*%
%TD*%
%TA.AperFunction,Conductor*%
%TO.N,Net-(U1-RS)*%
G36*
X170785379Y-97707191D02*
G01*
X170788776Y-97714631D01*
X170795199Y-97804572D01*
X170814534Y-97879770D01*
X170814534Y-97879772D01*
X170842618Y-97938886D01*
X170875922Y-97991211D01*
X170876147Y-97991578D01*
X170936114Y-98093930D01*
X170936919Y-98095594D01*
X170961235Y-98157939D01*
X170961668Y-98159283D01*
X170979175Y-98227540D01*
X170977911Y-98236405D01*
X170970749Y-98241780D01*
X170970162Y-98241915D01*
X170690320Y-98298530D01*
X170685680Y-98298530D01*
X170405867Y-98241921D01*
X170398438Y-98236921D01*
X170396719Y-98228133D01*
X170396856Y-98227540D01*
X170415366Y-98156105D01*
X170415814Y-98154737D01*
X170441467Y-98090496D01*
X170442257Y-98088889D01*
X170499852Y-97991578D01*
X170500069Y-97991227D01*
X170525978Y-97951310D01*
X170531557Y-97938886D01*
X170570336Y-97852518D01*
X170570337Y-97852517D01*
X170579816Y-97804574D01*
X170583292Y-97786989D01*
X170587376Y-97714803D01*
X170591264Y-97706737D01*
X170599057Y-97703764D01*
X170777106Y-97703764D01*
X170785379Y-97707191D01*
G37*
%TD.AperFunction*%
%TD*%
%TA.AperFunction,Conductor*%
%TO.N,Net-(J7-Pin_2)*%
G36*
X162755142Y-106289625D02*
G01*
X162760109Y-106297077D01*
X162760168Y-106297398D01*
X162791914Y-106485382D01*
X162791989Y-106485899D01*
X162811989Y-106648190D01*
X162821397Y-106718598D01*
X162821500Y-106720148D01*
X162821500Y-106745894D01*
X162828372Y-106771541D01*
X162828668Y-106773019D01*
X162835104Y-106821182D01*
X162835105Y-106821188D01*
X162877680Y-106974942D01*
X162913497Y-107050343D01*
X162943992Y-107098838D01*
X162957419Y-107120192D01*
X162963120Y-107129257D01*
X163042751Y-107230078D01*
X163097400Y-107288320D01*
X163142498Y-107336384D01*
X163145660Y-107344762D01*
X163142239Y-107352663D01*
X162978431Y-107516471D01*
X162970158Y-107519898D01*
X162962406Y-107516962D01*
X162856381Y-107423179D01*
X162776291Y-107352336D01*
X162776288Y-107352334D01*
X162776287Y-107352333D01*
X162692704Y-107296778D01*
X162613631Y-107256920D01*
X162455378Y-107210606D01*
X162401105Y-107203232D01*
X162399666Y-107202942D01*
X162371894Y-107195500D01*
X162371892Y-107195500D01*
X162344982Y-107195500D01*
X162343407Y-107195393D01*
X162274288Y-107186001D01*
X162221988Y-107180000D01*
X162221540Y-107179939D01*
X161923598Y-107134024D01*
X161915943Y-107129378D01*
X161913817Y-107120679D01*
X161913902Y-107120192D01*
X161927713Y-107050337D01*
X162049773Y-106432978D01*
X162054739Y-106425529D01*
X162058976Y-106423773D01*
X162746363Y-106287868D01*
X162755142Y-106289625D01*
G37*
%TD.AperFunction*%
%TD*%
%TA.AperFunction,Conductor*%
%TO.N,Net-(U3C-+)*%
G36*
X161068752Y-123652377D02*
G01*
X161335825Y-123919450D01*
X161339252Y-123927723D01*
X161336313Y-123935477D01*
X161213286Y-124074485D01*
X161213274Y-124074500D01*
X161140945Y-124191969D01*
X161037757Y-124362247D01*
X161030539Y-124367546D01*
X161021687Y-124366189D01*
X161021299Y-124365942D01*
X160886092Y-124276237D01*
X160783265Y-124208015D01*
X160779984Y-124204734D01*
X160771515Y-124191969D01*
X160622066Y-123966714D01*
X160620348Y-123957928D01*
X160625348Y-123950499D01*
X160625729Y-123950256D01*
X160795998Y-123847074D01*
X160885179Y-123794392D01*
X160961802Y-123736620D01*
X161052504Y-123652089D01*
X161060891Y-123648957D01*
X161068752Y-123652377D01*
G37*
%TD.AperFunction*%
%TD*%
%TA.AperFunction,Conductor*%
%TO.N,VCC*%
G36*
X166095039Y-95535685D02*
G01*
X166140794Y-95588489D01*
X166152000Y-95640000D01*
X166152000Y-96616140D01*
X166132315Y-96683179D01*
X166079511Y-96728934D01*
X166030158Y-96740121D01*
X164210158Y-96771803D01*
X164142786Y-96753288D01*
X164096119Y-96701289D01*
X164084000Y-96647822D01*
X164084000Y-95640000D01*
X164103685Y-95572961D01*
X164156489Y-95527206D01*
X164208000Y-95516000D01*
X166028000Y-95516000D01*
X166095039Y-95535685D01*
G37*
%TD.AperFunction*%
%TD*%
%TA.AperFunction,Conductor*%
%TO.N,Net-(U1-RS)*%
G36*
X169927368Y-95093436D02*
G01*
X169927703Y-95093971D01*
X169965106Y-95157539D01*
X169965773Y-95158857D01*
X169993047Y-95222394D01*
X169993629Y-95224103D01*
X170021697Y-95333574D01*
X170021808Y-95334044D01*
X170031712Y-95380579D01*
X170031713Y-95380581D01*
X170070205Y-95481806D01*
X170107374Y-95537294D01*
X170107376Y-95537296D01*
X170107378Y-95537299D01*
X170111789Y-95542239D01*
X170155533Y-95591229D01*
X170158487Y-95599683D01*
X170155079Y-95607295D01*
X170029180Y-95733194D01*
X170020907Y-95736621D01*
X170013244Y-95733763D01*
X169945102Y-95674705D01*
X169878253Y-95635202D01*
X169878251Y-95635201D01*
X169878249Y-95635200D01*
X169878250Y-95635200D01*
X169816608Y-95613265D01*
X169816606Y-95613264D01*
X169816602Y-95613263D01*
X169770357Y-95602990D01*
X169756011Y-95599803D01*
X169755592Y-95599701D01*
X169640863Y-95569744D01*
X169639117Y-95569138D01*
X169577823Y-95542239D01*
X169576567Y-95541594D01*
X169515929Y-95505713D01*
X169510554Y-95498551D01*
X169511818Y-95489686D01*
X169512112Y-95489216D01*
X169669985Y-95251263D01*
X169673263Y-95247985D01*
X169911153Y-95090154D01*
X169919939Y-95088436D01*
X169927368Y-95093436D01*
G37*
%TD.AperFunction*%
%TD*%
%TA.AperFunction,Conductor*%
%TO.N,Net-(U2-RS)*%
G36*
X140882753Y-95274235D02*
G01*
X140950897Y-95333294D01*
X141017746Y-95372797D01*
X141017749Y-95372798D01*
X141017748Y-95372798D01*
X141040036Y-95380729D01*
X141079397Y-95394736D01*
X141140013Y-95408201D01*
X141140375Y-95408289D01*
X141255141Y-95438256D01*
X141256877Y-95438859D01*
X141298891Y-95457297D01*
X141318176Y-95465760D01*
X141319432Y-95466405D01*
X141380070Y-95502286D01*
X141385445Y-95509448D01*
X141384181Y-95518313D01*
X141383861Y-95518823D01*
X141226015Y-95756734D01*
X141222734Y-95760015D01*
X140984848Y-95917844D01*
X140976060Y-95919563D01*
X140968631Y-95914563D01*
X140968308Y-95914047D01*
X140930891Y-95850456D01*
X140930226Y-95849141D01*
X140902951Y-95785604D01*
X140902369Y-95783895D01*
X140874301Y-95674424D01*
X140874190Y-95673953D01*
X140864287Y-95627420D01*
X140825795Y-95526194D01*
X140788622Y-95470701D01*
X140740466Y-95416770D01*
X140737512Y-95408316D01*
X140740919Y-95400705D01*
X140866820Y-95274804D01*
X140875092Y-95271378D01*
X140882753Y-95274235D01*
G37*
%TD.AperFunction*%
%TD*%
%TA.AperFunction,Conductor*%
%TO.N,VCC*%
G36*
X137393039Y-95789685D02*
G01*
X137438794Y-95842489D01*
X137450000Y-95894000D01*
X137450000Y-96870140D01*
X137430315Y-96937179D01*
X137377511Y-96982934D01*
X137328158Y-96994121D01*
X135508158Y-97025803D01*
X135440786Y-97007288D01*
X135394119Y-96955289D01*
X135382000Y-96901822D01*
X135382000Y-95894000D01*
X135401685Y-95826961D01*
X135454489Y-95781206D01*
X135506000Y-95770000D01*
X137326000Y-95770000D01*
X137393039Y-95789685D01*
G37*
%TD.AperFunction*%
%TD*%
%TA.AperFunction,Conductor*%
%TO.N,Net-(D10-K)*%
G36*
X132595565Y-83827565D02*
G01*
X133470116Y-84702116D01*
X133473543Y-84710389D01*
X133470116Y-84718662D01*
X133462791Y-84722050D01*
X133388319Y-84728106D01*
X133388297Y-84728109D01*
X133306466Y-84747315D01*
X133229113Y-84776562D01*
X133229105Y-84776565D01*
X133148817Y-84819318D01*
X133074721Y-84871304D01*
X133000328Y-84937641D01*
X132934457Y-85011004D01*
X132874522Y-85093854D01*
X132825255Y-85179361D01*
X132800338Y-85243955D01*
X132762207Y-85342803D01*
X132748595Y-85444973D01*
X132745500Y-85468208D01*
X132742175Y-85474936D01*
X132480258Y-85736853D01*
X132471985Y-85740280D01*
X132463712Y-85736853D01*
X132460315Y-85729410D01*
X132457573Y-85690880D01*
X132457572Y-85690873D01*
X132439341Y-85587427D01*
X132439340Y-85587424D01*
X132439339Y-85587417D01*
X132407966Y-85473475D01*
X132314605Y-85243963D01*
X132314602Y-85243958D01*
X132314601Y-85243955D01*
X132249713Y-85134431D01*
X132197734Y-85046694D01*
X132197732Y-85046692D01*
X132197732Y-85046691D01*
X132072380Y-84897648D01*
X131946134Y-84796815D01*
X131946128Y-84796812D01*
X131821034Y-84739002D01*
X131821031Y-84739001D01*
X131718180Y-84723443D01*
X131710512Y-84718818D01*
X131708362Y-84710125D01*
X131711615Y-84703644D01*
X132579022Y-83827645D01*
X132587275Y-83824179D01*
X132595565Y-83827565D01*
G37*
%TD.AperFunction*%
%TD*%
%TA.AperFunction,Conductor*%
%TO.N,VCC*%
G36*
X152724352Y-123152665D02*
G01*
X152917639Y-123200085D01*
X152917766Y-123200117D01*
X153018007Y-123225908D01*
X153018008Y-123225908D01*
X153018011Y-123225909D01*
X153113042Y-123239239D01*
X153236949Y-123243602D01*
X153245095Y-123247318D01*
X153248236Y-123255295D01*
X153248236Y-123632992D01*
X153244809Y-123641265D01*
X153237248Y-123644670D01*
X153051958Y-123655970D01*
X153051950Y-123655972D01*
X152917694Y-123687901D01*
X152917653Y-123687910D01*
X152724365Y-123735331D01*
X152715513Y-123733974D01*
X152710214Y-123726756D01*
X152710117Y-123726324D01*
X152653469Y-123446318D01*
X152653469Y-123441680D01*
X152710110Y-123161708D01*
X152715109Y-123154282D01*
X152723897Y-123152563D01*
X152724352Y-123152665D01*
G37*
%TD.AperFunction*%
%TD*%
%TA.AperFunction,Conductor*%
%TO.N,Net-(J5-Pin_1)*%
G36*
X159450063Y-138902383D02*
G01*
X159455751Y-138909300D01*
X159456026Y-138910387D01*
X159512530Y-139189680D01*
X159512530Y-139194320D01*
X159456008Y-139473701D01*
X159451008Y-139481130D01*
X159442220Y-139482849D01*
X159441216Y-139482599D01*
X159387719Y-139466725D01*
X159308409Y-139443191D01*
X159306450Y-139442411D01*
X159209811Y-139393455D01*
X159209403Y-139393239D01*
X159182696Y-139378358D01*
X159076859Y-139334552D01*
X159076860Y-139334552D01*
X159007332Y-139321693D01*
X158928852Y-139317581D01*
X158920769Y-139313726D01*
X158917764Y-139305897D01*
X158917764Y-139078008D01*
X158921191Y-139069735D01*
X158928751Y-139066330D01*
X159019118Y-139060822D01*
X159095097Y-139044163D01*
X159209588Y-138990658D01*
X159297378Y-138945475D01*
X159299302Y-138944694D01*
X159441153Y-138901514D01*
X159450063Y-138902383D01*
G37*
%TD.AperFunction*%
%TD*%
%TA.AperFunction,Conductor*%
%TO.N,Net-(D5-K)*%
G36*
X161297565Y-83573565D02*
G01*
X162172116Y-84448116D01*
X162175543Y-84456389D01*
X162172116Y-84464662D01*
X162164791Y-84468050D01*
X162090319Y-84474106D01*
X162090297Y-84474109D01*
X162008466Y-84493315D01*
X161931113Y-84522562D01*
X161931105Y-84522565D01*
X161850817Y-84565318D01*
X161776721Y-84617304D01*
X161702328Y-84683641D01*
X161636457Y-84757004D01*
X161576522Y-84839854D01*
X161527255Y-84925361D01*
X161502338Y-84989955D01*
X161464207Y-85088803D01*
X161450595Y-85190973D01*
X161447500Y-85214208D01*
X161444175Y-85220936D01*
X161182258Y-85482853D01*
X161173985Y-85486280D01*
X161165712Y-85482853D01*
X161162315Y-85475410D01*
X161159573Y-85436880D01*
X161159572Y-85436873D01*
X161141341Y-85333427D01*
X161141340Y-85333424D01*
X161141339Y-85333417D01*
X161109966Y-85219475D01*
X161016605Y-84989963D01*
X161016602Y-84989958D01*
X161016601Y-84989955D01*
X160951713Y-84880431D01*
X160899734Y-84792694D01*
X160899732Y-84792692D01*
X160899732Y-84792691D01*
X160774380Y-84643648D01*
X160648134Y-84542815D01*
X160648128Y-84542812D01*
X160523034Y-84485002D01*
X160523031Y-84485001D01*
X160420180Y-84469443D01*
X160412512Y-84464818D01*
X160410362Y-84456125D01*
X160413615Y-84449644D01*
X161281022Y-83573645D01*
X161289275Y-83570179D01*
X161297565Y-83573565D01*
G37*
%TD.AperFunction*%
%TD*%
%TA.AperFunction,Conductor*%
%TO.N,Net-(U2-RS)*%
G36*
X142083379Y-97961191D02*
G01*
X142086776Y-97968631D01*
X142093199Y-98058572D01*
X142112534Y-98133770D01*
X142112534Y-98133772D01*
X142140618Y-98192886D01*
X142173922Y-98245211D01*
X142174147Y-98245578D01*
X142234114Y-98347930D01*
X142234919Y-98349594D01*
X142259235Y-98411939D01*
X142259668Y-98413283D01*
X142277175Y-98481540D01*
X142275911Y-98490405D01*
X142268749Y-98495780D01*
X142268162Y-98495915D01*
X141988320Y-98552530D01*
X141983680Y-98552530D01*
X141703867Y-98495921D01*
X141696438Y-98490921D01*
X141694719Y-98482133D01*
X141694856Y-98481540D01*
X141713366Y-98410105D01*
X141713814Y-98408737D01*
X141739467Y-98344496D01*
X141740257Y-98342889D01*
X141797852Y-98245578D01*
X141798069Y-98245227D01*
X141823978Y-98205310D01*
X141829557Y-98192886D01*
X141868336Y-98106518D01*
X141868337Y-98106517D01*
X141877816Y-98058574D01*
X141881292Y-98040989D01*
X141885376Y-97968803D01*
X141889264Y-97960737D01*
X141897057Y-97957764D01*
X142075106Y-97957764D01*
X142083379Y-97961191D01*
G37*
%TD.AperFunction*%
%TD*%
%TA.AperFunction,Conductor*%
%TO.N,VCC*%
G36*
X180786071Y-105374377D02*
G01*
X180791752Y-105381299D01*
X180792024Y-105382376D01*
X180848530Y-105661680D01*
X180848530Y-105666320D01*
X180792004Y-105945724D01*
X180787004Y-105953153D01*
X180778216Y-105954872D01*
X180777228Y-105954626D01*
X180644736Y-105915567D01*
X180642812Y-105914810D01*
X180546210Y-105866517D01*
X180545806Y-105866305D01*
X180520340Y-105852306D01*
X180413831Y-105808544D01*
X180413829Y-105808543D01*
X180343939Y-105795693D01*
X180343943Y-105795693D01*
X180264856Y-105791577D01*
X180256772Y-105787725D01*
X180253764Y-105779893D01*
X180253764Y-105548017D01*
X180257191Y-105539744D01*
X180264759Y-105536339D01*
X180355194Y-105530903D01*
X180431252Y-105514458D01*
X180545996Y-105461589D01*
X180632410Y-105417611D01*
X180634315Y-105416843D01*
X180777160Y-105373500D01*
X180786071Y-105374377D01*
G37*
%TD.AperFunction*%
%TD*%
%TA.AperFunction,Conductor*%
%TO.N,VCC*%
G36*
X152936289Y-123500110D02*
G01*
X152943717Y-123505109D01*
X152945436Y-123513897D01*
X152945331Y-123514365D01*
X152897914Y-123707637D01*
X152897882Y-123707764D01*
X152872092Y-123808005D01*
X152858761Y-123903040D01*
X152854398Y-124026948D01*
X152850682Y-124035095D01*
X152842705Y-124038236D01*
X152465008Y-124038236D01*
X152456735Y-124034809D01*
X152453330Y-124027248D01*
X152442029Y-123841959D01*
X152442028Y-123841956D01*
X152442028Y-123841951D01*
X152410099Y-123707696D01*
X152362668Y-123514364D01*
X152364025Y-123505513D01*
X152371243Y-123500214D01*
X152371665Y-123500119D01*
X152651682Y-123443469D01*
X152656318Y-123443469D01*
X152936289Y-123500110D01*
G37*
%TD.AperFunction*%
%TD*%
%TA.AperFunction,Conductor*%
%TO.N,Net-(J5-Pin_2)*%
G36*
X156277805Y-106287901D02*
G01*
X156965019Y-106423773D01*
X156972470Y-106428739D01*
X156974227Y-106432981D01*
X157110131Y-107120362D01*
X157108374Y-107129142D01*
X157100922Y-107134109D01*
X157100601Y-107134168D01*
X156912616Y-107165914D01*
X156912099Y-107165989D01*
X156749777Y-107185993D01*
X156576816Y-107209104D01*
X156576810Y-107209105D01*
X156481389Y-107235527D01*
X156423058Y-107251680D01*
X156423057Y-107251680D01*
X156423055Y-107251681D01*
X156423050Y-107251683D01*
X156347662Y-107287494D01*
X156268739Y-107337121D01*
X156167929Y-107416745D01*
X156167925Y-107416748D01*
X156061615Y-107516498D01*
X156053237Y-107519660D01*
X156045336Y-107516239D01*
X155881528Y-107352431D01*
X155878101Y-107344158D01*
X155881037Y-107336406D01*
X155924299Y-107287497D01*
X156045663Y-107150292D01*
X156101221Y-107066704D01*
X156141079Y-106987630D01*
X156187393Y-106829378D01*
X156194768Y-106775095D01*
X156195050Y-106773693D01*
X156202500Y-106745892D01*
X156202500Y-106718974D01*
X156202607Y-106717399D01*
X156211997Y-106648289D01*
X156211997Y-106648281D01*
X156212002Y-106648251D01*
X156218001Y-106595960D01*
X156218054Y-106595573D01*
X156263976Y-106297595D01*
X156268621Y-106289943D01*
X156277320Y-106287817D01*
X156277805Y-106287901D01*
G37*
%TD.AperFunction*%
%TD*%
%TA.AperFunction,Conductor*%
%TO.N,VCC*%
G36*
X166136670Y-123290401D02*
G01*
X166137044Y-123290639D01*
X166371281Y-123446046D01*
X166375092Y-123448575D01*
X166378373Y-123451856D01*
X166536290Y-123689874D01*
X166538009Y-123698662D01*
X166533009Y-123706091D01*
X166532605Y-123706348D01*
X166362443Y-123809465D01*
X166362330Y-123809533D01*
X166273174Y-123862201D01*
X166196555Y-123919969D01*
X166105855Y-124004499D01*
X166097466Y-124007633D01*
X166089605Y-124004213D01*
X165822532Y-123737140D01*
X165819105Y-123728867D01*
X165822043Y-123721115D01*
X165945077Y-123582098D01*
X166017432Y-123464589D01*
X166027137Y-123448575D01*
X166039279Y-123428537D01*
X166120601Y-123294342D01*
X166127818Y-123289044D01*
X166136670Y-123290401D01*
G37*
%TD.AperFunction*%
%TD*%
%TA.AperFunction,Conductor*%
%TO.N,Net-(J5-Pin_1)*%
G36*
X154205612Y-134167973D02*
G01*
X154205701Y-134167991D01*
X154213130Y-134172991D01*
X154214849Y-134181779D01*
X154214598Y-134182787D01*
X154175192Y-134315589D01*
X154174412Y-134317548D01*
X154125455Y-134414186D01*
X154125239Y-134414594D01*
X154110358Y-134441302D01*
X154066552Y-134547139D01*
X154053693Y-134616666D01*
X154049581Y-134695148D01*
X154045726Y-134703231D01*
X154037897Y-134706236D01*
X153810008Y-134706236D01*
X153801735Y-134702809D01*
X153798330Y-134695248D01*
X153792822Y-134604880D01*
X153792822Y-134604878D01*
X153776163Y-134528906D01*
X153776162Y-134528905D01*
X153776162Y-134528902D01*
X153722658Y-134414411D01*
X153677477Y-134326624D01*
X153676693Y-134324692D01*
X153633514Y-134182846D01*
X153634383Y-134173936D01*
X153641300Y-134168248D01*
X153642382Y-134167974D01*
X153921682Y-134111469D01*
X153926318Y-134111469D01*
X154205612Y-134167973D01*
G37*
%TD.AperFunction*%
%TD*%
%TA.AperFunction,Conductor*%
%TO.N,Net-(U1-RS)*%
G36*
X169330753Y-94766235D02*
G01*
X169398897Y-94825294D01*
X169465746Y-94864797D01*
X169465749Y-94864798D01*
X169465748Y-94864798D01*
X169488036Y-94872729D01*
X169527397Y-94886736D01*
X169588013Y-94900201D01*
X169588375Y-94900289D01*
X169703141Y-94930256D01*
X169704877Y-94930859D01*
X169746891Y-94949297D01*
X169766176Y-94957760D01*
X169767432Y-94958405D01*
X169828070Y-94994286D01*
X169833445Y-95001448D01*
X169832181Y-95010313D01*
X169831861Y-95010823D01*
X169674015Y-95248734D01*
X169670734Y-95252015D01*
X169432848Y-95409844D01*
X169424060Y-95411563D01*
X169416631Y-95406563D01*
X169416308Y-95406047D01*
X169378891Y-95342456D01*
X169378226Y-95341141D01*
X169350951Y-95277604D01*
X169350369Y-95275895D01*
X169322301Y-95166424D01*
X169322190Y-95165953D01*
X169312287Y-95119420D01*
X169273795Y-95018194D01*
X169236622Y-94962701D01*
X169188466Y-94908770D01*
X169185512Y-94900316D01*
X169188919Y-94892705D01*
X169314820Y-94766804D01*
X169323092Y-94763378D01*
X169330753Y-94766235D01*
G37*
%TD.AperFunction*%
%TD*%
%TA.AperFunction,Conductor*%
%TO.N,Net-(D10-K)*%
G36*
X141207476Y-93933685D02*
G01*
X141346493Y-94056719D01*
X141346495Y-94056720D01*
X141464038Y-94129097D01*
X141634247Y-94232242D01*
X141639546Y-94239460D01*
X141638189Y-94248312D01*
X141637932Y-94248716D01*
X141480015Y-94486734D01*
X141476734Y-94490015D01*
X141238716Y-94647932D01*
X141229928Y-94649651D01*
X141222499Y-94644651D01*
X141222242Y-94644247D01*
X141119124Y-94474083D01*
X141119056Y-94473970D01*
X141066392Y-94384820D01*
X141008620Y-94308197D01*
X140924090Y-94217495D01*
X140920957Y-94209108D01*
X140924376Y-94201248D01*
X141191451Y-93934173D01*
X141199723Y-93930747D01*
X141207476Y-93933685D01*
G37*
%TD.AperFunction*%
%TD*%
%TA.AperFunction,Conductor*%
%TO.N,VCC*%
G36*
X164886236Y-96324527D02*
G01*
X164843273Y-96470262D01*
X164794411Y-96568003D01*
X164780307Y-96593658D01*
X164736544Y-96700170D01*
X164725020Y-96762840D01*
X164725019Y-96762841D01*
X164723693Y-96770057D01*
X164723693Y-96770058D01*
X164719577Y-96849144D01*
X164715725Y-96857228D01*
X164707893Y-96860236D01*
X164476018Y-96860236D01*
X164467745Y-96856809D01*
X164464339Y-96849238D01*
X164463464Y-96834683D01*
X164458903Y-96758806D01*
X164442458Y-96682748D01*
X164389589Y-96568003D01*
X164345144Y-96480670D01*
X164297764Y-96324527D01*
X164592000Y-96265000D01*
X164886236Y-96324527D01*
G37*
%TD.AperFunction*%
%TD*%
M02*
