%TF.GenerationSoftware,KiCad,Pcbnew,9.0.6*%
%TF.CreationDate,2026-01-06T23:31:54+01:00*%
%TF.ProjectId,uMule_transmiter,754d756c-655f-4747-9261-6e736d697465,rev?*%
%TF.SameCoordinates,Original*%
%TF.FileFunction,Legend,Bot*%
%TF.FilePolarity,Positive*%
%FSLAX46Y46*%
G04 Gerber Fmt 4.6, Leading zero omitted, Abs format (unit mm)*
G04 Created by KiCad (PCBNEW 9.0.6) date 2026-01-06 23:31:54*
%MOMM*%
%LPD*%
G01*
G04 APERTURE LIST*
G04 Aperture macros list*
%AMRoundRect*
0 Rectangle with rounded corners*
0 $1 Rounding radius*
0 $2 $3 $4 $5 $6 $7 $8 $9 X,Y pos of 4 corners*
0 Add a 4 corners polygon primitive as box body*
4,1,4,$2,$3,$4,$5,$6,$7,$8,$9,$2,$3,0*
0 Add four circle primitives for the rounded corners*
1,1,$1+$1,$2,$3*
1,1,$1+$1,$4,$5*
1,1,$1+$1,$6,$7*
1,1,$1+$1,$8,$9*
0 Add four rect primitives between the rounded corners*
20,1,$1+$1,$2,$3,$4,$5,0*
20,1,$1+$1,$4,$5,$6,$7,0*
20,1,$1+$1,$6,$7,$8,$9,0*
20,1,$1+$1,$8,$9,$2,$3,0*%
G04 Aperture macros list end*
%ADD10C,0.200000*%
%ADD11C,0.000000*%
%ADD12C,0.120000*%
%ADD13RoundRect,0.250000X1.550000X-0.650000X1.550000X0.650000X-1.550000X0.650000X-1.550000X-0.650000X0*%
%ADD14O,3.600000X1.800000*%
%ADD15C,0.800000*%
%ADD16C,6.400000*%
%ADD17C,1.440000*%
%ADD18R,1.700000X1.700000*%
%ADD19C,1.700000*%
%ADD20R,1.800000X1.800000*%
%ADD21C,1.800000*%
%ADD22C,1.600000*%
%ADD23RoundRect,0.250000X0.650000X1.550000X-0.650000X1.550000X-0.650000X-1.550000X0.650000X-1.550000X0*%
%ADD24O,1.800000X3.600000*%
G04 APERTURE END LIST*
D10*
X167742445Y-76920775D02*
X167742445Y-77111251D01*
X167361493Y-76920775D02*
X167361493Y-77111251D01*
X166932921Y-77920775D02*
X166932921Y-76920775D01*
X166932921Y-76920775D02*
X166551969Y-76920775D01*
X166551969Y-76920775D02*
X166456731Y-76968394D01*
X166456731Y-76968394D02*
X166409112Y-77016013D01*
X166409112Y-77016013D02*
X166361493Y-77111251D01*
X166361493Y-77111251D02*
X166361493Y-77254108D01*
X166361493Y-77254108D02*
X166409112Y-77349346D01*
X166409112Y-77349346D02*
X166456731Y-77396965D01*
X166456731Y-77396965D02*
X166551969Y-77444584D01*
X166551969Y-77444584D02*
X166932921Y-77444584D01*
X166028159Y-77254108D02*
X165790064Y-77920775D01*
X165551969Y-77254108D02*
X165790064Y-77920775D01*
X165790064Y-77920775D02*
X165885302Y-78158870D01*
X165885302Y-78158870D02*
X165932921Y-78206489D01*
X165932921Y-78206489D02*
X166028159Y-78254108D01*
X165171016Y-77920775D02*
X165171016Y-76920775D01*
X165075778Y-77539822D02*
X164790064Y-77920775D01*
X164790064Y-77254108D02*
X165171016Y-77635060D01*
X163456730Y-77920775D02*
X163551968Y-77873156D01*
X163551968Y-77873156D02*
X163599587Y-77777917D01*
X163599587Y-77777917D02*
X163599587Y-76920775D01*
X162647206Y-77920775D02*
X162647206Y-77396965D01*
X162647206Y-77396965D02*
X162694825Y-77301727D01*
X162694825Y-77301727D02*
X162790063Y-77254108D01*
X162790063Y-77254108D02*
X162980539Y-77254108D01*
X162980539Y-77254108D02*
X163075777Y-77301727D01*
X162647206Y-77873156D02*
X162742444Y-77920775D01*
X162742444Y-77920775D02*
X162980539Y-77920775D01*
X162980539Y-77920775D02*
X163075777Y-77873156D01*
X163075777Y-77873156D02*
X163123396Y-77777917D01*
X163123396Y-77777917D02*
X163123396Y-77682679D01*
X163123396Y-77682679D02*
X163075777Y-77587441D01*
X163075777Y-77587441D02*
X162980539Y-77539822D01*
X162980539Y-77539822D02*
X162742444Y-77539822D01*
X162742444Y-77539822D02*
X162647206Y-77492203D01*
X162218634Y-77873156D02*
X162123396Y-77920775D01*
X162123396Y-77920775D02*
X161932920Y-77920775D01*
X161932920Y-77920775D02*
X161837682Y-77873156D01*
X161837682Y-77873156D02*
X161790063Y-77777917D01*
X161790063Y-77777917D02*
X161790063Y-77730298D01*
X161790063Y-77730298D02*
X161837682Y-77635060D01*
X161837682Y-77635060D02*
X161932920Y-77587441D01*
X161932920Y-77587441D02*
X162075777Y-77587441D01*
X162075777Y-77587441D02*
X162171015Y-77539822D01*
X162171015Y-77539822D02*
X162218634Y-77444584D01*
X162218634Y-77444584D02*
X162218634Y-77396965D01*
X162218634Y-77396965D02*
X162171015Y-77301727D01*
X162171015Y-77301727D02*
X162075777Y-77254108D01*
X162075777Y-77254108D02*
X161932920Y-77254108D01*
X161932920Y-77254108D02*
X161837682Y-77301727D01*
X160980539Y-77873156D02*
X161075777Y-77920775D01*
X161075777Y-77920775D02*
X161266253Y-77920775D01*
X161266253Y-77920775D02*
X161361491Y-77873156D01*
X161361491Y-77873156D02*
X161409110Y-77777917D01*
X161409110Y-77777917D02*
X161409110Y-77396965D01*
X161409110Y-77396965D02*
X161361491Y-77301727D01*
X161361491Y-77301727D02*
X161266253Y-77254108D01*
X161266253Y-77254108D02*
X161075777Y-77254108D01*
X161075777Y-77254108D02*
X160980539Y-77301727D01*
X160980539Y-77301727D02*
X160932920Y-77396965D01*
X160932920Y-77396965D02*
X160932920Y-77492203D01*
X160932920Y-77492203D02*
X161409110Y-77587441D01*
X160504348Y-77920775D02*
X160504348Y-77254108D01*
X160504348Y-77444584D02*
X160456729Y-77349346D01*
X160456729Y-77349346D02*
X160409110Y-77301727D01*
X160409110Y-77301727D02*
X160313872Y-77254108D01*
X160313872Y-77254108D02*
X160218634Y-77254108D01*
X159885300Y-77920775D02*
X159885300Y-76920775D01*
X159790062Y-77539822D02*
X159504348Y-77920775D01*
X159504348Y-77254108D02*
X159885300Y-77635060D01*
X159075776Y-77920775D02*
X159075776Y-77254108D01*
X159075776Y-76920775D02*
X159123395Y-76968394D01*
X159123395Y-76968394D02*
X159075776Y-77016013D01*
X159075776Y-77016013D02*
X159028157Y-76968394D01*
X159028157Y-76968394D02*
X159075776Y-76920775D01*
X159075776Y-76920775D02*
X159075776Y-77016013D01*
X158218634Y-77873156D02*
X158313872Y-77920775D01*
X158313872Y-77920775D02*
X158504348Y-77920775D01*
X158504348Y-77920775D02*
X158599586Y-77873156D01*
X158599586Y-77873156D02*
X158647205Y-77777917D01*
X158647205Y-77777917D02*
X158647205Y-77396965D01*
X158647205Y-77396965D02*
X158599586Y-77301727D01*
X158599586Y-77301727D02*
X158504348Y-77254108D01*
X158504348Y-77254108D02*
X158313872Y-77254108D01*
X158313872Y-77254108D02*
X158218634Y-77301727D01*
X158218634Y-77301727D02*
X158171015Y-77396965D01*
X158171015Y-77396965D02*
X158171015Y-77492203D01*
X158171015Y-77492203D02*
X158647205Y-77587441D01*
X157742443Y-77920775D02*
X157742443Y-77254108D01*
X157742443Y-77349346D02*
X157694824Y-77301727D01*
X157694824Y-77301727D02*
X157599586Y-77254108D01*
X157599586Y-77254108D02*
X157456729Y-77254108D01*
X157456729Y-77254108D02*
X157361491Y-77301727D01*
X157361491Y-77301727D02*
X157313872Y-77396965D01*
X157313872Y-77396965D02*
X157313872Y-77920775D01*
X157313872Y-77396965D02*
X157266253Y-77301727D01*
X157266253Y-77301727D02*
X157171015Y-77254108D01*
X157171015Y-77254108D02*
X157028158Y-77254108D01*
X157028158Y-77254108D02*
X156932919Y-77301727D01*
X156932919Y-77301727D02*
X156885300Y-77396965D01*
X156885300Y-77396965D02*
X156885300Y-77920775D01*
X155647205Y-77920775D02*
X155647205Y-76920775D01*
X155647205Y-77301727D02*
X155551967Y-77254108D01*
X155551967Y-77254108D02*
X155361491Y-77254108D01*
X155361491Y-77254108D02*
X155266253Y-77301727D01*
X155266253Y-77301727D02*
X155218634Y-77349346D01*
X155218634Y-77349346D02*
X155171015Y-77444584D01*
X155171015Y-77444584D02*
X155171015Y-77730298D01*
X155171015Y-77730298D02*
X155218634Y-77825536D01*
X155218634Y-77825536D02*
X155266253Y-77873156D01*
X155266253Y-77873156D02*
X155361491Y-77920775D01*
X155361491Y-77920775D02*
X155551967Y-77920775D01*
X155551967Y-77920775D02*
X155647205Y-77873156D01*
X154837681Y-77254108D02*
X154599586Y-77920775D01*
X154361491Y-77254108D02*
X154599586Y-77920775D01*
X154599586Y-77920775D02*
X154694824Y-78158870D01*
X154694824Y-78158870D02*
X154742443Y-78206489D01*
X154742443Y-78206489D02*
X154837681Y-78254108D01*
X153837681Y-77920775D02*
X153932919Y-77873156D01*
X153932919Y-77873156D02*
X153980538Y-77777917D01*
X153980538Y-77777917D02*
X153980538Y-76920775D01*
X153075776Y-77873156D02*
X153171014Y-77920775D01*
X153171014Y-77920775D02*
X153361490Y-77920775D01*
X153361490Y-77920775D02*
X153456728Y-77873156D01*
X153456728Y-77873156D02*
X153504347Y-77777917D01*
X153504347Y-77777917D02*
X153504347Y-77396965D01*
X153504347Y-77396965D02*
X153456728Y-77301727D01*
X153456728Y-77301727D02*
X153361490Y-77254108D01*
X153361490Y-77254108D02*
X153171014Y-77254108D01*
X153171014Y-77254108D02*
X153075776Y-77301727D01*
X153075776Y-77301727D02*
X153028157Y-77396965D01*
X153028157Y-77396965D02*
X153028157Y-77492203D01*
X153028157Y-77492203D02*
X153504347Y-77587441D01*
X151409109Y-77254108D02*
X151409109Y-78063632D01*
X151409109Y-78063632D02*
X151456728Y-78158870D01*
X151456728Y-78158870D02*
X151504347Y-78206489D01*
X151504347Y-78206489D02*
X151599585Y-78254108D01*
X151599585Y-78254108D02*
X151742442Y-78254108D01*
X151742442Y-78254108D02*
X151837680Y-78206489D01*
X151409109Y-77873156D02*
X151504347Y-77920775D01*
X151504347Y-77920775D02*
X151694823Y-77920775D01*
X151694823Y-77920775D02*
X151790061Y-77873156D01*
X151790061Y-77873156D02*
X151837680Y-77825536D01*
X151837680Y-77825536D02*
X151885299Y-77730298D01*
X151885299Y-77730298D02*
X151885299Y-77444584D01*
X151885299Y-77444584D02*
X151837680Y-77349346D01*
X151837680Y-77349346D02*
X151790061Y-77301727D01*
X151790061Y-77301727D02*
X151694823Y-77254108D01*
X151694823Y-77254108D02*
X151504347Y-77254108D01*
X151504347Y-77254108D02*
X151409109Y-77301727D01*
X150504347Y-77920775D02*
X150504347Y-76920775D01*
X150504347Y-77873156D02*
X150599585Y-77920775D01*
X150599585Y-77920775D02*
X150790061Y-77920775D01*
X150790061Y-77920775D02*
X150885299Y-77873156D01*
X150885299Y-77873156D02*
X150932918Y-77825536D01*
X150932918Y-77825536D02*
X150980537Y-77730298D01*
X150980537Y-77730298D02*
X150980537Y-77444584D01*
X150980537Y-77444584D02*
X150932918Y-77349346D01*
X150932918Y-77349346D02*
X150885299Y-77301727D01*
X150885299Y-77301727D02*
X150790061Y-77254108D01*
X150790061Y-77254108D02*
X150599585Y-77254108D01*
X150599585Y-77254108D02*
X150504347Y-77301727D01*
X150123394Y-77254108D02*
X149599585Y-77254108D01*
X149599585Y-77254108D02*
X150123394Y-77920775D01*
X150123394Y-77920775D02*
X149599585Y-77920775D01*
X149218632Y-77920775D02*
X149218632Y-77254108D01*
X149218632Y-76920775D02*
X149266251Y-76968394D01*
X149266251Y-76968394D02*
X149218632Y-77016013D01*
X149218632Y-77016013D02*
X149171013Y-76968394D01*
X149171013Y-76968394D02*
X149218632Y-76920775D01*
X149218632Y-76920775D02*
X149218632Y-77016013D01*
X148361490Y-77873156D02*
X148456728Y-77920775D01*
X148456728Y-77920775D02*
X148647204Y-77920775D01*
X148647204Y-77920775D02*
X148742442Y-77873156D01*
X148742442Y-77873156D02*
X148790061Y-77777917D01*
X148790061Y-77777917D02*
X148790061Y-77396965D01*
X148790061Y-77396965D02*
X148742442Y-77301727D01*
X148742442Y-77301727D02*
X148647204Y-77254108D01*
X148647204Y-77254108D02*
X148456728Y-77254108D01*
X148456728Y-77254108D02*
X148361490Y-77301727D01*
X148361490Y-77301727D02*
X148313871Y-77396965D01*
X148313871Y-77396965D02*
X148313871Y-77492203D01*
X148313871Y-77492203D02*
X148790061Y-77587441D01*
X147837680Y-77873156D02*
X147837680Y-77920775D01*
X147837680Y-77920775D02*
X147885299Y-78016013D01*
X147885299Y-78016013D02*
X147932918Y-78063632D01*
X167694826Y-78864052D02*
X167694826Y-79530719D01*
X167694826Y-78959290D02*
X167647207Y-78911671D01*
X167647207Y-78911671D02*
X167551969Y-78864052D01*
X167551969Y-78864052D02*
X167409112Y-78864052D01*
X167409112Y-78864052D02*
X167313874Y-78911671D01*
X167313874Y-78911671D02*
X167266255Y-79006909D01*
X167266255Y-79006909D02*
X167266255Y-79530719D01*
X166361493Y-79530719D02*
X166361493Y-79006909D01*
X166361493Y-79006909D02*
X166409112Y-78911671D01*
X166409112Y-78911671D02*
X166504350Y-78864052D01*
X166504350Y-78864052D02*
X166694826Y-78864052D01*
X166694826Y-78864052D02*
X166790064Y-78911671D01*
X166361493Y-79483100D02*
X166456731Y-79530719D01*
X166456731Y-79530719D02*
X166694826Y-79530719D01*
X166694826Y-79530719D02*
X166790064Y-79483100D01*
X166790064Y-79483100D02*
X166837683Y-79387861D01*
X166837683Y-79387861D02*
X166837683Y-79292623D01*
X166837683Y-79292623D02*
X166790064Y-79197385D01*
X166790064Y-79197385D02*
X166694826Y-79149766D01*
X166694826Y-79149766D02*
X166456731Y-79149766D01*
X166456731Y-79149766D02*
X166361493Y-79102147D01*
X164980540Y-79530719D02*
X165075778Y-79483100D01*
X165075778Y-79483100D02*
X165123397Y-79435480D01*
X165123397Y-79435480D02*
X165171016Y-79340242D01*
X165171016Y-79340242D02*
X165171016Y-79054528D01*
X165171016Y-79054528D02*
X165123397Y-78959290D01*
X165123397Y-78959290D02*
X165075778Y-78911671D01*
X165075778Y-78911671D02*
X164980540Y-78864052D01*
X164980540Y-78864052D02*
X164837683Y-78864052D01*
X164837683Y-78864052D02*
X164742445Y-78911671D01*
X164742445Y-78911671D02*
X164694826Y-78959290D01*
X164694826Y-78959290D02*
X164647207Y-79054528D01*
X164647207Y-79054528D02*
X164647207Y-79340242D01*
X164647207Y-79340242D02*
X164694826Y-79435480D01*
X164694826Y-79435480D02*
X164742445Y-79483100D01*
X164742445Y-79483100D02*
X164837683Y-79530719D01*
X164837683Y-79530719D02*
X164980540Y-79530719D01*
X164266254Y-79483100D02*
X164171016Y-79530719D01*
X164171016Y-79530719D02*
X163980540Y-79530719D01*
X163980540Y-79530719D02*
X163885302Y-79483100D01*
X163885302Y-79483100D02*
X163837683Y-79387861D01*
X163837683Y-79387861D02*
X163837683Y-79340242D01*
X163837683Y-79340242D02*
X163885302Y-79245004D01*
X163885302Y-79245004D02*
X163980540Y-79197385D01*
X163980540Y-79197385D02*
X164123397Y-79197385D01*
X164123397Y-79197385D02*
X164218635Y-79149766D01*
X164218635Y-79149766D02*
X164266254Y-79054528D01*
X164266254Y-79054528D02*
X164266254Y-79006909D01*
X164266254Y-79006909D02*
X164218635Y-78911671D01*
X164218635Y-78911671D02*
X164123397Y-78864052D01*
X164123397Y-78864052D02*
X163980540Y-78864052D01*
X163980540Y-78864052D02*
X163885302Y-78911671D01*
X163980540Y-78483100D02*
X164123397Y-78625957D01*
X163266254Y-79530719D02*
X163361492Y-79483100D01*
X163361492Y-79483100D02*
X163409111Y-79387861D01*
X163409111Y-79387861D02*
X163409111Y-78530719D01*
X162504349Y-79483100D02*
X162599587Y-79530719D01*
X162599587Y-79530719D02*
X162790063Y-79530719D01*
X162790063Y-79530719D02*
X162885301Y-79483100D01*
X162885301Y-79483100D02*
X162932920Y-79387861D01*
X162932920Y-79387861D02*
X162932920Y-79006909D01*
X162932920Y-79006909D02*
X162885301Y-78911671D01*
X162885301Y-78911671D02*
X162790063Y-78864052D01*
X162790063Y-78864052D02*
X162599587Y-78864052D01*
X162599587Y-78864052D02*
X162504349Y-78911671D01*
X162504349Y-78911671D02*
X162456730Y-79006909D01*
X162456730Y-79006909D02*
X162456730Y-79102147D01*
X162456730Y-79102147D02*
X162932920Y-79197385D01*
X162028158Y-78864052D02*
X162028158Y-79864052D01*
X162028158Y-78911671D02*
X161932920Y-78864052D01*
X161932920Y-78864052D02*
X161742444Y-78864052D01*
X161742444Y-78864052D02*
X161647206Y-78911671D01*
X161647206Y-78911671D02*
X161599587Y-78959290D01*
X161599587Y-78959290D02*
X161551968Y-79054528D01*
X161551968Y-79054528D02*
X161551968Y-79340242D01*
X161551968Y-79340242D02*
X161599587Y-79435480D01*
X161599587Y-79435480D02*
X161647206Y-79483100D01*
X161647206Y-79483100D02*
X161742444Y-79530719D01*
X161742444Y-79530719D02*
X161932920Y-79530719D01*
X161932920Y-79530719D02*
X162028158Y-79483100D01*
X160361491Y-79530719D02*
X160361491Y-78864052D01*
X160361491Y-78530719D02*
X160409110Y-78578338D01*
X160409110Y-78578338D02*
X160361491Y-78625957D01*
X160361491Y-78625957D02*
X160313872Y-78578338D01*
X160313872Y-78578338D02*
X160361491Y-78530719D01*
X160361491Y-78530719D02*
X160361491Y-78625957D01*
X159266253Y-78864052D02*
X158885301Y-78864052D01*
X159123396Y-78530719D02*
X159123396Y-79387861D01*
X159123396Y-79387861D02*
X159075777Y-79483100D01*
X159075777Y-79483100D02*
X158980539Y-79530719D01*
X158980539Y-79530719D02*
X158885301Y-79530719D01*
X158123396Y-79530719D02*
X158123396Y-79006909D01*
X158123396Y-79006909D02*
X158171015Y-78911671D01*
X158171015Y-78911671D02*
X158266253Y-78864052D01*
X158266253Y-78864052D02*
X158456729Y-78864052D01*
X158456729Y-78864052D02*
X158551967Y-78911671D01*
X158123396Y-79483100D02*
X158218634Y-79530719D01*
X158218634Y-79530719D02*
X158456729Y-79530719D01*
X158456729Y-79530719D02*
X158551967Y-79483100D01*
X158551967Y-79483100D02*
X158599586Y-79387861D01*
X158599586Y-79387861D02*
X158599586Y-79292623D01*
X158599586Y-79292623D02*
X158551967Y-79197385D01*
X158551967Y-79197385D02*
X158456729Y-79149766D01*
X158456729Y-79149766D02*
X158218634Y-79149766D01*
X158218634Y-79149766D02*
X158123396Y-79102147D01*
X157647205Y-79530719D02*
X157647205Y-78530719D01*
X157551967Y-79149766D02*
X157266253Y-79530719D01*
X157266253Y-78864052D02*
X157647205Y-79245004D01*
X156075776Y-78864052D02*
X156075776Y-79530719D01*
X156075776Y-78959290D02*
X156028157Y-78911671D01*
X156028157Y-78911671D02*
X155932919Y-78864052D01*
X155932919Y-78864052D02*
X155790062Y-78864052D01*
X155790062Y-78864052D02*
X155694824Y-78911671D01*
X155694824Y-78911671D02*
X155647205Y-79006909D01*
X155647205Y-79006909D02*
X155647205Y-79530719D01*
X155171014Y-79530719D02*
X155171014Y-78864052D01*
X155171014Y-78530719D02*
X155218633Y-78578338D01*
X155218633Y-78578338D02*
X155171014Y-78625957D01*
X155171014Y-78625957D02*
X155123395Y-78578338D01*
X155123395Y-78578338D02*
X155171014Y-78530719D01*
X155171014Y-78530719D02*
X155171014Y-78625957D01*
X154313872Y-79483100D02*
X154409110Y-79530719D01*
X154409110Y-79530719D02*
X154599586Y-79530719D01*
X154599586Y-79530719D02*
X154694824Y-79483100D01*
X154694824Y-79483100D02*
X154742443Y-79387861D01*
X154742443Y-79387861D02*
X154742443Y-79006909D01*
X154742443Y-79006909D02*
X154694824Y-78911671D01*
X154694824Y-78911671D02*
X154599586Y-78864052D01*
X154599586Y-78864052D02*
X154409110Y-78864052D01*
X154409110Y-78864052D02*
X154313872Y-78911671D01*
X154313872Y-78911671D02*
X154266253Y-79006909D01*
X154266253Y-79006909D02*
X154266253Y-79102147D01*
X154266253Y-79102147D02*
X154742443Y-79197385D01*
X153218633Y-78864052D02*
X152837681Y-78864052D01*
X153075776Y-78530719D02*
X153075776Y-79387861D01*
X153075776Y-79387861D02*
X153028157Y-79483100D01*
X153028157Y-79483100D02*
X152932919Y-79530719D01*
X152932919Y-79530719D02*
X152837681Y-79530719D01*
X152504347Y-79530719D02*
X152504347Y-78864052D01*
X152504347Y-79054528D02*
X152456728Y-78959290D01*
X152456728Y-78959290D02*
X152409109Y-78911671D01*
X152409109Y-78911671D02*
X152313871Y-78864052D01*
X152313871Y-78864052D02*
X152218633Y-78864052D01*
X151456728Y-79530719D02*
X151456728Y-79006909D01*
X151456728Y-79006909D02*
X151504347Y-78911671D01*
X151504347Y-78911671D02*
X151599585Y-78864052D01*
X151599585Y-78864052D02*
X151790061Y-78864052D01*
X151790061Y-78864052D02*
X151885299Y-78911671D01*
X151456728Y-79483100D02*
X151551966Y-79530719D01*
X151551966Y-79530719D02*
X151790061Y-79530719D01*
X151790061Y-79530719D02*
X151885299Y-79483100D01*
X151885299Y-79483100D02*
X151932918Y-79387861D01*
X151932918Y-79387861D02*
X151932918Y-79292623D01*
X151932918Y-79292623D02*
X151885299Y-79197385D01*
X151885299Y-79197385D02*
X151790061Y-79149766D01*
X151790061Y-79149766D02*
X151551966Y-79149766D01*
X151551966Y-79149766D02*
X151456728Y-79102147D01*
X151123394Y-78864052D02*
X150742442Y-78864052D01*
X150980537Y-79530719D02*
X150980537Y-78673576D01*
X150980537Y-78673576D02*
X150932918Y-78578338D01*
X150932918Y-78578338D02*
X150837680Y-78530719D01*
X150837680Y-78530719D02*
X150742442Y-78530719D01*
X150409108Y-79530719D02*
X150409108Y-78864052D01*
X150409108Y-78530719D02*
X150456727Y-78578338D01*
X150456727Y-78578338D02*
X150409108Y-78625957D01*
X150409108Y-78625957D02*
X150361489Y-78578338D01*
X150361489Y-78578338D02*
X150409108Y-78530719D01*
X150409108Y-78530719D02*
X150409108Y-78625957D01*
X149551966Y-79483100D02*
X149647204Y-79530719D01*
X149647204Y-79530719D02*
X149837680Y-79530719D01*
X149837680Y-79530719D02*
X149932918Y-79483100D01*
X149932918Y-79483100D02*
X149980537Y-79387861D01*
X149980537Y-79387861D02*
X149980537Y-79006909D01*
X149980537Y-79006909D02*
X149932918Y-78911671D01*
X149932918Y-78911671D02*
X149837680Y-78864052D01*
X149837680Y-78864052D02*
X149647204Y-78864052D01*
X149647204Y-78864052D02*
X149551966Y-78911671D01*
X149551966Y-78911671D02*
X149504347Y-79006909D01*
X149504347Y-79006909D02*
X149504347Y-79102147D01*
X149504347Y-79102147D02*
X149980537Y-79197385D01*
X149742442Y-79530719D02*
X149837680Y-79625957D01*
X149837680Y-79625957D02*
X149885299Y-79721195D01*
X149885299Y-79721195D02*
X149837680Y-79816433D01*
X149837680Y-79816433D02*
X149742442Y-79864052D01*
X149742442Y-79864052D02*
X149647204Y-79864052D01*
X149123394Y-78530719D02*
X149123394Y-78721195D01*
X148742442Y-78530719D02*
X148742442Y-78721195D01*
D11*
%TO.C,G\u002A\u002A\u002A*%
G36*
X159850667Y-86825666D02*
G01*
X159808334Y-86867999D01*
X159766001Y-86825666D01*
X159808334Y-86783333D01*
X159850667Y-86825666D01*
G37*
G36*
X159850667Y-86994999D02*
G01*
X159808334Y-87037333D01*
X159766001Y-86994999D01*
X159808334Y-86952666D01*
X159850667Y-86994999D01*
G37*
G36*
X152117779Y-91976221D02*
G01*
X152131024Y-92001688D01*
X152061334Y-92032666D01*
X152016512Y-92026556D01*
X152004890Y-91976221D01*
X152017299Y-91966088D01*
X152117779Y-91976221D01*
G37*
G36*
X160020001Y-86952666D02*
G01*
X160013891Y-86997488D01*
X159963556Y-87009110D01*
X159953423Y-86996701D01*
X159963556Y-86896221D01*
X159989023Y-86882976D01*
X160020001Y-86952666D01*
G37*
G36*
X150568200Y-91421621D02*
G01*
X150576052Y-91530516D01*
X150508983Y-91597771D01*
X150425969Y-91591552D01*
X150421863Y-91482819D01*
X150456760Y-91425769D01*
X150547587Y-91404002D01*
X150568200Y-91421621D01*
G37*
G36*
X150960667Y-92874336D02*
G01*
X150957414Y-92898911D01*
X150876001Y-92963999D01*
X150856840Y-92963028D01*
X150791334Y-92926663D01*
X150795230Y-92913081D01*
X150876001Y-92836999D01*
X150908798Y-92823770D01*
X150960667Y-92874336D01*
G37*
G36*
X154960238Y-95167793D02*
G01*
X155024667Y-95249999D01*
X155022207Y-95270237D01*
X154940001Y-95334666D01*
X154919763Y-95332206D01*
X154855334Y-95249999D01*
X154857794Y-95229762D01*
X154940001Y-95165333D01*
X154960238Y-95167793D01*
G37*
G36*
X152096745Y-94201179D02*
G01*
X152010224Y-94347153D01*
X152004169Y-94355389D01*
X151872253Y-94506179D01*
X151775841Y-94570005D01*
X151759877Y-94566315D01*
X151765268Y-94493136D01*
X151841740Y-94366382D01*
X151952262Y-94239004D01*
X152059803Y-94163954D01*
X152070985Y-94160861D01*
X152096745Y-94201179D01*
G37*
G36*
X152823334Y-90508666D02*
G01*
X152795785Y-90556024D01*
X152663381Y-90593333D01*
X152498636Y-90639075D01*
X152303547Y-90759849D01*
X152119554Y-90893270D01*
X152024557Y-90922251D01*
X152050200Y-90845314D01*
X152210837Y-90675517D01*
X152407261Y-90529673D01*
X152610624Y-90438254D01*
X152763210Y-90427467D01*
X152823334Y-90508666D01*
G37*
G36*
X150684713Y-90188125D02*
G01*
X150839005Y-90299654D01*
X151013234Y-90467993D01*
X151155691Y-90640644D01*
X151214667Y-90765107D01*
X151204019Y-90782816D01*
X151116345Y-90739846D01*
X150969032Y-90602286D01*
X150908059Y-90539868D01*
X150741607Y-90396567D01*
X150630365Y-90339333D01*
X150602832Y-90335524D01*
X150537334Y-90254666D01*
X150541105Y-90230612D01*
X150628514Y-90169999D01*
X150684713Y-90188125D01*
G37*
G36*
X151373233Y-92782241D02*
G01*
X151450218Y-92847924D01*
X151606067Y-92813412D01*
X151618725Y-92807240D01*
X151785894Y-92777477D01*
X151962153Y-92805492D01*
X152088045Y-92873391D01*
X152104110Y-92963283D01*
X152044098Y-92996499D01*
X151865914Y-93029484D01*
X151628823Y-93046118D01*
X151389544Y-93045128D01*
X151204796Y-93025235D01*
X151131297Y-92985166D01*
X151143225Y-92936190D01*
X151215964Y-92794666D01*
X151296997Y-92713533D01*
X151373233Y-92782241D01*
G37*
G36*
X150326478Y-94912005D02*
G01*
X150503809Y-94976650D01*
X150792144Y-94972762D01*
X150930201Y-94958334D01*
X151085619Y-94972268D01*
X151130001Y-95046389D01*
X151107327Y-95109959D01*
X150981834Y-95168800D01*
X150917542Y-95182625D01*
X150723185Y-95273091D01*
X150495001Y-95419333D01*
X150234580Y-95596636D01*
X150079150Y-95668880D01*
X150029334Y-95633173D01*
X150032486Y-95625474D01*
X150124429Y-95553671D01*
X150303963Y-95450998D01*
X150364764Y-95419402D01*
X150501651Y-95337271D01*
X150504988Y-95284580D01*
X150388629Y-95224219D01*
X150268737Y-95133068D01*
X150198667Y-94972694D01*
X150199010Y-94945053D01*
X150226757Y-94855553D01*
X150326478Y-94912005D01*
G37*
G36*
X151431839Y-91993741D02*
G01*
X151551541Y-92003471D01*
X151761051Y-92030322D01*
X151861122Y-92058232D01*
X151864320Y-92062283D01*
X151898072Y-92177967D01*
X151927292Y-92382009D01*
X151931854Y-92432560D01*
X151935292Y-92547662D01*
X151917783Y-92519499D01*
X151866851Y-92401307D01*
X151776069Y-92397976D01*
X151647707Y-92556587D01*
X151581633Y-92655043D01*
X151510482Y-92689130D01*
X151421511Y-92590722D01*
X151362069Y-92515284D01*
X151291095Y-92494862D01*
X151201492Y-92614967D01*
X151167279Y-92667258D01*
X151088828Y-92735391D01*
X151021850Y-92665028D01*
X151000787Y-92556603D01*
X151080786Y-92355465D01*
X151152449Y-92216074D01*
X151125261Y-92069288D01*
X151106536Y-92015676D01*
X151197036Y-91987694D01*
X151431839Y-91993741D01*
G37*
G36*
X155575001Y-89072156D02*
G01*
X154972512Y-89365328D01*
X154526132Y-89630245D01*
X153974913Y-90089068D01*
X153491637Y-90639229D01*
X153119667Y-91236922D01*
X153104154Y-91267926D01*
X152958627Y-91531610D01*
X152858853Y-91648615D01*
X152795017Y-91630854D01*
X152793298Y-91627897D01*
X152782401Y-91462711D01*
X152863692Y-91220537D01*
X152873678Y-91198642D01*
X152956996Y-90919521D01*
X152976676Y-90654297D01*
X152962893Y-90554170D01*
X152892875Y-90409645D01*
X152735753Y-90356637D01*
X152557618Y-90375887D01*
X152276519Y-90503950D01*
X151993701Y-90719554D01*
X151759187Y-90990242D01*
X151580011Y-91256122D01*
X151393909Y-90873069D01*
X151387731Y-90860388D01*
X151308785Y-90696436D01*
X151270224Y-90572383D01*
X151290109Y-90468093D01*
X151386501Y-90363432D01*
X151577461Y-90238265D01*
X151881052Y-90072457D01*
X152315334Y-89845875D01*
X152454582Y-89774204D01*
X153154570Y-89449563D01*
X153776238Y-89231185D01*
X154355371Y-89108451D01*
X154927753Y-89070744D01*
X155575001Y-89072156D01*
G37*
G36*
X159524538Y-86915453D02*
G01*
X159617834Y-86901755D01*
X159664395Y-86880167D01*
X159654031Y-86917006D01*
X159651445Y-86919802D01*
X159619557Y-86946828D01*
X159568373Y-86969082D01*
X159481224Y-86987383D01*
X159341441Y-87002548D01*
X159132356Y-87015395D01*
X158837301Y-87026740D01*
X158439606Y-87037403D01*
X157922604Y-87048199D01*
X157269625Y-87059947D01*
X156464001Y-87073465D01*
X155743202Y-87085943D01*
X154964795Y-87100461D01*
X154191839Y-87115815D01*
X153465299Y-87131164D01*
X152826143Y-87145670D01*
X152315334Y-87158493D01*
X152161744Y-87162539D01*
X151625329Y-87175655D01*
X150968850Y-87190580D01*
X150228719Y-87206542D01*
X149441351Y-87222766D01*
X148643160Y-87238479D01*
X147870560Y-87252908D01*
X147343193Y-87262837D01*
X146704287Y-87275975D01*
X146136459Y-87288900D01*
X145659354Y-87301101D01*
X145292620Y-87312068D01*
X145055903Y-87321291D01*
X144968851Y-87328260D01*
X144969468Y-87394299D01*
X144984690Y-87608540D01*
X145013559Y-87949029D01*
X145054066Y-88393127D01*
X145104199Y-88918196D01*
X145161945Y-89501597D01*
X145199497Y-89876062D01*
X145264605Y-90530974D01*
X145327123Y-91166358D01*
X145383417Y-91744980D01*
X145429850Y-92229605D01*
X145462787Y-92582999D01*
X145489595Y-92873308D01*
X145561766Y-93611575D01*
X145638134Y-94339010D01*
X145716206Y-95035892D01*
X145793489Y-95682501D01*
X145867489Y-96259114D01*
X145935713Y-96746012D01*
X145995668Y-97123473D01*
X146044860Y-97371777D01*
X146080796Y-97471203D01*
X146208678Y-97526242D01*
X146363958Y-97494833D01*
X146572892Y-97345396D01*
X146640026Y-97291558D01*
X146850271Y-97130992D01*
X147151829Y-96906002D01*
X147515144Y-96638567D01*
X147910657Y-96350666D01*
X148042333Y-96255198D01*
X148422119Y-95976072D01*
X148430396Y-95969666D01*
X149267334Y-95969666D01*
X149309667Y-96011999D01*
X149352001Y-95969666D01*
X149309667Y-95927333D01*
X149267334Y-95969666D01*
X148430396Y-95969666D01*
X148687055Y-95771033D01*
X148855773Y-95622225D01*
X148946904Y-95511797D01*
X148979079Y-95421895D01*
X148970930Y-95334666D01*
X148961988Y-95296045D01*
X148915494Y-95043390D01*
X148881076Y-94775568D01*
X148862515Y-94538155D01*
X148863595Y-94376725D01*
X148888100Y-94336854D01*
X148943115Y-94357703D01*
X149088715Y-94323636D01*
X149133902Y-94304942D01*
X149341913Y-94257148D01*
X149606749Y-94227251D01*
X149710850Y-94219519D01*
X149940623Y-94190799D01*
X150071667Y-94157099D01*
X150187121Y-94107158D01*
X150365145Y-94075249D01*
X150380343Y-94061712D01*
X150360066Y-93948678D01*
X150267760Y-93760951D01*
X150266017Y-93757991D01*
X150063048Y-93276718D01*
X149999635Y-92785478D01*
X150075351Y-92320177D01*
X150289766Y-91916719D01*
X150456243Y-91753726D01*
X150651183Y-91704915D01*
X150845763Y-91820999D01*
X150910565Y-91899841D01*
X150908199Y-91947999D01*
X150904822Y-91976317D01*
X151002708Y-92064316D01*
X151019361Y-92076565D01*
X151105404Y-92159118D01*
X151084589Y-92242191D01*
X150947103Y-92381816D01*
X150789561Y-92546769D01*
X150596876Y-92870560D01*
X150538727Y-93233600D01*
X150570207Y-93430720D01*
X150657758Y-93685075D01*
X150776331Y-93931617D01*
X150900714Y-94118499D01*
X151005695Y-94193877D01*
X151143751Y-94229583D01*
X151301575Y-94346197D01*
X151364772Y-94488068D01*
X151364483Y-94493123D01*
X151364276Y-94703875D01*
X151381569Y-94894533D01*
X151409261Y-95015365D01*
X151440250Y-95016638D01*
X151465920Y-94975937D01*
X151560566Y-94958135D01*
X151597777Y-94965981D01*
X151638001Y-94883643D01*
X151646095Y-94852485D01*
X151756679Y-94733670D01*
X151955501Y-94614793D01*
X151995675Y-94595661D01*
X152377783Y-94328774D01*
X152667238Y-93937666D01*
X152676569Y-93897917D01*
X152603133Y-93952912D01*
X152455036Y-94106999D01*
X152399259Y-94167423D01*
X152243909Y-94307273D01*
X152176570Y-94305013D01*
X152196358Y-94159266D01*
X152302393Y-93868654D01*
X152362540Y-93693668D01*
X152762780Y-93693668D01*
X152792456Y-93693234D01*
X152855208Y-93595726D01*
X152901728Y-93444474D01*
X152887862Y-93400050D01*
X152812999Y-93499516D01*
X152767469Y-93598977D01*
X152762780Y-93693668D01*
X152362540Y-93693668D01*
X152369463Y-93673528D01*
X152400001Y-93516364D01*
X152398318Y-93495746D01*
X152361717Y-93329590D01*
X152318845Y-93175666D01*
X152908001Y-93175666D01*
X152950334Y-93217999D01*
X152992667Y-93175666D01*
X152950334Y-93133333D01*
X152908001Y-93175666D01*
X152318845Y-93175666D01*
X152289458Y-93070159D01*
X152197720Y-92770780D01*
X152102681Y-92484784D01*
X152020520Y-92265499D01*
X152001675Y-92159808D01*
X152097266Y-92117333D01*
X152168135Y-92102368D01*
X152284716Y-91990333D01*
X152320687Y-91931627D01*
X152451393Y-91863333D01*
X152501523Y-91854778D01*
X152569334Y-91773669D01*
X152573456Y-91746429D01*
X152641564Y-91728646D01*
X152648955Y-91735817D01*
X152700135Y-91861590D01*
X152762159Y-92102156D01*
X152823235Y-92413088D01*
X152932677Y-93052889D01*
X153095915Y-92784466D01*
X153129709Y-92726780D01*
X153201461Y-92547899D01*
X153161107Y-92455447D01*
X153157655Y-92453207D01*
X153146216Y-92362578D01*
X153293282Y-92213758D01*
X153462223Y-92094629D01*
X153616720Y-92036130D01*
X153670001Y-92104698D01*
X153669643Y-92116502D01*
X153635297Y-92276108D01*
X153564191Y-92472692D01*
X153483726Y-92639556D01*
X153421309Y-92709999D01*
X153370968Y-92740298D01*
X153290444Y-92868010D01*
X153182364Y-93110381D01*
X153157402Y-93175666D01*
X153054622Y-93444474D01*
X153039784Y-93483280D01*
X152855759Y-94002581D01*
X152814209Y-94124367D01*
X152702330Y-94474640D01*
X152622476Y-94758446D01*
X152578261Y-94956725D01*
X152573295Y-95050421D01*
X152611191Y-95020476D01*
X152695561Y-94847832D01*
X152709853Y-94816897D01*
X152828841Y-94643436D01*
X152948904Y-94572666D01*
X152953650Y-94572617D01*
X153094697Y-94505057D01*
X153138109Y-94351542D01*
X153065640Y-94174335D01*
X153005121Y-94084918D01*
X153055385Y-94095260D01*
X153064830Y-94100128D01*
X153175815Y-94060650D01*
X153303900Y-93857512D01*
X153333909Y-93797494D01*
X153439569Y-93625717D01*
X153516349Y-93556666D01*
X153541186Y-93585204D01*
X153572922Y-93738477D01*
X153585334Y-93979999D01*
X153579620Y-94132490D01*
X153548965Y-94327186D01*
X153500667Y-94403333D01*
X153433616Y-94438733D01*
X153417372Y-94561963D01*
X153472255Y-94712823D01*
X153585334Y-94826666D01*
X153726160Y-94940645D01*
X153739582Y-95038899D01*
X153619741Y-95080666D01*
X153533178Y-95049032D01*
X153440533Y-94911332D01*
X153400509Y-94812461D01*
X153321459Y-94741999D01*
X153274271Y-94753234D01*
X153259146Y-94852940D01*
X153365938Y-95042080D01*
X153379798Y-95063734D01*
X153387187Y-95090549D01*
X153419459Y-95207666D01*
X153440617Y-95284451D01*
X153440918Y-95292333D01*
X153447374Y-95461666D01*
X153452795Y-95603865D01*
X153434198Y-95814459D01*
X153424231Y-95927333D01*
X153420617Y-95968257D01*
X153348366Y-96323906D01*
X153255570Y-96575730D01*
X153240328Y-96617093D01*
X153142626Y-96817561D01*
X153086780Y-96972513D01*
X153120424Y-96998389D01*
X153243657Y-96903724D01*
X153289465Y-96863640D01*
X153399149Y-96800707D01*
X153531855Y-96810259D01*
X153753370Y-96890601D01*
X153791828Y-96906020D01*
X154010520Y-96991281D01*
X154121652Y-97013957D01*
X154170548Y-96970827D01*
X154202533Y-96858666D01*
X154257092Y-96759282D01*
X154431516Y-96689333D01*
X154436616Y-96689343D01*
X154551667Y-96709265D01*
X154588217Y-96799282D01*
X154566422Y-97006833D01*
X154552870Y-97111105D01*
X154559400Y-97255695D01*
X154563605Y-97265267D01*
X154621342Y-97396696D01*
X154760147Y-97575209D01*
X154997266Y-97832333D01*
X155183255Y-98029003D01*
X155706136Y-98583409D01*
X156125735Y-99031381D01*
X156452741Y-99384874D01*
X156697843Y-99655839D01*
X156871732Y-99856231D01*
X156985096Y-99998003D01*
X157048626Y-100093109D01*
X157073011Y-100153502D01*
X157097182Y-100172895D01*
X157206186Y-100111262D01*
X157406429Y-99932374D01*
X157703055Y-99631480D01*
X158101209Y-99203828D01*
X159103417Y-98108248D01*
X158297600Y-97580650D01*
X158042517Y-97419815D01*
X157642686Y-97187359D01*
X157269520Y-96991000D01*
X156979015Y-96861289D01*
X156731729Y-96757784D01*
X156558891Y-96662802D01*
X156508546Y-96601087D01*
X156489606Y-96573688D01*
X156648311Y-96573688D01*
X156718001Y-96604666D01*
X156762823Y-96598556D01*
X156774445Y-96548221D01*
X156762036Y-96538088D01*
X156661556Y-96548221D01*
X156648311Y-96573688D01*
X156489606Y-96573688D01*
X156477417Y-96556056D01*
X156322465Y-96478705D01*
X156076949Y-96394882D01*
X155789220Y-96322255D01*
X155599847Y-96308426D01*
X155484272Y-96355697D01*
X155405972Y-96398492D01*
X155232976Y-96403426D01*
X155103575Y-96398832D01*
X155053688Y-96418016D01*
X154914398Y-96471580D01*
X154839100Y-96508546D01*
X154594229Y-96578374D01*
X154305001Y-96618792D01*
X153881667Y-96646999D01*
X153855220Y-96326642D01*
X153828772Y-96006284D01*
X153667536Y-96199642D01*
X153662004Y-96206239D01*
X153550989Y-96320213D01*
X153503484Y-96333483D01*
X153521867Y-96238073D01*
X153595832Y-96066269D01*
X153690873Y-95910533D01*
X153768258Y-95842666D01*
X153803413Y-95778955D01*
X153809982Y-95738886D01*
X153946095Y-95738886D01*
X153980283Y-95998577D01*
X153985884Y-96028836D01*
X154045046Y-96261934D01*
X154127167Y-96376316D01*
X154263194Y-96417846D01*
X154390550Y-96418016D01*
X154370820Y-96371950D01*
X154335211Y-96332505D01*
X154305018Y-96170753D01*
X154334112Y-95878595D01*
X154360605Y-95578647D01*
X154324620Y-95385778D01*
X154229607Y-95340217D01*
X154515441Y-95340217D01*
X154548536Y-95393497D01*
X154583288Y-95439291D01*
X154667916Y-95654788D01*
X154673121Y-95964997D01*
X154666637Y-96053822D01*
X154666909Y-96248121D01*
X154712821Y-96332376D01*
X154821309Y-96350666D01*
X154835660Y-96350334D01*
X154982286Y-96282280D01*
X155080974Y-96075499D01*
X155112056Y-95990389D01*
X155243234Y-95841516D01*
X155423452Y-95851018D01*
X155641799Y-96019974D01*
X155785499Y-96120778D01*
X156015743Y-96181333D01*
X156118251Y-96178106D01*
X156183343Y-96155814D01*
X156136061Y-96101256D01*
X155962538Y-96001696D01*
X155648909Y-95844400D01*
X155380442Y-95723357D01*
X155184273Y-95668382D01*
X155092872Y-95699970D01*
X155065353Y-95722246D01*
X154934693Y-95681849D01*
X154871559Y-95630999D01*
X155532667Y-95630999D01*
X155575001Y-95673333D01*
X155617334Y-95630999D01*
X155575001Y-95588666D01*
X155532667Y-95630999D01*
X154871559Y-95630999D01*
X154712665Y-95503021D01*
X154589175Y-95393066D01*
X154515441Y-95340217D01*
X154229607Y-95340217D01*
X154225761Y-95338373D01*
X154068656Y-95444010D01*
X154063760Y-95448939D01*
X153970501Y-95577125D01*
X153946095Y-95738886D01*
X153809982Y-95738886D01*
X153834766Y-95587711D01*
X153851349Y-95313499D01*
X153859015Y-95054373D01*
X153869780Y-94934476D01*
X153887097Y-94961234D01*
X153914849Y-95122999D01*
X153930033Y-95207572D01*
X153979413Y-95355858D01*
X154030109Y-95363473D01*
X154049768Y-95324086D01*
X154065152Y-95151806D01*
X154055937Y-95105777D01*
X154073429Y-95106320D01*
X154122660Y-95114582D01*
X154223236Y-95021653D01*
X154284896Y-94952078D01*
X154362329Y-94938606D01*
X154479988Y-95016188D01*
X154676681Y-95200098D01*
X154942247Y-95419323D01*
X155192790Y-95541891D01*
X155383829Y-95539315D01*
X155494463Y-95406325D01*
X155503294Y-95351046D01*
X155462129Y-95214155D01*
X155325306Y-95026040D01*
X155074875Y-94759007D01*
X155015875Y-94699024D01*
X154804902Y-94475070D01*
X154657058Y-94302969D01*
X154601334Y-94215967D01*
X154639372Y-94194012D01*
X154804868Y-94192530D01*
X155062993Y-94221438D01*
X155371363Y-94275523D01*
X155687598Y-94349571D01*
X155831882Y-94385857D01*
X156057861Y-94438412D01*
X156286721Y-94489231D01*
X156163694Y-94837927D01*
X156130461Y-94933118D01*
X156066193Y-95124755D01*
X156040667Y-95213362D01*
X156061841Y-95243211D01*
X156186614Y-95353137D01*
X156387812Y-95510339D01*
X156551377Y-95630999D01*
X156624338Y-95684822D01*
X156855094Y-95846590D01*
X157038981Y-95965648D01*
X157134903Y-96011999D01*
X157162385Y-96016380D01*
X157226001Y-96105647D01*
X157226294Y-96113389D01*
X157251046Y-96155814D01*
X157311567Y-96259549D01*
X157524606Y-96422087D01*
X157770110Y-96548221D01*
X157830572Y-96579285D01*
X158194624Y-96709427D01*
X158234159Y-96720776D01*
X158479268Y-96793113D01*
X158571024Y-96827883D01*
X158518270Y-96831751D01*
X158329846Y-96811384D01*
X158213734Y-96799200D01*
X158041505Y-96790672D01*
X157991179Y-96804485D01*
X158003208Y-96815003D01*
X158117993Y-96907642D01*
X158321910Y-97068572D01*
X158580667Y-97270675D01*
X158835282Y-97466899D01*
X159006511Y-97587031D01*
X159098671Y-97622878D01*
X159139936Y-97584801D01*
X159158481Y-97483160D01*
X159167356Y-97310109D01*
X159096734Y-97084448D01*
X158900044Y-96940028D01*
X158794367Y-96889190D01*
X158811486Y-96871290D01*
X158982834Y-96885065D01*
X159005139Y-96887251D01*
X159184892Y-96890583D01*
X159259379Y-96865169D01*
X159263309Y-96804583D01*
X159280399Y-96589149D01*
X159308991Y-96246377D01*
X159346918Y-95801075D01*
X159392011Y-95278053D01*
X159442102Y-94702119D01*
X159495021Y-94098083D01*
X159548602Y-93490752D01*
X159600675Y-92904936D01*
X159649072Y-92365444D01*
X159691625Y-91897084D01*
X159726165Y-91524666D01*
X159732684Y-91454295D01*
X159757862Y-91174229D01*
X159793565Y-90770125D01*
X159836998Y-90273859D01*
X159885366Y-89717310D01*
X159935875Y-89132355D01*
X159977205Y-88655515D01*
X160030263Y-88066565D01*
X160075352Y-87615796D01*
X160115851Y-87284821D01*
X160155141Y-87055254D01*
X160196605Y-86908708D01*
X160243623Y-86826797D01*
X160299576Y-86791134D01*
X160367846Y-86783333D01*
X160387563Y-86783688D01*
X160458714Y-86800221D01*
X160503111Y-86859751D01*
X160522278Y-86987328D01*
X160517741Y-87208002D01*
X160491024Y-87546824D01*
X160443651Y-88028845D01*
X160432951Y-88135851D01*
X160395924Y-88521752D01*
X160349271Y-89023961D01*
X160296472Y-89604367D01*
X160241005Y-90224862D01*
X160186350Y-90847333D01*
X160162478Y-91121022D01*
X160097819Y-91855827D01*
X160024738Y-92679143D01*
X159948242Y-93534879D01*
X159873339Y-94366948D01*
X159805034Y-95119259D01*
X159754197Y-95677357D01*
X159696585Y-96320060D01*
X159653701Y-96823411D01*
X159625042Y-97204431D01*
X159610106Y-97480139D01*
X159608389Y-97667553D01*
X159619389Y-97783694D01*
X159642604Y-97845580D01*
X159677531Y-97870231D01*
X159723667Y-97874666D01*
X159760179Y-97880812D01*
X159829696Y-97977847D01*
X159850667Y-98213333D01*
X159842164Y-98398453D01*
X159795256Y-98520804D01*
X159688776Y-98551999D01*
X159664218Y-98552802D01*
X159600430Y-98571386D01*
X159549695Y-98630827D01*
X159507765Y-98752462D01*
X159470391Y-98957627D01*
X159443989Y-99178441D01*
X159433322Y-99267658D01*
X159392311Y-99703892D01*
X159343107Y-100287666D01*
X159308806Y-100697703D01*
X159259364Y-101273190D01*
X159209760Y-101836308D01*
X159166815Y-102308844D01*
X159139170Y-102623188D01*
X159115133Y-102942294D01*
X159103342Y-103163306D01*
X159106068Y-103251022D01*
X159180448Y-103266302D01*
X159381344Y-103290124D01*
X159660167Y-103315638D01*
X160189334Y-103358588D01*
X160189334Y-103125551D01*
X160191001Y-103087054D01*
X160203717Y-102940858D01*
X160229572Y-102694055D01*
X160269307Y-102340519D01*
X160323663Y-101874125D01*
X160393384Y-101288746D01*
X160479210Y-100578258D01*
X160581884Y-99736535D01*
X160702147Y-98757452D01*
X160840742Y-97634882D01*
X160998411Y-96362700D01*
X161175895Y-94934781D01*
X161373936Y-93344999D01*
X161509933Y-92252672D01*
X161645505Y-91159488D01*
X161761279Y-90220576D01*
X161858134Y-89428642D01*
X161936951Y-88776392D01*
X161998611Y-88256530D01*
X162043994Y-87861762D01*
X162073981Y-87584795D01*
X162089453Y-87418333D01*
X162093500Y-87364248D01*
X162112425Y-87110735D01*
X162125738Y-86931499D01*
X162127136Y-86918827D01*
X162207876Y-86804682D01*
X162355217Y-86774627D01*
X162496734Y-86825131D01*
X162560001Y-86952666D01*
X162570175Y-87029916D01*
X162633483Y-87089512D01*
X162788943Y-87115987D01*
X163075056Y-87121999D01*
X163364098Y-87131626D01*
X163523426Y-87165394D01*
X163554386Y-87227833D01*
X163526173Y-87261715D01*
X163347495Y-87315284D01*
X163019659Y-87333666D01*
X163017776Y-87333666D01*
X162719590Y-87345273D01*
X162557834Y-87385034D01*
X162500994Y-87460666D01*
X162500497Y-87464016D01*
X162485645Y-87602660D01*
X162460876Y-87870684D01*
X162429522Y-88230869D01*
X162394912Y-88645999D01*
X162393782Y-88659807D01*
X162357374Y-89088394D01*
X162308891Y-89636408D01*
X162252618Y-90256614D01*
X162192837Y-90901778D01*
X162133834Y-91524666D01*
X162045826Y-92442305D01*
X161948160Y-93461965D01*
X161860982Y-94373938D01*
X161781071Y-95212009D01*
X161705205Y-96009963D01*
X161630166Y-96801587D01*
X161552731Y-97620666D01*
X161524202Y-97922325D01*
X161417175Y-99044004D01*
X161323325Y-100008875D01*
X161241570Y-100826487D01*
X161170828Y-101506388D01*
X161110016Y-102058124D01*
X161058052Y-102491246D01*
X161013853Y-102815299D01*
X160976338Y-103039834D01*
X160944423Y-103174396D01*
X160917027Y-103228536D01*
X160882994Y-103256867D01*
X160887834Y-103302619D01*
X160895944Y-103304174D01*
X161036001Y-103335666D01*
X161047719Y-103338490D01*
X161213279Y-103367416D01*
X161221383Y-103369820D01*
X161260162Y-103474985D01*
X161260558Y-103715538D01*
X161223969Y-104065736D01*
X161151793Y-104499833D01*
X161107213Y-104732666D01*
X152202774Y-104713690D01*
X152052300Y-104713365D01*
X150881575Y-104710552D01*
X149783159Y-104707409D01*
X148765874Y-104703987D01*
X147838539Y-104700340D01*
X147009974Y-104696519D01*
X146289000Y-104692578D01*
X145684437Y-104688567D01*
X145205105Y-104684539D01*
X144859825Y-104680548D01*
X144657418Y-104676644D01*
X144606703Y-104672880D01*
X144716501Y-104669309D01*
X146134667Y-104643905D01*
X146134667Y-104010952D01*
X146134667Y-103377999D01*
X144478875Y-103377357D01*
X143962247Y-103369089D01*
X143578056Y-103351848D01*
X143338557Y-103326355D01*
X143256001Y-103293333D01*
X143270329Y-103254383D01*
X143383001Y-103208666D01*
X143406644Y-103208302D01*
X143455214Y-103196786D01*
X143486313Y-103152092D01*
X143499849Y-103051688D01*
X143495727Y-102873042D01*
X143473852Y-102593623D01*
X143434132Y-102190897D01*
X143376473Y-101642333D01*
X143375642Y-101634496D01*
X143316019Y-101082384D01*
X143268685Y-100680141D01*
X143229570Y-100409331D01*
X143194603Y-100251514D01*
X143159714Y-100188252D01*
X143120832Y-100201108D01*
X143073889Y-100271642D01*
X143034106Y-100377089D01*
X143034592Y-100546808D01*
X143047770Y-100606738D01*
X143005910Y-100668666D01*
X142988638Y-100675205D01*
X142911405Y-100784616D01*
X142831006Y-100986166D01*
X142816357Y-101032388D01*
X142600612Y-101637971D01*
X142335520Y-102280425D01*
X142060828Y-102862898D01*
X141794882Y-103382516D01*
X140599544Y-103359091D01*
X139404206Y-103335666D01*
X139390862Y-100287666D01*
X139390204Y-100126811D01*
X139388728Y-99284841D01*
X139391537Y-98597220D01*
X139398990Y-98051196D01*
X139411445Y-97634014D01*
X139429260Y-97332923D01*
X139452794Y-97135169D01*
X139482405Y-97027999D01*
X139515787Y-96962080D01*
X139631808Y-96738869D01*
X139791926Y-96435050D01*
X139971939Y-96096666D01*
X140040011Y-95967713D01*
X140237814Y-95577663D01*
X140417465Y-95203517D01*
X140546918Y-94911333D01*
X140655121Y-94654145D01*
X140824518Y-94266998D01*
X140990269Y-93901839D01*
X140995750Y-93890048D01*
X141123525Y-93608456D01*
X141219472Y-93384897D01*
X141263189Y-93266839D01*
X141276187Y-93217599D01*
X141335701Y-93048666D01*
X141417918Y-92838504D01*
X141501426Y-92589698D01*
X141587558Y-92287059D01*
X141686864Y-91893257D01*
X141809898Y-91370959D01*
X142059558Y-90290551D01*
X141869924Y-88536942D01*
X141680290Y-86783333D01*
X142383479Y-86783333D01*
X142542894Y-86783852D01*
X142830231Y-86791950D01*
X142994668Y-86815583D01*
X143069161Y-86862026D01*
X143086667Y-86938555D01*
X143094915Y-87025774D01*
X143145563Y-87152672D01*
X143161832Y-87172043D01*
X143221790Y-87314950D01*
X143224256Y-87327685D01*
X143261708Y-87479633D01*
X143330674Y-87737495D01*
X143418389Y-88053333D01*
X143440408Y-88139080D01*
X143507713Y-88467140D01*
X143584245Y-88915661D01*
X143664646Y-89449812D01*
X143743557Y-90034757D01*
X143815620Y-90635666D01*
X143876283Y-91218957D01*
X143970950Y-92501285D01*
X143997464Y-93676820D01*
X143956028Y-94779351D01*
X143846844Y-95842666D01*
X143803408Y-96178216D01*
X143755336Y-96643357D01*
X143738146Y-97020288D01*
X143750359Y-97357962D01*
X143790493Y-97705333D01*
X143827470Y-97970611D01*
X143880456Y-98374046D01*
X143928738Y-98763666D01*
X143938146Y-98842198D01*
X143976274Y-99156110D01*
X144029596Y-99591260D01*
X144093910Y-100113483D01*
X144165012Y-100688618D01*
X144238696Y-101282499D01*
X144478136Y-103208666D01*
X145589278Y-103206321D01*
X145919942Y-103191579D01*
X146123919Y-103165058D01*
X146179974Y-103128810D01*
X146170173Y-103098958D01*
X146138554Y-102924967D01*
X146096892Y-102628502D01*
X146049464Y-102241353D01*
X146000546Y-101795310D01*
X145989946Y-101693246D01*
X145935750Y-101174233D01*
X145881645Y-100660052D01*
X145833387Y-100205240D01*
X145796733Y-99864333D01*
X145776984Y-99678544D01*
X145738025Y-99301636D01*
X145688183Y-98811795D01*
X145633546Y-98269358D01*
X146056851Y-98269358D01*
X146062820Y-98476493D01*
X146089541Y-98820040D01*
X146096956Y-98908399D01*
X146128269Y-99259612D01*
X146157277Y-99554706D01*
X146178513Y-99737333D01*
X146196643Y-99889041D01*
X146226733Y-100174913D01*
X146263737Y-100547631D01*
X146303364Y-100964999D01*
X146342011Y-101362625D01*
X146379718Y-101716134D01*
X146411248Y-101977319D01*
X146432293Y-102107999D01*
X146447767Y-102200797D01*
X146469078Y-102432205D01*
X146484614Y-102721833D01*
X146502312Y-103208666D01*
X146992254Y-103208666D01*
X147043631Y-103208644D01*
X147301279Y-103200649D01*
X147457053Y-103157127D01*
X147569566Y-103047551D01*
X147697432Y-102841394D01*
X147765839Y-102715853D01*
X147871171Y-102475298D01*
X147912667Y-102304904D01*
X147909322Y-102282134D01*
X147863484Y-102119061D01*
X147818954Y-101980999D01*
X150579667Y-101980999D01*
X150594225Y-102304904D01*
X150598789Y-102406461D01*
X150715841Y-103002802D01*
X150944946Y-103482581D01*
X151292525Y-103857492D01*
X151765001Y-104139225D01*
X152073507Y-104254000D01*
X152622616Y-104340609D01*
X153134086Y-104265874D01*
X153597073Y-104032206D01*
X154000735Y-103642015D01*
X154159573Y-103427028D01*
X154386091Y-103011389D01*
X154507074Y-102564444D01*
X154543606Y-102023333D01*
X154527510Y-101772178D01*
X156972001Y-101772178D01*
X156972227Y-102023333D01*
X156972706Y-102553922D01*
X156973412Y-103335666D01*
X157820421Y-103361027D01*
X158189656Y-103367602D01*
X158476714Y-103358233D01*
X158639647Y-103328580D01*
X158702225Y-103276360D01*
X158708475Y-103249206D01*
X158732192Y-103072301D01*
X158759589Y-102789092D01*
X158785918Y-102446666D01*
X158791725Y-102363523D01*
X158827537Y-101902450D01*
X158871759Y-101390062D01*
X158916160Y-100922666D01*
X158959925Y-100465322D01*
X159003294Y-99935220D01*
X159030091Y-99500166D01*
X159039513Y-99178441D01*
X159030755Y-98988326D01*
X159003013Y-98948103D01*
X158998403Y-98953528D01*
X158917083Y-99061407D01*
X158756151Y-99281566D01*
X158531594Y-99591926D01*
X158259399Y-99970405D01*
X157955551Y-100394922D01*
X157608901Y-100880333D01*
X156972001Y-101772178D01*
X154527510Y-101772178D01*
X154507953Y-101467017D01*
X154379611Y-100990787D01*
X154314498Y-100880333D01*
X155786667Y-100880333D01*
X155829001Y-100922666D01*
X155871334Y-100880333D01*
X155829001Y-100837999D01*
X155786667Y-100880333D01*
X154314498Y-100880333D01*
X154141146Y-100586266D01*
X153775285Y-100212751D01*
X153553225Y-100035490D01*
X153128010Y-99784376D01*
X152713215Y-99680150D01*
X152271369Y-99716763D01*
X151765001Y-99888164D01*
X151634710Y-99949971D01*
X151347876Y-100145319D01*
X151085527Y-100429068D01*
X150810709Y-100837999D01*
X150753757Y-100934928D01*
X150739379Y-100964999D01*
X150661562Y-101127749D01*
X150608940Y-101331120D01*
X150585204Y-101597912D01*
X150579667Y-101980999D01*
X147818954Y-101980999D01*
X147771545Y-101834014D01*
X147643278Y-101454378D01*
X147496220Y-101029938D01*
X149308073Y-101029938D01*
X149354658Y-101091999D01*
X149392359Y-101077692D01*
X149436667Y-100964999D01*
X149432990Y-100907136D01*
X149403393Y-100837999D01*
X149381478Y-100853598D01*
X149321383Y-100964999D01*
X149308073Y-101029938D01*
X147496220Y-101029938D01*
X147488458Y-101007534D01*
X147316860Y-100520867D01*
X147138260Y-100021758D01*
X146962431Y-99537591D01*
X146799149Y-99095748D01*
X146658189Y-98723614D01*
X146549325Y-98448570D01*
X146482332Y-98297999D01*
X146404020Y-98217068D01*
X146222411Y-98142706D01*
X146132519Y-98135098D01*
X146077971Y-98166328D01*
X146056851Y-98269358D01*
X145633546Y-98269358D01*
X145630702Y-98241121D01*
X145569236Y-97625810D01*
X146681821Y-97625810D01*
X146697014Y-97717665D01*
X146779786Y-97928665D01*
X146917317Y-98224562D01*
X147095403Y-98572829D01*
X147256084Y-98874798D01*
X147454180Y-99247662D01*
X147622137Y-99564419D01*
X147735192Y-99778412D01*
X147799999Y-99894700D01*
X147884432Y-100001882D01*
X147912667Y-99949870D01*
X147929472Y-99892892D01*
X148041292Y-99715364D01*
X148235154Y-99475265D01*
X148484167Y-99207528D01*
X148566298Y-99124219D01*
X148801731Y-98874522D01*
X148930609Y-98710449D01*
X148967923Y-98609840D01*
X148928667Y-98550533D01*
X148895359Y-98527778D01*
X148877732Y-98481482D01*
X149013334Y-98468032D01*
X149062583Y-98462218D01*
X149234138Y-98380072D01*
X149463881Y-98189049D01*
X149771048Y-97874069D01*
X149909129Y-97727764D01*
X150140392Y-97498645D01*
X150320251Y-97340793D01*
X150418322Y-97281999D01*
X150440956Y-97274197D01*
X150508853Y-97157505D01*
X150551845Y-96943333D01*
X150556075Y-96890327D01*
X150549512Y-96729674D01*
X150759494Y-96729674D01*
X150791334Y-96775102D01*
X150930414Y-96828006D01*
X151152983Y-96857369D01*
X151340049Y-96898340D01*
X151484073Y-97070333D01*
X151554026Y-97188013D01*
X151647788Y-97273535D01*
X151706233Y-97265267D01*
X151689393Y-97148074D01*
X151666128Y-97078427D01*
X151638001Y-96931411D01*
X151631325Y-96903551D01*
X151552618Y-96901442D01*
X151476152Y-96886879D01*
X151388651Y-96758272D01*
X151333104Y-96655727D01*
X151304701Y-96679244D01*
X151295359Y-96718042D01*
X151201957Y-96763145D01*
X150981834Y-96745143D01*
X150883931Y-96731096D01*
X150759494Y-96729674D01*
X150549512Y-96729674D01*
X150547541Y-96681441D01*
X150492254Y-96604666D01*
X150397396Y-96574999D01*
X150236016Y-96472759D01*
X150137997Y-96387026D01*
X150157294Y-96356531D01*
X150325667Y-96370462D01*
X150395585Y-96377854D01*
X150521927Y-96367445D01*
X150571251Y-96276126D01*
X150579667Y-96059721D01*
X150585122Y-95912801D01*
X150630270Y-95751364D01*
X150736537Y-95688467D01*
X150787689Y-95681955D01*
X150853006Y-95713716D01*
X150874308Y-95837730D01*
X150863537Y-96091936D01*
X150854076Y-96253442D01*
X150859482Y-96430081D01*
X150904672Y-96499843D01*
X151003001Y-96501987D01*
X151065310Y-96484225D01*
X151176152Y-96355928D01*
X151299334Y-96355928D01*
X151300853Y-96371467D01*
X151377793Y-96435333D01*
X151425229Y-96457941D01*
X151494971Y-96583499D01*
X151506695Y-96627722D01*
X151531687Y-96687846D01*
X151543513Y-96583499D01*
X151544962Y-96569319D01*
X151599564Y-96461914D01*
X151680861Y-96434018D01*
X151722667Y-96512033D01*
X151777428Y-96538579D01*
X151924550Y-96493461D01*
X152048262Y-96404348D01*
X152080267Y-96277881D01*
X152075281Y-96265999D01*
X152400001Y-96265999D01*
X152401445Y-96277881D01*
X152402461Y-96286237D01*
X152484667Y-96350666D01*
X152504905Y-96348206D01*
X152513060Y-96337801D01*
X152833009Y-96337801D01*
X152944287Y-96483713D01*
X153075333Y-96590117D01*
X153128254Y-96575730D01*
X153077334Y-96435333D01*
X153005002Y-96332061D01*
X152905022Y-96265999D01*
X152865680Y-96270097D01*
X152833009Y-96337801D01*
X152513060Y-96337801D01*
X152569334Y-96265999D01*
X152566874Y-96245762D01*
X152484667Y-96181333D01*
X152464430Y-96183793D01*
X152400001Y-96265999D01*
X152075281Y-96265999D01*
X152071040Y-96255894D01*
X152013706Y-96215606D01*
X151917374Y-96317208D01*
X151828753Y-96405034D01*
X151740491Y-96388525D01*
X151669574Y-96333965D01*
X151515085Y-96292700D01*
X151366072Y-96298129D01*
X151299334Y-96355928D01*
X151176152Y-96355928D01*
X151178973Y-96352663D01*
X151188961Y-96129174D01*
X151102854Y-95883297D01*
X151402090Y-95883297D01*
X151412223Y-95983777D01*
X151437689Y-95997023D01*
X151468667Y-95927333D01*
X151462557Y-95882510D01*
X151412223Y-95870888D01*
X151402090Y-95883297D01*
X151102854Y-95883297D01*
X151090631Y-95848396D01*
X151063837Y-95799822D01*
X150901947Y-95627482D01*
X150703715Y-95614319D01*
X150452667Y-95757999D01*
X150289981Y-95873101D01*
X150156267Y-95919354D01*
X150114001Y-95840801D01*
X150129729Y-95809363D01*
X150247947Y-95697752D01*
X150440989Y-95552350D01*
X150659674Y-95406817D01*
X150854819Y-95294814D01*
X150977244Y-95249999D01*
X151002211Y-95257250D01*
X151049153Y-95355833D01*
X151049279Y-95358459D01*
X151087382Y-95508065D01*
X151170617Y-95715666D01*
X151201034Y-95779630D01*
X151246003Y-95851378D01*
X151264883Y-95814459D01*
X151261245Y-95648885D01*
X151245562Y-95430734D01*
X151492302Y-95430734D01*
X151521568Y-95529485D01*
X151541804Y-95489757D01*
X151545783Y-95461666D01*
X152569334Y-95461666D01*
X152611667Y-95503999D01*
X152654001Y-95461666D01*
X152611667Y-95419333D01*
X152569334Y-95461666D01*
X151545783Y-95461666D01*
X151554158Y-95402530D01*
X151582600Y-95292333D01*
X152823334Y-95292333D01*
X152865667Y-95334666D01*
X152908001Y-95292333D01*
X152865667Y-95249999D01*
X152823334Y-95292333D01*
X151582600Y-95292333D01*
X151604453Y-95207666D01*
X152569334Y-95207666D01*
X152611667Y-95249999D01*
X152654001Y-95207666D01*
X152611667Y-95165333D01*
X152569334Y-95207666D01*
X151604453Y-95207666D01*
X151608129Y-95193424D01*
X151611324Y-95184285D01*
X151628806Y-95090549D01*
X151558627Y-95134401D01*
X151502265Y-95237149D01*
X151492302Y-95430734D01*
X151245562Y-95430734D01*
X151238656Y-95334666D01*
X151234453Y-95284072D01*
X151197801Y-94978853D01*
X151151614Y-94750328D01*
X151104855Y-94644711D01*
X151070652Y-94603096D01*
X151069324Y-94462939D01*
X151076557Y-94439006D01*
X151035485Y-94348715D01*
X150848828Y-94295673D01*
X150698204Y-94287596D01*
X150509750Y-94348652D01*
X150290873Y-94519779D01*
X150258755Y-94549207D01*
X149930188Y-94852437D01*
X149707021Y-95067333D01*
X149570505Y-95217136D01*
X149501889Y-95325091D01*
X149482426Y-95414439D01*
X149493366Y-95508425D01*
X149506152Y-95596088D01*
X149468393Y-95890259D01*
X149405154Y-95969666D01*
X149284317Y-96121395D01*
X148944246Y-96303512D01*
X148789985Y-96367368D01*
X148515102Y-96500884D01*
X148320742Y-96620302D01*
X148293285Y-96649115D01*
X148354152Y-96646184D01*
X148533090Y-96582544D01*
X148807778Y-96465296D01*
X148820065Y-96459756D01*
X149187111Y-96276463D01*
X149445854Y-96110801D01*
X149569778Y-95979667D01*
X149594229Y-95931276D01*
X149744464Y-95788105D01*
X149914186Y-95779251D01*
X150053547Y-95892305D01*
X150112704Y-96114854D01*
X150072626Y-96234760D01*
X149948632Y-96350885D01*
X149800867Y-96401932D01*
X149691852Y-96352583D01*
X149642463Y-96330507D01*
X149481413Y-96364187D01*
X149202320Y-96478543D01*
X148792453Y-96678181D01*
X148691747Y-96729724D01*
X148379374Y-96894699D01*
X148154511Y-97021119D01*
X148029370Y-97100447D01*
X148016163Y-97124144D01*
X148127102Y-97083672D01*
X148374398Y-96970492D01*
X148433553Y-96943910D01*
X148624509Y-96882011D01*
X148730049Y-96885825D01*
X148741567Y-96898731D01*
X148752279Y-96967532D01*
X148682784Y-97010897D01*
X148504833Y-97119613D01*
X148262666Y-97266482D01*
X147808330Y-97541233D01*
X147864800Y-97316241D01*
X147886500Y-97216703D01*
X147872374Y-97131353D01*
X147768802Y-97151583D01*
X147678343Y-97186803D01*
X147449402Y-97274593D01*
X147173443Y-97379439D01*
X146991407Y-97453413D01*
X146782843Y-97554244D01*
X146681821Y-97625810D01*
X145569236Y-97625810D01*
X145568827Y-97621712D01*
X145505801Y-96985666D01*
X145458109Y-96507419D01*
X145395257Y-95891586D01*
X145335511Y-95321356D01*
X145282152Y-94827468D01*
X145238458Y-94440659D01*
X145207709Y-94191666D01*
X145201325Y-94144110D01*
X145159406Y-93808928D01*
X145107607Y-93367115D01*
X145051902Y-92870606D01*
X144998268Y-92371333D01*
X144962664Y-92031414D01*
X144900961Y-91442663D01*
X144831949Y-90784486D01*
X144761732Y-90115086D01*
X144696412Y-89492666D01*
X144695441Y-89483413D01*
X144640414Y-88946294D01*
X144591300Y-88443265D01*
X144551194Y-88007889D01*
X144523187Y-87673729D01*
X144510375Y-87474348D01*
X144493946Y-87276290D01*
X144434042Y-87118199D01*
X144308386Y-87035071D01*
X144233930Y-87005469D01*
X144153340Y-86966492D01*
X144114473Y-86932340D01*
X144126444Y-86902696D01*
X144198369Y-86877244D01*
X144339361Y-86855667D01*
X144558537Y-86837648D01*
X144865012Y-86822870D01*
X145267899Y-86811017D01*
X145776314Y-86801772D01*
X146399372Y-86794818D01*
X147146189Y-86789839D01*
X148025878Y-86786517D01*
X149047556Y-86784537D01*
X150220336Y-86783581D01*
X151553334Y-86783333D01*
X152407983Y-86783493D01*
X153653632Y-86784483D01*
X154744101Y-86786481D01*
X155688121Y-86789613D01*
X156494427Y-86794002D01*
X157171751Y-86799770D01*
X157728826Y-86807042D01*
X158174384Y-86815941D01*
X158517159Y-86826590D01*
X158765882Y-86839114D01*
X158929289Y-86853636D01*
X159016110Y-86870278D01*
X159035078Y-86889166D01*
X159010759Y-86952037D01*
X159078050Y-86910333D01*
X159258001Y-86910333D01*
X159300334Y-86952666D01*
X159342667Y-86910333D01*
X159300334Y-86867999D01*
X159258001Y-86910333D01*
X159078050Y-86910333D01*
X159093582Y-86900707D01*
X159128357Y-86877162D01*
X159294433Y-86818070D01*
X159445844Y-86820620D01*
X159512001Y-86887107D01*
X159522274Y-86910333D01*
X159524538Y-86915453D01*
G37*
D12*
%TO.C,J5*%
X146448000Y-134730000D02*
X146448000Y-129430000D01*
X149098000Y-132080000D02*
X151748000Y-132080000D01*
X149098000Y-134730000D02*
X146448000Y-134730000D01*
X149098000Y-134730000D02*
X149098000Y-132080000D01*
X150368000Y-134730000D02*
X151748000Y-134730000D01*
X151748000Y-129430000D02*
X146448000Y-129430000D01*
X151748000Y-132080000D02*
X151748000Y-129430000D01*
X151748000Y-134730000D02*
X151748000Y-133350000D01*
%TO.C,J8*%
X142384000Y-119998000D02*
X142384000Y-114698000D01*
X145034000Y-117348000D02*
X147684000Y-117348000D01*
X145034000Y-119998000D02*
X142384000Y-119998000D01*
X145034000Y-119998000D02*
X145034000Y-117348000D01*
X146304000Y-119998000D02*
X147684000Y-119998000D01*
X147684000Y-114698000D02*
X142384000Y-114698000D01*
X147684000Y-117348000D02*
X147684000Y-114698000D01*
X147684000Y-119998000D02*
X147684000Y-118618000D01*
%TD*%
%LPC*%
D13*
%TO.C,J9*%
X133858000Y-123952000D03*
D14*
X133858000Y-120452000D03*
%TD*%
D15*
%TO.C,H1*%
X128100000Y-74620000D03*
X128802944Y-72922944D03*
X128802944Y-76317056D03*
X130500000Y-72220000D03*
D16*
X130500000Y-74620000D03*
D15*
X130500000Y-77020000D03*
X132197056Y-72922944D03*
X132197056Y-76317056D03*
X132900000Y-74620000D03*
%TD*%
D17*
%TO.C,RV2*%
X156972000Y-106426000D03*
X156972000Y-108966000D03*
X156972000Y-111506000D03*
%TD*%
D18*
%TO.C,J7*%
X168910000Y-133096000D03*
D19*
X168910000Y-130556000D03*
X171450000Y-133096000D03*
X171450000Y-130556000D03*
%TD*%
D20*
%TO.C,D10*%
X132588000Y-83820000D03*
D21*
X135128000Y-83820000D03*
%TD*%
D17*
%TO.C,RV1*%
X162052000Y-106426000D03*
X162052000Y-108966000D03*
X162052000Y-111506000D03*
%TD*%
D18*
%TO.C,J4*%
X152654000Y-101954500D03*
%TD*%
D22*
%TO.C,R16*%
X156972000Y-118618000D03*
X149352000Y-118618000D03*
%TD*%
D15*
%TO.C,H3*%
X182069126Y-137479126D03*
X182772070Y-135782070D03*
X182772070Y-139176182D03*
X184469126Y-135079126D03*
D16*
X184469126Y-137479126D03*
D15*
X184469126Y-139879126D03*
X186166182Y-135782070D03*
X186166182Y-139176182D03*
X186869126Y-137479126D03*
%TD*%
D20*
%TO.C,D7*%
X152400000Y-83820000D03*
D21*
X154940000Y-83820000D03*
%TD*%
D20*
%TO.C,D8*%
X145796000Y-83820000D03*
D21*
X148336000Y-83820000D03*
%TD*%
D23*
%TO.C,J3*%
X145422500Y-75557500D03*
D24*
X141922500Y-75557500D03*
%TD*%
D20*
%TO.C,D9*%
X139192000Y-83820000D03*
D21*
X141732000Y-83820000D03*
%TD*%
D18*
%TO.C,J6*%
X172720000Y-118872000D03*
D19*
X172720000Y-116332000D03*
X175260000Y-118872000D03*
X175260000Y-116332000D03*
%TD*%
D20*
%TO.C,D4*%
X167894000Y-83566000D03*
D21*
X170434000Y-83566000D03*
%TD*%
D20*
%TO.C,D2*%
X181102000Y-83566000D03*
D21*
X183642000Y-83566000D03*
%TD*%
D20*
%TO.C,D3*%
X174498000Y-83566000D03*
D21*
X177038000Y-83566000D03*
%TD*%
D18*
%TO.C,J2*%
X181356000Y-101700500D03*
%TD*%
D22*
%TO.C,R9*%
X162052000Y-118872000D03*
X169672000Y-118872000D03*
%TD*%
D15*
%TO.C,H2*%
X182060000Y-74620000D03*
X182762944Y-72922944D03*
X182762944Y-76317056D03*
X184460000Y-72220000D03*
D16*
X184460000Y-74620000D03*
D15*
X184460000Y-77020000D03*
X186157056Y-72922944D03*
X186157056Y-76317056D03*
X186860000Y-74620000D03*
%TD*%
%TO.C,H4*%
X128090874Y-137479126D03*
X128793818Y-135782070D03*
X128793818Y-139176182D03*
X130490874Y-135079126D03*
D16*
X130490874Y-137479126D03*
D15*
X130490874Y-139879126D03*
X132187930Y-135782070D03*
X132187930Y-139176182D03*
X132890874Y-137479126D03*
%TD*%
D23*
%TO.C,J1*%
X174124500Y-75303500D03*
D24*
X170624500Y-75303500D03*
%TD*%
D20*
%TO.C,D5*%
X161290000Y-83566000D03*
D21*
X163830000Y-83566000D03*
%TD*%
D18*
%TO.C,J5*%
X150368000Y-133350000D03*
D19*
X150368000Y-130810000D03*
X147828000Y-133350000D03*
X147828000Y-130810000D03*
%TD*%
D18*
%TO.C,J8*%
X146304000Y-118618000D03*
D19*
X146304000Y-116078000D03*
X143764000Y-118618000D03*
X143764000Y-116078000D03*
%TD*%
%LPD*%
M02*
