%TF.GenerationSoftware,KiCad,Pcbnew,9.0.6*%
%TF.CreationDate,2026-01-06T23:31:54+01:00*%
%TF.ProjectId,uMule_transmiter,754d756c-655f-4747-9261-6e736d697465,rev?*%
%TF.SameCoordinates,Original*%
%TF.FileFunction,Soldermask,Bot*%
%TF.FilePolarity,Negative*%
%FSLAX46Y46*%
G04 Gerber Fmt 4.6, Leading zero omitted, Abs format (unit mm)*
G04 Created by KiCad (PCBNEW 9.0.6) date 2026-01-06 23:31:54*
%MOMM*%
%LPD*%
G01*
G04 APERTURE LIST*
G04 Aperture macros list*
%AMRoundRect*
0 Rectangle with rounded corners*
0 $1 Rounding radius*
0 $2 $3 $4 $5 $6 $7 $8 $9 X,Y pos of 4 corners*
0 Add a 4 corners polygon primitive as box body*
4,1,4,$2,$3,$4,$5,$6,$7,$8,$9,$2,$3,0*
0 Add four circle primitives for the rounded corners*
1,1,$1+$1,$2,$3*
1,1,$1+$1,$4,$5*
1,1,$1+$1,$6,$7*
1,1,$1+$1,$8,$9*
0 Add four rect primitives between the rounded corners*
20,1,$1+$1,$2,$3,$4,$5,0*
20,1,$1+$1,$4,$5,$6,$7,0*
20,1,$1+$1,$6,$7,$8,$9,0*
20,1,$1+$1,$8,$9,$2,$3,0*%
G04 Aperture macros list end*
%ADD10RoundRect,0.250000X1.550000X-0.650000X1.550000X0.650000X-1.550000X0.650000X-1.550000X-0.650000X0*%
%ADD11O,3.600000X1.800000*%
%ADD12C,0.800000*%
%ADD13C,6.400000*%
%ADD14C,1.440000*%
%ADD15R,1.700000X1.700000*%
%ADD16C,1.700000*%
%ADD17R,1.800000X1.800000*%
%ADD18C,1.800000*%
%ADD19C,1.600000*%
%ADD20RoundRect,0.250000X0.650000X1.550000X-0.650000X1.550000X-0.650000X-1.550000X0.650000X-1.550000X0*%
%ADD21O,1.800000X3.600000*%
G04 APERTURE END LIST*
D10*
%TO.C,J9*%
X133858000Y-123952000D03*
D11*
X133858000Y-120452000D03*
%TD*%
D12*
%TO.C,H1*%
X128100000Y-74620000D03*
X128802944Y-72922944D03*
X128802944Y-76317056D03*
X130500000Y-72220000D03*
D13*
X130500000Y-74620000D03*
D12*
X130500000Y-77020000D03*
X132197056Y-72922944D03*
X132197056Y-76317056D03*
X132900000Y-74620000D03*
%TD*%
D14*
%TO.C,RV2*%
X156972000Y-106426000D03*
X156972000Y-108966000D03*
X156972000Y-111506000D03*
%TD*%
D15*
%TO.C,J7*%
X168910000Y-133096000D03*
D16*
X168910000Y-130556000D03*
X171450000Y-133096000D03*
X171450000Y-130556000D03*
%TD*%
D17*
%TO.C,D10*%
X132588000Y-83820000D03*
D18*
X135128000Y-83820000D03*
%TD*%
D14*
%TO.C,RV1*%
X162052000Y-106426000D03*
X162052000Y-108966000D03*
X162052000Y-111506000D03*
%TD*%
D15*
%TO.C,J4*%
X152654000Y-101954500D03*
%TD*%
D19*
%TO.C,R16*%
X156972000Y-118618000D03*
X149352000Y-118618000D03*
%TD*%
D12*
%TO.C,H3*%
X182069126Y-137479126D03*
X182772070Y-135782070D03*
X182772070Y-139176182D03*
X184469126Y-135079126D03*
D13*
X184469126Y-137479126D03*
D12*
X184469126Y-139879126D03*
X186166182Y-135782070D03*
X186166182Y-139176182D03*
X186869126Y-137479126D03*
%TD*%
D17*
%TO.C,D7*%
X152400000Y-83820000D03*
D18*
X154940000Y-83820000D03*
%TD*%
D17*
%TO.C,D8*%
X145796000Y-83820000D03*
D18*
X148336000Y-83820000D03*
%TD*%
D20*
%TO.C,J3*%
X145422500Y-75557500D03*
D21*
X141922500Y-75557500D03*
%TD*%
D17*
%TO.C,D9*%
X139192000Y-83820000D03*
D18*
X141732000Y-83820000D03*
%TD*%
D15*
%TO.C,J6*%
X172720000Y-118872000D03*
D16*
X172720000Y-116332000D03*
X175260000Y-118872000D03*
X175260000Y-116332000D03*
%TD*%
D17*
%TO.C,D4*%
X167894000Y-83566000D03*
D18*
X170434000Y-83566000D03*
%TD*%
D17*
%TO.C,D2*%
X181102000Y-83566000D03*
D18*
X183642000Y-83566000D03*
%TD*%
D17*
%TO.C,D3*%
X174498000Y-83566000D03*
D18*
X177038000Y-83566000D03*
%TD*%
D15*
%TO.C,J2*%
X181356000Y-101700500D03*
%TD*%
D19*
%TO.C,R9*%
X162052000Y-118872000D03*
X169672000Y-118872000D03*
%TD*%
D12*
%TO.C,H2*%
X182060000Y-74620000D03*
X182762944Y-72922944D03*
X182762944Y-76317056D03*
X184460000Y-72220000D03*
D13*
X184460000Y-74620000D03*
D12*
X184460000Y-77020000D03*
X186157056Y-72922944D03*
X186157056Y-76317056D03*
X186860000Y-74620000D03*
%TD*%
%TO.C,H4*%
X128090874Y-137479126D03*
X128793818Y-135782070D03*
X128793818Y-139176182D03*
X130490874Y-135079126D03*
D13*
X130490874Y-137479126D03*
D12*
X130490874Y-139879126D03*
X132187930Y-135782070D03*
X132187930Y-139176182D03*
X132890874Y-137479126D03*
%TD*%
D20*
%TO.C,J1*%
X174124500Y-75303500D03*
D21*
X170624500Y-75303500D03*
%TD*%
D17*
%TO.C,D5*%
X161290000Y-83566000D03*
D18*
X163830000Y-83566000D03*
%TD*%
D15*
%TO.C,J5*%
X150368000Y-133350000D03*
D16*
X150368000Y-130810000D03*
X147828000Y-133350000D03*
X147828000Y-130810000D03*
%TD*%
D15*
%TO.C,J8*%
X146304000Y-118618000D03*
D16*
X146304000Y-116078000D03*
X143764000Y-118618000D03*
X143764000Y-116078000D03*
%TD*%
M02*
