M48
; DRILL file {KiCad 9.0.6} date 2026-01-06T23:31:54+0100
; FORMAT={-:-/ absolute / inch / decimal}
; #@! TF.CreationDate,2026-01-06T23:31:54+01:00
; #@! TF.GenerationSoftware,Kicad,Pcbnew,9.0.6
; #@! TF.FileFunction,Plated,1,2,PTH
FMAT,2
INCH
; #@! TA.AperFunction,Plated,PTH,ViaDrill
T1C0.0118
; #@! TA.AperFunction,Plated,PTH,ComponentDrill
T2C0.0197
; #@! TA.AperFunction,Plated,PTH,ComponentDrill
T3C0.0315
; #@! TA.AperFunction,Plated,PTH,ComponentDrill
T4C0.0354
; #@! TA.AperFunction,Plated,PTH,ComponentDrill
T5C0.0394
; #@! TA.AperFunction,Plated,PTH,ComponentDrill
T6C0.0472
; #@! TA.AperFunction,Plated,PTH,ComponentDrill
T7C0.1260
%
G90
G05
T1
X5.2Y-3.39
X5.24Y-3.71
X5.24Y-3.77
X5.24Y-3.84
X5.24Y-3.91
X5.25Y-5.04
X5.25Y-5.1
X5.26Y-3.97
X5.26Y-4.01
X5.26Y-4.05
X5.26Y-4.09
X5.27Y-3.46
X5.27Y-4.14
X5.28Y-3.39
X5.31Y-4.17
X5.31Y-4.21
X5.31Y-4.25
X5.31Y-4.29
X5.31Y-4.34
X5.31Y-4.39
X5.31Y-4.44
X5.31Y-5.13
X5.32Y-3.97
X5.32Y-4.01
X5.32Y-4.05
X5.32Y-4.09
X5.32Y-4.51
X5.33Y-3.44
X5.33Y-3.52
X5.33Y-3.7
X5.34Y-3.74
X5.35Y-3.8
X5.36Y-3.7
X5.37Y-4.55
X5.38Y-3.49
X5.38Y-3.57
X5.38Y-4.66
X5.38Y-4.73
X5.38Y-4.79
X5.38Y-5.16
X5.39Y-3.79
X5.4Y-3.71
X5.41Y-4.58
X5.41Y-4.62
X5.42Y-3.92
X5.42Y-3.98
X5.42Y-4.05
X5.42Y-4.11
X5.42Y-4.18
X5.42Y-4.27
X5.42Y-4.33
X5.42Y-4.38
X5.42Y-4.43
X5.42Y-4.98
X5.43Y-3.54
X5.43Y-3.62
X5.43Y-5.16
X5.44Y-3.7
X5.46Y-4.23
X5.46Y-4.48
X5.46Y-4.98
X5.47Y-3.58
X5.47Y-3.66
X5.47Y-4.32
X5.47Y-4.81
X5.49Y-3.92
X5.49Y-5.16
X5.5Y-3.61
X5.5Y-4.27
X5.5Y-4.98
X5.51Y-4.36
X5.51Y-4.44
X5.51Y-4.84
X5.52Y-4.58
X5.52Y-4.62
X5.52Y-4.65
X5.53Y-3.56
X5.53Y-4.7
X5.54Y-3.92
X5.54Y-4.31
X5.54Y-4.4
X5.54Y-4.98
X5.54Y-5.16
X5.55Y-4.87
X5.56Y-3.51
X5.56Y-3.77
X5.56Y-3.87
X5.56Y-4.55
X5.57Y-3.72
X5.57Y-4.74
X5.58Y-4.35
X5.58Y-4.9
X5.58Y-4.94
X5.58Y-4.98
X5.59Y-3.88
X5.59Y-5.16
X5.61Y-3.71
X5.62Y-3.49
X5.62Y-3.67
X5.62Y-4.14
X5.62Y-4.2
X5.62Y-4.26
X5.62Y-4.32
X5.62Y-4.79
X5.63Y-3.88
X5.64Y-3.71
X5.64Y-4.5
X5.65Y-3.52
X5.65Y-3.57
X5.65Y-3.61
X5.66Y-3.67
X5.66Y-3.88
X5.66Y-3.93
X5.66Y-4.09
X5.66Y-4.83
X5.66Y-5.17
X5.66Y-5.22
X5.67Y-3.49
X5.67Y-3.71
X5.67Y-4.44
X5.675Y-4.155
X5.69Y-4.88
X5.69Y-4.93
X5.69Y-4.98
X5.69Y-5.09
X5.69Y-5.13
X5.69Y-5.27
X5.7Y-3.88
X5.7Y-3.93
X5.7Y-4.05
X5.7Y-5.03
X5.71Y-3.49
X5.72Y-5.19
X5.73Y-4.19
X5.73Y-4.5
X5.73Y-5.09
X5.73Y-5.13
X5.73Y-5.31
X5.74Y-4.01
X5.74Y-5.05
X5.75Y-3.49
X5.75Y-3.93
X5.75Y-5.25
X5.76Y-3.86
X5.76Y-4.77
X5.77Y-3.64
X5.77Y-3.69
X5.77Y-3.75
X5.77Y-3.81
X5.77Y-4.19
X5.77Y-5.35
X5.78Y-4.12
X5.78Y-5.07
X5.79Y-3.49
X5.79Y-3.89
X5.79Y-3.97
X5.8Y-3.61
X5.81Y-3.81
X5.81Y-4.82
X5.81Y-5.39
X5.82Y-4.08
X5.83Y-3.66
X5.83Y-3.7
X5.83Y-3.75
X5.83Y-3.93
X5.83Y-4.19
X5.83Y-4.74
X5.83Y-5.33
X5.84Y-3.49
X5.84Y-4.12
X5.85Y-5.07
X5.86Y-3.64
X5.86Y-3.81
X5.86Y-4.04
X5.86Y-4.08
X5.87Y-4.79
X5.87Y-4.87
X5.88Y-3.49
X5.88Y-5.34
X5.88Y-5.4
X5.89Y-4.12
X5.9Y-4.19
X5.92Y-3.49
X5.92Y-4.42
X5.92Y-4.5
X5.92Y-4.57
X5.92Y-4.63
X5.92Y-4.71
X5.92Y-4.78
X5.92Y-4.84
X5.92Y-4.92
X5.92Y-4.98
X5.92Y-5.05
X5.94Y-3.64
X5.94Y-5.4
X5.95Y-5.34
X5.96Y-3.49
X5.96Y-3.95
X5.96Y-4.36
X5.97Y-4.19
X5.98Y-4.43
X5.98Y-4.5
X5.98Y-4.57
X5.98Y-4.64
X5.98Y-4.72
X5.98Y-4.92
X5.98Y-4.98
X5.98Y-5.06
X5.98Y-5.15
X5.98Y-5.23
X5.99Y-3.53
X5.99Y-3.59
X5.99Y-3.69
X5.99Y-3.76
X6.0Y-3.91
X6.0Y-5.4
X6.01Y-4.86
X6.01Y-5.1
X6.02Y-3.66
X6.02Y-4.31
X6.02Y-5.14
X6.02Y-5.2
X6.03Y-3.56
X6.03Y-4.17
X6.03Y-4.38
X6.03Y-5.3
X6.03Y-5.34
X6.04Y-3.74
X6.04Y-3.87
X6.04Y-4.47
X6.04Y-4.58
X6.04Y-4.92
X6.04Y-4.98
X6.04Y-5.43
X6.05Y-4.72
X6.06Y-3.62
X6.06Y-5.24
X6.06Y-5.28
X6.07Y-3.47
X6.07Y-3.52
X6.07Y-4.26
X6.07Y-4.34
X6.07Y-4.95
X6.09Y-3.84
X6.09Y-4.07
X6.09Y-4.13
X6.09Y-4.79
X6.09Y-4.83
X6.09Y-4.99
X6.09Y-5.2
X6.1Y-3.58
X6.1Y-3.74
X6.1Y-5.41
X6.1Y-5.49
X6.11Y-4.3
X6.12Y-4.67
X6.13Y-3.47
X6.13Y-3.52
X6.13Y-4.2
X6.13Y-4.45
X6.13Y-4.6
X6.13Y-5.0335
X6.14Y-4.34
X6.14Y-4.73
X6.14Y-4.8
X6.14Y-4.86
X6.14Y-5.45
X6.15Y-5.11
X6.16Y-3.74
X6.16Y-3.84
X6.2Y-5.0335
X6.21Y-4.73
X6.21Y-4.81
X6.21Y-5.11
X6.22Y-4.34
X6.22Y-4.45
X6.22Y-4.53
X6.22Y-4.6
X6.23Y-3.74
X6.23Y-3.84
X6.23Y-4.89
X6.24Y-4.67
X6.2549Y-5.0335
X6.26Y-4.91
X6.26Y-5.22
X6.26Y-5.26
X6.28Y-5.48
X6.3Y-3.74
X6.3Y-3.84
X6.3Y-4.91
X6.3Y-5.23
X6.31Y-5.03
X6.31Y-5.1
X6.31Y-5.47
X6.33Y-4.89
X6.34Y-4.45
X6.34Y-4.56
X6.34Y-4.63
X6.35Y-4.34
X6.35Y-4.74
X6.35Y-4.81
X6.36Y-3.74
X6.36Y-3.84
X6.36Y-5.03
X6.36Y-5.1
X6.36Y-5.43
X6.38Y-3.44
X6.38Y-3.89
X6.39Y-3.36
X6.39Y-4.24
X6.41Y-4.44
X6.41Y-4.74
X6.41Y-4.8
X6.41Y-5.03
X6.41Y-5.1
X6.41Y-5.38
X6.42Y-3.97
X6.42Y-4.34
X6.42Y-4.86
X6.43Y-3.49
X6.43Y-4.2
X6.4495Y-3.4205
X6.46Y-3.91
X6.46Y-4.01
X6.46Y-4.31
X6.46Y-4.61
X6.46Y-4.83
X6.47Y-3.73
X6.47Y-4.79
X6.47Y-5.13
X6.47Y-5.19
X6.48Y-3.54
X6.48Y-3.7
X6.48Y-3.79
X6.48Y-4.25
X6.49Y-4.96
X6.49Y-5.22
X6.49Y-5.28
X6.49Y-5.33
X6.5Y-3.95
X6.5Y-4.05
X6.5Y-4.46
X6.51Y-3.86
X6.51Y-4.36
X6.51Y-4.72
X6.52Y-3.7
X6.52Y-3.78
X6.52Y-4.53
X6.53Y-3.49
X6.53Y-3.59
X6.53Y-3.9
X6.53Y-4.3
X6.53Y-4.92
X6.54Y-3.99
X6.54Y-4.09
X6.54Y-5.13
X6.5503Y-4.8603
X6.56Y-3.7
X6.56Y-3.93
X6.56Y-4.41
X6.56Y-5.19
X6.57Y-3.63
X6.58Y-3.54
X6.58Y-3.67
X6.58Y-4.03
X6.58Y-4.13
X6.58Y-4.35
X6.58Y-4.47
X6.58Y-4.54
X6.58Y-4.61
X6.58Y-4.67
X6.58Y-4.73
X6.58Y-4.92
X6.58Y-4.96
X6.58Y-5.03
X6.58Y-5.11
X6.59Y-5.23
X6.61Y-3.98
X6.62Y-4.07
X6.62Y-4.17
X6.63Y-3.59
X6.64Y-4.41
X6.64Y-4.5
X6.64Y-4.56
X6.64Y-4.62
X6.64Y-4.73
X6.64Y-4.8
X6.64Y-4.85
X6.64Y-4.92
X6.64Y-4.98
X6.64Y-5.02
X6.64Y-5.07
X6.65Y-4.02
X6.66Y-3.55
X6.66Y-4.11
X6.66Y-4.21
X6.68Y-3.69
X6.68Y-3.75
X6.69Y-3.51
X6.69Y-4.79
X6.7Y-4.15
X6.7Y-4.25
X6.71Y-4.87
X6.72Y-3.87
X6.72Y-4.09
X6.73Y-3.48
X6.73Y-4.75
X6.74Y-3.7
X6.74Y-4.29
X6.75Y-3.66
X6.75Y-3.86
X6.75Y-4.19
X6.75Y-4.83
X6.77Y-3.7
X6.77Y-4.33
X6.77Y-4.38
X6.77Y-4.44
X6.77Y-4.49
X6.78Y-3.48
X6.78Y-3.53
X6.78Y-3.58
X6.78Y-3.86
X6.78Y-4.13
X6.78Y-4.24
X6.79Y-3.66
X6.79Y-3.89
X6.8Y-3.7
X6.8Y-4.78
X6.81Y-3.86
X6.82Y-3.91
X6.82Y-4.19
X6.83Y-3.48
X6.83Y-4.28
X6.83Y-4.34
X6.83Y-4.39
X6.83Y-4.44
X6.83Y-4.49
X6.84Y-3.88
X6.85Y-4.13
X6.89Y-3.85
X6.89Y-3.93
X6.89Y-4.19
X6.9Y-3.48
X6.9Y-3.62
X6.9Y-3.67
X6.9Y-3.73
X6.91Y-4.13
X6.93Y-3.89
X6.94Y-3.98
X6.95Y-4.19
X6.96Y-3.62
X6.96Y-3.67
X6.96Y-3.73
X6.97Y-3.48
X6.97Y-3.93
X6.98Y-4.13
X6.99Y-3.81
X6.99Y-3.86
X6.99Y-4.03
X7.01Y-3.64
X7.01Y-4.19
X7.04Y-3.48
X7.06Y-4.13
X7.07Y-3.64
X7.07Y-4.2
X7.09Y-3.86
X7.09Y-3.91
X7.1Y-3.49
X7.1Y-3.54
X7.1Y-3.72
X7.1Y-3.79
X7.12Y-4.16
X7.13Y-3.58
X7.13Y-3.67
X7.15Y-4.17
X7.17Y-3.54
X7.18Y-3.62
X7.2Y-3.42
X7.2Y-3.48
X7.22Y-3.58
X7.26Y-3.42
X7.26Y-3.48
X7.26Y-3.54
T2
X5.0429Y-5.4126
X5.0433Y-2.9378
X5.0706Y-5.3458
X5.0706Y-5.4794
X5.071Y-2.871
X5.071Y-3.0046
X5.1374Y-5.3181
X5.1374Y-5.5071
X5.1378Y-2.8433
X5.1378Y-3.0323
X5.2042Y-5.3458
X5.2042Y-5.4794
X5.2046Y-2.871
X5.2046Y-3.0046
X5.2319Y-5.4126
X5.2323Y-2.9378
X7.1677Y-2.9378
X7.1681Y-5.4126
X7.1954Y-2.871
X7.1954Y-3.0046
X7.1958Y-5.3458
X7.1958Y-5.4794
X7.2622Y-2.8433
X7.2622Y-3.0323
X7.2626Y-5.3181
X7.2626Y-5.5071
X7.329Y-2.871
X7.329Y-3.0046
X7.3294Y-5.3458
X7.3294Y-5.4794
X7.3567Y-2.9378
X7.3571Y-5.4126
T3
X5.88Y-4.67
X6.18Y-4.19
X6.18Y-4.29
X6.18Y-4.39
X6.18Y-4.67
X6.38Y-4.19
X6.38Y-4.29
X6.38Y-4.39
X6.38Y-4.68
X6.68Y-4.68
T4
X5.22Y-3.3
X5.32Y-3.3
X5.48Y-3.3
X5.58Y-3.3
X5.74Y-3.3
X5.84Y-3.3
X6.0Y-3.3
X6.1Y-3.3
X6.35Y-3.29
X6.45Y-3.29
X6.61Y-3.29
X6.71Y-3.29
X6.87Y-3.29
X6.97Y-3.29
X7.13Y-3.29
X7.23Y-3.29
T5
X5.66Y-4.57
X5.66Y-4.67
X5.76Y-4.57
X5.76Y-4.67
X5.82Y-5.15
X5.82Y-5.25
X5.92Y-5.15
X5.92Y-5.25
X6.01Y-4.014
X6.65Y-5.14
X6.65Y-5.24
X6.75Y-5.14
X6.75Y-5.24
X6.8Y-4.58
X6.8Y-4.68
X6.9Y-4.58
X6.9Y-4.68
X7.14Y-4.004
T6
X5.27Y-4.7422
X5.27Y-4.88
X5.5875Y-2.9747
X5.7253Y-2.9747
X6.7175Y-2.9647
X6.8553Y-2.9647
T7
X5.1374Y-5.4126
X5.1378Y-2.9378
X7.2622Y-2.9378
X7.2626Y-5.4126
M30
